<svg xmlns:svg="http://www.w3.org/2000/svg" xmlns="http://www.w3.org/2000/svg" xml:space="preserve" viewBox="0 0 772.24 517.67" version="1.1"><path d="m307.17 19.33c-3.82-4.4-8.68-6.82-13.89-7.59-5-4.39-10.9-4.06-16.33-1.59-0.14-0.12-0.35-0.17-0.56-0.05-22.43 11.72-29.8 45.1-14.67 63.88 0.69 1.27 1.46 2.48 2.3 3.64 0.34 0.23 0.67 0.51 0.99 0.83 1.39 1.43 2.79 2.96 4.08 4.55 0.66 0.53 1.33 1.05 2.04 1.52-0.23 0.08-0.46 0.16-0.69 0.25 0.28 0.39 0.57 0.77 0.83 1.17 0.49-0.14 0.98-0.29 1.47-0.43 0.49 0.28 1 0.53 1.5 0.77 0.56-0.49 1.25-0.88 2.14-1.09 0.11-0.03 0.22-0.04 0.33-0.07-0.32-0.12-0.64-0.24-0.94-0.38 4.8-1.12 9.68-1.86 14.6-2.29 3.02-0.27 6.03-0.23 9.03-0.15-0.04 0.03-0.08 0.06-0.13 0.09 1.06-0.08 2.13-0.07 3.19 0 0 0 0.01 0 0.01-0.01 2.31 0.06 4.62 0.09 6.94-0.02 0.67-0.03 0.72-0.96 0.1-1.14-1.56-0.44-3.19-0.77-4.85-1.01 7.58-8.36 10.62-20.64 11.05-31.6 0.39-10.05-1.75-21.49-8.53-29.28zm-33.54 64.35c-1.1-0.62-2.12-1.32-3.09-2.09 1.17 0.69 2.4 1.32 3.7 1.9-0.2 0.06-0.41 0.12-0.61 0.19zm36.34-15.97c-1.82 4.64-4.46 8.9-7.82 12.21-7.96-0.72-16.64 0.48-24.44 2.57-0.02-0.44-0.26-0.86-0.83-1.09-7.09-2.84-12.15-7.51-15.45-13.17-3.63-10.07-3.57-22.35-1.62-32.03 1.42-7.01 4.26-12.97 9.23-18.14 2.36-2.45 5.29-4.76 8.44-6.27 0.42-0.27 0.89-0.5 1.44-0.67 0.16-0.05 0.32-0.08 0.49-0.13 3.56-1.27 7.29-1.42 10.7 0.48-0.07 0-0.14 0-0.2 0 2.15 0.76 4.15 1.92 5.83 3.45 0.06 0.04 0.11 0.08 0.17 0.12 6.28 2.07 11.36 6.73 14.48 14.23 4.94 11.88 4.21 26.6-0.42 38.45zM311.15 43.69 311.15 43.69 311.15 43.69 311.15 43.69 311.15 43.69 311.15 43.69c-0.61-2.92-2.16-5.32-4.64-6.48 0.19-0.26 0.25-0.6 0.05-0.91-3.56-5.36-7.46 1.61-8.6 4.97-1.81 5.31-2.56 14.66 3.68 17.41 0.27 0.27 0.68 0.41 1.06 0.39 7.71 2.25 9.55-10.09 8.44-15.37zm-6.3-1.41c-0.02 0.1-0.05 0.19-0.08 0.28-0.46 1.48-2.16 2.25-3.54 1.44-1.19-0.69-1.46-2.12-0.86-3.3-0.04 0.1-0.08 0.21-0.12 0.31 0.25-0.6 0.51-1.08 1.1-1.43 0.55-0.32 1.22-0.41 1.84-0.24 1.29 0.36 1.97 1.67 1.67 2.94zM251.28 291.5c-3.55-6.05-11.61-3.16-13.88 2.42-0.4 0.98 1.01 1.77 1.48 0.78 1.08-2.31 3.35-3.83 5.87-4.18 1.39-0.19 2.6 0.28 3.61 1.21 0.87 0.81 0.93 1.61 2.21 1.67 0.25 0.01 0.45-0.17 0.57-0.36 0.07-0.1 0.13-0.2 0.19-0.31 0.24-0.37 0.16-0.88-0.05-1.24zM252.55 263.4c-0.58 0.39-0.63 1.04-0.35 1.61 0.65 1.35 5.6 2.31 3.03 4.08-1.88 1.29-4.46 1.32-5.92-0.54-1.14-1.46-1.29-3.48-0.86-5.21 0.55-2.23 2.41-3.19 4.28-4.15 0.54-0.27 0.21-1.1-0.34-1.07-6.19 0.31-7.96 9.8-2.95 12.94 2.76 1.73 6.95 0.81 8.72-1.93 1.81-2.8-2.9-7.52-5.6-5.73z"/><path d="m359.86 95.68c0.01 0 0.01-0.02 0-0.02" style="fill:none;stroke-linecap:round;stroke-linejoin:round"/><path d="m165.15 292.49c-0.82-0.77-1.59-1.27-2.75-1.35-1.56-0.09-3.67 0.23-4.69 1.54-0.26 0.34-0.16 0.88 0.31 0.98 1.25 0.26 2.49-0.26 3.72-0.45 0.82-0.13 2.22-0.58 2.97-0.07 0.38 0.26 0.77-0.35 0.45-0.64zM151.13 291.25 151.13 291.25 151.13 291.25 151.13 291.25 151.13 291.25 151.13 291.25c-1.79-0.89-3.67-0.98-5.49-0.12-1.37 0.65-3.85 2.62-3.08 4.37 0.15 0.34 0.45 0.52 0.83 0.42 1.18-0.31 1.84-1.87 2.88-2.56 1.29-0.85 3.1-0.91 4.59-0.85 0.68 0.03 0.86-0.98 0.28-1.27zM149.65 304.68c-0.2-0.42-0.85-0.08-0.71 0.34 0.5 1.55 0.63 3.12 0.58 4.73-0.04 1.4-0.47 2.7-0.19 4.08 0.07 0.33 0.58 0.35 0.72 0.06 0.7-1.46 0.57-3.24 0.58-4.83 0.01-1.56-0.29-2.98-0.98-4.38zM270.74 302.67c-0.59-1.35-1.26-2.66-1.99-3.93-0.6-1.06-2.14-0.04-1.58 1.02 0.61 1.15 1.16 2.33 1.66 3.53 0.43 1.02 0.66 2.36 1.57 3.08 0.41 0.33 0.96 0.16 1.11-0.34 0.35-1.13-0.32-2.33-0.76-3.35zM375.51 52.17c-2.43-15.69-10.05-30.47-22.74-40.24-15.25-11.74-35.6-13.06-54.06-11.29C276.04 2.82 254.33 11.15 233.86 20.74c-0.25 0.12-0.32 0.36-0.29 0.57-1.88 0.8-3.76 1.6-5.56 2.59-0.25 0.14-0.34 0.37-0.34 0.6-10.38-5.7-23.74 11.51-18.64 20.99 0.33 0.61 1.29 0.25 1.25-0.4-0.27-5.11 0.78-9.52 3.79-13.74 2.79-3.91 7.36-6.92 12.21-5.86-6.2 0.81-6.34 18.11-0.88 21.12 0.68 0.38 1.26-0.42 0.94-1.03-1.85-3.54-5.05-16.37 0.7-18.05 8.66 8.57 12.22 20.71 15.21 32.22 3.81 14.64 6.41 29.62 9.49 44.43 3.38 16.28 6.74 33.78 7.93 51.27-0.2 5.78-0.5 11.55-0.96 17.31-0.67 8.43-1.77 16.74-3.02 25.04-2.17-1.55-6.31-0.65-8.51 0-0.61 0.18-0.77 0.84-0.61 1.35-0.28 0.45-0.52 1.03-0.73 1.69-0.09-0.24-0.21-0.46-0.36-0.68-0.12-0.36-0.27-0.71-0.34-0.98-0.12-0.44-0.24-0.89-0.29-1.34-0.01-0.1-0.02-0.2-0.04-0.29 0-0.03 0-0.06 0-0.09 0-0.04 0.01-0.07 0-0.11 0.16-11.65-6.79-24.84-14.87-32.61-7.23-6.96-17.72-9.54-27.56-8.45-2.39 0.03-4.8 0.3-7.12 0.83-0.2 0.03-0.4 0.06-0.59 0.09-1.23 0.19-2.43 0.48-3.54 0.93-9.51-0.42-19.89 16.78-22.66 23.5-3.13 7.6-3.15 15.52-2.69 23.63 0.47 8.33 0.71 16.07 0.21 24.25-4.28-0.69-7.85 4.45-7.99 9.11-5.66 0.23-9.56-8.3-6.16-12.99 0.74-1.02-0.32-2.62-1.51-1.79-1.88 1.3-3.42 2.84-4.63 4.54-0.01 0.01-0.03 0.01-0.04 0.03-5.08 5.7-3.17 17.5-0.51 23.79 1.56 3.69 4.55 6.63 8.43 7.69 1.81 0.5 4.53 0.45 6.78-0.29 0.79 0.09 1.59 0.06 2.41-0.11 0.38 0.23 0.77 0.46 1.18 0.66-2.82 0.19-5.9 0.76-8.62 1.75-2.66-1.25-6.38 0.36-8.81 2.28-5.36 2.08-7.77 10.32-9.13 15.09-2.21 7.73-3.53 17.65-0.82 25.41 0.22 0.64 0.72 0.94 1.25 1.01-1.18 2.35-1.64 4.86-0.51 7.53 2.48 5.83 12.56 6.27 17.28 3.43 0.18-0.11 0.29-0.25 0.38-0.4 0.06 0.3 0.23 0.58 0.54 0.74 1.68 0.89 3.49-0.13 4.6-1.58 2.89 1.71 7.29 1.28 10.02-0.34 1.07-0.64 1.85-1.54 2.41-2.57 0.39 0.3 0.84 0.53 1.23 0.61 6.81 1.54 5.29-9.81 2.24-13.85 0.48-0.59 1-1.11 1.6-1.56-0.07-0.03-0.14-0.06-0.21-0.09-0.25-1.51-0.9-2.91-1.96-3.93 0.13-0.26 0.12-0.58-0.17-0.83-3.57-3.04-7.13-5-9.97-8.93-3.07-4.25-3.61-8.72-4.03-13.64 2.45 0.51 5.04 0.59 7.49 1.19 2.5 0.62 4.94 1.68 7.46 2.31 0.97 0.56 1.89 1.17 2.73 1.85 0.85-0.05 1.68-0.23 2.46-0.59 0.43-0.2 0.56-0.69 0.33-1.01 1.2-0.56 2.29-1.43 3.25-2.5 0.77-0.85 1.68-2.21 2.31-3.66 3.52 2.18 8.08 4.53 11.85 5.76 2.16 0.71 4.42 1 6.7 1.06 2.24 3.75 3.72 7.69 4.18 12.19 0.2 2.01-0.04 4.02-0.19 6.04-0.75 3.26-1.28 6.61-1.34 9.93-0.06 3.11-0.67 5.87 0.96 8.68 1.91 3.29 9.08 3.72 12.29 1.54 1.56 3.43 4.25 6.19 8.18 5.94 0.28-0.02 0.51-0.15 0.68-0.34 1.32 0.38 2.72 0.47 3.91 0.18 0.52 0 1.04-0.02 1.55-0.08 0.15-0.02 0.27-0.07 0.4-0.12 2.92 2.25 8.57 1.7 11.58 1.4 4.5-0.44 11.04-1.46 14.36-4.86 0.61-0.62 0.6-1.53 0.22-2.25 0.16-0.05 0.32-0.12 0.46-0.24-0.32 0.29 1.24-0.04 1.64-0.08 1.16-0.11 2.33-0.12 3.49-0.16 1.73-0.06 3.48-0.01 5.22-0.05 0.01 0.04 0.02 0.08 0.03 0.12 0.08-0.01 0.15-0.02 0.23-0.03l1.24-0.05c0.32-0.02 0.65-0.04 0.97-0.05 1.6 0.88 3.56-0.27 4.6-1.71 1.65-2.28 1.66-5.27 1.31-7.95-0.38-2.93-2.15-10.06-5.85-11.19 0.8-1.55 0.64-3.76-0.4-5.07-0.25-0.32-0.55-0.58-0.86-0.81-0.17-0.22-0.41-0.39-0.75-0.45 0 0-0.01 0-0.02 0-1.16-0.55-2.53-0.67-3.82-0.54-0.06-0.28-0.12-0.56-0.18-0.84-1 0.31-2.07 0.34-3.1-0.02 0.02 0.13 0.04 0.27 0.05 0.4-0.37 0.13-0.7 0.33-0.99 0.6-0.78-0.59-1.73-0.9-2.74-1.02 0.3-0.25 0.49-0.65 0.38-1.09-0.29-1.13-0.92-2.15-1.48-3.18 0.4-0.91 0.46-2.19 0.6-3 0.05-0.31 0.1-0.62 0.15-0.93 0.23 0.01 0.46-0.09 0.54-0.31 1.75-4.38 1.24-10.03 0.78-14.62-0.4-3.98-1.58-7.77-4.06-10.77-0.61-1.43-1.31-2.84-2.07-4.24 0.24-0.07 0.42-0.29 0.44-0.54 6.24 0.83 12.47-4.74 15.08-10.59 9.74-3.46 20.16-3.64 30.54-3.28 1.93 3.4 0.68 8.46 0.1 12.05-0.72 4.49-1.72 9.02-1.44 13.6 0.59 9.6 10.13 9.73 17.32 7.09 1.11 3.38 4.82 4.57 8.36 4.19 2.4-0.26 6.54-1.5 8.98-3.62 0.99-0.64 1.73-1.41 2.29-2.24 0.15 0.24 0.39 0.42 0.7 0.43 1.54 0.08 2.86-0.55 4.06-1.47 1.17-0.89 2.7-2.32 2.33-3.94-0.01-0.06-0.04-0.1-0.07-0.15 0.15-0.41 0.29-0.83 0.37-1.24 0.32-1.62 0.17-3.3-0.28-4.91 0.23 0.05 0.5-0.04 0.63-0.24 1.1-1.7 0.52-4.19-0.25-5.92-0.89-2.01-2.65-3.46-4.54-4.48-0.23-0.12-0.44-0.07-0.59 0.06-1.15-2.4-3.17-3.15-5.25-2.84-0.36-4.63-2.18-9.53-3.71-13.75-1.69-4.66-4.41-8.82-7.91-12.29 0.03-0.32-0.14-0.65-0.55-0.75-0.1-0.03-0.2-0.04-0.3-0.07-0.11-0.11-0.22-0.22-0.33-0.32-0.34-0.31-0.81-0.24-1.12-0.01-8.33-1.69-17.76-0.75-26.04 0.22-7.45 0.87-15.28 2.61-22.16 5.92 0.75-3.69 1.25-7.4 1.76-10.75 1.5-9.8 1.86-19.76 2.26-29.65 0.09-2.36 0.01-4.71-0.15-7.06 0.2-4.27 0.31-8.54 0.29-12.8-0.02-4.16 0.06-8.19-1-12.06 0.06-0.33 0.12-0.65 0.18-0.98 8.08 1.47 17.06 1.04 24.67-0.08 9.96-1.46 21.82-4.23 29.85-10.75 4.9-0.03 10.58 0.22 15.49-0.87 0.14 0.12 0.32 0.2 0.55 0.16 5.25-0.87 12.29-1.8 16.63-5.1 0.25-0.19 0.32-0.55 0.19-0.8 0.47-0.36 0.87-0.79 1.2-1.3 0.17-0.08 0.31-0.21 0.35-0.39 0.03-0.12 0.04-0.25 0.06-0.37 0.01-0.03 0.01-0.06 0.01-0.09 0.25-1.84-0.35-3.93-0.4-5.79-0.04-1.84 0.28-3.57 0.59-5.33 5.82-19.83 11.58-39.5 8.35-60.34zM248.65 199.67c1.11-0.13 2.22-0.2 3.34-0.18 1.14 0.03 2.3 0.42 3.42 0.28-0.11 0.73-0.22 1.46-0.33 2.18-0.16 0.1-0.29 0.25-0.35 0.46-0.46 1.67-0.73 4.03-0.63 6.43l0 0.01c0.16 3.63 1.17 7.34 3.71 8.86 0.08 0.05 0.18 0.07 0.27 0.08 0.2 0.4 0.44 0.77 0.71 1.12-3.1-1.71-6.88-2.79-10.31-3.5-0.1-0.56-0.24-1.12-0.33-1.64-0.33-2.01-0.48-4.05-0.55-6.08-0.08-2.17-0.34-6.01 1.05-8.03zm-79.59 33.49c2.18-3.6 2.36-8.23 2.18-12.61 6.33 0.38 11.98 1.15 17.69 4.14 5.55 2.91 7.6 8.04 11.93 11.99 0.48 0.44 1.3 0.07 1.26-0.59-0.37-6.11-7.04-11.03-11.94-13.77-1.66-0.93-3.47-1.68-5.34-2.27 0.07-0.06 0.14-0.13 0.17-0.22 2.59-7.4 5.63-15.67 6.84-23.44 10.08-0.9 20.45-1.84 30.4-3.7 0.05-0.01 0.1-0.03 0.15-0.05 0.67 2.27 2.23 4.46 3.29 6.54 1.63 3.21 2.74 6.96 4.69 9.98 0.3 0.46 0.98 0.21 0.99-0.31 0.01-3.04-2.15-6.37-3.48-9.02-1.31-2.6-2.58-5.94-4.62-8.08 0.1-0.24 0.15-0.5 0.15-0.73 0.1-6.06 3.71-10.21 6.14-15.44 0.4-0.86-0.66-1.58-1.33-0.94-4.28 4.09-7.53 9.14-8.09 15.03-9.11 1.57-18.83 1.2-27.73 3.69-2.6-4.28-11.21-18.7-15.14-15.14-0.26 0.24 0 0.62 0.29 0.63 2.61 0.04 5.81 4.81 7.16 6.49 2 2.48 5.48 6.41 5.65 9.72 0.02 0.31 0.15 0.6 0.34 0.84-3.45 7.11-5.99 16-6.65 23.85 0 0.03 0.01 0.05 0.01 0.08-4.2-1.2-8.72-1.51-12.9-0.79-0.05-0.91-0.11-1.8-0.16-2.66 0.24-8.85-0.22-17.82 1.08-26.45 1.91-12.78 9.11-23.59 21.11-28.88 1.84-0.81 3.76-1.41 5.71-1.83 0.73 0 1.45-0.01 2.16-0.02 4.22 0.06 8.51 0.51 12.58 0.26 0.03 0 0.06-0.01 0.09-0.02 4.86 1.15 9.46 3.33 13.31 6.46 10.36 8.42 12.65 21.29 15.96 33.35 0.12 0.42 0.4 0.6 0.71 0.63 0.3 1.27 0.81 2.53 1.58 2.04 0.02-0.01 0.03-0.03 0.05-0.05 0.04 0.02 0.07 0.04 0.11 0.06 0.04 0.02 0.08 0.01 0.13 0.01-0.89 3.82-0.8 9.57 0.25 13.01-0.54-0.1-1.07-0.19-1.57-0.27-6.35-1.02-14.2-0.89-19.32 3.48-0.18 0.01-0.36 0.1-0.51 0.31-0.11 0.15-0.21 0.31-0.31 0.47-0.04 0.04-0.09 0.08-0.13 0.12-0.09 0.1-0.14 0.21-0.16 0.32-5.98 9.67-1.85 25.8 6.64 33.11-4.91 0.94-9.76 2.85-14.72 3.67-4.88 0.81-9.83 1.22-14.78 1.52 1.38-3.05 2.04-6.85 2.34-9.47 0.48-4.19-0.68-8.89-4.49-11.24-6.57-4.06-19.81-3.21-25.71 3.09-0.47-0.25-0.95-0.42-1.38-0.75-0.34-0.26-0.61-0.6-0.85-0.96-0.4-1.54-1.44-2.71-1.61-4.41-0.02-0.24-0.12-0.48-0.25-0.68 0.01-0.03 0.04-0.04 0.05-0.06zm-5.44 20.36c0.03 0.21 0.1 0.42 0.14 0.63-0.55 0.01-1.09 0.14-1.71 0.32 0.38-0.35 0.33-1.06-0.27-1.17-4.46-0.86-8.32-1.65-11.35-3.98-0.06-0.16-0.1-0.31-0.12-0.47-0.07-0.62-0.72-0.84-1.13-0.63-0.97-0.97-1.84-2.14-2.59-3.6-0.84-4.19-0.59-8.3-0.37-12.56 0.57-1.21 1.31-2.36 2.21-3.4-0.46 6.2 4.26 13.87 9.88 12.37 0.31 1.12 0.89 2.13 1.8 2.92 0.45 0.39 1.02 0.51 1.55 0.45 0.64 1.27 1.52 2.42 2.63 3.22-0.73 2.03-0.86 4.59-0.67 5.91zm-8.37 61.78c-0.05 0.05-0.06 0.12-0.1 0.18-0.08-0.6-0.55-1.17-1.26-1.12-4.44 0.28-9.34 2.21-13.23-1.06-2.06-1.72-2.03-3.85-1.04-5.94 0.08 0.09 0.14 0.18 0.23 0.27 0.73 0.78 2.15-0.14 1.75-1.13-0.19-0.48-0.36-0.97-0.51-1.47 1.92-2.47 4.69-4.64 6.25-5.71 0.2-0.14 0.28-0.31 0.3-0.49 4.15-0.38 6.84 2.5 8.9 6.34 1.02 1.9 1.66 4 1.69 6.15 0.03 2.41-1.74 2.48-2.97 3.97zm20.52-5.96c-0.43 1.03-1.16 0.78-1.95 0.61-0.02-0.54-0.01-1.09 0.07-1.65 0.01-0.06 0.03-0.11 0.04-0.17-0.01-0.03-0.01-0.06-0.02-0.1-0.06 0.02-0.11 0.03-0.17 0.05 0.01-0.26 0-0.52 0-0.77-0.07-0.4-0.12-0.82-0.12-1.31 0-0.1 0.01-0.19 0.02-0.29-0.32-2.29-1.32-4.48-2.74-6.3 1.15-0.42 2.33-0.43 3.48-0.2 2.05 2.51 2.59 7.24 1.39 10.14zm12.82-54.99c0.07 1.12 0.02 2.19-0.12 3.25-0.07 0.06-0.14 0.14-0.18 0.26-0.56 1.57-1.04 3.17-1.55 4.76-0.1 0.04-0.19 0.09-0.27 0.18-1.36 1.52-1.49 4.1-2.49 5.91-1.1 1.97-2.76 3.58-4.84 4.35-0.06-0.07-0.13-0.14-0.22-0.2-2.84-1.81-6.4-2.75-9.62-3.66-3.03-0.86-6.78-1.86-9.83-0.74-0.7 0.26-0.6 1.16 0.06 1.38 0.12 0.04 0.24 0.07 0.36 0.1-2.7 7.82 3.92 19.62 11.65 23.22-1.42-0.13-2.88 0.21-3.1 1.52-0.01 0.08 0.02 0.14 0.09 0.19 0.75 0.51 1.26 0.24 2.13 0.18 0.77-0.05 1.44 0.07 2.1 0.46 0.62 0.36 0.92 0.88 1.12 1.45-1.62-0.05-2.73 0.54-3.81 1.49-0.35-0.38-0.72-0.74-1.11-1.07-1.05-0.9-3.04-2.39-4.49-2.33-2.18 0.1-5.15 4.5-6.36 5.97-0.46 0.55 0.31 1.24 0.81 0.75 0.89-0.88 4.53-5.36 5.75-4.77 1.23 0.6 2.26 1.49 3.2 2.48 1.89 1.99 2.98 4.74 3.17 7.45 0.06 0.88-0.04 1.77-0.29 2.6-0.02 0.02-0.04 0.03-0.05 0.05-0.16 0.18-0.22 0.43-0.21 0.68-0.41 0.93-1.04 1.76-1.91 2.37-0.5 0.35-1.03 0.56-1.56 0.69 0.06-0.03 0.11-0.07 0.15-0.14 1.04-2.05 0.5-4.99-0.12-7.09-0.2-0.68-1.23-0.34-1.05 0.34 0.3 1.14 0.43 2.27 0.47 3.45 0.03 1.04-0.14 2.11-0.03 3.14 0.02 0.22 0.22 0.35 0.41 0.35-1.81 0.37-3.73-0.26-5.6-0.45 0.53-2.78-0.26-5.73-1.46-8.23-1.99-4.17-9.67-12.9-14.48-6.91-0.15 0.19-0.21 0.41-0.19 0.61-1.79 0.58-3.45 2.08-4.72 3.57-0.31-2.12-0.32-4.31-0.17-6.51 0.42-1.22 0.35-2.5 0.48-3.86 0.04-0.37 0.08-0.74 0.13-1.11 0.48-2.86 1.14-5.67 1.75-8.29 0.94-4.03 2.06-8.09 3.84-11.84 1.6-3.36 4.88-4.93 8.34-5.87 0.12 0.17 0.3 0.28 0.57 0.28 2.03-0.04 3.94-0.5 5.87-1.05 0.01 0 0.01-0.01 0.02-0.02 0.42 0 0.84 0 1.26 0 1.73 0.01 3.49 0.25 5.06-0.55 0.08-0.04 0.13-0.11 0.18-0.19 1.04-0.17 2.06-0.41 3-0.78 0.34 2.17 1.6 4.82 3.94 4.66 0.28-0.02 0.48-0.35 0.31-0.6-0.55-0.79-1.36-1.34-1.93-2.13-0.34-0.48-0.58-1.04-0.75-1.62 0.07-0.02 0.14-0.07 0.21-0.11 0.1 0.07 0.19 0.14 0.29 0.2 0.67 0.39 1.8 0.59 2.47 0.12 0.32-0.23 0.29-0.66-0.04-0.87-0.65-0.4-1.46-0.32-2.14-0.55-0.03-2.8-0.17-5.7-0.54-8.5 2.56-1.21 5.28-1.92 8.13-2.17 2.9-0.26 7.53 0.46 8.73 3.28-0.35-0.16-0.82 0.01-0.79 0.52zm3.67 11.25c-0.27-1.21-0.73-2.36-0.59-3.71 0.16-1.46 0.7-2.9 1.04-4.32 0.68-2.86-0.24-5.29-2.43-7.17-4.76-4.08-13.1-2.57-18.36 0.74-0.59-0.34-1.46-0.04-1.52 0.88 0 0.07 0 0.14-0.01 0.21-0.15 0.12-0.31 0.24-0.46 0.37-0.46 0.4-0.08 1 0.41 1.09-0.03 1.14-0.02 2.28 0.01 3.43-0.68-0.28-1.46-0.36-2.12-0.71-0.14-0.07-0.28-0.16-0.4-0.26 0-0.04 0.02-0.08 0.02-0.12-0.02-0.48-0.29-0.79-0.73-0.95-0.06-0.02-0.11-0.02-0.17-0.04-0.35-0.67-0.56-1.43-0.66-2.09-0.23-1.39-0.05-2.78 0.36-4.11 0.03-0.08 0.07-0.15 0.1-0.22 0.48 0.04 0.86-0.48 0.48-0.88 0 0 0 0-0.01-0.01 0.47-0.69 1.04-1.29 1.35-2.07 0.15-0.38 0.01-0.8-0.42-0.91-1.05-0.26-1.88 0.03-2.54 0.64-2.14-3.3-4.69-10.86 1.39-10.31 0.5 1.84 1.64 3.22 2.77 4.86 0.04 0.06 0.09 0.1 0.14 0.15 0.51 0.69 1.16 1.26 1.92 1.57-0.46 0.72-0.85 1.49-1.13 2.32-0.34 1.01 1.2 1.48 1.69 0.63 4.09-7.18 18.84-9.3 25.11-4.27 6.65 5.34-1.81 14.51-1.47 20.43 0.05 0.89 1.1 1.51 1.87 0.97 0.53-0.37 1-0.84 1.43-1.37 4.97-0.25 9.92-0.59 14.86-1.21 6.05-0.75 14.17-1.52 19-5.54 0.56-0.47 0.43-1.63-0.48-1.52-0.04 0-0.08 0.01-0.12 0.02-2.42-4.57-5.36-8.67-7.17-13.6-2.33-6.36-2.08-12.61 0.22-18.85 5.71-3.77 12.87-3.46 19.4-2.33 5.37 0.93 9.82 3.33 14.58 5.45 0.96 0.97 1.13 2.36 0.52 3.56-0.32 0.63-0.79 1-1.31 1.29-6.91-0.62-16.15 2.05-22.14 6.4-0.07-0.01-0.15-0.01-0.23 0.01-5.79 1.47-2.25 13.66 1.78 16.75 0.29 0.43 0.57 0.86 0.8 1.33 0.17 0.34 0.28 0.72 0.39 1.08-2.3 1.66-4.34 3.7-6.89 5.12-3.79 2.1-8.07 3.31-12.25 4.37-7.76 1.97-15.87 2.65-23.86 2.78-1.39 0.02-2.77 0.07-4.16 0.11zm34.07 2.27c-2.98 1.16-6.06 2.06-9.2 2.72-1.63-0.96-3.36-1.72-4.31-3.45 2.45-0.46 4.92-0.87 7.37-1.16 0.36-0.08 0.72-0.14 1.09-0.22 0.59-0.13 1.22-0.28 1.89-0.45 0.74 1 1.9 2.06 3.16 2.56zm-1.98-2.87c1.93-0.51 4.08-1.17 6.21-1.99 0.03 0.1 0.07 0.19 0.17 0.27 0.54 0.48 1.24 0.94 1.99 1.28-1.49 0.94-2.98 1.86-4.54 2.55-0.65-0.38-1.4-0.55-2.08-0.88-0.64-0.31-1.23-0.74-1.74-1.24zm6.01 4.43c1.2-0.52 2.57-1.11 3.93-1.78-1.6 2.68-3.13 5.41-4.62 8.15-0.72-0.73-1.43-1.41-2.05-2-0.82-0.78-1.68-1.56-2.56-2.33 1.8-0.61 3.57-1.29 5.31-2.03zm3.73-5.74c-0.82-0.32-1.67-0.58-2.4-1.12 2.53-1.04 4.97-2.33 6.94-3.91-0.19 0.92-0.39 1.83-0.6 2.75-1.34 0.65-2.64 1.46-3.94 2.28zm-36.76 6.24c0.16-0.45 0.18-0.99 0.07-1.5 0.42 0.07 0.84 0.16 1.25 0.29 0.97 0.14 2 0.2 3.05 0.2-0.34-0.2-0.68-0.41-1.03-0.6 0.56-0.03 1.13-0.08 1.69-0.11 0.38 1.33 1.07 2.65 2.07 3.52-2.4-0.22-4.74-0.8-7.09-1.79zm7.22-0.28c-0.36-0.46-0.61-0.99-0.79-1.54 2.51-0.17 5.01-0.37 7.51-0.68 0.15-0.03 0.3-0.06 0.45-0.09 0.42 1.16 1.22 2.08 2.19 2.86 0.34 0.27 0.72 0.55 1.12 0.79-1.29 0.23-2.59 0.43-3.89 0.59-1.47 0.18-2.9 0.27-4.3 0.26-0.71-0.78-1.63-1.33-2.28-2.18zm15.97 30.76c-0.02 0-0.04 0-0.06-0.01-0.05 0.69-0.17 1.39-0.31 2.05-0.03 0.13-0.06 0.24-0.09 0.36 0.06 0.01 0.12 0.02 0.18 0.02-0.07 0.87-0.11 1.74-0.12 2.59-0.01 1.6 0.25 3.44 0.77 5.25-4.35-0.28-10.49 2.84-9.36-5.19 0.63-4.46 1.74-8.96 1.23-13.46 0.04-1.32 0.1-2.63 0.04-3.95-0.21-4.34-1.68-9.27-4.18-13.19 0.26-0.08 0.51-0.18 0.75-0.29 1.6-0.1 3.2-0.28 4.76-0.5 2.77-0.38 5.5-0.99 8.18-1.77 0.69 0.57 1.37 1.14 2.01 1.73 1.56 1.43 2.96 3 4.26 4.66 0.12 0.46 0.44 0.83 0.84 1.07 0.01 0.02 0.03 0.04 0.04 0.06-0.83 1.35-1.62 2.72-2.37 4.1-0.89 1.65-1.85 3.51-2.5 5.44-2.22 3.2-3.5 7.11-4.08 11.02zm40.53-43.8c0.08 0.14 0.21 0.21 0.36 0.22 0.9 4.76 0.09 9.99 0.41 14.93-0.42 1.26-0.82 2.52-1.16 3.8-0.31 1.15-1.2 3.44-0.39 4.53 0.02 0.02 0.04 0.03 0.05 0.05 0.36 1.17 0.77 2.35 1.37 3.41 0.04 0.08 0.1 0.12 0.15 0.17-0.17 0.01-0.35 0.01-0.52 0.03-2.17 0.22-5.78 1.94-5.45 4.58 0.06 0.51 0.48 0.79 0.98 0.68 1.65-0.37 2.84-1.83 4.55-2.25 1.48-0.36 3.28 0.18 4.57 0.93 0.63 0.36 1.18-0.06 1.33-0.61 0.05 0.35 0.11 0.7 0.16 1.04 0.08-0.07 0.16-0.12 0.25-0.18 0.01 0.25 0.01 0.5 0.02 0.76 0.03 0.58 0.07 1.17 0.52 1.57 0.24 0.2 0.57 0.19 0.79-0.04 0.42-0.44 0.41-1.03 0.39-1.61-0.01-0.3-0.04-0.6-0.06-0.9 0.15 0.05 0.29 0.11 0.43 0.17 0.33-0.11 0.69-0.1 1.06 0.03 0.01 0 0.01 0 0.02 0-0.02-0.08-0.04-0.15-0.05-0.22 0.68 0.07 1.35 0.15 2.03 0.18 0.13 0.07 0.26 0.16 0.38 0.27 0.56 0.51 0.41 1.4 0.23 2.24-1.06-0.59-2.08-0.73-3.27-0.48-0.98 0.2-0.77 1.64 0.08 1.85 1.33 0.33 2.65 0.78 3.5 1.95 0.06 0.08 0.14 0.15 0.23 0.2 0.15 0.18 0.27 0.39 0.42 0.57 0.1-0.16 0.21-0.31 0.32-0.45 1.68 2.36 2.78 4.82 3.48 7.74 0.44 1.84 0.57 3.82 0.14 5.67-0.21 0.88-0.7 1.32-1.25 1.68-0.4-0.71-0.53-1.56-0.26-2.42-0.2-1.03-0.47-2.07-0.78-3.06-0.08-0.22-0.16-0.43-0.23-0.65-0.41-1.25-0.82-2.24-1.26-3.31-0.14-0.32-0.27-0.61-0.39-0.87-0.44-0.95-0.97-1.89-1.58-2.79-0.1-0.57-0.21-1.14-0.32-1.71-0.02 0-0.04 0-0.07-0.01-0.28-0.08-0.5-0.15-0.73-0.33-0.22-0.17-0.71-0.29-0.2-0.21-0.54-0.09-1-0.36-1.39-0.74-0.64-0.63-1.21-1.27-1.86-1.86 0.02 0.11 0.04 0.23 0.07 0.34-1.64-1.04-3.5-1.68-5.55-1.68-0.19-0.36-0.63-0.6-1.07-0.3-2.38 1.57-5.96 4.64-4.37 7.87 0.17 0.34 0.72 0.28 0.87-0.04 0.5-1.09 0.72-2.28 1.26-3.36 0.58-1.16 1.55-2.03 2.58-2.79 0.11 0.14 0.24 0.25 0.44 0.3 5.04 1.41 7.82 5.7 9.67 10.33 0.85 2.14 1.3 4.41 1.51 6.69-0.02 0.01-0.04 0.01-0.05 0.02-0.41 0.16-0.62 0.55-0.61 0.92-1.96 0.06-3.93 0.17-5.88 0.28-1.25 0.08-3.4 0.08-4.68 0.9 0-2.64-1.85-5.8-2.97-7.67-1.05-1.76-3.23-4.84-5.62-5.67-0.05-0.1-0.11-0.19-0.19-0.26-0.32-0.27-0.66-0.5-1.03-0.69-0.82-0.4-2-0.99-2.9-0.61-0.41 0.18-0.67 0.67-0.38 1.08 0.49 0.71 1.24 0.79 2.01 1.03 0.01 0 0.02 0.01 0.04 0.01 0.01 0.21 0.06 0.42 0.2 0.58 1.83 2.13 3.92 3.64 5.46 6.1 0.95 1.51 1.61 3.15 2.12 4.84 0.31 1.04 0.36 2.16 0.83 3.12-0.84 0.44-1.66 1.06-2.23 1.32-0.27 0.13-0.55 0.24-0.83 0.36 0.12-1.96-1.03-4.18-1.86-5.91-1.03-2.13-2.67-3.63-4.67-4.84-0.28-0.17-0.59 0.27-0.33 0.47 1.84 1.47 3.01 3.47 3.93 5.6 0.7 1.62 0.93 3.66 2.02 5.06-3.84 1.5-8.12 2.24-12.16 2.45-2.03 0.1-4.46 0.03-6.12-1.28-2.28-1.79-0.39-6.69 0.39-8.76 1.65-4.41 4.51-8.78 8.45-11.44 0.45-0.31 0.27-1.21-0.35-1.1-6.97 1.21-13.61 14.04-11.37 21.26-1.57-0.13-3-0.32-4.36-0.9-1.68-3.43-4.34-5.63-4.85-9.77-0.41-3.39 0.79-6.84 1.91-9.98 2-5.61 6.17-10.95 7.68-16.76 2.91-4.22 4.87-9.97 5.78-15.55 0.18-0.27 0.35-0.55 0.5-0.84 0.2-0.4 0.07-0.84-0.22-1.11 0.14-1.2 0.25-2.38 0.29-3.53 0.07-0.34 0.13-0.68 0.19-1.01 0.05-0.25 0.09-0.52 0.14-0.78 0.19-0.31 0.38-0.61 0.53-0.94 0.21 0.5 0.41 1 0.62 1.5-0.3-0.95-0.63-1.89-0.97-2.82-0.02-1.34-0.37-2.6-1.45-3.5-0.14-0.34-0.29-0.68-0.42-1.03-0.11 0.11-0.15 0.27-0.07 0.48 0.05 0.12 0.1 0.24 0.16 0.36-0.05-0.01-0.11-0.02-0.16-0.01-1.72-4.14-4.85-8.51-3.42-13.06 2.97-1.94 6.07-3.3 9.46-4.29 0.06 0.07 0.12 0.15 0.19 0.22-0.02 0.05-0.03 0.1-0.03 0.16 0 0.03 0 0.06 0 0.09 0.39-0.08 0.82-0.09 1.26-0.05 1.76 1.13 3.13 2.85 4.31 4.6 0.55 1.18 1.11 2.34 1.69 3.5-0.58 0.64-0.76 1.57 0.1 2.25 0.53 0.42 1.07 0.78 1.61 1.07 0.1 0.2 0.21 0.4 0.31 0.6 0.57 1.08 1.1 2.18 1.61 3.29-0.18 0.23-0.21 0.57 0.08 0.84 0.19 0.18 0.37 0.36 0.54 0.54 1.11 2.48 2.17 4.99 3.46 7.39zm76.64 3.43c-2.65 0.71-4.88 3.27-7.56 4.22-0.28 0.1-0.55 0.17-0.82 0.24-1.93 0.14-3.9-0.02-5.4-0.7-0.57-0.26-0.92-0.66-1.13-1.14 0.62-0.33 0.66-1.25-0.11-1.44-0.04-0.01-0.09-0.02-0.14-0.03 0.02-0.93 0.28-1.91 0.49-2.68 1.17-4.12 4.12-7.59 5.41-11.63 3.03-0.14 5.58 1.59 7.64 4.55 1.85 2.65 2.64 5.99 1.61 8.6zm3.85-17.49c0.1-0.03 0.19-0.09 0.28-0.13 0.32-0.16 0.51-0.55 0.54-0.93 1.71 1.02 2.93 2.35 3.6 4.28 0.44 1.24 0.27 2.5 0.33 3.75-0.42-1.11-0.96-2.18-1.53-3.16-0.92-1.55-2.17-2.87-3.52-3.76 0.1-0.01 0.21-0.01 0.31-0.05zm1.69 5.35c1.19 2.08 1.98 4.68 1.75 7.1-0.26 2.79-2.21 3.58-4.22 5.04-0.06 0.04-0.09 0.09-0.14 0.13 1.25-4.82-2.19-11.03-6.46-14.02 0.01-0.01 0.01-0.01 0.02-0.02 0.88-1.87 2.33-3.8 4.58-2.91 2.01 0.79 3.44 2.9 4.47 4.69zm-46.31-34.77c8.79-1.15 17.68 0.1 26.4-0.78 3.26 4.2 5.9 8.43 7.69 13.52 1.41 4.01 1.83 8.52 3.55 12.41-1.18 0.58-2.28 1.45-3.14 2.49-0.63 0.77 0.4 1.68 1.13 1.03 0.81-0.72 1.8-1.42 2.86-1.85 0 0.01 0.01 0.01 0.01 0.02 0.4 0.68 1.33 0.29 1.41-0.39 1.66-0.17 2.56 1.09 3.3 2.41-2.69-1.22-5.52-0.57-6.8 3.61-3.09-1.81-6.45-1.86-8.73 1.51-0.21 0.3 0.18 0.76 0.51 0.61 0.19-0.08 0.37-0.15 0.56-0.22-2.54 3.66-5.07 8.51-5.46 12.72-0.49 0.11-1.03 0.25-1.61 0.4-3.27-0.23-6.51-0.15-9.69-1.78-1.17-0.6-2.02-1.46-2.6-2.47-0.21-2.64 0.41-5.69 0.75-7.91 2.95-2.69 3.15-9.49 3-13.04-0.07-1.65-0.44-3.11-1.09-4.31 1.1-0.41 2.26-0.76 3.05-1.63 0.2-0.21 0.11-0.68-0.22-0.71-1.11-0.1-2.24 0.32-3.27 0.86-0.26-0.1-0.51-0.2-0.77-0.29 0.4-0.41 0.77-0.86 1.11-1.35 0.62-0.89 1.4-1.65 1.56-2.76 0.03-0.23-0.08-0.53-0.35-0.56-1.77-0.21-2.75 1.54-3.54 3.08-0.21-0.11-0.46-0.19-0.73-0.23-2.5-0.29-5.04-0.39-7.59-0.36-9.23-0.2-18.53 0.61-27.1 3.93 0.27-1.47 0.41-2.98 0.56-4.47 1-2.31 1.76-4.8 2.38-7.35 7.51-2.72 14.78-5.08 22.87-6.13zm68.4-103.31c-0.36-0.06-0.76 0.1-0.8 0.51-0.26 2.31-0.48 4.61-0.63 6.93-0.09 1.44-0.23 2.91 0.05 4.31 0.26 0.53 0.43 1.08 0.56 1.64-0.36 0.23-0.73 0.45-1.09 0.67-13.8 4.08-27.64 4.27-42.03 3.81-15.23-0.49-30.06-2.34-44.17-8.27-0.98-0.41-1.66 0.69-1.44 1.53-0.53 0.07-0.75 0.95-0.21 1.18 11.26 4.85 23.45 7.88 35.6 9.37 5.28 0.64 10.6 0.88 15.91 0.92-0.16 0.11-0.34 0.21-0.49 0.33-2.66 1.02-5.3 2.16-7.99 3.04-4.97 1.63-9.99 2.9-15.16 3.75-5.5 0.91-11.11 1.08-16.68 0.9-5.32-0.17-10.56-1.35-15.87-1.48-1.36-0.03-1.43 1.79-0.3 2.23 1.19 0.46 2.41 0.86 3.68 1.2 0.04 0.24 0.15 0.47 0.31 0.67-2.72 6.93 0.2 23.72 0.49 27.48 0.21 2.7 0.26 5.41 0.23 8.12-0.19 2.19-0.4 4.39-0.63 6.57-0.94 9.1-2.33 18.15-4.02 27.14-0.14 0.74-0.3 1.47-0.44 2.2 0.19 0.4 0.32 0.84 0.39 1.31-0.16 0.15-0.27 0.36-0.28 0.6-0.03 0.87-0.09 1.72-0.16 2.56-0.21 0.25-0.22 0.58-0.1 0.86-1.25 3.78-2.73 7.5-3.41 11.37-0.08 0.45 0.06 0.8 0.31 1.03-0.08 0.26-0.15 0.51-0.24 0.76-0.25 0.13-0.51 0.25-0.77 0.38-1.02 0.55-1.17 1.53-0.82 2.34-0.58 0.6-1.27 1.06-2.08 1.37 0.33 0.17 0.66 0.35 0.99 0.52-0.32 0.27-0.64 0.53-0.96 0.78-0.17 0.13-0.35 0.23-0.52 0.35-1.66 0.44-3.28 1.2-4.96 1.52-0.48-0.03-0.95-0.08-1.41-0.14-0.11-0.04-0.24-0.07-0.36-0.1-0.8-1.17-1.65-2.31-2.35-3.38-1.05-1.58-2.19-3.06-3.62-4.21 0.74-0.03 1.49-0.02 2.29 0.06-0.02-0.01-0.04-0.02-0.05-0.02-0.68-0.34-1.57-0.86-2.52-1.3 1.32-0.24 2.66-0.41 4-0.61 0.11 0.09 0.22 0.19 0.34 0.28 0.9-0.15 1.81-0.27 2.71-0.36-0.18-0.13-0.36-0.26-0.55-0.38 0.13-0.03 0.26-0.06 0.4-0.1 1.82 1.34 4.28-0.59 5.39-2.32 0.07-0.01 0.15-0.02 0.22-0.06 1.07-0.6 1.32-2.11 1.34-3.54 0.38-0.14 0.62-0.54 0.34-0.97-0.12-0.18-0.25-0.35-0.38-0.53-0.01-0.24-0.03-0.47-0.04-0.67-0.03-0.61-0.65-0.8-1.07-0.6-0.39-0.38-0.82-0.74-1.27-1.08 0.1-0.03 0.19-0.06 0.28-0.12 0.17-0.11 0.28-0.24 0.38-0.42 0.19-0.32 0.18-0.82-0.05-1.12-1.05-1.35-1.83-2.74-2.65-4.23-0.18-0.33-0.45-0.45-0.73-0.45-0.42-1.26-0.87-2.51-1.11-3.85 0.4-0.21 0.74-0.55 0.95-1.06 6.14-14.91 5.67-32.3 5.24-48.12-0.21-7.63-0.78-15.18-1.63-22.69-0.17-3.06-0.38-6.11-0.65-9.14-0.01-0.14-0.08-0.24-0.16-0.3-0.99-8-2.19-15.97-3.62-23.91-1.85-10.27-4.22-20.47-6.97-30.56-1.38-6.56-2.88-13.1-4.69-19.53-2-7.09-4.64-16.2-9.44-22.9-1.6-2.77-3.5-5.25-5.82-7.22 4.74-1.82 10.47-3.52 13.81-7.21 0.04-0.05 0.07-0.1 0.09-0.15 16.39-6.72 33.51-11.73 51.1-14.03 19.01-2.48 39.9-1.23 55.8 10.52 13.11 9.69 20.07 25.33 22.21 41.13 1.2 8.82 0.74 17.89-0.75 26.64-1.64 9.6-5.21 18.74-7.21 28.25zM227.95 22.39c-6.68-7.73-20.69-6.18-27.59 0.83-0.48 0.48 0.08 1.4 0.73 1.13 7.63-3.14 18.67-9.07 25.49-0.82 0.83 1 2.22-0.16 1.37-1.15zM231.2 210.37c-8.21-3.4-19.49 8.22-21.69 15.33-0.24 0.78 0.81 1.21 1.32 0.69 6.12-6.23 10.45-14.05 20.1-14.81 0.59-0.05 0.89-0.95 0.27-1.21zM330.22 251.91c-0.41-0.46-1.19 0.2-0.82 0.7 2.02 2.67 1.68 5.56 2.43 8.59 0.11 0.43 0.76 0.47 0.94 0.08 1.57-3.28-0.36-6.93-2.54-9.36zM339.56 245.79c-0.56-0.77-1.8 0.01-1.25 0.81 1.26 1.86 1.8 4.14 3.1 5.96 0.27 0.38 0.84 0.19 0.85-0.27 0.06-2.26-1.4-4.72-2.7-6.49zM328.32 239.42c-2.44-1.26-4.85-0.84-6.89 0.93-1.83 1.59-3.08 4.8-1.68 7 0.31 0.48 0.97 0.3 1.12-0.2 0.5-1.6 0.7-3.26 1.77-4.63 1.17-1.51 2.91-1.89 4.59-1.03 1.34 0.68 2.43-1.38 1.09-2.07z"/><path d="M32.3 321.3C27.42 321.3 23.26 322.09 19.81 323.67 16.37 325.25 13.87 327.43 12.33 330.22 10.79 333.02 10.01 337.44 10.01 343.49 10.01 347.68 10.56 351.13 11.65 353.82 12.73 356.52 14.11 358.64 15.77 360.16 17.43 361.69 20.8 364.14 25.91 367.52 31.01 370.87 34.21 373.26 35.51 374.69 36.78 376.12 37.41 379.16 37.41 383.81 37.41 385.92 37.08 387.51 36.42 388.59 35.75 389.66 34.73 390.2 33.37 390.2 32 390.2 31.05 389.77 30.52 388.93 29.98 388.08 29.71 386.18 29.71 383.22L29.71 373.62 10.65 373.62 10.65 378.79C10.65 384.7 11.25 389.27 12.45 392.49 13.65 395.71 16.2 398.36 20.08 400.44 23.97 402.52 28.66 403.55 34.15 403.55 39.15 403.55 43.54 402.65 47.31 400.85 51.08 399.04 53.63 396.81 54.94 394.14 56.26 391.48 56.92 387.33 56.92 381.71 56.92 373.98 55.73 368.37 53.36 364.89 50.99 361.41 45.23 356.96 36.09 351.54 32.91 349.66 30.97 348.05 30.29 346.71 29.58 345.38 29.22 343.4 29.22 340.76 29.22 338.71 29.54 337.18 30.18 336.17 30.81 335.16 31.74 334.66 32.98 334.66 34.12 334.66 34.93 335.04 35.42 335.78 35.91 336.53 36.15 338.27 36.15 341L36.15 346.85 55.21 346.85 55.21 343.73C55.21 337.46 54.6 333.01 53.38 330.39 52.17 327.78 49.68 325.61 45.92 323.89 42.17 322.16 37.63 321.3 32.3 321.3zM556.11 321.3C550 321.3 545.02 322.72 541.16 325.57 537.31 328.41 534.98 331.54 534.17 334.96 533.35 338.37 532.95 343.84 532.95 351.38L532.95 374.84C532.95 380.27 533.14 384.34 533.53 387.05 533.92 389.77 534.9 392.36 536.46 394.83 538.02 397.3 540.31 399.37 543.32 401.04 546.32 402.72 549.55 403.56 553 403.56 555.9 403.56 558.41 402.95 560.54 401.73 562.67 400.51 564.44 398.68 565.83 396.24L567.73 401.9 580.63 401.9 580.63 359.53 556.6 359.53 556.6 371.52 560.74 371.52 560.74 380.88C560.74 384.56 560.47 387.03 559.94 388.29 559.4 389.56 558.38 390.2 556.89 390.2 555.52 390.2 554.61 389.64 554.16 388.51 553.7 387.39 553.47 385.06 553.47 381.52L553.47 343.63C553.47 339.6 553.7 337.1 554.16 336.13 554.61 335.15 555.47 334.66 556.74 334.66 558.2 334.66 559.13 335.23 559.52 336.37 559.91 337.5 560.11 340.33 560.11 344.85L560.11 352.02 580.63 352.02 580.63 348.6C580.63 342.14 580.03 337.2 578.83 333.81 577.63 330.41 575.04 327.48 571.08 325.01 567.11 322.53 562.12 321.3 556.11 321.3zM611.65 321.3C606.77 321.3 602.61 322.09 599.17 323.67 595.73 325.25 593.23 327.43 591.69 330.22 590.14 333.02 589.37 337.44 589.37 343.49 589.37 347.68 589.91 351.13 591 353.82 592.09 356.52 593.47 358.64 595.12 360.16 596.78 361.69 600.16 364.14 605.27 367.52 610.37 370.87 613.57 373.26 614.87 374.69 616.14 376.12 616.77 379.16 616.77 383.81 616.77 385.92 616.44 387.51 615.77 388.59 615.11 389.66 614.09 390.2 612.73 390.2 611.36 390.2 610.41 389.77 609.87 388.93 609.34 388.08 609.07 386.18 609.07 383.22L609.07 373.62 590 373.62 590 378.79C590 384.7 590.61 389.27 591.81 392.49 593.01 395.71 595.56 398.36 599.44 400.44 603.32 402.52 608.01 403.55 613.51 403.55 618.51 403.55 622.9 402.65 626.67 400.85 630.44 399.04 632.99 396.81 634.3 394.14 635.62 391.48 636.28 387.33 636.28 381.71 636.28 373.98 635.09 368.37 632.72 364.89 630.34 361.41 624.59 356.96 615.45 351.54 612.26 349.66 610.33 348.05 609.65 346.71 608.94 345.38 608.58 343.4 608.58 340.76 608.58 338.71 608.9 337.18 609.53 336.17 610.16 335.16 611.1 334.66 612.33 334.66 613.47 334.66 614.28 335.04 614.77 335.78 615.26 336.53 615.5 338.27 615.5 341L615.5 346.85 634.57 346.85 634.57 343.73C634.57 337.46 633.96 333.01 632.74 330.39 631.52 327.78 629.03 325.61 625.28 323.89 621.52 322.16 616.98 321.3 611.65 321.3zM62.34 322.96L62.34 338.76 74.48 338.76 74.48 401.9 95.01 401.9 95.01 338.76 107.2 338.76 107.2 322.96 62.34 322.96zM114.08 322.96L114.08 369.67C114.08 378.57 114.24 384.42 114.57 387.2 114.9 389.98 115.95 392.62 117.74 395.12 119.53 397.62 122.23 399.65 125.83 401.22 129.44 402.78 133.6 403.55 138.32 403.55 142.57 403.55 146.27 402.9 149.41 401.58 152.55 400.26 155.07 398.33 156.99 395.78 158.91 393.22 160.06 390.74 160.45 388.32 160.84 385.9 161.04 381.7 161.04 375.71L161.04 322.96 140.51 322.96 140.51 381.13C140.51 385.06 140.32 387.55 139.95 388.61 139.58 389.67 138.74 390.19 137.44 390.19 136.3 390.19 135.54 389.72 135.17 388.76 134.8 387.8 134.61 385.6 134.61 382.15L134.61 322.96 114.08 322.96zM171.48 322.96L171.48 401.9 197.37 401.9C202.28 401.9 205.95 401.63 208.39 401.09 210.83 400.55 212.88 399.61 214.53 398.26 216.19 396.91 217.35 395.05 218.02 392.66 218.68 390.27 219.02 385.53 219.02 378.44L219.02 350.8C219.02 343.32 218.79 338.31 218.34 335.76 217.88 333.21 216.74 330.89 214.92 328.81 213.1 326.73 210.45 325.23 206.95 324.32 203.46 323.42 196.75 322.96 186.84 322.96L171.48 322.96zM229.17 322.96L229.17 401.9 249.7 401.9 249.7 322.96 229.17 322.96zM260.43 322.96L260.43 401.9 296.03 401.9 296.03 386.1 280.96 386.1 280.96 368.74 293.78 368.74 293.78 353.72 280.96 353.72 280.96 338.76 294.66 338.76 294.66 322.96 260.43 322.96zM304.42 322.96L304.42 401.9 324.95 401.9 324.95 366.3C327.78 366.3 329.52 366.81 330.19 367.81 330.86 368.82 331.19 371.44 331.19 375.67L331.19 401.9 350.25 401.9 350.25 381.08C350.25 374.71 350.08 370.81 349.74 369.4 349.4 367.99 348.53 366.43 347.13 364.74 345.73 363.05 343 361.71 338.94 360.7 343.43 360.27 346.43 359.01 347.96 356.89 349.49 354.78 350.26 350.65 350.26 344.51 350.26 337.78 349.17 332.88 347.01 329.81 344.85 326.74 342.06 324.83 338.63 324.08 335.2 323.33 328.64 322.96 318.95 322.96L304.42 322.96 304.42 322.96zM380.79 322.96L380.79 401.9 413.8 401.9 413.8 386.1 401.32 386.1 401.32 322.96 380.79 322.96zM429.58 322.96L419.1 401.9 440.32 401.9 441.56 387.71 448.9 387.71 450.01 401.9 470.98 401.9 459.24 322.96 429.58 322.96zM476.96 322.96L476.96 401.9 494.13 401.9 494.13 366.01 504.81 401.9 522.8 401.9 522.8 322.96 505.64 322.96 505.64 358.5 494.13 322.96 476.96 322.96zM651.02 322.96L640.55 401.9 661.77 401.9 663.01 387.71 670.35 387.71 671.45 401.9 692.43 401.9 680.69 322.96 651.02 322.96zM698.41 322.96L698.41 401.9 716.35 401.9 716.38 349.82 723.91 401.9 736.64 401.9 743.78 348.61 743.8 401.9 761.75 401.9 761.75 401.9 761.75 322.96 735.04 322.96 730.32 359.82 727.41 339.74C726.57 333.3 725.76 327.71 724.97 322.96L698.41 322.96zM192.01 336.46C194.25 336.46 195.78 336.7 196.59 337.17 197.4 337.64 197.92 338.38 198.15 339.39 198.38 340.4 198.49 342.69 198.49 346.27L198.49 376.93C198.49 382.2 198.15 385.43 197.47 386.61 196.78 387.8 194.96 388.39 192.01 388.39L192.01 336.46zM324.95 336.46C327.32 336.46 328.96 336.86 329.85 337.63 330.74 338.42 331.19 340.06 331.19 342.56L331.19 346.9C331.19 350.38 330.73 352.43 329.8 353.07 328.87 353.7 327.26 354.02 324.95 354.02L324.95 336.46zM445.24 340.56C446.28 353.72 447.33 364.77 448.37 373.71L441.3 373.71C441.83 366.73 443.15 355.68 445.24 340.56zM666.68 340.56C667.73 353.72 668.77 364.77 669.81 373.71L662.74 373.71C663.28 366.73 664.59 355.68 666.68 340.56z" fill="#fff"/><path d="m588.93 311.29c-0.21-0.24-0.52-0.4-0.94-0.4-1.15-0.01-2.57-0.07-3.97-0.3 0.36-0.75-0.12-1.82-1.07-1.76-0.63 0.04-1.68 0.3-2.56 0.32 0.73-1.65 1.42-3.33 2.2-4.96 0.53-1.1-0.56-2.34-1.7-1.7-0.21 0.12-0.39 0.26-0.58 0.39-0.38-0.5-1.22-0.56-1.76-0.13-1.99 1.58-2.6 3.81-2.93 6.22-0.14 0.35-0.26 0.7-0.38 1.06-0.48 0.41-0.97 0.82-1.41 1.27m-42.79 0c-0.25-2.64-1.88-4.63-4.01-5.53 1.13-0.93 2.31-1.77 3.55-2.54-0.31 0.53 0.23 1.27 0.88 0.92 1.94-1.06 3.98-1.59 5.94-1.5 3.06 0.47 4.34 1.04 6.56 3.22 0.37 0.36 0.78 0.4 1.15 0.28 0.56 0.72 1.07 1.52 1.54 2.36 0.65 1.18 2.73 0.35 2.21-0.93-0.55-1.34-0.94-2.82-1.44-4.24 0.19-0.16 0.3-0.4 0.2-0.66-0.6-1.54-1.45-2.64-2.46-3.38-0.01 0-0.01-0.01-0.02-0.01-5.28-3.86-15.13 2.06-19.43 6.08-1.08-0.21-2.22-0.17-3.36 0.18 0.73-2.38 2.02-4.52 3.69-6.33-0.9 1.77-1.78 3.42-2.73 4.71-0.55 0.76 0.69 1.45 1.24 0.73 1.87-2.44 3.31-5.12 4.78-7.8 0.29-0.07 0.56-0.23 0.78-0.53 2.47-3.39 5.98-5.83 9.82-7.47 0.05-0.01 0.09-0.02 0.14-0.03 0.19-0.03 0.33-0.12 0.45-0.22 0.06-0.02 0.12-0.05 0.18-0.08 0.77-0.3 0.77-1.59-0.14-1.6-0.19-0.22-0.45-0.36-0.8-0.32-0.66 0.07-1.35 0.14-2.06 0.22 0.07-0.07 0.15-0.14 0.22-0.21 0.3-0.35 0.02-0.84-0.44-0.75-1.23 0.25-2.32 0.78-3.32 1.48-4.23 0.81-8.18 2.53-8.86 7.38-0.02 0.18 0.01 0.35 0.07 0.49-1.9 0.8-3.67 1.88-5.19 3.23-1.03-6.97-5.37-14.76-11.11-17.62-0.44-0.22-1 0.24-0.71 0.71 0.29 0.47 0.61 0.93 0.94 1.37-0.29 0.68-0.04 1.7 0.51 2.57 1.41 2.23 3.69 4.26 5.04 6.65 0.01 0.09 0.04 0.19 0.12 0.28 0.02 0.02 0.03 0.03 0.04 0.05 0.34 0.65 0.62 1.32 0.78 2.04 0.09 0.42 0.53 0.72 0.95 0.72 0.22 0 0.44 0 0.65-0.02 0.55 1.59 0.95 3.23 1.2 4.91-0.84 0.99-1.57 2.07-2.15 3.27-4.24 0.12-7.83 3.03-8.87 7.27-0.08 0.33 0.17 0.6 0.44 0.68m-245.12 0c-0.08 0.08-0.15 0.17-0.23 0.25-0.43 0.48-0.94 0.91-1.55 1.24-0.07 0.04-0.13 0.07-0.2 0.11-0.14 0.08-0.29 0.11-0.43 0.18-0.63 0.68-1.39 1.24-2.23 1.53-6.21 3.66-16.39 5.85-21.52 0.64-0.04 0.03-0.07 0.07-0.11 0.1-3.92 4.22-11.63 2.99-14.03-1.57-0.48-0.98-0.79-1.7-1-2.48l-9.44 0c0.11-0.15 0.18-0.33 0.2-0.53 0.16-1.82-1.58-2.85-2.49-4.21-0.7-1.05-1.19-2.54-1.18-3.9 0.34-0.03 0.68-0.16 0.97-0.4 1.89-1.56 1.34-6.67 1.49-8.85 0.25-3.6 1.07-7.8 0.14-11.35-0.1-0.4-0.48-0.84-0.9-0.9-0.2-0.03-0.36-0.05-0.57-0.02l-0.12 0.02c-0.11 0.01-0.21 0.05-0.31 0.11-0.1-0.84-0.26-1.67-0.46-2.49 1.4-0.88 1.59-3.43-0.47-3.91-0.41-0.1-0.83-0.19-1.24-0.29-0.41-0.69-0.88-1.36-1.43-2.01-0.69-0.82-2.19 0.05-1.82 1.06 0.03 0.08 0.05 0.16 0.08 0.24 0 0 0 0-0.01 0-1.36-1.38-3.86-1.96-5.56-2.64-2.37-0.94-4.71-2.09-7.16-2.8-0.52-0.15-1.09 0.02-1.47 0.39l0 0c0.22-0.21 0.11-0.18-0.1-0.06-0.72-0.46-1.43-0.94-2.12-1.49-0.07-0.35-0.1-0.69-0.35-1.02-0.53-0.72-1.62-1.06-2.31-0.3-0.16 0.18-0.32 0.36-0.49 0.54-0.62 0.68-0.55 1.51 0 2.2 5.13 6.44 13.14 8.03 20.77 9.83 0.01 0.07 0.04 0.15 0.05 0.22 1.32 1.27 2.3 3.06 2.61 5.41 0.33 2.46 0.17 4.91-0.33 7.29-0.11 4.58-0.38 9.21-2.63 13.02-0.35 0.59-0.74 1.07-1.16 1.51 0.08 1.94 0.42 3.83 1.26 5.36m-33.81 0c-0.93 1.52-2.38 2.76-4.29 3.37-1.39 0.45-3.17 0.51-4.68 0.03-0.16 0.02-0.31 0.05-0.41 0.07-1.86 0.47-3.53 0.39-5.06-0.1-4.74 1.97-11.3 2.31-14.99 0.17-1.37-0.83-2.32-2.11-2.79-3.54l-0.65 0c0.66-2.19 1.25-4.41 1.95-6.59 0.12-0.38 0.1-0.71-0.01-0.99 0.11-0.55-0.54-1.13-1.07-0.88-0.75-0.19-1.64 0.1-1.96 1.03-0.03 0.08-0.05 0.17-0.08 0.25-0.54 0.5-1 1.09-1.38 1.72-0.99 1.63-1.02 3.63-0.8 5.47m-89.83 0c1.37-3.48-0.27-7.5-3.66-9.26-0.12-0.06-0.24-0.12-0.36-0.17 0.07-0.13 0.12-0.28 0.14-0.46 0.64-6.73 5.01-11.41 9.83-15.67 0.94-0.83-0.04-2.5-1.23-2.1-4.19 1.4-7.2 3.52-10.11 6.85-0.46 0.53-0.89 1.09-1.31 1.66 0.84-5.04 1.73-10.07 1.44-15.21-0.01-0.13-0.04-0.25-0.08-0.36 0.14-1.63-0.07-3.24-0.9-4.81-0.11-0.2-0.41-0.15-0.47 0.06-0.53 1.82-0.94 3.66-1.37 5.5-2.21 3.86-3.62 8.09-4.37 12.45-2.93-7.44-7.98-14.04-11.89-21.25-0.52-0.96-2.19-0.29-1.79 0.75 3.8 9.95 7.22 19.91 8.96 30.43-0.22-0.02-0.44-0.05-0.67-0.06-0.52-0.02-1.03 0.03-1.52 0.1-3.8-8.8-19.4-7.59-24.89-0.84-0.29 0.35-0.03 0.95 0.47 0.81 3.13-0.89 7.95-2.81 12.49-3.45 3.16 0.41 5.35 2.71 7.24 5.74 0.05 0.08 0.12 0.12 0.17 0.19-1.71 1.8-2.7 4.33-2.66 6.88-0.42 0.06-0.82 0.15-1.2 0.28-0.96 0.34-1.21 1.24-0.92 1.95m525.1-11c1.21 0.23 2.18 0.92 3.11 1.66 0.05 0.13 0.09 0.27 0.14 0.4-1.52-1.24-3.31-2.06-5.37-2.23 0.71 0 1.41 0.04 2.12 0.17zm-11.02-9.25c-0.18 0.25-0.35 0.51-0.51 0.77-0.65 0.73-1.24 1.54-1.77 2.39-0.32 0.08-0.64 0.18-0.95 0.28 0.93-1.37 1.91-2.56 3.24-3.43zm-6.46 20.25c0.04-1.32-0.18-2.59-0.64-3.72 0.92-0.1 1.83-0.03 2.7 0.39 1.33 0.64 1.79 1.98 1.99 3.33m-7.88-7.73c0.04-0.31 0.06-0.65 0.08-0.98 0.48-0.81 1-1.59 1.67-2.18-0.77 1.17-1.36 2.42-1.77 3.71-0.07-0.03-0.14-0.06-0.21-0.08 0.12-0.11 0.21-0.26 0.23-0.46zm-12.01 7.73c0.11-0.04 0.2-0.11 0.27-0.25 1.46-3.28 4.27-5.41 7.93-5.38 0.13 0 0.25 0.03 0.38 0.04 0 0.01 0 0.02 0 0.02 0.05 0.52 0.57 0.74 0.98 0.41 0.08-0.06 0.15-0.14 0.23-0.21 0.84 0.25 1.54 0.68 2.06 1.25 0 0.41 0.25 0.8 0.65 0.91 0.49 0.93 0.68 2.04 0.54 3.22m-483.72 0c0.04-0.02 0.08-0.04 0.11-0.07 0.47-0.47 0.57-1.07 0.76-1.68 0.18-0.61 0.52-1.19 0.95-1.64 0.92-0.96-0.55-2.44-1.46-1.46-0.09 0.1-0.18 0.21-0.27 0.32-0.06-0.13-0.15-0.24-0.21-0.37 0.15-0.07 0.3-0.15 0.45-0.22 0.68-0.33 0.8-1.22 0.48-1.83-0.1-0.2-0.19-0.4-0.28-0.6 0.05-0.01 0.1-0.03 0.18-0.03 0.86-0.01 1.73 0.49 2.42 0.96 0.87 0.59 1.56 1.57 1.87 2.56 0.44 1.45-0.18 2.78-0.75 4.08m-11.2-19.84c-0.07 0.09-0.11 0.2-0.15 0.32-0.42-1.17-0.78-2.39-1.11-3.62 0.47 1.08 0.89 2.18 1.26 3.3zm-0.88 11.63c1.81 0.79 3.62 2.74 4.74 4.36 0.67 0.96 0.7 1.17-0.31 1.51-2.73 0.91-6.08 0.49-8.89 0.37-0.2-0.01-0.43-0.04-0.65-0.05 0.33-0.49 0.52-1.1 0.75-1.63 0.16-0.37 0.28-0.75 0.48-1.1 0.03-0.05 0.07-0.11 0.1-0.17 0.39-0.17 0.59-0.73 0.24-1.14-0.09-0.1-0.18-0.17-0.28-0.23-0.32-0.35-0.85-0.45-1.27-0.21-0.71 0.41-1.15 1.2-1.43 1.94-0.25 0.68-0.65 1.6-0.52 2.37-0.51-0.05-1.02-0.1-1.53-0.13 0.58-4.21 3.81-7.96 8.57-5.88z"/><path d="m761.68 509.03-752.08 0 0-97.19 752.08 0z" fill="#fff"/><path d="m479.18 268.41c0.02 0 0.03 0 0.04 0-0.01 0-0.01 0-0.01 0-0.01 0-0.01 0-0.02 0zM728.19 219.73 728.19 219.73 728.19 219.73 728.19 219.73 728.19 219.73 728.19 219.73c0.18-0.45 0.14-0.97-0.3-1.36-6.43-5.72-14.47-9.82-21.2-15.29-7.28-5.92-13.79-12.61-20.58-19.05 0.04-0.16 0.07-0.33 0.12-0.49-0.22-0.01-0.45-0.01-0.67-0.02-0.7-0.59-1.49-0.5-2.03-0.06-11.61-0.39-23.3-0.04-34.96 0.38-0.01-1.13-0.02-2.26-0.03-3.39 0-0.48-0.27-1.08-0.74-1.29-3.62-1.63-7.37-1.53-11.19-0.73-0.53 0.11-1.06 0.74-0.99 1.31 0.18 1.58 0.32 3.1 0.82 4.56-3.08 0.11-6.16 0.21-9.22 0.29-21.72 0.55-43.44 1.2-65.15 2.1-21.28 0.88-42.5 2.42-63.76 3.59-6.12 0.34-12.21 0.69-18.27 1.17-0.02-1.37-0.44-2.77 0.07-4.1 0.3-0.78-0.32-1.75-1.1-1.93-3.47-0.82-7.37-1.54-10.89-0.64-0.81 0.21-1.21 1.05-1.04 1.83 0.47 2.05 0.6 4.03 1.28 5.92-4.85 0.01-9.78 1.18-14.55 1.87-6.94 1.01-13.85 1.51-20.83 0.88-0.18-0.31-0.64-0.33-0.88-0.08-0.1-0.01-0.2-0.02-0.31-0.03-1.26-0.14-1.51 1.92-0.3 2.19 0.06 0.01 0.13 0.02 0.19 0.04-1.5 10.83-1.28 22.21-1.48 33.08-0.22 12.36 0.54 24.8 3.6 36.8 0.24 0.94 1.03 1.26 1.77 1.14 0.01 0.07 0.04 0.13 0.05 0.2 0.11 0.55 0.68 0.91 1.21 0.92 7.29 0.09 14.62-0.53 21.89-1.09 0.54-0.04 1.08-0.07 1.63-0.11 1.62 0.15 3.22 0.39 4.81 0.74 1.66-0.23 3.33-0.43 4.99-0.63-0.09 5.93-1.25 14.31 1.94 19.4 0.03 4.18 0.01 8.36-0.19 12.53-1.3-3.13-3.17-6.05-4.94-9.01-0.82-1.65-1.71-3.27-2.65-4.85-0.64-1.09-2.22-0.14-1.68 0.98 0.55 1.12 1.15 2.2 1.77 3.27 1.64 3.21 2.96 6.46 3.84 9.83-0.24 0.3-0.38 0.7-0.28 1.16 0.32 1.54 0.54 3.1 0.74 4.66-2.13-3.9-5.37-6.85-10.26-7.23-1.53-0.12-2 2.09-0.76 2.8 2.17 1.24 3.96 2.95 5.45 4.91-2.04-1.3-4.24-2.26-6.86-2.52-0.9-0.09-1.5 0.93-1.3 1.71 0.28 1.15 0.84 2.1 1.53 2.99-0.03 0.14-0.04 0.28-0.02 0.43-0.31-0.01-0.61-0.02-0.92-0.03-0.58 0-0.94 0.31-1.12 0.71-1.46-4.05-3.99-7.54-7.29-10.45-1.13-1-2.88 0.26-2.11 1.63 2 3.58 3.4 7.17 4.19 11.2 0.12 0.59 0.73 0.98 1.29 0.98 0.77 0.01 1.53 0.06 2.29 0.1 0.02 0.12 0.06 0.23 0.08 0.34 0.29 1.43 2.26 1.04 2.45-0.18 2.47 0.18 4.93 0.39 7.41 0.45 1.21 0.03 1.67-1.43 0.93-2.25-1.27-1.43-2.34-2.66-3.87-3.8-0.24-0.18-0.5-0.23-0.75-0.2-0.09-0.1-0.17-0.2-0.25-0.3 3.05 1.11 5.47 3.42 7.99 5.5 0.81 0.66 1.73 0.38 2.12-0.29 0.39 0.09 0.82 0.01 1.18-0.26 0.15 0.06 0.31 0.08 0.47 0.08-0.03 0.16-0.05 0.32-0.08 0.48-0.38 2.1 2.82 3 3.21 0.89 2.53-13.72 2.29-28.26 1.47-42.29 0.63-0.58 1.27-1.16 1.95-1.7 0.51-0.41 1.02-0.83 1.52-1.27 0.19-0.16 0.23-0.24 0.44-0.36 0.05-0.02 0.08-0.04 0.1-0.04-0.03 0-0.06 0-0.11-0.02 0.05 0.01 0.09 0.01 0.14 0.02 0.02 0 0.02 0 0.02 0 0.6 0.05 1.08-0.56 0.89-1.13 0.38-0.04 0.76-0.08 1.15-0.12-3.64 14.45-3.53 31.92-0.66 46.19 0.42 2.07 3.59 1.19 3.17-0.87-0.06-0.28-0.1-0.56-0.15-0.84 0.02-0.01 0.02-0.02 0.04-0.03 0.12 0.27 0.32 0.51 0.6 0.67 1.54 0.88 2.71 0.93 4.42 0.74 0.1 1.07 1.52 1.82 2.47 0.92 0.54-0.52 1.1-1.02 1.66-1.51 0.16-0.09 0.31-0.18 0.46-0.27 0 0.62 0.41 1.25 1.17 1.25 1.72 0 3.44 0 5.15 0.01 1.29 0 4.18-0.56 5.33-0.01 0.52 0.25 1.07 0.22 1.5-0.19 0.4-0.38 0.58-0.85 0.68-1.35 0.68 0.18 1.41-0.31 1.46-1.1 0.05-0.67 0.17-1.36 0.34-2.03 0.23-0.19 0.39-0.46 0.36-0.85-0.01-0.1-0.01-0.2-0.02-0.3 0-0.07-0.03-0.13-0.05-0.19 0-0.01 0.01-0.02 0.01-0.03 0.02 0.03 0.03 0.06 0.05 0.09 0.5 1.25 2.39 0.8 2.06-0.57-0.96-3.99-3.22-7.44-7.06-9.12-0.64-0.28-1.57 0.18-1.3 1 0.85 2.51 1.39 5 1.61 7.55-0.46-0.58-0.86-1.2-1.17-1.9-0.49-1.14-2.22-0.5-2.22 0.6 0 1.42 0.05 2.81 0.37 4.16l0 0c-1.9 0.43-3.79 0.92-5.68 1.41 1.3-0.88 2.46-1.9 3.44-3.4 0.56-0.85-0.13-1.98-1-2.19 1.15-1.14 2.35-2.25 3.6-3.33 1-0.86-0.06-2.83-1.34-2.3-3.9 1.63-7.19 3.78-10.19 6.41 2.25-3.93 5.35-7.33 8.6-10.64 1.01-1.03-0.33-2.9-1.57-2.04-4.33 2.98-8.46 6.29-11.62 10.36 2.41-7.13 6.85-13.46 10.26-20.25 0.48-0.96-0.79-2.11-1.56-1.21-5.03 5.9-9.69 12.1-11.98 19.57-0.56-11.54 1.13-22.99 1.35-34.62 6.98-0.65 13.99-1.15 21.11-1.5 23.26-1.13 46.46-3.06 69.7-4.5 19.93-1.23 39.88-2.2 59.84-2.96-0.15 1.59-0.26 3.18-0.38 4.77-0.07 0.24-0.09 0.48-0.06 0.7-0.49 6.92-0.78 13.85-1.52 20.76-0.48 4.56-0.97 9.11-1.36 13.67-0.38-2.47-0.92-4.93-1.58-7.35-1.07-4.47-2.94-8.81-5.15-12.82-0.82-1.47-3.07-0.15-2.25 1.32 2.94 5.3 4.69 10.74 5.99 16.4 0.32 1.59 0.56 3.18 0.74 4.77-1.81-6.04-5.02-11.88-9.97-14.33-0.91-0.45-2.45 0.32-1.95 1.5 2.74 6.52 6.17 12.72 9.14 19.13-0.37-0.17-0.76-0.37-1.14-0.58-2.88-2.71-6.21-4.65-9.98-6.02-1.34-0.59-2.75-1.05-4.27-1.3-1.77-0.29-2.57 2.34-0.76 2.75 0.55 0.12 1.08 0.26 1.61 0.4 4.35 1.31 8.05 4.39 12.12 6.27 1.05 1 2.02 2.1 2.87 3.37 0.62 0.93 1.87 0.55 2.22-0.21 0.06 0.02 0.12 0.04 0.19 0.05 0.29 0.48 0.93 0.57 1.35 0.31-0.03 0.94-0.05 1.89-0.06 2.84-0.02 2.16 3.33 2.16 3.35 0 0.16-16.56 4.35-33.82 3.54-50.48 0.76-0.74 1.53-1.47 2.3-2.2 0.98-0.94 3.01-2.26 3.18-3.69 0.01-0.11-0.02-0.21-0.05-0.31 0.19 0 0.37-0.01 0.56-0.02-0.72 10.36-1.9 20.67-2.66 31.03-0.7 9.43-1.59 19.73 0.78 28.97 0.43 1.69 3.05 1.33 3.03-0.41-0.02-1.88-0.07-3.75-0.12-5.61 0.23 0.18 0.52 0.27 0.81 0.26-0.42 1.34 1.07 1.95 2.08 1.42 0.33 0.9 1.57 1.52 2.5 0.67 3.17-2.89 6.64-4.65 10.79-5.62 0.53-0.12 0.92-0.66 0.91-1.2 0-0.18-0.01-0.36-0.01-0.54 0.01-0.8-0.61-1.2-1.24-1.19-0.62-0.01-1.25 0.39-1.24 1.19-0.02-1.79-3.5 0.02-6.87 1.1 3.88-4.28 8.12-8.19 12.53-11.97 0.84-0.72 0.1-1.92-0.82-1.99-0.53-0.04-1.05-0.04-1.56-0.02-0.38-0.2-0.85-0.25-1.3-0.02-0.12 0.06-0.23 0.14-0.35 0.2-5.86 1.06-10.29 6.22-13.64 11.43 1.37-6.14 4.52-11.65 8.28-16.76 0.26-0.25 0.53-0.5 0.78-0.74 0.28-0.25 0.38-0.54 0.38-0.81 1.5-1.95 3.06-3.85 4.63-5.7 0.82-0.97-0.22-2.54-1.41-1.83-6.27 3.73-13.33 10.88-15.56 18.31-0.01-3.03 0.05-6.08 0.23-9.15 0.64-10.37 1.62-20.7 1.11-31.1 0.96-0.04 1.91-0.07 2.87-0.1 12.89-0.43 25.91-0.29 38.91-0.36-0.01-0.24 0.01-0.49 0.01-0.73 14.27-10.17 28.42-21.68 40.88-33.99 0.85-0.84 0.82-1.86 0.35-2.65zm-222.1 85.34c0.22 0.83 0.47 1.66 0.7 2.48-0.1 0.28-0.18 0.57-0.25 0.86-0.12-0.11-0.24-0.22-0.35-0.33-0.01-1.17-0.08-2.33-0.22-3.48 0.04 0.15 0.08 0.31 0.12 0.46zm-22.85-1.52c-0.19 0.58-0.37 1.16-0.53 1.76-0.05-0.58-0.11-1.17-0.15-1.75 0.22 0.09 0.47 0.1 0.69 0zm154.93-122.64c2.46-0.33 5.02-0.34 7.35 0.54-0.01 0.84-0.01 1.68-0.02 2.51-2.46 0.09-4.93 0.18-7.39 0.27-0.12-1.07-0.05-2.23 0.06-3.32zm-168.36 6.62c2.29-0.24 4.62 0.08 6.87 0.58-0.12 1.19 0.06 2.44 0.34 3.58-2.26 0.2-4.52 0.42-6.78 0.67-0.32-1.56-0.54-3.33-0.43-4.83zm-32.85 78.89c0 0 0-0.01 0-0.01-2.92-11.79-3.51-23.83-3.6-35.93-0.08-10.77 1.2-22.01-0.04-32.76 1.05 0.18 2.14 0.31 3.25 0.43-2.66 10.45-2.43 22.25-2.41 32.85 0.02 11.92 1.08 24.02 3.59 35.69-0.27-0.08-0.53-0.17-0.78-0.28zm249.47-13.73c-12.86 0.34-25.74 1.09-38.38 1.5-24.5 0.79-48.98 2.02-73.44 3.56-23.24 1.47-46.44 3.5-69.7 4.67-8.71 0.44-17.85 0.75-26.98 1.54-0.02-0.01-0.05-0.02-0.07-0.02-7.87-0.94-16.69 1.28-24.62 1.88-3.42 0.26-9.26 1.71-13.6 1.25-2.38-11.93-3.6-23.88-3.79-36.05-0.17-11 1.66-21.81 2.06-32.72 0.06 0 0.12 0.01 0.18 0.02 0.16 0.41 0.35 0.79 0.65 1.12 0.3 0.34 0.79-0.16 0.49-0.49-0.15-0.16-0.26-0.36-0.35-0.57 0.55 0.04 1.08 0.09 1.64 0.12 0.02 0.37 0.33 0.73 0.8 0.62 0.84-0.2 1.68-0.38 2.53-0.56 8.1-0.06 16.71-1.43 23.83-3.5 11.08-1.01 22.25-1.39 33.27-1.96 20.38-1.07 40.72-2.47 61.11-3.28 20.77-0.82 41.54-1.37 62.32-1.85 19.66-0.46 39.65 0.07 59.3-1.55 6.1 7.1 13.14 13.45 20.28 19.48 5.84 4.92 12.68 11.05 20.04 13.91-11.95 11.55-26.04 20.99-37.55 32.94zM277.13 116.36c-4.1 0.94-8.93 4.88-7.32 7.55 0.23 0.39 0.69 0.39 1.02 0.13 0.56-0.44 0.87-1.22 1.26-1.81 0.44-0.65 1.02-1.19 1.65-1.66 2.43-0.52 5.12-0.4 7.3 0.23 0.81 0.24 1.57-0.41 1.6-1.22 0.09-2.52-3.32-4.51-5.5-3.22zM264.27 82.68c-0.9-1.09-2.33-1.67-3.41-2.56-1.08-0.88-1.9-2.07-2.58-3.27-0.29-0.5-0.95-0.14-0.87 0.37 0.47 2.97 3.29 6.27 6.46 6.45 0.55 0.03 0.7-0.63 0.41-0.99z"/><path d="m174.45 309.08c-0.11-0.07-0.2-0.27-0.25-0.54-0.05-0.27-0.08-0.61-0.09-1.19l-0.01-0.55 0.04 0.45c0.06 0.76 0.13 1.27 0.2 1.51 0.04 0.14 0.19 0.29 0.29 0.29 0.07 0 0.22-0.11 0.38-0.29 0.44-0.46 0.61-0.83 0.7-1.47 0.08-0.58 0.08-1.53 0-2.3-0.15-1.46-0.59-2.89-1.13-3.72-0.21-0.31-0.39-0.49-0.67-0.62-0.2-0.09-0.34-0.13-0.57-0.13-0.46 0-0.67 0.15-0.67 0.48 0 0.23 0.1 0.56 0.36 1.2 0.09 0.21 0.16 0.39 0.15 0.39-0.01 0.01-0.37-0.71-0.45-0.89-0.28-0.64-0.27-0.99 0.05-1.15 0.19-0.1 0.65-0.15 0.89-0.1 0.73 0.15 1.44 1.31 1.88 3.05 0.22 0.89 0.34 1.78 0.34 2.63 0 1.05-0.17 1.81-0.5 2.33-0.1 0.15-0.34 0.39-0.5 0.5-0.18 0.12-0.34 0.16-0.45 0.09zm-16.93 2.66c0.07-0.26 0.11-0.5 0.11-0.84 0-0.33-0.02-0.53-0.09-0.9-0.33-1.68-1.47-3.97-2.96-5.96-0.52-0.69-1.02-1.28-1.59-1.85-0.5-0.5-0.75-0.72-1.53-1.32-0.79-0.61-1.87-1.38-2.11-1.49l-0.09-0.04-0.09 0.06c-0.2 0.13-1.82 1.34-2.38 1.78-2.58 2.02-3.91 3.45-4.44 4.76-0.11 0.27-0.17 0.52-0.25 1-0.02 0.11-0.04 0.2-0.04 0.2-0.01 0.01-0.01-0.03 0.01-0.13 0.01-0.05 0.02-0.22 0.03-0.37 0.01-0.18 0.03-0.31 0.05-0.4 0.29-1.11 1.69-2.83 3.42-4.19 0.12-0.09 1.01-0.77 1.97-1.5 1.38-1.05 1.75-1.33 1.77-1.32 0.04 0.02 2.6 1.89 2.77 2.03 0.79 0.62 1.76 1.66 2.66 2.88 0.81 1.09 1.45 2.14 1.92 3.15 0.48 1.03 0.78 1.9 0.92 2.68 0.07 0.41 0.09 0.55 0.09 0.96 0 0.32-0.01 0.41-0.04 0.58-0.05 0.31-0.07 0.35-0.12 0.36l-0.04 0.01 0.04-0.12 0 0zm6.2 1.35c-0.77-0.48-0.95-0.83-2.09-4.1-1.79-5.15-1.92-5.71-1.54-6.62 0.34-0.81 2.54-2.9 3.67-3.48 0.56-0.29 1.37-0.27 1.97 0.03 1.02 0.52 2.64 2.45 3.41 4.07 0.77 1.6 0.93 2.39 0.94 4.32 0 1.44-0.04 1.79-0.27 2.35-0.39 0.97-1.29 2.44-1.42 2.31-0.06-0.06-0.14-0.95-0.18-1.98-0.12-3.03-0.49-4.56-1.1-4.56-0.62 0-0.91 1.16-1.09 4.25-0.13 2.29-0.26 2.89-0.69 3.33-0.37 0.37-1.08 0.4-1.62 0.06l0 0zm-17.65 1.73c-1.36-0.36-3.28-1.15-4.08-1.68-1.37-0.91-1.95-1.9-1.79-3.07 0.12-0.85 0.46-1.42 0.96-1.58 0.53-0.17 0.85-0.75 0.99-1.79 0.22-1.56 1.72-3.29 5.03-5.82 1.08-0.82 2.01-1.51 2.06-1.53 0.13-0.04 2.59 1.76 3.31 2.42 2.48 2.29 4.75 6.2 5.05 8.69 0.16 1.37-0.45 2.52-1.69 3.16-0.86 0.44-3.33 0.81-3.92 0.58-0.63-0.24-0.74-0.76-0.85-3.89-0.1-2.98-0.23-4.02-0.57-4.78-0.16-0.35-0.28-0.47-0.5-0.47-0.58 0-0.91 1.19-1.23 4.5-0.24 2.43-0.46 3.72-0.81 4.63-0.37 0.98-0.48 1.01-1.97 0.62l0 0zm131.01-8.62c-0.01-1.24-0.92-4.23-2.02-6.65-2.28-5.02-1.95-6.54 0.58-2.67 1.68 2.57 3.31 11.57 2.09 11.57-0.35 0-0.64-1.01-0.65-2.25zm-16.87-2c-1.63-3.16-2.55-5.75-2.04-5.75 0.51 0 0.93-0.59 0.93-1.31 0-0.72 0.6-2.13 1.33-3.13 1.08-1.48 1.72-1.61 3.42-0.7 3.62 1.94 5.56 4.33 4.19 5.17-1.43 0.88-0.68 4.6 1.5 7.46 1.32 1.73 1.66 1.79 2.53 0.5 0.83-1.23 1.01-1.12 1.02 0.65 0.01 1.87-0.63 2.2-4.95 2.5l-4.96 0.35-2.96-5.75zm-21.91 11.05c-0.66-0.66-1.2-1.9-1.19-2.75 0.02-2.68 4.61-11.45 7.29-13.91l2.57-2.36 2.89 2.06c5.02 3.57 10.57 13.23 8.39 14.58-0.51 0.32-1.2-0.47-1.52-1.74-0.66-2.63-4.99-7.67-6.6-7.67-0.58 0 0.04 1.69 1.38 3.75 3.47 5.33 3.62 7.46 0.59 8.33-4.1 1.18-12.51 1-13.8-0.28zm-69.95-3.12c-0.08-0.06-0.14-0.35-0.17-0.85-0.03-0.44-0.06-2.56-0.04-2.4 0 0.02 0.03 0.45 0.05 0.96 0.07 1.27 0.12 1.91 0.17 2.11 0.03 0.11 0.11 0.06 0.3-0.2 0.41-0.55 0.98-1.59 1.21-2.22 0.17-0.46 0.21-0.9 0.21-2.12 0-1.7-0.12-2.46-0.55-3.54-0.37-0.93-0.78-1.68-1.31-2.42l-0.09-0.13 0.07 0.01 0.07 0.01 0.14 0.2c0.62 0.91 1.15 2.04 1.45 3.08 0.56 1.93 0.54 3.77-0.05 5.27-0.12 0.31-0.35 0.76-0.79 1.5-0.25 0.43-0.45 0.7-0.55 0.75-0.06 0.03-0.06 0.03-0.11-0.01l0 0zm-7.59-10.84c0.02-0.04 0.6-0.61 0.93-0.91 1.21-1.12 1.98-1.62 2.71-1.77 0.23-0.05 0.61-0.04 0.83 0.02 0.54 0.14 1.06 0.49 1.75 1.18 0.46 0.46 0.77 0.82 1.12 1.28 0.14 0.18 0.15 0.21 0.13 0.22-0.07 0.01-0.11-0.01-0.2-0.15-0.36-0.5-0.93-1.15-1.35-1.53-0.75-0.7-1.26-0.94-1.97-0.94-0.43 0-0.74 0.08-1.06 0.26-0.65 0.37-1.46 1.04-2.34 1.92-0.41 0.41-0.46 0.45-0.5 0.45-0.05 0-0.05 0-0.04-0.03zm3.51 12.12c-0.66-0.14-1.31-0.69-1.65-1.4-0.03-0.07-0.13-0.33-0.21-0.59-0.39-1.2-0.99-2.94-1.6-4.67-0.42-1.19-0.5-1.41-0.63-1.84-0.26-0.84-0.35-1.31-0.33-1.79 0.02-0.45 0.12-0.78 0.37-1.17 0.1-0.15 0.32-0.44 0.44-0.56 0.07-0.07 0.09-0.08 0.14-0.08l0.06 0-0.06 0.07c-0.59 0.69-0.76 0.97-0.85 1.42-0.04 0.18-0.04 0.48-0.02 0.7 0.04 0.35 0.18 0.91 0.38 1.59 0.21 0.69 0.84 2.56 1.47 4.38 0.89 2.54 1.15 3.07 1.69 3.48 0.25 0.18 0.46 0.29 0.7 0.35 0.19 0.05 0.52 0.05 0.69 0 0.18-0.05 0.33-0.13 0.46-0.26 0.27-0.26 0.4-0.57 0.51-1.19 0.08-0.47 0.1-0.76 0.21-2.21l0.04-0.64-0.01 0.72c-0.01 0.83-0.03 1.24-0.09 1.75-0.13 1.05-0.42 1.65-0.89 1.87-0.21 0.1-0.55 0.13-0.82 0.07l0 0zm-17.2 1.68c-0.65-0.07-1.63-0.34-2.62-0.7-1.68-0.62-2.68-1.18-3.41-1.9-0.33-0.33-0.5-0.55-0.66-0.88-0.2-0.4-0.26-0.68-0.26-1.16 0-0.76 0.21-1.42 0.55-1.76 0.14-0.14 0.23-0.19 0.38-0.21 0.06-0.01 0.14-0.02 0.17-0.03 0.11-0.02 0.09 0-0.05 0.05-0.42 0.16-0.7 0.52-0.87 1.11-0.1 0.36-0.15 0.75-0.12 1.05 0.03 0.34 0.09 0.56 0.23 0.86 0.26 0.55 0.74 1.07 1.43 1.54 0.24 0.17 0.38 0.25 0.68 0.41 1.1 0.57 2.59 1.13 3.84 1.44 0.85 0.21 1.13 0.21 1.34-0.03 0.09-0.1 0.14-0.2 0.24-0.44 0.41-0.98 0.62-2.08 0.9-4.8 0.12-1.13 0.12-1.14 0.05-0.07-0.08 1.13-0.16 1.86-0.29 2.66-0.29 1.73-0.67 2.77-1.05 2.85-0.07 0.02-0.38 0.02-0.49 0.01l0 0zm5.14-0.76c-0.26-0.04-0.43-0.12-0.59-0.27-0.24-0.23-0.36-0.61-0.44-1.29-0.05-0.49-0.06-0.84-0.07-1.95l-0.01-1.06 0.04 0.85c0.07 1.67 0.13 2.32 0.23 2.77 0.14 0.6 0.37 0.84 0.86 0.91 0.67 0.09 2.42-0.16 3.32-0.48 0.65-0.23 1.22-0.67 1.59-1.22 0.1-0.15 0.24-0.41 0.3-0.58 0.04-0.1 0.05-0.12 0.08-0.13 0.02 0 0.04 0 0.04 0 0 0.03-0.06 0.2-0.11 0.32-0.42 0.98-1.33 1.6-2.82 1.93-0.79 0.17-1.99 0.28-2.43 0.21l0 0zm22.2-5.44c-0.09-0.11-0.2-0.82-0.26-1.74-0.15-2.31-0.33-3.14-1.08-4.88-0.52-1.21-0.51-1.59 0.04-1.7 0.51-0.1 1.06 0.13 1.39 0.59 0.76 1.08 1.28 3.11 1.28 5.04 0 1.38-0.16 1.95-0.72 2.53-0.38 0.4-0.45 0.41-0.66 0.15l0 0zm163.15-59.67c-1.26-1.5-2.29-3.06-2.29-3.46 0-1.32 2.71-2.31 4.18-1.52 1.8 0.96 4.53 5.46 3.92 6.45-0.28 0.46-1.03-0.43-1.78-2.11-0.71-1.59-1.79-2.9-2.39-2.9-1.39 0-1.38 0.93 0.02 3.64 1.59 3.08 0.99 3.04-1.65-0.11zm7.86-1.91c-0.46-0.89-1.44-2.22-2.19-2.96-1.32-1.31-1.34-1.36-0.88-1.78 0.46-0.42 0.52-0.4 1.46 0.45 1.27 1.15 2.3 3.07 2.49 4.65 0.08 0.69 0.11 1.26 0.05 1.26-0.05 0-0.47-0.73-0.93-1.61l0 0zm-4.28 10.48c-0.02-1.19-0.31-2.89-0.64-3.76-0.44-1.14-0.18-1.43 0.91-1.01 0.97 0.37 1.67-0.08 1.91-1.24 0.28-1.32 0.54-1.06 0.96 0.98 0.39 1.9-0.02 3.5-1.27 5l-1.84 2.2-0.03-2.17zm-16.99 4.75c-0.8-1.49-0.36-3.41 1.94-8.54l2.97-6.62 2.84 1.47c3.74 1.94 7.03 8.91 5.23 11.08-1.76 2.12-3.02 1.9-3.02-0.53 0-1.13-0.69-3.38-1.53-5-1.81-3.5-4.04-4.02-3.01-0.7 1.98 6.42 2.24 9.65 0.81 10.2-2.78 1.07-5.21 0.53-6.23-1.37l0 0z" fill="#ffe680"/><path d="m189.36 187.64c-3.61-5.63-6.72-8.74-9.92-9.92l-2.29-0.85 3.04-4.2c1.67-2.31 5.59-5.89 8.71-7.96 5.33-3.54 6.2-3.78 14.68-4.12 5.26-0.21 10.7 0.15 13.07 0.86 5.36 1.61 12.6 6.66 12.6 8.8 0 0.94-1.83 4.4-4.07 7.7-2.24 3.3-4.32 7.23-4.62 8.75-0.3 1.52-0.61 2.76-0.68 2.77-0.07 0.01-5.75 0.68-12.62 1.49-6.87 0.82-13.02 1.49-13.65 1.49-0.63 0.01-2.53-2.15-4.23-4.8z" style="fill:#80b3ff;stroke-linecap:round;stroke-linejoin:round;stroke-width:0;stroke:#fff"/><path d="m191.73 222.98c-2.2-1.39-4.4-2.66-4.9-2.83-0.49-0.17 0.26-3.88 1.68-8.26 1.42-4.37 2.87-9.4 3.22-11.17 0.72-3.62 0.1-3.43 17-5.3 5.5-0.61 10.8-1.34 11.78-1.62 1.42-0.41 2.5 1.05 5.32 7.15 1.95 4.22 3.4 7.77 3.22 7.9-0.18 0.13-2.42 1.01-4.98 1.95-4.42 1.64-12.89 9.27-14.01 12.63-0.33 0.99-2.54 1.51-7.4 1.73-6 0.28-7.47-0.02-10.93-2.2zM193.07 264.83 193.07 264.83 193.07 264.83 193.07 264.83 193.07 264.83 193.07 264.83c-0.09-0.49-0.2-3.53-0.25-6.76-0.08-5.13-0.42-6.13-2.73-7.87-3.63-2.73-11.18-2.66-16.72 0.17-3.49 1.78-4.12 2.53-3.58 4.23 0.47 1.49 0.28 1.94-0.7 1.61-1.45-0.49-1.65-5.65-0.37-9.52 0.61-1.83 0.37-2.25-1.26-2.25-1.11 0-2.28-0.71-2.62-1.58-0.97-2.53-0.7-6.42 0.44-6.42 1.89 0 5.89 5.43 5.34 7.25-0.72 2.4 1.83 2.26 4.08-0.21 4.52-5 16.27-6.4 22.02-2.64 2.98 1.95 3.37 6.62 1.01 12.26-0.82 1.97-1.5 4.94-1.5 6.58 0 2.63 0.27 2.92 2.25 2.34 1.24-0.36 6.34-1.07 11.33-1.58 5-0.51 11.23-1.4 13.85-1.99 4.68-1.05 10.56-3.59 10.56-4.56 0-0.27-1.07-2.19-2.39-4.27-6.49-10.28-8.91-22.02-5.76-27.9 1.31-2.44 6.63-4.27 12.47-4.28 4.35-0.01 18.48 4.44 20.54 6.46 1.97 1.93 0.52 3.53-3.18 3.54-7.73 0.01-21.39 5.96-22.34 9.73-0.87 3.45 0.42 8.65 3.12 12.63l2.42 3.57-2.7 1.9c-5.24 3.69-10.88 6.02-18.25 7.52-9.53 1.95-24.9 3.19-25.11 2.03l0 0zM249.76 214.83c-1.21-1.21-1.54-3.14-1.32-7.75 0.29-6.01 0.36-6.14 3.29-6.43l3-0.29 0 8.04c0 6.86-0.25 8.04-1.68 8.04-0.92 0-2.41-0.73-3.29-1.62z" style="fill:#f95;stroke-linecap:round;stroke-linejoin:round;stroke-width:0;stroke:#fff"/><path d="m176.44 218.71-4.88-0.38 0.54-14.69c0.54-14.71 2.51-24.19 5.02-24.19 1.68 0 10.27 9.54 11.7 12.99 1.1 2.66 0.94 4.03-1.27 10.78-1.39 4.25-2.84 9.65-3.22 11.99-0.38 2.35-1.21 4.17-1.85 4.07-0.64-0.1-3.36-0.35-6.05-0.56l0 0z" style="fill:#d5f;stroke-linecap:round;stroke-linejoin:round;stroke-width:0;stroke:#fff"/><path d="m234.83 211.95c-0.74-1.37-1.71-2.5-2.17-2.5-0.46 0-0.84-0.79-0.86-1.75-0.01-0.96-1.77-5.04-3.9-9.06-3.52-6.63-3.78-7.65-2.86-10.98 1.52-5.52 5.82-13.22 7.38-13.22 1.91 0 4.93 6.31 7.87 16.44 1.37 4.72 2.95 9.45 3.52 10.51 0.57 1.06 1.03 4.43 1.03 7.49l0 5.57-4.33 0c-3.6 0-4.56-0.42-5.67-2.5z" style="fill:#fd5;stroke-linecap:round;stroke-linejoin:round;stroke-width:0;stroke:#fff"/><path d="m170.9 236.63c-0.84-2.02-0.87-3.59-0.12-5.57 0.57-1.51 1.05-4.33 1.05-6.27l0-3.52 4.25 0.67c8.25 1.3 12 2.93 16.85 7.29 2.69 2.42 4.9 4.7 4.9 5.06 0 0.36-3.94 0.66-8.75 0.66-7.28 0-9.39 0.38-12.56 2.25-2.09 1.24-3.95 2.25-4.13 2.25-0.18 0-0.85-1.27-1.49-2.82z" style="fill:#5f9;stroke-linecap:round;stroke-linejoin:round;stroke-width:0;stroke:#fff"/><path d="m202.88 254.25c1.35-4.72 1.1-12-0.49-14.1-1.22-1.61-0.67-2.54 5.39-9 3.71-3.96 8.19-8.86 9.94-10.88 2.97-3.43 10.22-7.82 12.92-7.82 2.37 0 1.1 1.85-2.57 3.74-2.06 1.06-4.39 3.24-5.17 4.84-3.48 7.13-2.19 18.71 3 26.89 2.02 3.19 2.53 4.72 1.67 5.02-3.89 1.33-14.08 3.4-19.44 3.95l-6.19 0.64 0.94-3.29 0 0z" style="fill:#f55;stroke-linecap:round;stroke-linejoin:round;stroke-width:0;stroke:#fff"/><path d="m199.73 228.63c-1.75-1.74-1.23-1.46-4.81-4.13l15.37-1.72c-0.28 0.03-2.09 6.58-4.11 9.02l-3.13 3.78c-1.1-2.38-0.66-3.57-3.31-6.95z" style="fill:#f95;stroke-linecap:round;stroke-linejoin:round"/><path d="m215.17 268.88c-0.82-0.99-0.17-1.33 3.57-1.82 5.44-0.72 7.58 0.57 3.37 2.04-3.79 1.32-5.72 1.26-6.95-0.22z" style="fill:#80b3ff;stroke-linecap:round;stroke-linejoin:round"/><path d="m226.31 266.12c-0.91-0.57-0.62-0.75 3.54-2.21 0.41-0.14 1.04 0.1 1.41 0.55 0.5 0.61 0.27 0.99-0.93 1.53-1.91 0.87-2.8 0.9-4.03 0.13z" fill="#fd5"/><path d="m205.64 270.27-1.39-1.48 3.57-0.37c3.16-0.33 3.69-0.21 4.68 1.01 1.39 1.71 0.65 2.3-2.9 2.31-1.89 0.01-2.93-0.38-3.95-1.47z" fill="#5f9"/><path d="m233.13 263.35c-0.75-0.42-0.73-0.45 1.57-1.59 1.29-0.64 2.59-1.39 2.89-1.66 0.7-0.61 0.95-0.37 0.69 0.66-0.14 0.55-0.8 1.16-2.08 1.92-2.12 1.26-2.03 1.25-3.07 0.67z" fill="#f55"/><path d="m200.91 271.18c-2.72-0.74-3.3-1.04-3.09-1.58 0.16-0.42 0.52-0.47 2.24-0.28 1.49 0.16 1.98 0.12 1.82-0.14-0.12-0.2-0.04-0.35 0.19-0.34 0.23 0.01 0.71 0.64 1.07 1.41l0.66 1.4-0.66-0.02c-0.36-0.01-1.37-0.21-2.23-0.45z" fill="#d5f"/><path d="m638.51 182.37c0-1.67 4.76-1.67 5.79 0 0.45 0.73-0.63 1.29-2.5 1.29-1.81 0-3.29-0.58-3.29-1.29zm-167.35 7.72c0-0.71 1.16-1.29 2.57-1.29 1.42 0 2.57 0.58 2.57 1.29 0 0.71-1.16 1.29-2.57 1.29-1.42 0-2.57-0.58-2.57-1.29zm4.89 101.37c0.4-15.03 0.96-20.08 2.41-21.56 1.67-1.7 1.78-1.33 0.86 3.22-0.57 2.83-0.98 12.54-0.91 21.56 0.1 11.76-0.29 16.41-1.37 16.41-1.11 0-1.37-5.19-0.99-19.63zm159.06 11.59c0.45-4.43 1.2-14.84 1.66-23.15 0.7-12.55 1.26-15.48 3.31-17.33 2.4-2.17 2.44-2.06 1.69 4.16-1.52 12.63-2.93 37.74-2.31 41.02 0.54 2.8 0.17 3.34-2.26 3.34-2.79 0-2.87-0.31-2.09-8.05zM515.34 230.29c0.05-0.54 1.13-3.31 2.4-6.14l2.31-5.15 1.93 4.51c1.06 2.48 1.58 4.87 1.14 5.3-1.3 1.3-7.89 2.55-7.78 1.48zm-75.3 34.25c-2.81-8.54-4.03-40.13-2.22-57.12l0.83-7.72 5.15-0.32c2.83-0.18 10.36-1.18 16.73-2.23 16.47-2.71 98.27-6.88 165.18-8.43l57.05-1.32 10.54 9.81c9.43 8.77 21.2 18.23 27.14 21.8 1.79 1.08-0.85 3.83-16.06 16.73l-18.2 15.45-10.48 0.92c-5.77 0.51-31.05 1.84-56.18 2.96-25.13 1.12-57.86 2.88-72.73 3.9-14.87 1.02-41.52 2.76-59.22 3.86-17.7 1.1-35.5 2.33-39.56 2.74-5.62 0.56-7.52 0.32-7.96-1.03zm22.87-17.54c0.34-1.24 1-5.15 1.47-8.69 1.72-13.14 2.01-13.46 5.29-6.03 1.73 3.93 3.77 6.68 4.95 6.68 1.1 0 4.67-3.62 7.92-8.05 3.25-4.43 6.2-8.34 6.54-8.69 0.35-0.35 0.22 3.52-0.28 8.61-1.07 10.89-0.11 16.2 2.83 15.61 2.99-0.59 3.67-32.7 0.72-33.84-1.07-0.41-2.07-0.59-2.22-0.39-0.16 0.19-3.34 4.7-7.07 10.01-3.73 5.31-6.99 9.89-7.24 10.18-0.25 0.29-2.28-3.62-4.52-8.69-6.1-13.8-7.73-12.82-10.95 6.56-1.72 10.34-2.19 16.32-1.38 17.38 1.73 2.25 3.22 2.01 3.95-0.64zm47.14-6.65c1.08-2.61 2.69-3.88 5.61-4.41 2.25-0.41 5.33-1.11 6.85-1.55 2.23-0.65 3.53 0.31 6.82 5.1 3.93 5.71 6.8 7.28 8.44 4.63 0.43-0.7-0.87-3.74-2.89-6.76-3.9-5.81-10.07-19.19-10.84-23.5-0.26-1.44-1.47-2.57-2.76-2.57-3.43 0-20.22 32.5-17.62 34.11 2.31 1.43 4.39-0.21 6.39-5.04l0 0zm48.96 2.19c4.44-1.63 10.3-7.45 10.3-10.24 0-2.85-3.76-5.28-12.55-8.11-4.99-1.61-6.76-2.81-6.76-4.61 0-4.61 11.17-7.9 14.73-4.34 2.55 2.55 5.08 0.89 4.37-2.87-0.37-1.93-1.83-2.46-7.57-2.77-9.63-0.51-15.84 3.39-16.42 10.31-0.44 5.29 0.53 6.12 11.83 9.96 3.62 1.23 6.59 2.76 6.59 3.4 0 2.25-11.11 6.86-14.77 6.13-4.66-0.93-6.56 2.95-2.27 4.63 2.89 1.13 6.57 0.69 12.53-1.49zm34.76-15.02 0-14 4.02-0.8c2.21-0.44 5.69-0.8 7.72-0.8 3.65 0 5.18-2.8 2.45-4.48-1.62-1-31.19 3.27-32.86 4.74-2.25 1.99 2.21 3.51 8.01 2.71l5.5-0.75 0 11.66c0 12.74 0.64 15.73 3.36 15.73 1.42 0 1.79-2.89 1.79-14zm33.47 12.07c6.02-1.06 11.09-1.93 11.26-1.93 0.18 0 0.32-0.84 0.32-1.86 0-3.47-1.3-3.47-16.41-0.04-2.57 0.58-2.9 0.16-2.9-3.79 0-4.77 0.44-5.07 9.65-6.65 5.43-0.93 8.37-2.58 8.37-4.71 0-0.81-3.08-0.95-8.37-0.38-8.16 0.87-8.37 0.82-8.35-2.1 0.03-4.47 1.38-5.76 7.06-6.72 10.63-1.8 12.23-2.32 12.23-3.96 0-2.63-3.71-2.87-14.48-0.93l-9.98 1.8-0.08 8.56c-0.04 4.71-0.56 11.45-1.15 14.99-0.68 4.07-0.59 7.03 0.23 8.05 0.72 0.89 1.38 1.61 1.47 1.61 0.09 0 5.09-0.87 11.11-1.93zm27.26-15.41c0.58-9.33 1.43-14.29 2.57-15.04 2.75-1.8 10.33-0.65 11.86 1.79 1.86 2.98-2.41 7.35-8.38 8.57-2.38 0.49-4.45 1.73-4.6 2.77-0.31 2.12 17.21 14.11 20.61 14.11 4.06 0 2.19-3.73-3.95-7.87-3.36-2.27-6.32-4.29-6.57-4.49-0.25-0.2 1.63-2.19 4.18-4.43 5.32-4.67 6.14-9.78 2.15-13.39-2.67-2.41-11.81-2.93-18.51-1.04l-3.62 1.02-0.67 14.53c-0.71 15.23-0.22 18.81 2.44 17.92 1.08-0.36 1.89-5.12 2.48-14.45l0 0z" fill="#deaa87"/><path d="m371.81 459.51c1.66 1.53 5.04 3.98 10.14 7.36 5.1 3.35 8.31 5.74 9.61 7.17 1.27 1.43 1.9 4.47 1.9 9.12 0 2.11-0.33 3.7-1 4.78-0.67 1.07-1.68 1.61-3.05 1.61-1.37 0-2.32-0.42-2.85-1.27-0.54-0.84-0.8-2.75-0.8-5.7l0-9.6-19.07 0 0 5.17c0 5.92 0.6 10.48 1.8 13.7 1.2 3.22 3.75 5.87 7.63 7.95 3.88 2.08 8.57 3.12 14.07 3.12 5.01 0 9.39-0.9 13.17-2.71 3.77-1.8 6.31-4.04 7.63-6.7 1.32-2.66 1.98-6.81 1.98-12.43 0-7.73-1.19-13.34-3.56-16.82-2.37-3.48-8.13-7.93-17.26-13.35-3.19-1.88-5.12-3.49-5.8-4.82-0.71-1.33-1.07-3.32-1.07-5.95 0-2.05 0.32-3.58 0.95-4.59 0.63-1.01 1.57-1.51 2.8-1.51 1.14 0 1.95 0.38 2.44 1.12 0.49 0.75 0.73 2.49 0.73 5.22l0 5.85 19.06 0 0-3.12c0-6.27-0.61-10.72-1.83-13.34-1.22-2.61-3.71-4.78-7.46-6.51-3.75-1.72-8.29-2.58-13.63-2.58-4.88 0-9.04 0.79-12.48 2.37-3.44 1.58-5.94 3.76-7.48 6.56-1.54 2.8-2.31 7.22-2.31 13.26 0 4.19 0.54 7.64 1.63 10.34 1.09 2.7 2.47 4.81 4.12 6.34zm60.21 41.74 20.53 0 0-63.14 12.19 0 0-15.8-44.85 0 0 15.8 12.14 0zm83.52-35.59c2.83 0 4.57 0.5 5.24 1.51 0.67 1.01 1 3.63 1 7.85l0 26.23 19.06 0 0-20.82c0-6.37-0.17-10.26-0.51-11.68-0.34-1.41-1.21-2.97-2.61-4.66-1.4-1.69-4.13-3.04-8.19-4.05 4.48-0.42 7.49-1.69 9.02-3.8 1.53-2.11 2.29-6.24 2.29-12.38 0-6.73-1.08-11.63-3.24-14.7-2.16-3.07-4.96-4.98-8.39-5.73-3.43-0.75-9.99-1.12-19.67-1.12l-14.53 0 0 78.94 20.53 0 0-35.59zm0-29.84c2.37 0 4.01 0.39 4.9 1.17 0.89 0.78 1.34 2.42 1.34 4.93l0 4.34c0 3.48-0.46 5.53-1.39 6.17-0.92 0.63-2.54 0.95-4.85 0.95l0-17.55zm70.6 17.26-12.82 0 0-14.97 13.7 0 0-15.8-34.23 0 0 78.94 35.59 0 0-15.8-15.07 0 0-17.36 12.83 0zM35.96 500.2c2.26-0.7 4.05-1.96 5.37-3.78 1.32-1.82 2.06-3.86 2.23-6.12 0.16-2.26 0.25-7.34 0.25-15.24l0-52.76-20.53 0 0 55.54c0 2.99-0.06 5.01-0.19 6.05-0.13 1.04-0.62 1.92-1.46 2.63-0.85 0.72-2 1.07-3.46 1.07-0.55 0-1.45-0.05-2.68-0.15l0 13.8 10.28 0c4.55 0 7.95-0.35 10.21-1.05zm294.55-34.54c2.83 0 4.58 0.5 5.24 1.51 0.67 1.01 1 3.63 1 7.85l0 26.23 19.06 0 0-20.82c0-6.37-0.17-10.26-0.51-11.68-0.34-1.41-1.21-2.97-2.61-4.66-1.4-1.69-4.13-3.04-8.19-4.05 4.49-0.42 7.49-1.69 9.02-3.8 1.53-2.11 2.29-6.24 2.29-12.38 0-6.73-1.08-11.63-3.24-14.7-2.16-3.07-4.96-4.98-8.39-5.73-3.43-0.75-9.99-1.12-19.67-1.12l-14.53 0 0 78.94 20.53 0 0-35.59zm0-29.84c2.37 0 4.01 0.39 4.9 1.17 0.89 0.78 1.34 2.42 1.34 4.93l0 4.34c0 3.48-0.46 5.53-1.39 6.17-0.92 0.63-2.54 0.95-4.85 0.95l0-17.55zm276.82 63.83c3.9 2.18 8.86 3.27 14.87 3.27 5.79 0 10.65-1.29 14.6-3.86 3.95-2.57 6.5-5.57 7.66-8.98 1.15-3.42 1.73-9.21 1.73-17.38l0-3.08-20.52 0 0 9.92c0 4.33-0.24 7.09-0.71 8.26-0.47 1.17-1.47 1.76-3 1.76-1.59 0-2.62-0.59-3.07-1.76-0.46-1.17-0.68-3.67-0.68-7.51l0-36.67c0-4 0.23-6.6 0.68-7.8 0.46-1.2 1.53-1.8 3.22-1.8 1.5 0 2.46 0.5 2.9 1.49 0.44 0.99 0.66 3.48 0.66 7.47l0 13.72 20.53 0 0-7.5c0-7.37-0.62-12.79-1.85-16.28-1.24-3.49-3.82-6.4-7.75-8.74-3.93-2.34-8.92-3.51-14.97-3.51-4.45 0-8.4 0.76-11.82 2.27-3.43 1.51-6.11 3.58-8.04 6.22-1.94 2.63-3.1 5.37-3.49 8.22-0.39 2.85-0.58 7.11-0.58 12.8l0 23.06c0 7.74 0.64 13.53 1.9 17.38 1.27 3.85 3.85 6.86 7.75 9.04zm-531.07-46.57 0-14.97 13.7 0 0-15.8-34.23 0 0 78.94 35.6 0 0-15.8-15.07 0 0-17.36 12.82 0 0-15.02zm208.76 0 0-14.97 13.7 0 0-15.8-34.23 0 0 78.94 35.59 0 0-15.8-15.07 0 0-17.36 12.82 0 0-15.02zm-139.29 36.72 0 11.46 37.84 0 0-15.8-15.29 0 15.29-47.34 0-15.8-35.98 0 0 15.8 13.95 0zm76.3 11.46 0-63.14 12.19 0 0-15.8-44.86 0 0 15.8 12.14 0 0 63.14zm-92.97 0 0-63.14 12.19 0 0-15.8-44.86 0 0 15.8 12.14 0 0 63.14zm555.15-78.94 0 28.23-6.14 0 0-28.23-20.53 0 0 78.94 20.53 0 0-33.16 6.14 0 0 33.16 20.53 0 0-78.94zm61.92 78.94 0-63.14 12.19 0 0-15.8-44.86 0 0 15.8 12.14 0 0 63.14z" fill="#000"/><path d="m253.35 235.91c-2.57-3.53-1.89-4.62 2.85-4.62 3.77 0 7.71-3.49 7.71-6.83 0-1.16-1.25-4.69-2.78-7.83-2.75-5.66-2.76-5.79-0.45-13.87 3.07-10.79 3.94-35.49 2.06-58.36C258.99 98.92 245.43 43.2 234.45 28.13l-2.29-3.14 8.47-4.45c18.83-9.89 48.06-17.11 69.23-17.11 28.39 0 46.69 10.14 56.31 31.21 8.72 19.11 9.05 34.35 1.35 63.96-2.47 9.51-4.49 18.9-4.49 20.87 0 5.57-6.48 6.85-34.76 6.88-28.68 0.02-43.06-2.47-45.09-7.81-0.8-2.1-2.19-3.11-4.26-3.11-3.62 0-9.86 4.54-9.86 7.17 0 2.19 1.52 2.38 3.46 0.44 1-1 2.43-0.86 5.08 0.5 7.27 3.74 29.25 8.62 38.84 8.62 8.47 0 5.37 2.06-7.81 5.18-10.11 2.39-13.98 2.69-25.73 1.97-10.05-0.62-13.84-0.45-13.84 0.63 0 0.81 1.01 1.75 2.25 2.07 2 0.53 2.29 2.84 2.62 20.91 0.36 19.93-2.11 43.93-6.45 62.57-2.89 12.4-9.27 17.11-14.14 10.41zM276.43 85.51c0.87-0.69 8.84-1.56 17.7-1.94 14.97-0.65 18.88-1.56 14.24-3.34-1.54-0.59-1.3-1.74 1.33-6.46 6.54-11.7 8.38-31.14 4.14-43.61-2.4-7.05-8.36-14.67-12.86-16.45-2.34-0.92-6.67-2.73-9.62-4.03-11.8-5.18-25.52 3.07-33.5 20.14-3.16 6.76-3.61 9.25-3.61 19.95 0 13.8 2.13 19.44 11.68 30.85 5.07 6.06 7.55 7.21 10.5 4.88zm-11.24-2.02c0-0.58-1.67-2.65-3.72-4.61-4.68-4.48-6.79-2.16-2.2 2.43 3.2 3.2 5.92 4.2 5.92 2.18zM232.25 314.96c-0.87-0.23-2.62-2.26-3.88-4.49-3.29-5.85-2.36-10.82 4.85-26.04 9.87-20.84 11.31-28.77 6.69-36.86-1.4-2.45-2.55-5.83-2.56-7.52-0.01-2.53 0.61-3.36 3.52-4.75 1.94-0.93 4.39-1.69 5.43-1.69 2.05 0 6.03 4.84 6.03 7.33 0 0.84 0.59 2.12 1.3 2.85 0.72 0.73 2.74 4.41 4.5 8.18 2.59 5.56 3.2 8.12 3.19 13.5 0 3.65-0.47 8.33-1.05 10.39-0.67 2.42-0.7 4.36-0.08 5.47 0.76 1.35 0.35 2.08-1.95 3.48-4.96 3.02-2.98 6.51 2.13 3.78 2.03-1.09 6.95-0.33 6.95 1.07 0 0.46-1.5 0.58-3.34 0.29-2.8-0.45-3.7-0.1-5.5 2.2-1.19 1.51-2.16 3.57-2.16 4.59 0 1.77-0.13 1.77-3.25-0.13-4.41-2.69-8.86-2.54-12.02 0.38-3.63 3.37-6.72 9.89-6.9 14.6-0.09 2.22-0.2 3.98-0.24 3.91-0.05-0.06-0.8-0.31-1.68-0.54l0 0zm8.82-21.34c3.06-2.41 4.59-2.49 7.72-0.45 3.69 2.42 4.57-0.28 1.08-3.29-2.08-1.79-3.47-2.24-5.41-1.76-3.06 0.76-7.11 4.27-7.11 6.17 0 1.81 0.75 1.67 3.73-0.67zm16.71-22.93c2.21-2.44 1.27-5.79-2.05-7.31-1.85-0.84-2.74-0.81-3.66 0.13-0.97 0.98-0.73 1.65 1.13 3.17 2 1.63 2.11 2.01 0.75 2.54-2.76 1.06-4.6-0.37-4.6-3.56 0-1.94 0.72-3.47 2-4.27 2.11-1.32 2.73-3.77 0.95-3.77-2.24 0-5.95 4.96-5.95 7.95 0 6.04 7.54 9.42 11.44 5.12l0 0zM157.78 252.21c-8.74-3.16-11.31-6.75-11.31-15.74 0-4.33 1.34-5.95 2.18-2.63 0.79 3.14 4.96 7.8 6.97 7.8 0.94 0 3.16 1.45 4.93 3.22 2.44 2.44 3.22 3.97 3.22 6.37 0 1.74-0.1 3.12-0.23 3.07-0.13-0.05-2.72-0.99-5.76-2.09l0 0zm-16.77 44.22c0-5.09 3.63-20.33 5.88-24.68 2.06-3.99 5.99-6.11 12.61-6.82 3.1-0.33 6.92-0.83 8.5-1.11 2.36-0.41 2.98-0.16 3.47 1.4 0.34 1.07 1.38 1.91 2.36 1.91 1.92 0 2.35-1.35 0.75-2.34-0.7-0.43-0.63-0.86 0.23-1.42 0.86-0.56 0.93-1 0.23-1.48-0.55-0.38-1.22-2.38-1.49-4.45-0.44-3.34-0.24-3.88 1.73-4.78 3.27-1.49 10.79-1.28 12.14 0.34 0.72 0.87 0.91 2.53 0.51 4.64-0.77 4.08-5.58 13.69-7.16 14.3-0.65 0.25-4.02-0.52-7.5-1.7-3.48-1.18-8.07-2.17-10.19-2.18l-3.87-0.02 0 5.28c0 6.35 3.09 13.27 7.76 17.37 1.7 1.49 2.62 2.86 2.05 3.05-1.66 0.55 0.12 2.51 2.3 2.53 1.6 0.01 1.73 0.18 0.64 0.87-0.91 0.58-2.02 0.42-3.38-0.47-3.02-1.98-5.1-1.62-7.97 1.37l-2.58 2.7-2.59-2.18c-4.31-3.63-5.98-3.71-10.43-0.52l-4.01 2.88 0-4.49zm5.06-1.51c0.97-0.74 2.69-1.35 3.81-1.37 1.2-0.02 2.05-0.59 2.05-1.39 0-2.11-5.96-1.77-8.19 0.46-3.27 3.27-1.4 5.13 2.33 2.3zm16.67-1.05c3.39-0.68 3.69-1.91 0.65-2.68-2.31-0.58-6 0.88-6 2.37 0 1.02 1.39 1.1 5.35 0.31zm49.8 15.45c-0.32-0.83-0.12-4.82 0.43-8.87 1.08-7.9 0.58-14.92-1.51-20.82-0.71-2.02-1.19-3.75-1.06-3.85 0.13-0.1 2.85-0.68 6.04-1.29l5.81-1.11 3.33 3.26 3.33 3.26-4.05 8.42c-3.43 7.14-4.11 9.5-4.48 15.47l-0.43 7.05-3.43 0c-2.35 0-3.61-0.47-4-1.5zm101.88-49.17c-7.6-1.67-8.73-3.89-5.98-11.72 1.09-3.11 1.88-7.63 1.88-10.77 0-3.77 0.46-5.93 1.51-7.09 1.42-1.56 1.39-1.66-0.49-1.66-1.69 0-1.85-0.27-1.05-1.76 0.52-0.97 0.94-1.99 0.94-2.28 0-1.01-2.53-0.49-3.54 0.72-0.73 0.88-4.63 1.39-13.54 1.76-6.88 0.29-14.71 1.14-17.4 1.89l-4.89 1.37 0.49-2.91c1.08-6.49 2.04-7.62 8.11-9.64 10.41-3.46 18.04-4.61 30.8-4.63l12.32-0.02 3.02 4.98c1.66 2.74 4.04 8.3 5.28 12.36 2.07 6.76 2.14 7.51 0.81 8.97-1.83 2.02-1.83 2.82 0 2.82 0.79 0 1.27 0.51 1.06 1.14-0.22 0.65-1.45 1.01-2.86 0.84-2.49-0.3-7.11 1.99-6.69 3.32 0.12 0.39-0.67 2.74-1.75 5.22-1.09 2.48-2.2 5.22-2.47 6.1-0.49 1.55-1.86 1.8-5.56 0.98zm7.87-14.86c0.52-1.5 1.42-2.77 2-2.83 0.58-0.05 1.87-0.16 2.87-0.23 2.99-0.21 2.17-2.83-0.98-3.14-4.45-0.43-7.32 2.81-6.86 7.78 0.2 2.13 2.02 1.15 2.97-1.59z" fill="#bcd35f"/><path d="m489.82 219.39c-1.37 1.69-3.47 4.69-6.29 9-2.82 4.3-4.82 7.07-5.99 8.32-1.17 1.25-2.15 1.9-2.94 1.94-0.6 0.03-1.21-0.39-1.83-1.26-0.62-0.87-1.45-2.66-2.51-5.36-2.17-5.5-3.52-8.65-4.05-9.48-0.15 0.51-0.31 1.33-0.47 2.47-0.35 2.4-0.82 5.33-1.42 8.79-1.17 6.64-1.81 11.03-1.9 13.17-0.01 0.27-0.24 0.57-0.67 0.9-0.43 0.33-0.79 0.51-1.06 0.52-0.53 0.03-1.03-0.21-1.51-0.72-0.48-0.51-0.73-1.01-0.75-1.51-0.07-1.29 0.24-3.57 0.93-6.82l1.54-7.32c0.94-4.61 1.49-7.99 1.66-10.15 0.17-2.16 0.22-3.85 0.16-5.08-0.06-1.28 0.91-1.97 2.92-2.07 0.43-0.02 0.89 0.33 1.4 1.04 0.51 0.72 0.85 1.35 1.02 1.9 0.22 0.55 0.48 1.16 0.78 1.84l3.38 8.1c1.33 3.32 2.15 5.18 2.44 5.6 0.3 0.42 0.53 0.62 0.71 0.61 0.74-0.2 3.22-3.56 7.45-10.08 4.7-7.23 7.41-10.87 8.13-10.91 0.59-0.03 1.25 0.17 1.98 0.59 0.74 0.43 1.11 0.81 1.13 1.15 0.01 0.15-0.25 3.39-0.78 9.73-0.19 2.35-0.33 5.17-0.42 8.44-0.1 3.28-0.13 5.13-0.11 5.54 0.04 0.75 0.21 1.58 0.53 2.49 0.28 0.81 0.43 1.46 0.46 1.96 0.02 0.4-0.02 0.98-0.13 1.74-0.11 0.76-0.4 1.22-0.89 1.38-0.49 0.16-0.87 0.25-1.17 0.26-1.54 0.08-2.38-1.16-2.51-3.73-0.12-2.35 0.09-8.12 0.63-17.32 0.04-0.74 0.05-1.2 0.04-1.37-0.01-0.12 0.06-0.61 0.19-1.49 0.1-0.74 0.13-1.36 0.1-1.86-0.02-0.49-0.08-0.81-0.16-0.97zm33.09-7.28c0.14 0.1 0.22 0.45 0.26 1.07 0.03 0.63-0.01 1.11-0.12 1.44l0.34 0.91c0.57 1.71 1.12 3.11 1.65 4.2 0.66 1.47 1.33 3.05 1.99 4.73 1.51 3.88 3.05 7.19 4.61 9.93 1.56 2.74 2.96 4.65 4.19 5.73 0.77 0.68 1.26 1.15 1.45 1.42 0.2 0.26 0.31 0.58 0.33 0.94 0.03 0.65-0.15 1.21-0.56 1.68-0.41 0.47-0.92 0.72-1.52 0.75-1.88 0.1-4.31-2.74-7.28-8.52-1.19-2.28-1.9-3.41-2.12-3.4-0.71 0.04-2.21 0.33-4.51 0.87-2.3 0.55-4.4 1.16-6.3 1.83-1.08 0.39-1.77 0.6-2.06 0.61-0.37 0.02-0.76-0.14-1.17-0.49-0.08-0.05-0.17-0.08-0.27-0.07-0.32 0.02-0.97 1.01-1.94 2.97-1.6 3.25-2.61 5.19-3.04 5.82-0.43 0.63-0.92 0.96-1.48 0.99-0.39 0.02-0.88-0.19-1.47-0.62-0.58-0.43-0.88-0.89-0.91-1.38-0.02-0.47 0.21-1.12 0.69-1.94 0.49-0.83 1.48-2.5 2.99-5 2.69-4.45 4.93-8.61 6.73-12.49 2.85-6.17 4.66-9.81 5.46-10.93 0.8-1.12 1.42-1.7 1.88-1.72 0.97-0.05 1.71 0.18 2.22 0.68zm2.25 17.43c-0.57-1.15-1.44-3.26-2.6-6.33-1.26-3.28-2.05-5.27-2.38-5.97-0.72 1.75-1.84 4.22-3.37 7.44l-3.59 7.76c0.3-0.25 1.1-0.48 2.41-0.7 1.01-0.15 1.88-0.33 2.62-0.53 3.97-1.01 6.27-1.57 6.91-1.66zm40.97-12.72c-0.1-1.95-0.67-3.12-1.7-3.5-1.03-0.38-2.31-0.53-3.82-0.45-3.11 0.16-5.9 0.92-8.37 2.28-2.47 1.36-3.66 2.89-3.57 4.61 0.06 1.23 0.68 2.28 1.85 3.14 1.17 0.86 3.67 1.74 7.5 2.65 3.71 0.87 6.37 1.82 7.97 2.87 1.61 1.04 2.45 2.36 2.53 3.94 0.08 1.6-0.91 3.39-2.97 5.35-2.06 1.97-4.59 3.52-7.58 4.64-3 1.13-5.56 1.74-7.69 1.85-1.77 0.09-3.13-0.05-4.07-0.42-0.94-0.37-1.42-0.87-1.46-1.5-0.02-0.44 0.08-0.99 0.32-1.64 0.24-0.65 0.5-0.99 0.78-1 0.29-0.02 0.6 0.02 0.91 0.11 1.6 0.51 3.17 0.72 4.71 0.64 2.78-0.14 5.68-1.11 8.7-2.89 3.03-1.78 4.51-3.38 4.43-4.79-0.03-0.6-0.53-1.15-1.51-1.65-0.98-0.5-3.42-1.26-7.32-2.28-4.85-1.26-7.86-2.58-9.02-3.96-1.17-1.37-1.79-2.85-1.87-4.44-0.16-3.05 1.47-5.6 4.88-7.66 3.41-2.05 7.03-3.18 10.86-3.38 2.54-0.13 4.51 0.2 5.92 0.99 1.41 0.79 2.14 1.7 2.2 2.74 0.02 0.5-0.09 1.23-0.35 2.2-0.26 0.97-1.01 1.49-2.26 1.55zm9.46-2.7c-0.18-0.28-0.28-0.65-0.3-1.09-0.03-0.66 0.18-1.12 0.65-1.38 0.46-0.26 1.89-0.46 4.26-0.62 2.92-0.17 5.54-0.41 7.85-0.73 2.32-0.32 5.88-0.93 10.69-1.84 1.82-0.34 3.56-0.56 5.22-0.65 0.84-0.04 1.63-0.03 2.4 0.03 0.76 0.06 1.3 0.14 1.62 0.22 0.32 0.08 0.59 0.33 0.8 0.75 0.21 0.42 0.33 0.75 0.34 0.99 0.05 1.04-0.28 1.58-1.02 1.62-0.48 0.03-1.15 0.02-1.99-0.03-0.85-0.03-2.01-0.01-3.46 0.07-1.5 0.08-3.31 0.28-5.43 0.6-2.13 0.32-3.29 0.74-3.5 1.23-0.21 0.5-0.45 3.38-0.71 8.65-0.26 5.27-0.33 9.19-0.2 11.75 0.06 1.19 0.32 2.55 0.76 4.09 0.07 0.29 0.11 0.47 0.12 0.52 0.03 0.65-0.11 1.24-0.44 1.78-0.33 0.54-0.74 0.82-1.24 0.85-0.76 0.04-1.42-0.29-1.96-1-0.55-0.71-0.9-2.75-1.08-6.12-0.16-3.2 0.12-9.48 0.86-18.83 0.03-0.5 0.05-0.76 0.05-0.77-0.03-0.5-0.31-0.73-0.85-0.71-0.88 0.05-2.56 0.24-5.03 0.59-2.47 0.36-4.23 0.57-5.29 0.63-1.58 0.08-2.62-0.11-3.12-0.59zm62.31-4.86c-0.04 0.02-0.44 0.03-1.2 0.04-0.76 0.01-1.53 0.12-2.31 0.34-0.78 0.23-1.48 0.39-2.1 0.46-0.43 0.05-0.88 0.13-1.38 0.25-0.62 0.15-1.87 0.28-3.73 0.39-2.8 0.19-4.56 0.47-5.27 0.85-0.71 0.38-1.08 1.09-1.11 2.15-0.03 0.81-0.14 1.71-0.33 2.69-0.57 2.93-0.83 4.87-0.78 5.83l0.33 0c0.69 0.01 2.08-0.16 4.17-0.5 2.09-0.34 3.64-0.66 4.67-0.95 2.12-0.62 3.74-0.96 4.87-1.02 1.84-0.09 2.78 0.35 2.83 1.33 0.06 1.2-0.51 1.97-1.72 2.31-1.21 0.34-3.75 0.82-7.62 1.44-4.73 0.78-7.24 1.38-7.53 1.81-0.29 0.43-0.56 1.8-0.79 4.09-0.23 2.29-0.33 3.76-0.3 4.39l0.01 0.24c0.11 0.73 0.6 1.13 1.47 1.18l0.4 0c0.81 0 1.77-0.11 2.87-0.35l4.19-0.83c1.56-0.3 3.14-0.64 4.74-1.02 1.99-0.53 3.26-0.81 3.8-0.84 0.41-0.02 0.88 0.13 1.4 0.45 0.52 0.32 0.81 0.85 0.85 1.6 0.03 0.54-0.08 0.92-0.34 1.15-1.46 0.74-3.37 1.2-5.73 1.4-2.04 0.18-5.2 0.69-9.5 1.53-2.17 0.44-3.6 0.67-4.29 0.71-1.72 0.09-2.8 0.01-3.25-0.24-0.45-0.25-0.74-0.9-0.88-1.95l-0.13-0.74 0-0.09c-0.01-0.23 0.1-0.72 0.32-1.45 0.31-1.06 0.64-3.06 0.98-6.01 0.34-2.95 0.54-5.27 0.6-6.98 0.04-0.59 0.12-1.31 0.24-2.15 0.47-3.54 0.65-6.33 0.54-8.37-0.01-0.1-0.17-0.37-0.48-0.79-0.08-0.08-0.13-0.15-0.17-0.21-0.12-0.33-0.23-0.6-0.33-0.82-0.11-0.2-0.18-0.44-0.19-0.72l-0.01-0.22c-0.02-0.32 0.17-0.62 0.55-0.89 0.38-0.27 0.76-0.41 1.13-0.43l0.07 0c0.62-0.03 1.32-0.02 2.12 0.02l0.09 0c0.34-0.02 1.96-0.24 4.87-0.67 2.91-0.43 6.37-1.09 10.38-2 0.42-0.09 0.68-0.14 0.77-0.15l0.33-0.04c1.14-0.13 1.94-0.06 2.38 0.22 0.45 0.28 0.75 0.85 0.9 1.71 0.02 0.41-0.15 0.82-0.51 1.22-0.36 0.4-0.65 0.62-0.87 0.66zm16.43-3.57c4.28-0.93 7.41-1.44 9.39-1.55 3.1-0.16 5.61 0.45 7.53 1.82 1.93 1.37 2.94 3.17 3.06 5.38 0.11 2.22-0.76 4.35-2.62 6.42-1.86 2.06-4.24 3.73-7.15 5-0.36 0.17-0.53 0.33-0.53 0.49 0.01 0.25 1.6 1.47 4.75 3.65 3.15 2.18 6.04 4 8.66 5.44 0.74 0.4 1.13 0.96 1.17 1.68 0.03 0.47-0.2 0.95-0.66 1.44-0.47 0.49-0.92 0.74-1.34 0.77-0.87 0.04-2.29-0.6-4.26-1.94-1.98-1.34-4.03-2.82-6.16-4.45-4.61-3.48-7.17-5.23-7.69-5.23-1 0.02-1.71-0.08-2.14-0.31-0.42-0.23-0.65-0.66-0.69-1.31-0.03-0.56 0.21-1.06 0.72-1.5 0.51-0.45 1.12-0.69 1.84-0.72 0.25-0.01 0.65 0 1.19 0.05 0.55 0.06 0.95 0.08 1.22 0.07 1.18-0.06 3.14-1.04 5.89-2.93 2.75-1.89 4.06-4.02 3.94-6.38-0.06-1.25-0.76-2.29-2.07-3.12-1.32-0.83-2.96-1.19-4.92-1.09-1.47 0.08-2.93 0.26-4.39 0.54-1.46 0.28-2.38 0.51-2.78 0.67-0.4 0.17-0.7 0.56-0.92 1.19-0.22 0.62-0.54 2.58-0.95 5.89-0.42 3.3-0.72 6.42-0.9 9.34-0.18 2.92-0.23 5.07-0.16 6.43 0.06 1.06 0.18 1.97 0.36 2.74 0.17 0.77 0.27 1.39 0.3 1.86 0.02 0.44-0.18 0.91-0.62 1.4-0.44 0.49-0.93 0.75-1.47 0.78-1.54 0.08-2.38-1.13-2.5-3.62-0.31-5.89 0.32-13.77 1.89-23.65 0.08-0.52 0.11-0.82 0.11-0.91-0.01-0.09-0.06-0.22-0.17-0.39-0.64-0.89-0.96-1.49-0.98-1.8-0.03-0.56 0.22-1.05 0.74-1.49 0.52-0.44 1-0.67 1.44-0.69l1.88 0.08z"/></svg>