<svg xmlns="http://www.w3.org/2000/svg" viewBox="0 0 772.24 517.67"><path d="M307.17 19.33c-3.82-4.4-8.68-6.82-13.89-7.59-5-4.39-10.9-4.06-16.33-1.59a.474.474 0 0 0-.56-.05c-22.43 11.72-29.8 45.1-14.67 63.88.69 1.27 1.46 2.48 2.3 3.64.34.23.67.51.99.83 1.39 1.43 2.79 2.96 4.08 4.55.66.53 1.33 1.05 2.04 1.52-.23.08-.46.16-.69.25.28.39.57.77.83 1.17.49-.14.98-.29 1.47-.43.49.28 1 .53 1.5.77.56-.49 1.25-.88 2.14-1.09.11-.03.22-.04.33-.07-.32-.12-.64-.24-.94-.38 4.8-1.12 9.68-1.86 14.6-2.29 3.02-.27 6.03-.23 9.03-.15-.04.03-.08.06-.13.09 1.06-.08 2.13-.07 3.19 0 0 0 .01 0 .01-.01 2.31.06 4.62.09 6.94-.02.67-.03.72-.96.1-1.14a37.88 37.88 0 0 0-4.85-1.01c7.58-8.36 10.62-20.64 11.05-31.6.39-10.05-1.75-21.49-8.53-29.28zm-33.54 64.35c-1.1-.62-2.12-1.32-3.09-2.09a36.7 36.7 0 0 0 3.7 1.9c-.2.06-.41.12-.61.19zm36.34-15.97c-1.82 4.64-4.46 8.9-7.82 12.21-7.96-.72-16.64.48-24.44 2.57-.02-.44-.26-.86-.83-1.09-7.09-2.84-12.15-7.51-15.45-13.17-3.63-10.07-3.57-22.35-1.62-32.03 1.42-7.01 4.26-12.97 9.23-18.14 2.36-2.45 5.29-4.76 8.44-6.27.42-.27.89-.5 1.44-.67.16-.05.32-.08.49-.13 3.56-1.27 7.29-1.42 10.7.48h-.2c2.15.76 4.15 1.92 5.83 3.45.06.04.11.08.17.12 6.28 2.07 11.36 6.73 14.48 14.23 4.94 11.88 4.21 26.6-.42 38.45zm1.18-24.02c-.61-2.92-2.16-5.32-4.64-6.48.19-.26.25-.6.05-.91-3.56-5.36-7.46 1.61-8.6 4.97-1.81 5.31-2.56 14.66 3.68 17.41.27.27.68.41 1.06.39 7.71 2.25 9.55-10.09 8.44-15.37zm-6.3-1.41c-.02.1-.05.19-.08.28-.46 1.48-2.16 2.25-3.54 1.44-1.19-.69-1.46-2.12-.86-3.3-.04.1-.08.21-.12.31.25-.6.51-1.08 1.1-1.43.55-.32 1.22-.41 1.84-.24 1.29.36 1.97 1.67 1.67 2.94zM251.28 291.5c-3.55-6.05-11.61-3.16-13.88 2.42-.4.98 1.01 1.77 1.48.78 1.08-2.31 3.35-3.83 5.87-4.18 1.39-.19 2.6.28 3.61 1.21.87.81.93 1.61 2.21 1.67.25.01.45-.17.57-.36.07-.1.13-.2.19-.31.24-.37.16-.88-.05-1.24zm1.27-28.1c-.58.39-.63 1.04-.35 1.61.65 1.35 5.6 2.31 3.03 4.08-1.88 1.29-4.46 1.32-5.92-.54-1.14-1.46-1.29-3.48-.86-5.21.55-2.23 2.41-3.19 4.28-4.15.54-.27.21-1.1-.34-1.07-6.19.31-7.96 9.8-2.95 12.94 2.76 1.73 6.95.81 8.72-1.93 1.81-2.8-2.9-7.52-5.6-5.73z"/><path d="M165.15 292.49c-.82-.77-1.59-1.27-2.75-1.35-1.56-.09-3.67.23-4.69 1.54-.26.34-.16.88.31.98 1.25.26 2.49-.26 3.72-.45.82-.13 2.22-.58 2.97-.07.38.26.77-.35.45-.64zm-14.02-1.24c-1.79-.89-3.67-.98-5.49-.12-1.37.65-3.85 2.62-3.08 4.37.15.34.45.52.83.42 1.18-.31 1.84-1.87 2.88-2.56 1.29-.85 3.1-.91 4.59-.85.68.03.86-.98.28-1.27zm-1.48 13.43c-.2-.42-.85-.08-.71.34.5 1.55.63 3.12.58 4.73-.04 1.4-.47 2.7-.19 4.08.07.33.58.35.72.06.7-1.46.57-3.24.58-4.83.01-1.56-.29-2.98-.98-4.38zm121.09-2.01c-.59-1.35-1.26-2.66-1.99-3.93-.6-1.06-2.14-.04-1.58 1.02.61 1.15 1.16 2.33 1.66 3.53.43 1.02.66 2.36 1.57 3.08.41.33.96.16 1.11-.34.35-1.13-.32-2.33-.76-3.35zm104.77-250.5c-2.43-15.69-10.05-30.47-22.74-40.24C337.52.19 317.17-1.13 298.71.64c-22.67 2.18-44.38 10.51-64.85 20.1-.25.12-.32.36-.29.57-1.88.8-3.76 1.6-5.56 2.59-.25.14-.34.37-.34.6-10.38-5.7-23.74 11.51-18.64 20.99.33.61 1.29.25 1.25-.4-.27-5.11.78-9.52 3.79-13.74 2.79-3.91 7.36-6.92 12.21-5.86-6.2.81-6.34 18.11-.88 21.12.68.38 1.26-.42.94-1.03-1.85-3.54-5.05-16.37.7-18.05 8.66 8.57 12.22 20.71 15.21 32.22 3.81 14.64 6.41 29.62 9.49 44.43 3.38 16.28 6.74 33.78 7.93 51.27-.2 5.78-.5 11.55-.96 17.31-.67 8.43-1.77 16.74-3.02 25.04-2.17-1.55-6.31-.65-8.51 0-.61.18-.77.84-.61 1.35-.28.45-.52 1.03-.73 1.69-.09-.24-.21-.46-.36-.68-.12-.36-.27-.71-.34-.98-.12-.44-.24-.89-.29-1.34-.01-.1-.02-.2-.04-.29v-.09c0-.04.01-.07 0-.11.16-11.65-6.79-24.84-14.87-32.61-7.23-6.96-17.72-9.54-27.56-8.45-2.39.03-4.8.3-7.12.83-.2.03-.4.06-.59.09-1.23.19-2.43.48-3.54.93-9.51-.42-19.89 16.78-22.66 23.5-3.13 7.6-3.15 15.52-2.69 23.63.47 8.33.71 16.07.21 24.25-4.28-.69-7.85 4.45-7.99 9.11-5.66.23-9.56-8.3-6.16-12.99.74-1.02-.32-2.62-1.51-1.79-1.88 1.3-3.42 2.84-4.63 4.54-.01.01-.03.01-.04.03-5.08 5.7-3.17 17.5-.51 23.79 1.56 3.69 4.55 6.63 8.43 7.69 1.81.5 4.53.45 6.78-.29.79.09 1.59.06 2.41-.11.38.23.77.46 1.18.66-2.82.19-5.9.76-8.62 1.75-2.66-1.25-6.38.36-8.81 2.28-5.36 2.08-7.77 10.32-9.13 15.09-2.21 7.73-3.53 17.65-.82 25.41.22.64.72.94 1.25 1.01-1.18 2.35-1.64 4.86-.51 7.53 2.48 5.83 12.56 6.27 17.28 3.43.18-.11.29-.25.38-.4.06.3.23.58.54.74 1.68.89 3.49-.13 4.6-1.58 2.89 1.71 7.29 1.28 10.02-.34 1.07-.64 1.85-1.54 2.41-2.57.39.3.84.53 1.23.61 6.81 1.54 5.29-9.81 2.24-13.85.48-.59 1-1.11 1.6-1.56l-.21-.09c-.25-1.51-.9-2.91-1.96-3.93.13-.26.12-.58-.17-.83-3.57-3.04-7.13-5-9.97-8.93-3.07-4.25-3.61-8.72-4.03-13.64 2.45.51 5.04.59 7.49 1.19 2.5.62 4.94 1.68 7.46 2.31.97.56 1.89 1.17 2.73 1.85.85-.05 1.68-.23 2.46-.59.43-.2.56-.69.33-1.01 1.2-.56 2.29-1.43 3.25-2.5.77-.85 1.68-2.21 2.31-3.66 3.52 2.18 8.08 4.53 11.85 5.76 2.16.71 4.42 1 6.7 1.06 2.24 3.75 3.72 7.69 4.18 12.19.2 2.01-.04 4.02-.19 6.04-.75 3.26-1.28 6.61-1.34 9.93-.06 3.11-.67 5.87.96 8.68 1.91 3.29 9.08 3.72 12.29 1.54 1.56 3.43 4.25 6.19 8.18 5.94.28-.02.51-.15.68-.34 1.32.38 2.72.47 3.91.18.52 0 1.04-.02 1.55-.08.15-.02.27-.07.4-.12 2.92 2.25 8.57 1.7 11.58 1.4 4.5-.44 11.04-1.46 14.36-4.86.61-.62.6-1.53.22-2.25.16-.05.32-.12.46-.24-.32.29 1.24-.04 1.64-.08 1.16-.11 2.33-.12 3.49-.16 1.73-.06 3.48-.01 5.22-.05l.03.12.23-.03 1.24-.05c.32-.02.65-.04.97-.05 1.6.88 3.56-.27 4.6-1.71 1.65-2.28 1.66-5.27 1.31-7.95-.38-2.93-2.15-10.06-5.85-11.19.8-1.55.64-3.76-.4-5.07-.25-.32-.55-.58-.86-.81-.17-.22-.41-.39-.75-.45h-.02c-1.16-.55-2.53-.67-3.82-.54l-.18-.84c-1 .31-2.07.34-3.1-.02.02.13.04.27.05.4-.37.13-.7.33-.99.6-.78-.59-1.73-.9-2.74-1.02.3-.25.49-.65.38-1.09-.29-1.13-.92-2.15-1.48-3.18.4-.91.46-2.19.6-3l.15-.93c.23.01.46-.09.54-.31 1.75-4.38 1.24-10.03.78-14.62-.4-3.98-1.58-7.77-4.06-10.77-.61-1.43-1.31-2.84-2.07-4.24.24-.07.42-.29.44-.54 6.24.83 12.47-4.74 15.08-10.59 9.74-3.46 20.16-3.64 30.54-3.28 1.93 3.4.68 8.46.1 12.05-.72 4.49-1.72 9.02-1.44 13.6.59 9.6 10.13 9.73 17.32 7.09 1.11 3.38 4.82 4.57 8.36 4.19 2.4-.26 6.54-1.5 8.98-3.62.99-.64 1.73-1.41 2.29-2.24.15.24.39.42.7.43 1.54.08 2.86-.55 4.06-1.47 1.17-.89 2.7-2.32 2.33-3.94-.01-.06-.04-.1-.07-.15.15-.41.29-.83.37-1.24.32-1.62.17-3.3-.28-4.91.23.05.5-.04.63-.24 1.1-1.7.52-4.19-.25-5.92-.89-2.01-2.65-3.46-4.54-4.48a.503.503 0 0 0-.59.06c-1.15-2.4-3.17-3.15-5.25-2.84-.36-4.63-2.18-9.53-3.71-13.75-1.69-4.66-4.41-8.82-7.91-12.29a.684.684 0 0 0-.55-.75c-.1-.03-.2-.04-.3-.07-.11-.11-.22-.22-.33-.32-.34-.31-.81-.24-1.12-.01-8.33-1.69-17.76-.75-26.04.22-7.45.87-15.28 2.61-22.16 5.92.75-3.69 1.25-7.4 1.76-10.75 1.5-9.8 1.86-19.76 2.26-29.65.09-2.36.01-4.71-.15-7.06.2-4.27.31-8.54.29-12.8-.02-4.16.06-8.19-1-12.06l.18-.98c8.08 1.47 17.06 1.04 24.67-.08 9.96-1.46 21.82-4.23 29.85-10.75 4.9-.03 10.58.22 15.49-.87.14.12.32.2.55.16 5.25-.87 12.29-1.8 16.63-5.1a.66.66 0 0 0 .19-.8c.47-.36.87-.79 1.2-1.3.17-.08.31-.21.35-.39.03-.12.04-.25.06-.37.01-.03.01-.06.01-.09.25-1.84-.35-3.93-.4-5.79-.04-1.84.28-3.57.59-5.33 5.82-19.83 11.58-39.5 8.35-60.34zm-126.86 147.5c1.11-.13 2.22-.2 3.34-.18 1.14.03 2.3.42 3.42.28l-.33 2.18c-.16.1-.29.25-.35.46-.46 1.67-.73 4.03-.63 6.43v.01c.16 3.63 1.17 7.34 3.71 8.86.08.05.18.07.27.08.2.4.44.77.71 1.12-3.1-1.71-6.88-2.79-10.31-3.5-.1-.56-.24-1.12-.33-1.64-.33-2.01-.48-4.05-.55-6.08-.08-2.17-.34-6.01 1.05-8.03zm-79.59 33.49c2.18-3.6 2.36-8.23 2.18-12.61 6.33.38 11.98 1.15 17.69 4.14 5.55 2.91 7.6 8.04 11.93 11.99.48.44 1.3.07 1.26-.59-.37-6.11-7.04-11.03-11.94-13.77-1.66-.93-3.47-1.68-5.34-2.27.07-.06.14-.13.17-.22 2.59-7.4 5.63-15.67 6.84-23.44 10.08-.9 20.45-1.84 30.4-3.7.05-.01.1-.03.15-.05.67 2.27 2.23 4.46 3.29 6.54 1.63 3.21 2.74 6.96 4.69 9.98.3.46.98.21.99-.31.01-3.04-2.15-6.37-3.48-9.02-1.31-2.6-2.58-5.94-4.62-8.08.1-.24.15-.5.15-.73.1-6.06 3.71-10.21 6.14-15.44.4-.86-.66-1.58-1.33-.94-4.28 4.09-7.53 9.14-8.09 15.03-9.11 1.57-18.83 1.2-27.73 3.69-2.6-4.28-11.21-18.7-15.14-15.14-.26.24 0 .62.29.63 2.61.04 5.81 4.81 7.16 6.49 2 2.48 5.48 6.41 5.65 9.72.02.31.15.6.34.84-3.45 7.11-5.99 16-6.65 23.85 0 .03.01.05.01.08-4.2-1.2-8.72-1.51-12.9-.79-.05-.91-.11-1.8-.16-2.66.24-8.85-.22-17.82 1.08-26.45 1.91-12.78 9.11-23.59 21.11-28.88a29.67 29.67 0 0 1 5.71-1.83c.73 0 1.45-.01 2.16-.02 4.22.06 8.51.51 12.58.26.03 0 .06-.01.09-.02 4.86 1.15 9.46 3.33 13.31 6.46 10.36 8.42 12.65 21.29 15.96 33.35.12.42.4.6.71.63.3 1.27.81 2.53 1.58 2.04.02-.01.03-.03.05-.05.04.02.07.04.11.06.04.02.08.01.13.01-.89 3.82-.8 9.57.25 13.01-.54-.1-1.07-.19-1.57-.27-6.35-1.02-14.2-.89-19.32 3.48-.18.01-.36.1-.51.31-.11.15-.21.31-.31.47-.04.04-.09.08-.13.12-.09.1-.14.21-.16.32-5.98 9.67-1.85 25.8 6.64 33.11-4.91.94-9.76 2.85-14.72 3.67-4.88.81-9.83 1.22-14.78 1.52 1.38-3.05 2.04-6.85 2.34-9.47.48-4.19-.68-8.89-4.49-11.24-6.57-4.06-19.81-3.21-25.71 3.09-.47-.25-.95-.42-1.38-.75-.34-.26-.61-.6-.85-.96-.4-1.54-1.44-2.71-1.61-4.41-.02-.24-.12-.48-.25-.68.01-.03.04-.04.05-.06zm-5.44 20.36c.03.21.1.42.14.63-.55.01-1.09.14-1.71.32.38-.35.33-1.06-.27-1.17-4.46-.86-8.32-1.65-11.35-3.98-.06-.16-.1-.31-.12-.47-.07-.62-.72-.84-1.13-.63-.97-.97-1.84-2.14-2.59-3.6-.84-4.19-.59-8.3-.37-12.56a14.91 14.91 0 0 1 2.21-3.4c-.46 6.2 4.26 13.87 9.88 12.37.31 1.12.89 2.13 1.8 2.92.45.39 1.02.51 1.55.45.64 1.27 1.52 2.42 2.63 3.22-.73 2.03-.86 4.59-.67 5.91zm-8.37 61.78c-.05.05-.06.12-.1.18-.08-.6-.55-1.17-1.26-1.12-4.44.28-9.34 2.21-13.23-1.06-2.06-1.72-2.03-3.85-1.04-5.94.08.09.14.18.23.27.73.78 2.15-.14 1.75-1.13-.19-.48-.36-.97-.51-1.47 1.92-2.47 4.69-4.64 6.25-5.71.2-.14.28-.31.3-.49 4.15-.38 6.84 2.5 8.9 6.34 1.02 1.9 1.66 4 1.69 6.15.03 2.41-1.74 2.48-2.97 3.97zm20.52-5.96c-.43 1.03-1.16.78-1.95.61-.02-.54-.01-1.09.07-1.65.01-.06.03-.11.04-.17-.01-.03-.01-.06-.02-.1-.06.02-.11.03-.17.05.01-.26 0-.52 0-.77-.07-.4-.12-.82-.12-1.31 0-.1.01-.19.02-.29-.32-2.29-1.32-4.48-2.74-6.3 1.15-.42 2.33-.43 3.48-.2 2.05 2.51 2.59 7.24 1.39 10.14zm12.82-54.99c.07 1.12.02 2.19-.12 3.25-.07.06-.14.14-.18.26-.56 1.57-1.04 3.17-1.55 4.76-.1.04-.19.09-.27.18-1.36 1.52-1.49 4.1-2.49 5.91-1.1 1.97-2.76 3.58-4.84 4.35-.06-.07-.13-.14-.22-.2-2.84-1.81-6.4-2.75-9.62-3.66-3.03-.86-6.78-1.86-9.83-.74-.7.26-.6 1.16.06 1.38.12.04.24.07.36.1-2.7 7.82 3.92 19.62 11.65 23.22-1.42-.13-2.88.21-3.1 1.52-.01.08.02.14.09.19.75.51 1.26.24 2.13.18.77-.05 1.44.07 2.1.46.62.36.92.88 1.12 1.45-1.62-.05-2.73.54-3.81 1.49-.35-.38-.72-.74-1.11-1.07-1.05-.9-3.04-2.39-4.49-2.33-2.18.1-5.15 4.5-6.36 5.97-.46.55.31 1.24.81.75.89-.88 4.53-5.36 5.75-4.77 1.23.6 2.26 1.49 3.2 2.48 1.89 1.99 2.98 4.74 3.17 7.45.06.88-.04 1.77-.29 2.6-.02.02-.04.03-.05.05-.16.18-.22.43-.21.68-.41.93-1.04 1.76-1.91 2.37-.5.35-1.03.56-1.56.69.06-.03.11-.07.15-.14 1.04-2.05.5-4.99-.12-7.09-.2-.68-1.23-.34-1.05.34.3 1.14.43 2.27.47 3.45.03 1.04-.14 2.11-.03 3.14.02.22.22.35.41.35-1.81.37-3.73-.26-5.6-.45.53-2.78-.26-5.73-1.46-8.23-1.99-4.17-9.67-12.9-14.48-6.91-.15.19-.21.41-.19.61-1.79.58-3.45 2.08-4.72 3.57-.31-2.12-.32-4.31-.17-6.51.42-1.22.35-2.5.48-3.86.04-.37.08-.74.13-1.11.48-2.86 1.14-5.67 1.75-8.29.94-4.03 2.06-8.09 3.84-11.84 1.6-3.36 4.88-4.93 8.34-5.87.12.17.3.28.57.28 2.03-.04 3.94-.5 5.87-1.05.01 0 .01-.01.02-.02h1.26c1.73.01 3.49.25 5.06-.55.08-.04.13-.11.18-.19 1.04-.17 2.06-.41 3-.78.34 2.17 1.6 4.82 3.94 4.66.28-.02.48-.35.31-.6-.55-.79-1.36-1.34-1.93-2.13-.34-.48-.58-1.04-.75-1.62.07-.02.14-.07.21-.11.1.07.19.14.29.2.67.39 1.8.59 2.47.12.32-.23.29-.66-.04-.87-.65-.4-1.46-.32-2.14-.55-.03-2.8-.17-5.7-.54-8.5 2.56-1.21 5.28-1.92 8.13-2.17 2.9-.26 7.53.46 8.73 3.28-.35-.16-.82.01-.79.52zm3.67 11.25c-.27-1.21-.73-2.36-.59-3.71.16-1.46.7-2.9 1.04-4.32.68-2.86-.24-5.29-2.43-7.17-4.76-4.08-13.1-2.57-18.36.74-.59-.34-1.46-.04-1.52.88 0 .07 0 .14-.01.21-.15.12-.31.24-.46.37-.46.4-.08 1 .41 1.09-.03 1.14-.02 2.28.01 3.43-.68-.28-1.46-.36-2.12-.71-.14-.07-.28-.16-.4-.26 0-.04.02-.08.02-.12-.02-.48-.29-.79-.73-.95-.06-.02-.11-.02-.17-.04-.35-.67-.56-1.43-.66-2.09-.23-1.39-.05-2.78.36-4.11.03-.08.07-.15.1-.22.48.04.86-.48.48-.88l-.01-.01c.47-.69 1.04-1.29 1.35-2.07.15-.38.01-.8-.42-.91-1.05-.26-1.88.03-2.54.64-2.14-3.3-4.69-10.86 1.39-10.31.5 1.84 1.64 3.22 2.77 4.86.04.06.09.1.14.15.51.69 1.16 1.26 1.92 1.57-.46.72-.85 1.49-1.13 2.32-.34 1.01 1.2 1.48 1.69.63 4.09-7.18 18.84-9.3 25.11-4.27 6.65 5.34-1.81 14.51-1.47 20.43.05.89 1.1 1.51 1.87.97.53-.37 1-.84 1.43-1.37 4.97-.25 9.92-.59 14.86-1.21 6.05-.75 14.17-1.52 19-5.54.56-.47.43-1.63-.48-1.52-.04 0-.08.01-.12.02-2.42-4.57-5.36-8.67-7.17-13.6-2.33-6.36-2.08-12.61.22-18.85 5.71-3.77 12.87-3.46 19.4-2.33 5.37.93 9.82 3.33 14.58 5.45.96.97 1.13 2.36.52 3.56-.32.63-.79 1-1.31 1.29-6.91-.62-16.15 2.05-22.14 6.4a.603.603 0 0 0-.23.01c-5.79 1.47-2.25 13.66 1.78 16.75.29.43.57.86.8 1.33.17.34.28.72.39 1.08-2.3 1.66-4.34 3.7-6.89 5.12-3.79 2.1-8.07 3.31-12.25 4.37-7.76 1.97-15.87 2.65-23.86 2.78-1.39.02-2.77.07-4.16.11zm34.07 2.27a58.553 58.553 0 0 1-9.2 2.72c-1.63-.96-3.36-1.72-4.31-3.45 2.45-.46 4.92-.87 7.37-1.16.36-.08.72-.14 1.09-.22.59-.13 1.22-.28 1.89-.45.74 1 1.9 2.06 3.16 2.56zm-1.98-2.87c1.93-.51 4.08-1.17 6.21-1.99.03.1.07.19.17.27.54.48 1.24.94 1.99 1.28-1.49.94-2.98 1.86-4.54 2.55-.65-.38-1.4-.55-2.08-.88-.64-.31-1.23-.74-1.74-1.24zm6.01 4.43c1.2-.52 2.57-1.11 3.93-1.78-1.6 2.68-3.13 5.41-4.62 8.15a89.836 89.836 0 0 0-4.61-4.33c1.8-.61 3.57-1.29 5.31-2.03zm3.73-5.74c-.82-.32-1.67-.58-2.4-1.12 2.53-1.04 4.97-2.33 6.94-3.91-.19.92-.39 1.83-.6 2.75-1.34.65-2.64 1.46-3.94 2.28zm-36.76 6.24c.16-.45.18-.99.07-1.5.42.07.84.16 1.25.29.97.14 2 .2 3.05.2-.34-.2-.68-.41-1.03-.6.56-.03 1.13-.08 1.69-.11.38 1.33 1.07 2.65 2.07 3.52-2.4-.22-4.74-.8-7.09-1.79zm7.22-.28c-.36-.46-.61-.99-.79-1.54 2.51-.17 5.01-.37 7.51-.68l.45-.09c.42 1.16 1.22 2.08 2.19 2.86.34.27.72.55 1.12.79-1.29.23-2.59.43-3.89.59-1.47.18-2.9.27-4.3.26-.71-.78-1.63-1.33-2.28-2.18zm15.97 30.76c-.02 0-.04 0-.06-.01-.05.69-.17 1.39-.31 2.05-.03.13-.06.24-.09.36.06.01.12.02.18.02-.07.87-.11 1.74-.12 2.59-.01 1.6.25 3.44.77 5.25-4.35-.28-10.49 2.84-9.36-5.19.63-4.46 1.74-8.96 1.23-13.46.04-1.32.1-2.63.04-3.95-.21-4.34-1.68-9.27-4.18-13.19.26-.08.51-.18.75-.29 1.6-.1 3.2-.28 4.76-.5 2.77-.38 5.5-.99 8.18-1.77.69.57 1.37 1.14 2.01 1.73 1.56 1.43 2.96 3 4.26 4.66.12.46.44.83.84 1.07.01.02.03.04.04.06a88.72 88.72 0 0 0-2.37 4.1c-.89 1.65-1.85 3.51-2.5 5.44-2.22 3.2-3.5 7.11-4.08 11.02zm40.53-43.8c.08.14.21.21.36.22.9 4.76.09 9.99.41 14.93-.42 1.26-.82 2.52-1.16 3.8-.31 1.15-1.2 3.44-.39 4.53.02.02.04.03.05.05.36 1.17.77 2.35 1.37 3.41.04.08.1.12.15.17-.17.01-.35.01-.52.03-2.17.22-5.78 1.94-5.45 4.58.06.51.48.79.98.68 1.65-.37 2.84-1.83 4.55-2.25 1.48-.36 3.28.18 4.57.93.63.36 1.18-.06 1.33-.61.05.35.11.7.16 1.04.08-.07.16-.12.25-.18.01.25.01.5.02.76.03.58.07 1.17.52 1.57.24.2.57.19.79-.04.42-.44.41-1.03.39-1.61-.01-.3-.04-.6-.06-.9.15.05.29.11.43.17.33-.11.69-.1 1.06.03h.02c-.02-.08-.04-.15-.05-.22.68.07 1.35.15 2.03.18.13.07.26.16.38.27.56.51.41 1.4.23 2.24-1.06-.59-2.08-.73-3.27-.48-.98.2-.77 1.64.08 1.85 1.33.33 2.65.78 3.5 1.95.06.08.14.15.23.2.15.18.27.39.42.57.1-.16.21-.31.32-.45 1.68 2.36 2.78 4.82 3.48 7.74.44 1.84.57 3.82.14 5.67-.21.88-.7 1.32-1.25 1.68-.4-.71-.53-1.56-.26-2.42-.2-1.03-.47-2.07-.78-3.06-.08-.22-.16-.43-.23-.65-.41-1.25-.82-2.24-1.26-3.31-.14-.32-.27-.61-.39-.87-.44-.95-.97-1.89-1.58-2.79-.1-.57-.21-1.14-.32-1.71-.02 0-.04 0-.07-.01-.28-.08-.5-.15-.73-.33-.22-.17-.71-.29-.2-.21-.54-.09-1-.36-1.39-.74-.64-.63-1.21-1.27-1.86-1.86.02.11.04.23.07.34-1.64-1.04-3.5-1.68-5.55-1.68-.19-.36-.63-.6-1.07-.3-2.38 1.57-5.96 4.64-4.37 7.87.17.34.72.28.87-.04.5-1.09.72-2.28 1.26-3.36.58-1.16 1.55-2.03 2.58-2.79.11.14.24.25.44.3 5.04 1.41 7.82 5.7 9.67 10.33.85 2.14 1.3 4.41 1.51 6.69-.02.01-.04.01-.05.02-.41.16-.62.55-.61.92-1.96.06-3.93.17-5.88.28-1.25.08-3.4.08-4.68.9 0-2.64-1.85-5.8-2.97-7.67-1.05-1.76-3.23-4.84-5.62-5.67a.832.832 0 0 0-.19-.26c-.32-.27-.66-.5-1.03-.69-.82-.4-2-.99-2.9-.61-.41.18-.67.67-.38 1.08.49.71 1.24.79 2.01 1.03.01 0 .02.01.04.01.01.21.06.42.2.58 1.83 2.13 3.92 3.64 5.46 6.1.95 1.51 1.61 3.15 2.12 4.84.31 1.04.36 2.16.83 3.12-.84.44-1.66 1.06-2.23 1.32-.27.13-.55.24-.83.36.12-1.96-1.03-4.18-1.86-5.91-1.03-2.13-2.67-3.63-4.67-4.84-.28-.17-.59.27-.33.47 1.84 1.47 3.01 3.47 3.93 5.6.7 1.62.93 3.66 2.02 5.06-3.84 1.5-8.12 2.24-12.16 2.45-2.03.1-4.46.03-6.12-1.28-2.28-1.79-.39-6.69.39-8.76 1.65-4.41 4.51-8.78 8.45-11.44.45-.31.27-1.21-.35-1.1-6.97 1.21-13.61 14.04-11.37 21.26-1.57-.13-3-.32-4.36-.9-1.68-3.43-4.34-5.63-4.85-9.77-.41-3.39.79-6.84 1.91-9.98 2-5.61 6.17-10.95 7.68-16.76 2.91-4.22 4.87-9.97 5.78-15.55.18-.27.35-.55.5-.84.2-.4.07-.84-.22-1.11.14-1.2.25-2.38.29-3.53.07-.34.13-.68.19-1.01.05-.25.09-.52.14-.78.19-.31.38-.61.53-.94.21.5.41 1 .62 1.5-.3-.95-.63-1.89-.97-2.82-.02-1.34-.37-2.6-1.45-3.5-.14-.34-.29-.68-.42-1.03-.11.11-.15.27-.07.48.05.12.1.24.16.36a.433.433 0 0 0-.16-.01c-1.72-4.14-4.85-8.51-3.42-13.06 2.97-1.94 6.07-3.3 9.46-4.29.06.07.12.15.19.22-.02.05-.03.1-.03.16v.09c.39-.08.82-.09 1.26-.05 1.76 1.13 3.13 2.85 4.31 4.6.55 1.18 1.11 2.34 1.69 3.5-.58.64-.76 1.57.1 2.25.53.42 1.07.78 1.61 1.07.1.2.21.4.31.6.57 1.08 1.1 2.18 1.61 3.29-.18.23-.21.57.08.84.19.18.37.36.54.54 1.11 2.48 2.17 4.99 3.46 7.39zm76.64 3.43c-2.65.71-4.88 3.27-7.56 4.22-.28.1-.55.17-.82.24-1.93.14-3.9-.02-5.4-.7-.57-.26-.92-.66-1.13-1.14.62-.33.66-1.25-.11-1.44-.04-.01-.09-.02-.14-.03.02-.93.28-1.91.49-2.68 1.17-4.12 4.12-7.59 5.41-11.63 3.03-.14 5.58 1.59 7.64 4.55 1.85 2.65 2.64 5.99 1.61 8.6zm3.85-17.49c.1-.03.19-.09.28-.13.32-.16.51-.55.54-.93 1.71 1.02 2.93 2.35 3.6 4.28.44 1.24.27 2.5.33 3.75-.42-1.11-.96-2.18-1.53-3.16-.92-1.55-2.17-2.87-3.52-3.76.1-.01.21-.01.31-.05zm1.69 5.35c1.19 2.08 1.98 4.68 1.75 7.1-.26 2.79-2.21 3.58-4.22 5.04-.06.04-.09.09-.14.13 1.25-4.82-2.19-11.03-6.46-14.02l.02-.02c.88-1.87 2.33-3.8 4.58-2.91 2.01.79 3.44 2.9 4.47 4.69zm-46.31-34.77c8.79-1.15 17.68.1 26.4-.78 3.26 4.2 5.9 8.43 7.69 13.52 1.41 4.01 1.83 8.52 3.55 12.41a9.676 9.676 0 0 0-3.14 2.49c-.63.77.4 1.68 1.13 1.03.81-.72 1.8-1.42 2.86-1.85 0 .01.01.01.01.02.4.68 1.33.29 1.41-.39 1.66-.17 2.56 1.09 3.3 2.41-2.69-1.22-5.52-.57-6.8 3.61-3.09-1.81-6.45-1.86-8.73 1.51-.21.3.18.76.51.61.19-.08.37-.15.56-.22-2.54 3.66-5.07 8.51-5.46 12.72-.49.11-1.03.25-1.61.4-3.27-.23-6.51-.15-9.69-1.78a6.22 6.22 0 0 1-2.6-2.47c-.21-2.64.41-5.69.75-7.91 2.95-2.69 3.15-9.49 3-13.04-.07-1.65-.44-3.11-1.09-4.31 1.1-.41 2.26-.76 3.05-1.63.2-.21.11-.68-.22-.71-1.11-.1-2.24.32-3.27.86-.26-.1-.51-.2-.77-.29.4-.41.77-.86 1.11-1.35.62-.89 1.4-1.65 1.56-2.76.03-.23-.08-.53-.35-.56-1.77-.21-2.75 1.54-3.54 3.08-.21-.11-.46-.19-.73-.23-2.5-.29-5.04-.39-7.59-.36-9.23-.2-18.53.61-27.1 3.93.27-1.47.41-2.98.56-4.47 1-2.31 1.76-4.8 2.38-7.35 7.51-2.72 14.78-5.08 22.87-6.13zm68.4-103.31c-.36-.06-.76.1-.8.51-.26 2.31-.48 4.61-.63 6.93-.09 1.44-.23 2.91.05 4.31.26.53.43 1.08.56 1.64-.36.23-.73.45-1.09.67-13.8 4.08-27.64 4.27-42.03 3.81-15.23-.49-30.06-2.34-44.17-8.27-.98-.41-1.66.69-1.44 1.53-.53.07-.75.95-.21 1.18 11.26 4.85 23.45 7.88 35.6 9.37 5.28.64 10.6.88 15.91.92-.16.11-.34.21-.49.33-2.66 1.02-5.3 2.16-7.99 3.04-4.97 1.63-9.99 2.9-15.16 3.75-5.5.91-11.11 1.08-16.68.9-5.32-.17-10.56-1.35-15.87-1.48-1.36-.03-1.43 1.79-.3 2.23 1.19.46 2.41.86 3.68 1.2.04.24.15.47.31.67-2.72 6.93.2 23.72.49 27.48.21 2.7.26 5.41.23 8.12-.19 2.19-.4 4.39-.63 6.57-.94 9.1-2.33 18.15-4.02 27.14-.14.74-.3 1.47-.44 2.2.19.4.32.84.39 1.31-.16.15-.27.36-.28.6-.03.87-.09 1.72-.16 2.56-.21.25-.22.58-.1.86-1.25 3.78-2.73 7.5-3.41 11.37-.08.45.06.8.31 1.03-.08.26-.15.51-.24.76-.25.13-.51.25-.77.38-1.02.55-1.17 1.53-.82 2.34-.58.6-1.27 1.06-2.08 1.37.33.17.66.35.99.52-.32.27-.64.53-.96.78-.17.13-.35.23-.52.35-1.66.44-3.28 1.2-4.96 1.52-.48-.03-.95-.08-1.41-.14-.11-.04-.24-.07-.36-.1-.8-1.17-1.65-2.31-2.35-3.38-1.05-1.58-2.19-3.06-3.62-4.21.74-.03 1.49-.02 2.29.06-.02-.01-.04-.02-.05-.02-.68-.34-1.57-.86-2.52-1.3 1.32-.24 2.66-.41 4-.61.11.09.22.19.34.28.9-.15 1.81-.27 2.71-.36-.18-.13-.36-.26-.55-.38.13-.03.26-.06.4-.1 1.82 1.34 4.28-.59 5.39-2.32.07-.01.15-.02.22-.06 1.07-.6 1.32-2.11 1.34-3.54.38-.14.62-.54.34-.97-.12-.18-.25-.35-.38-.53-.01-.24-.03-.47-.04-.67-.03-.61-.65-.8-1.07-.6-.39-.38-.82-.74-1.27-1.08.1-.03.19-.06.28-.12.17-.11.28-.24.38-.42.19-.32.18-.82-.05-1.12-1.05-1.35-1.83-2.74-2.65-4.23-.18-.33-.45-.45-.73-.45-.42-1.26-.87-2.51-1.11-3.85.4-.21.74-.55.95-1.06 6.14-14.91 5.67-32.3 5.24-48.12-.21-7.63-.78-15.18-1.63-22.69-.17-3.06-.38-6.11-.65-9.14a.404.404 0 0 0-.16-.3c-.99-8-2.19-15.97-3.62-23.91-1.85-10.27-4.22-20.47-6.97-30.56-1.38-6.56-2.88-13.1-4.69-19.53-2-7.09-4.64-16.2-9.44-22.9-1.6-2.77-3.5-5.25-5.82-7.22 4.74-1.82 10.47-3.52 13.81-7.21.04-.05.07-.1.09-.15 16.39-6.72 33.51-11.73 51.1-14.03 19.01-2.48 39.9-1.23 55.8 10.52 13.11 9.69 20.07 25.33 22.21 41.13 1.2 8.82.74 17.89-.75 26.64-1.64 9.6-5.21 18.74-7.21 28.25zM227.95 22.39c-6.68-7.73-20.69-6.18-27.59.83-.48.48.08 1.4.73 1.13 7.63-3.14 18.67-9.07 25.49-.82.83 1 2.22-.16 1.37-1.15zm3.25 187.98c-8.21-3.4-19.49 8.22-21.69 15.33-.24.78.81 1.21 1.32.69 6.12-6.23 10.45-14.05 20.1-14.81.59-.05.89-.95.27-1.21zm99.02 41.54c-.41-.46-1.19.2-.82.7 2.02 2.67 1.68 5.56 2.43 8.59.11.43.76.47.94.08 1.57-3.28-.36-6.93-2.54-9.36zm9.34-6.12c-.56-.77-1.8.01-1.25.81 1.26 1.86 1.8 4.14 3.1 5.96.27.38.84.19.85-.27.06-2.26-1.4-4.72-2.7-6.49zm-11.24-6.37c-2.44-1.26-4.85-.84-6.89.93-1.83 1.59-3.08 4.8-1.68 7 .31.48.97.3 1.12-.2.5-1.6.7-3.26 1.77-4.63 1.17-1.51 2.91-1.89 4.59-1.03 1.34.68 2.43-1.38 1.09-2.07z"/><path fill="#fff" d="M32.3 321.3c-4.88 0-9.04.79-12.49 2.37-3.44 1.58-5.94 3.76-7.48 6.55-1.54 2.8-2.32 7.22-2.32 13.27 0 4.19.55 7.64 1.64 10.33 1.08 2.7 2.46 4.82 4.12 6.34 1.66 1.53 5.03 3.98 10.14 7.36 5.1 3.35 8.3 5.74 9.6 7.17 1.27 1.43 1.9 4.47 1.9 9.12 0 2.11-.33 3.7-.99 4.78-.67 1.07-1.69 1.61-3.05 1.61-1.37 0-2.32-.43-2.85-1.27-.54-.85-.81-2.75-.81-5.71v-9.6H10.65v5.17c0 5.91.6 10.48 1.8 13.7 1.2 3.22 3.75 5.87 7.63 7.95 3.89 2.08 8.58 3.11 14.07 3.11 5 0 9.39-.9 13.16-2.7 3.77-1.81 6.32-4.04 7.63-6.71 1.32-2.66 1.98-6.81 1.98-12.43 0-7.73-1.19-13.34-3.56-16.82-2.37-3.48-8.13-7.93-17.27-13.35-3.18-1.88-5.12-3.49-5.8-4.83-.71-1.33-1.07-3.31-1.07-5.95 0-2.05.32-3.58.96-4.59.63-1.01 1.56-1.51 2.8-1.51 1.14 0 1.95.38 2.44 1.12.49.75.73 2.49.73 5.22v5.85h19.06v-3.12c0-6.27-.61-10.72-1.83-13.34-1.21-2.61-3.7-4.78-7.46-6.5-3.75-1.73-8.29-2.59-13.62-2.59zm523.81 0c-6.11 0-11.09 1.42-14.95 4.27-3.85 2.84-6.18 5.97-6.99 9.39-.82 3.41-1.22 8.88-1.22 16.42v23.46c0 5.43.19 9.5.58 12.21.39 2.72 1.37 5.31 2.93 7.78 1.56 2.47 3.85 4.54 6.86 6.21 3 1.68 6.23 2.52 9.68 2.52 2.9 0 5.41-.61 7.54-1.83 2.13-1.22 3.9-3.05 5.29-5.49l1.9 5.66h12.9v-42.37H556.6v11.99h4.14v9.36c0 3.68-.27 6.15-.8 7.41-.54 1.27-1.56 1.91-3.05 1.91-1.37 0-2.28-.56-2.73-1.69-.46-1.12-.69-3.45-.69-6.99v-37.89c0-4.03.23-6.53.69-7.5.45-.98 1.31-1.47 2.58-1.47 1.46 0 2.39.57 2.78 1.71.39 1.13.59 3.96.59 8.48v7.17h20.52v-3.42c0-6.46-.6-11.4-1.8-14.79-1.2-3.4-3.79-6.33-7.75-8.8-3.97-2.48-8.96-3.71-14.97-3.71zm55.54 0c-4.88 0-9.04.79-12.48 2.37-3.44 1.58-5.94 3.76-7.48 6.55-1.55 2.8-2.32 7.22-2.32 13.27 0 4.19.54 7.64 1.63 10.33 1.09 2.7 2.47 4.82 4.12 6.34 1.66 1.53 5.04 3.98 10.15 7.36 5.1 3.35 8.3 5.74 9.6 7.17 1.27 1.43 1.9 4.47 1.9 9.12 0 2.11-.33 3.7-1 4.78-.66 1.07-1.68 1.61-3.04 1.61-1.37 0-2.32-.43-2.86-1.27-.53-.85-.8-2.75-.8-5.71v-9.6H590v5.17c0 5.91.61 10.48 1.81 13.7 1.2 3.22 3.75 5.87 7.63 7.95s8.57 3.11 14.07 3.11c5 0 9.39-.9 13.16-2.7 3.77-1.81 6.32-4.04 7.63-6.71 1.32-2.66 1.98-6.81 1.98-12.43 0-7.73-1.19-13.34-3.56-16.82-2.38-3.48-8.13-7.93-17.27-13.35-3.19-1.88-5.12-3.49-5.8-4.83-.71-1.33-1.07-3.31-1.07-5.95 0-2.05.32-3.58.95-4.59.63-1.01 1.57-1.51 2.8-1.51 1.14 0 1.95.38 2.44 1.12.49.75.73 2.49.73 5.22v5.85h19.07v-3.12c0-6.27-.61-10.72-1.83-13.34-1.22-2.61-3.71-4.78-7.46-6.5-3.76-1.73-8.3-2.59-13.63-2.59zm-549.31 1.66v15.8h12.14v63.14h20.53v-63.14h12.19v-15.8H62.34zm51.74 0v46.71c0 8.9.16 14.75.49 17.53.33 2.78 1.38 5.42 3.17 7.92s4.49 4.53 8.09 6.1c3.61 1.56 7.77 2.33 12.49 2.33 4.25 0 7.95-.65 11.09-1.97 3.14-1.32 5.66-3.25 7.58-5.8 1.92-2.56 3.07-5.04 3.46-7.46.39-2.42.59-6.62.59-12.61v-52.75h-20.53v58.17c0 3.93-.19 6.42-.56 7.48-.37 1.06-1.21 1.58-2.51 1.58-1.14 0-1.9-.47-2.27-1.43-.37-.96-.56-3.16-.56-6.61v-59.19h-20.53zm57.4 0v78.94h25.89c4.91 0 8.58-.27 11.02-.81 2.44-.54 4.49-1.48 6.14-2.83 1.66-1.35 2.82-3.21 3.49-5.6.66-2.39 1-7.13 1-14.22V350.8c0-7.48-.23-12.49-.68-15.04-.46-2.55-1.6-4.87-3.42-6.95-1.82-2.08-4.47-3.58-7.97-4.49-3.49-.9-10.2-1.36-20.11-1.36h-15.36zm57.69 0v78.94h20.53v-78.94h-20.53zm31.26 0v78.94h35.6v-15.8h-15.07v-17.36h12.82v-15.02h-12.82v-14.96h13.7v-15.8h-34.23zm43.99 0v78.94h20.53v-35.6c2.83 0 4.57.51 5.24 1.51.67 1.01 1 3.63 1 7.86v26.23h19.06v-20.82c0-6.37-.17-10.27-.51-11.68-.34-1.41-1.21-2.97-2.61-4.66s-4.13-3.03-8.19-4.04c4.49-.43 7.49-1.69 9.02-3.81 1.53-2.11 2.3-6.24 2.3-12.38 0-6.73-1.09-11.63-3.25-14.7-2.16-3.07-4.95-4.98-8.38-5.73-3.43-.75-9.99-1.12-19.68-1.12h-14.53zm76.37 0v78.94h33.01v-15.8h-12.48v-63.14h-20.53zm48.79 0L419.1 401.9h21.22l1.24-14.19h7.34l1.11 14.19h20.97l-11.74-78.94h-29.66zm47.38 0v78.94h17.17v-35.89l10.68 35.89h17.99v-78.94h-17.16v35.54l-11.51-35.54h-17.17zm174.06 0l-10.47 78.94h21.22l1.24-14.19h7.34l1.1 14.19h20.98l-11.74-78.94h-29.67zm47.39 0v78.94h17.94l.03-52.08 7.53 52.08h12.73l7.14-53.29.02 53.29h17.95v-78.94h-26.71l-4.72 36.86-2.91-20.08c-.84-6.44-1.65-12.03-2.44-16.78h-26.56zm-506.4 13.5c2.24 0 3.77.24 4.58.71s1.33 1.21 1.56 2.22c.23 1.01.34 3.3.34 6.88v30.66c0 5.27-.34 8.5-1.02 9.68-.69 1.19-2.51 1.78-5.46 1.78v-51.93zm132.94 0c2.37 0 4.01.4 4.9 1.17.89.79 1.34 2.43 1.34 4.93v4.34c0 3.48-.46 5.53-1.39 6.17-.93.63-2.54.95-4.85.95v-17.56zm120.29 4.1c1.04 13.16 2.09 24.21 3.13 33.15h-7.07c.53-6.98 1.85-18.03 3.94-33.15zm221.44 0c1.05 13.16 2.09 24.21 3.13 33.15h-7.07c.54-6.98 1.85-18.03 3.94-33.15z"/><path d="M588.93 311.29c-.21-.24-.52-.4-.94-.4-1.15-.01-2.57-.07-3.97-.3.36-.75-.12-1.82-1.07-1.76-.63.04-1.68.3-2.56.32.73-1.65 1.42-3.33 2.2-4.96.53-1.1-.56-2.34-1.7-1.7-.21.12-.39.26-.58.39-.38-.5-1.22-.56-1.76-.13-1.99 1.58-2.6 3.81-2.93 6.22-.14.35-.26.7-.38 1.06-.48.41-.97.82-1.41 1.27m-42.79 0c-.25-2.64-1.88-4.63-4.01-5.53 1.13-.93 2.31-1.77 3.55-2.54-.31.53.23 1.27.88.92 1.94-1.06 3.98-1.59 5.94-1.5 3.06.47 4.34 1.04 6.56 3.22.37.36.78.4 1.15.28.56.72 1.07 1.52 1.54 2.36.65 1.18 2.73.35 2.21-.93-.55-1.34-.94-2.82-1.44-4.24.19-.16.3-.4.2-.66-.6-1.54-1.45-2.64-2.46-3.38-.01 0-.01-.01-.02-.01-5.28-3.86-15.13 2.06-19.43 6.08a6.89 6.89 0 0 0-3.36.18c.73-2.38 2.02-4.52 3.69-6.33-.9 1.77-1.78 3.42-2.73 4.71-.55.76.69 1.45 1.24.73 1.87-2.44 3.31-5.12 4.78-7.8.29-.07.56-.23.78-.53 2.47-3.39 5.98-5.83 9.82-7.47l.14-.03c.19-.03.33-.12.45-.22.06-.02.12-.05.18-.08.77-.3.77-1.59-.14-1.6a.878.878 0 0 0-.8-.32c-.66.07-1.35.14-2.06.22.07-.07.15-.14.22-.21.3-.35.02-.84-.44-.75-1.23.25-2.32.78-3.32 1.48-4.23.81-8.18 2.53-8.86 7.38-.02.18.01.35.07.49-1.9.8-3.67 1.88-5.19 3.23-1.03-6.97-5.37-14.76-11.11-17.62-.44-.22-1 .24-.71.71.29.47.61.93.94 1.37-.29.68-.04 1.7.51 2.57 1.41 2.23 3.69 4.26 5.04 6.65.01.09.04.19.12.28.02.02.03.03.04.05.34.65.62 1.32.78 2.04.09.42.53.72.95.72.22 0 .44 0 .65-.02.55 1.59.95 3.23 1.2 4.91-.84.99-1.57 2.07-2.15 3.27-4.24.12-7.83 3.03-8.87 7.27-.08.33.17.6.44.68m-245.12 0c-.08.08-.15.17-.23.25-.43.48-.94.91-1.55 1.24-.07.04-.13.07-.2.11-.14.08-.29.11-.43.18-.63.68-1.39 1.24-2.23 1.53-6.21 3.66-16.39 5.85-21.52.64-.04.03-.07.07-.11.1-3.92 4.22-11.63 2.99-14.03-1.57-.48-.98-.79-1.7-1-2.48h-9.44c.11-.15.18-.33.2-.53.16-1.82-1.58-2.85-2.49-4.21-.7-1.05-1.19-2.54-1.18-3.9.34-.03.68-.16.97-.4 1.89-1.56 1.34-6.67 1.49-8.85.25-3.6 1.07-7.8.14-11.35-.1-.4-.48-.84-.9-.9-.2-.03-.36-.05-.57-.02l-.12.02c-.11.01-.21.05-.31.11-.1-.84-.26-1.67-.46-2.49 1.4-.88 1.59-3.43-.47-3.91-.41-.1-.83-.19-1.24-.29a14.8 14.8 0 0 0-1.43-2.01c-.69-.82-2.19.05-1.82 1.06.03.08.05.16.08.24h-.01c-1.36-1.38-3.86-1.96-5.56-2.64-2.37-.94-4.71-2.09-7.16-2.8-.52-.15-1.09.02-1.47.39.22-.21.11-.18-.1-.06-.72-.46-1.43-.94-2.12-1.49-.07-.35-.1-.69-.35-1.02-.53-.72-1.62-1.06-2.31-.3-.16.18-.32.36-.49.54-.62.68-.55 1.51 0 2.2 5.13 6.44 13.14 8.03 20.77 9.83.01.07.04.15.05.22 1.32 1.27 2.3 3.06 2.61 5.41.33 2.46.17 4.91-.33 7.29-.11 4.58-.38 9.21-2.63 13.02-.35.59-.74 1.07-1.16 1.51.08 1.94.42 3.83 1.26 5.36m-33.81 0a7.752 7.752 0 0 1-4.29 3.37c-1.39.45-3.17.51-4.68.03-.16.02-.31.05-.41.07-1.86.47-3.53.39-5.06-.1-4.74 1.97-11.3 2.31-14.99.17a6.481 6.481 0 0 1-2.79-3.54h-.65c.66-2.19 1.25-4.41 1.95-6.59.12-.38.1-.71-.01-.99.11-.55-.54-1.13-1.07-.88-.75-.19-1.64.1-1.96 1.03-.03.08-.05.17-.08.25-.54.5-1 1.09-1.38 1.72-.99 1.63-1.02 3.63-.8 5.47m-89.83 0c1.37-3.48-.27-7.5-3.66-9.26-.12-.06-.24-.12-.36-.17.07-.13.12-.28.14-.46.64-6.73 5.01-11.41 9.83-15.67.94-.83-.04-2.5-1.23-2.1-4.19 1.4-7.2 3.52-10.11 6.85-.46.53-.89 1.09-1.31 1.66.84-5.04 1.73-10.07 1.44-15.21-.01-.13-.04-.25-.08-.36.14-1.63-.07-3.24-.9-4.81-.11-.2-.41-.15-.47.06-.53 1.82-.94 3.66-1.37 5.5-2.21 3.86-3.62 8.09-4.37 12.45-2.93-7.44-7.98-14.04-11.89-21.25-.52-.96-2.19-.29-1.79.75 3.8 9.95 7.22 19.91 8.96 30.43-.22-.02-.44-.05-.67-.06-.52-.02-1.03.03-1.52.1-3.8-8.8-19.4-7.59-24.89-.84-.29.35-.03.95.47.81 3.13-.89 7.95-2.81 12.49-3.45 3.16.41 5.35 2.71 7.24 5.74.05.08.12.12.17.19-1.71 1.8-2.7 4.33-2.66 6.88-.42.06-.82.15-1.2.28-.96.34-1.21 1.24-.92 1.95m525.1-11c1.21.23 2.18.92 3.11 1.66.05.13.09.27.14.4-1.52-1.24-3.31-2.06-5.37-2.23.71 0 1.41.04 2.12.17zm-11.02-9.25c-.18.25-.35.51-.51.77-.65.73-1.24 1.54-1.77 2.39-.32.08-.64.18-.95.28.93-1.37 1.91-2.56 3.24-3.43zm-6.46 20.25c.04-1.32-.18-2.59-.64-3.72.92-.1 1.83-.03 2.7.39 1.33.64 1.79 1.98 1.99 3.33m-7.88-7.73c.04-.31.06-.65.08-.98.48-.81 1-1.59 1.67-2.18-.77 1.17-1.36 2.42-1.77 3.71-.07-.03-.14-.06-.21-.08.12-.11.21-.26.23-.46zm-12.01 7.73c.11-.04.2-.11.27-.25 1.46-3.28 4.27-5.41 7.93-5.38.13 0 .25.03.38.04v.02c.05.52.57.74.98.41.08-.06.15-.14.23-.21.84.25 1.54.68 2.06 1.25 0 .41.25.8.65.91.49.93.68 2.04.54 3.22m-483.72 0c.04-.02.08-.04.11-.07.47-.47.57-1.07.76-1.68.18-.61.52-1.19.95-1.64.92-.96-.55-2.44-1.46-1.46-.09.1-.18.21-.27.32-.06-.13-.15-.24-.21-.37.15-.07.3-.15.45-.22.68-.33.8-1.22.48-1.83-.1-.2-.19-.4-.28-.6.05-.01.1-.03.18-.03.86-.01 1.73.49 2.42.96.87.59 1.56 1.57 1.87 2.56.44 1.45-.18 2.78-.75 4.08m-11.2-19.84c-.07.09-.11.2-.15.32a46.13 46.13 0 0 1-1.11-3.62c.47 1.08.89 2.18 1.26 3.3zm-.88 11.63c1.81.79 3.62 2.74 4.74 4.36.67.96.7 1.17-.31 1.51-2.73.91-6.08.49-8.89.37-.2-.01-.43-.04-.65-.05.33-.49.52-1.1.75-1.63.16-.37.28-.75.48-1.1.03-.05.07-.11.1-.17.39-.17.59-.73.24-1.14-.09-.1-.18-.17-.28-.23-.32-.35-.85-.45-1.27-.21-.71.41-1.15 1.2-1.43 1.94-.25.68-.65 1.6-.52 2.37-.51-.05-1.02-.1-1.53-.13.58-4.21 3.81-7.96 8.57-5.88z"/><path fill="#fff" d="M761.68 509.03H9.6v-97.19h752.08z"/><path d="M277.13 116.36c-4.1.94-8.93 4.88-7.32 7.55.23.39.69.39 1.02.13.56-.44.87-1.22 1.26-1.81.44-.65 1.02-1.19 1.65-1.66 2.43-.52 5.12-.4 7.3.23.81.24 1.57-.41 1.6-1.22.09-2.52-3.32-4.51-5.5-3.22zm-12.86-33.68c-.9-1.09-2.33-1.67-3.41-2.56-1.08-.88-1.9-2.07-2.58-3.27-.29-.5-.95-.14-.87.37.47 2.97 3.29 6.27 6.46 6.45.55.03.7-.63.41-.99z"/><path fill="#ffe680" d="M174.45 309.08c-.11-.07-.2-.27-.25-.54-.05-.27-.08-.61-.09-1.19l-.01-.55.04.45c.06.76.13 1.27.2 1.51.04.14.19.29.29.29.07 0 .22-.11.38-.29.44-.46.61-.83.7-1.47.08-.58.08-1.53 0-2.3-.15-1.46-.59-2.89-1.13-3.72-.21-.31-.39-.49-.67-.62-.2-.09-.34-.13-.57-.13-.46 0-.67.15-.67.48 0 .23.1.56.36 1.2.09.21.16.39.15.39-.01.01-.37-.71-.45-.89-.28-.64-.27-.99.05-1.15.19-.1.65-.15.89-.1.73.15 1.44 1.31 1.88 3.05.22.89.34 1.78.34 2.63 0 1.05-.17 1.81-.5 2.33-.1.15-.34.39-.5.5-.18.12-.34.16-.45.09zm-16.93 2.66c.07-.26.11-.5.11-.84 0-.33-.02-.53-.09-.9-.33-1.68-1.47-3.97-2.96-5.96-.52-.69-1.02-1.28-1.59-1.85-.5-.5-.75-.72-1.53-1.32-.79-.61-1.87-1.38-2.11-1.49l-.09-.04-.09.06c-.2.13-1.82 1.34-2.38 1.78-2.58 2.02-3.91 3.45-4.44 4.76-.11.27-.17.52-.25 1-.02.11-.04.2-.04.2-.01.01-.01-.03.01-.13.01-.05.02-.22.03-.37.01-.18.03-.31.05-.4.29-1.11 1.69-2.83 3.42-4.19.12-.09 1.01-.77 1.97-1.5 1.38-1.05 1.75-1.33 1.77-1.32.04.02 2.6 1.89 2.77 2.03.79.62 1.76 1.66 2.66 2.88.81 1.09 1.45 2.14 1.92 3.15.48 1.03.78 1.9.92 2.68.07.41.09.55.09.96 0 .32-.01.41-.04.58-.05.31-.07.35-.12.36l-.04.01.04-.12zm6.2 1.35c-.77-.48-.95-.83-2.09-4.1-1.79-5.15-1.92-5.71-1.54-6.62.34-.81 2.54-2.9 3.67-3.48.56-.29 1.37-.27 1.97.03 1.02.52 2.64 2.45 3.41 4.07.77 1.6.93 2.39.94 4.32 0 1.44-.04 1.79-.27 2.35-.39.97-1.29 2.44-1.42 2.31-.06-.06-.14-.95-.18-1.98-.12-3.03-.49-4.56-1.1-4.56-.62 0-.91 1.16-1.09 4.25-.13 2.29-.26 2.89-.69 3.33-.37.37-1.08.4-1.62.06zm-17.65 1.73c-1.36-.36-3.28-1.15-4.08-1.68-1.37-.91-1.95-1.9-1.79-3.07.12-.85.46-1.42.96-1.58.53-.17.85-.75.99-1.79.22-1.56 1.72-3.29 5.03-5.82 1.08-.82 2.01-1.51 2.06-1.53.13-.04 2.59 1.76 3.31 2.42 2.48 2.29 4.75 6.2 5.05 8.69.16 1.37-.45 2.52-1.69 3.16-.86.44-3.33.81-3.92.58-.63-.24-.74-.76-.85-3.89-.1-2.98-.23-4.02-.57-4.78-.16-.35-.28-.47-.5-.47-.58 0-.91 1.19-1.23 4.5-.24 2.43-.46 3.72-.81 4.63-.37.98-.48 1.01-1.97.62zm131.01-8.62c-.01-1.24-.92-4.23-2.02-6.65-2.28-5.02-1.95-6.54.58-2.67 1.68 2.57 3.31 11.57 2.09 11.57-.35 0-.64-1.01-.65-2.25zm-16.87-2c-1.63-3.16-2.55-5.75-2.04-5.75.51 0 .93-.59.93-1.31 0-.72.6-2.13 1.33-3.13 1.08-1.48 1.72-1.61 3.42-.7 3.62 1.94 5.56 4.33 4.19 5.17-1.43.88-.68 4.6 1.5 7.46 1.32 1.73 1.66 1.79 2.53.5.83-1.23 1.01-1.12 1.02.65.01 1.87-.63 2.2-4.95 2.5l-4.96.35-2.96-5.75zm-21.91 11.05c-.66-.66-1.2-1.9-1.19-2.75.02-2.68 4.61-11.45 7.29-13.91l2.57-2.36 2.89 2.06c5.02 3.57 10.57 13.23 8.39 14.58-.51.32-1.2-.47-1.52-1.74-.66-2.63-4.99-7.67-6.6-7.67-.58 0 .04 1.69 1.38 3.75 3.47 5.33 3.62 7.46.59 8.33-4.1 1.18-12.51 1-13.8-.28zm-69.95-3.12c-.08-.06-.14-.35-.17-.85-.03-.44-.06-2.56-.04-2.4 0 .02.03.45.05.96.07 1.27.12 1.91.17 2.11.03.11.11.06.3-.2.41-.55.98-1.59 1.21-2.22.17-.46.21-.9.21-2.12 0-1.7-.12-2.46-.55-3.54-.37-.93-.78-1.68-1.31-2.42l-.09-.13.07.01.07.01.14.2c.62.91 1.15 2.04 1.45 3.08.56 1.93.54 3.77-.05 5.27-.12.31-.35.76-.79 1.5-.25.43-.45.7-.55.75-.06.03-.06.03-.11-.01zm-7.59-10.84c.02-.04.6-.61.93-.91 1.21-1.12 1.98-1.62 2.71-1.77.23-.05.61-.04.83.02.54.14 1.06.49 1.75 1.18.46.46.77.82 1.12 1.28.14.18.15.21.13.22-.07.01-.11-.01-.2-.15-.36-.5-.93-1.15-1.35-1.53-.75-.7-1.26-.94-1.97-.94-.43 0-.74.08-1.06.26-.65.37-1.46 1.04-2.34 1.92-.41.41-.46.45-.5.45-.05 0-.05 0-.04-.03zm3.51 12.12c-.66-.14-1.31-.69-1.65-1.4-.03-.07-.13-.33-.21-.59-.39-1.2-.99-2.94-1.6-4.67-.42-1.19-.5-1.41-.63-1.84-.26-.84-.35-1.31-.33-1.79.02-.45.12-.78.37-1.17.1-.15.32-.44.44-.56.07-.07.09-.08.14-.08h.06l-.06.07c-.59.69-.76.97-.85 1.42-.04.18-.04.48-.02.7.04.35.18.91.38 1.59.21.69.84 2.56 1.47 4.38.89 2.54 1.15 3.07 1.69 3.48.25.18.46.29.7.35.19.05.52.05.69 0 .18-.05.33-.13.46-.26.27-.26.4-.57.51-1.19.08-.47.1-.76.21-2.21l.04-.64-.01.72c-.01.83-.03 1.24-.09 1.75-.13 1.05-.42 1.65-.89 1.87-.21.1-.55.13-.82.07zm-17.2 1.68c-.65-.07-1.63-.34-2.62-.7-1.68-.62-2.68-1.18-3.41-1.9-.33-.33-.5-.55-.66-.88-.2-.4-.26-.68-.26-1.16 0-.76.21-1.42.55-1.76.14-.14.23-.19.38-.21.06-.01.14-.02.17-.03.11-.02.09 0-.05.05-.42.16-.7.52-.87 1.11-.1.36-.15.75-.12 1.05.03.34.09.56.23.86.26.55.74 1.07 1.43 1.54.24.17.38.25.68.41 1.1.57 2.59 1.13 3.84 1.44.85.21 1.13.21 1.34-.03.09-.1.14-.2.24-.44.41-.98.62-2.08.9-4.8.12-1.13.12-1.14.05-.07-.08 1.13-.16 1.86-.29 2.66-.29 1.73-.67 2.77-1.05 2.85-.07.02-.38.02-.49.01zm5.14-.76c-.26-.04-.43-.12-.59-.27-.24-.23-.36-.61-.44-1.29-.05-.49-.06-.84-.07-1.95l-.01-1.06.04.85c.07 1.67.13 2.32.23 2.77.14.6.37.84.86.91.67.09 2.42-.16 3.32-.48.65-.23 1.22-.67 1.59-1.22.1-.15.24-.41.3-.58.04-.1.05-.12.08-.13h.04c0 .03-.06.2-.11.32-.42.98-1.33 1.6-2.82 1.93-.79.17-1.99.28-2.43.21zm22.2-5.44c-.09-.11-.2-.82-.26-1.74-.15-2.31-.33-3.14-1.08-4.88-.52-1.21-.51-1.59.04-1.7.51-.1 1.06.13 1.39.59.76 1.08 1.28 3.11 1.28 5.04 0 1.38-.16 1.95-.72 2.53-.38.4-.45.41-.66.15zm163.15-59.67c-1.26-1.5-2.29-3.06-2.29-3.46 0-1.32 2.71-2.31 4.18-1.52 1.8.96 4.53 5.46 3.92 6.45-.28.46-1.03-.43-1.78-2.11-.71-1.59-1.79-2.9-2.39-2.9-1.39 0-1.38.93.02 3.64 1.59 3.08.99 3.04-1.65-.11zm7.86-1.91c-.46-.89-1.44-2.22-2.19-2.96-1.32-1.31-1.34-1.36-.88-1.78.46-.42.52-.4 1.46.45 1.27 1.15 2.3 3.07 2.49 4.65.08.69.11 1.26.05 1.26-.05 0-.47-.73-.93-1.61zm-4.28 10.48c-.02-1.19-.31-2.89-.64-3.76-.44-1.14-.18-1.43.91-1.01.97.37 1.67-.08 1.91-1.24.28-1.32.54-1.06.96.98.39 1.9-.02 3.5-1.27 5l-1.84 2.2-.03-2.17zm-16.99 4.75c-.8-1.49-.36-3.41 1.94-8.54l2.97-6.62 2.84 1.47c3.74 1.94 7.03 8.91 5.23 11.08-1.76 2.12-3.02 1.9-3.02-.53 0-1.13-.69-3.38-1.53-5-1.81-3.5-4.04-4.02-3.01-.7 1.98 6.42 2.24 9.65.81 10.2-2.78 1.07-5.21.53-6.23-1.37z"/><path fill="#80b3ff" d="M189.36 187.64c-3.61-5.63-6.72-8.74-9.92-9.92l-2.29-.85 3.04-4.2c1.67-2.31 5.59-5.89 8.71-7.96 5.33-3.54 6.2-3.78 14.68-4.12 5.26-.21 10.7.15 13.07.86 5.36 1.61 12.6 6.66 12.6 8.8 0 .94-1.83 4.4-4.07 7.7s-4.32 7.23-4.62 8.75c-.3 1.52-.61 2.76-.68 2.77-.07.01-5.75.68-12.62 1.49-6.87.82-13.02 1.49-13.65 1.49-.63.01-2.53-2.15-4.23-4.8z"/><path fill="#f95" d="M191.73 222.98c-2.2-1.39-4.4-2.66-4.9-2.83-.49-.17.26-3.88 1.68-8.26 1.42-4.37 2.87-9.4 3.22-11.17.72-3.62.1-3.43 17-5.3 5.5-.61 10.8-1.34 11.78-1.62 1.42-.41 2.5 1.05 5.32 7.15 1.95 4.22 3.4 7.77 3.22 7.9-.18.13-2.42 1.01-4.98 1.95-4.42 1.64-12.89 9.27-14.01 12.63-.33.99-2.54 1.51-7.4 1.73-6 .28-7.47-.02-10.93-2.2zm1.34 41.85c-.09-.49-.2-3.53-.25-6.76-.08-5.13-.42-6.13-2.73-7.87-3.63-2.73-11.18-2.66-16.72.17-3.49 1.78-4.12 2.53-3.58 4.23.47 1.49.28 1.94-.7 1.61-1.45-.49-1.65-5.65-.37-9.52.61-1.83.37-2.25-1.26-2.25-1.11 0-2.28-.71-2.62-1.58-.97-2.53-.7-6.42.44-6.42 1.89 0 5.89 5.43 5.34 7.25-.72 2.4 1.83 2.26 4.08-.21 4.52-5 16.27-6.4 22.02-2.64 2.98 1.95 3.37 6.62 1.01 12.26-.82 1.97-1.5 4.94-1.5 6.58 0 2.63.27 2.92 2.25 2.34 1.24-.36 6.34-1.07 11.33-1.58 5-.51 11.23-1.4 13.85-1.99 4.68-1.05 10.56-3.59 10.56-4.56 0-.27-1.07-2.19-2.39-4.27-6.49-10.28-8.91-22.02-5.76-27.9 1.31-2.44 6.63-4.27 12.47-4.28 4.35-.01 18.48 4.44 20.54 6.46 1.97 1.93.52 3.53-3.18 3.54-7.73.01-21.39 5.96-22.34 9.73-.87 3.45.42 8.65 3.12 12.63l2.42 3.57-2.7 1.9c-5.24 3.69-10.88 6.02-18.25 7.52-9.53 1.95-24.9 3.19-25.11 2.03zm56.69-50c-1.21-1.21-1.54-3.14-1.32-7.75.29-6.01.36-6.14 3.29-6.43l3-.29v8.04c0 6.86-.25 8.04-1.68 8.04-.92 0-2.41-.73-3.29-1.62z"/><path fill="#d5f" d="M176.44 218.71l-4.88-.38.54-14.69c.54-14.71 2.51-24.19 5.02-24.19 1.68 0 10.27 9.54 11.7 12.99 1.1 2.66.94 4.03-1.27 10.78-1.39 4.25-2.84 9.65-3.22 11.99-.38 2.35-1.21 4.17-1.85 4.07-.64-.1-3.36-.35-6.05-.56z"/><path fill="#fd5" d="M234.83 211.95c-.74-1.37-1.71-2.5-2.17-2.5-.46 0-.84-.79-.86-1.75-.01-.96-1.77-5.04-3.9-9.06-3.52-6.63-3.78-7.65-2.86-10.98 1.52-5.52 5.82-13.22 7.38-13.22 1.91 0 4.93 6.31 7.87 16.44 1.37 4.72 2.95 9.45 3.52 10.51.57 1.06 1.03 4.43 1.03 7.49v5.57h-4.33c-3.6 0-4.56-.42-5.67-2.5z"/><path fill="#5f9" d="M170.9 236.63c-.84-2.02-.87-3.59-.12-5.57.57-1.51 1.05-4.33 1.05-6.27v-3.52l4.25.67c8.25 1.3 12 2.93 16.85 7.29 2.69 2.42 4.9 4.7 4.9 5.06 0 .36-3.94.66-8.75.66-7.28 0-9.39.38-12.56 2.25-2.09 1.24-3.95 2.25-4.13 2.25-.18 0-.85-1.27-1.49-2.82z"/><path fill="#f55" d="M202.88 254.25c1.35-4.72 1.1-12-.49-14.1-1.22-1.61-.67-2.54 5.39-9 3.71-3.96 8.19-8.86 9.94-10.88 2.97-3.43 10.22-7.82 12.92-7.82 2.37 0 1.1 1.85-2.57 3.74-2.06 1.06-4.39 3.24-5.17 4.84-3.48 7.13-2.19 18.71 3 26.89 2.02 3.19 2.53 4.72 1.67 5.02-3.89 1.33-14.08 3.4-19.44 3.95l-6.19.64.94-3.29z"/><path fill="#f95" d="M199.73 228.63c-1.75-1.74-1.23-1.46-4.81-4.13l15.37-1.72c-.28.03-2.09 6.58-4.11 9.02l-3.13 3.78c-1.1-2.38-.66-3.57-3.31-6.95z"/><path fill="#80b3ff" d="M215.17 268.88c-.82-.99-.17-1.33 3.57-1.82 5.44-.72 7.58.57 3.37 2.04-3.79 1.32-5.72 1.26-6.95-.22z"/><path fill="#fd5" d="M226.31 266.12c-.91-.57-.62-.75 3.54-2.21.41-.14 1.04.1 1.41.55.5.61.27.99-.93 1.53-1.91.87-2.8.9-4.03.13z"/><path fill="#5f9" d="M205.64 270.27l-1.39-1.48 3.57-.37c3.16-.33 3.69-.21 4.68 1.01 1.39 1.71.65 2.3-2.9 2.31-1.89.01-2.93-.38-3.95-1.47z"/><path fill="#f55" d="M233.13 263.35c-.75-.42-.73-.45 1.57-1.59 1.29-.64 2.59-1.39 2.89-1.66.7-.61.95-.37.69.66-.14.55-.8 1.16-2.08 1.92-2.12 1.26-2.03 1.25-3.07.67z"/><path fill="#d5f" d="M200.91 271.18c-2.72-.74-3.3-1.04-3.09-1.58.16-.42.52-.47 2.24-.28 1.49.16 1.98.12 1.82-.14-.12-.2-.04-.35.19-.34.23.01.71.64 1.07 1.41l.66 1.4-.66-.02c-.36-.01-1.37-.21-2.23-.45z"/><path d="M371.81 459.51c1.66 1.53 5.04 3.98 10.14 7.36 5.1 3.35 8.31 5.74 9.61 7.17 1.27 1.43 1.9 4.47 1.9 9.12 0 2.11-.33 3.7-1 4.78-.67 1.07-1.68 1.61-3.05 1.61-1.37 0-2.32-.42-2.85-1.27-.54-.84-.8-2.75-.8-5.7v-9.6h-19.07v5.17c0 5.92.6 10.48 1.8 13.7 1.2 3.22 3.75 5.87 7.63 7.95s8.57 3.12 14.07 3.12c5.01 0 9.39-.9 13.17-2.71 3.77-1.8 6.31-4.04 7.63-6.7 1.32-2.66 1.98-6.81 1.98-12.43 0-7.73-1.19-13.34-3.56-16.82-2.37-3.48-8.13-7.93-17.26-13.35-3.19-1.88-5.12-3.49-5.8-4.82-.71-1.33-1.07-3.32-1.07-5.95 0-2.05.32-3.58.95-4.59.63-1.01 1.57-1.51 2.8-1.51 1.14 0 1.95.38 2.44 1.12.49.75.73 2.49.73 5.22v5.85h19.06v-3.12c0-6.27-.61-10.72-1.83-13.34-1.22-2.61-3.71-4.78-7.46-6.51-3.75-1.72-8.29-2.58-13.63-2.58-4.88 0-9.04.79-12.48 2.37-3.44 1.58-5.94 3.76-7.48 6.56s-2.31 7.22-2.31 13.26c0 4.19.54 7.64 1.63 10.34 1.09 2.7 2.47 4.81 4.12 6.34zm60.21 41.74h20.53v-63.14h12.19v-15.8h-44.85v15.8h12.14zm83.52-35.59c2.83 0 4.57.5 5.24 1.51.67 1.01 1 3.63 1 7.85v26.23h19.06v-20.82c0-6.37-.17-10.26-.51-11.68-.34-1.41-1.21-2.97-2.61-4.66s-4.13-3.04-8.19-4.05c4.48-.42 7.49-1.69 9.02-3.8 1.53-2.11 2.29-6.24 2.29-12.38 0-6.73-1.08-11.63-3.24-14.7-2.16-3.07-4.96-4.98-8.39-5.73-3.43-.75-9.99-1.12-19.67-1.12h-14.53v78.94h20.53v-35.59zm0-29.84c2.37 0 4.01.39 4.9 1.17.89.78 1.34 2.42 1.34 4.93v4.34c0 3.48-.46 5.53-1.39 6.17-.92.63-2.54.95-4.85.95v-17.55zm70.6 17.26h-12.82v-14.97h13.7v-15.8h-34.23v78.94h35.59v-15.8h-15.07v-17.36h12.83zM35.96 500.2c2.26-.7 4.05-1.96 5.37-3.78 1.32-1.82 2.06-3.86 2.23-6.12.16-2.26.25-7.34.25-15.24V422.3H23.28v55.54c0 2.99-.06 5.01-.19 6.05s-.62 1.92-1.46 2.63c-.85.72-2 1.07-3.46 1.07-.55 0-1.45-.05-2.68-.15v13.8h10.28c4.55 0 7.95-.35 10.21-1.05zm294.55-34.54c2.83 0 4.58.5 5.24 1.51.67 1.01 1 3.63 1 7.85v26.23h19.06v-20.82c0-6.37-.17-10.26-.51-11.68-.34-1.41-1.21-2.97-2.61-4.66s-4.13-3.04-8.19-4.05c4.49-.42 7.49-1.69 9.02-3.8 1.53-2.11 2.29-6.24 2.29-12.38 0-6.73-1.08-11.63-3.24-14.7-2.16-3.07-4.96-4.98-8.39-5.73-3.43-.75-9.99-1.12-19.67-1.12h-14.53v78.94h20.53v-35.59zm0-29.84c2.37 0 4.01.39 4.9 1.17.89.78 1.34 2.42 1.34 4.93v4.34c0 3.48-.46 5.53-1.39 6.17-.92.63-2.54.95-4.85.95v-17.55zm276.82 63.83c3.9 2.18 8.86 3.27 14.87 3.27 5.79 0 10.65-1.29 14.6-3.86 3.95-2.57 6.5-5.57 7.66-8.98 1.15-3.42 1.73-9.21 1.73-17.38v-3.08h-20.52v9.92c0 4.33-.24 7.09-.71 8.26s-1.47 1.76-3 1.76c-1.59 0-2.62-.59-3.07-1.76-.46-1.17-.68-3.67-.68-7.51v-36.67c0-4 .23-6.6.68-7.8.46-1.2 1.53-1.8 3.22-1.8 1.5 0 2.46.5 2.9 1.49.44.99.66 3.48.66 7.47v13.72h20.53v-7.5c0-7.37-.62-12.79-1.85-16.28-1.24-3.49-3.82-6.4-7.75-8.74s-8.92-3.51-14.97-3.51c-4.45 0-8.4.76-11.82 2.27-3.43 1.51-6.11 3.58-8.04 6.22-1.94 2.63-3.1 5.37-3.49 8.22-.39 2.85-.58 7.11-.58 12.8v23.06c0 7.74.64 13.53 1.9 17.38 1.27 3.85 3.85 6.86 7.75 9.04zM76.26 453.08v-14.97h13.7v-15.8H55.73v78.94h35.6v-15.8H76.26v-17.36h12.82v-15.02zm208.76 0v-14.97h13.7v-15.8h-34.23v78.94h35.59v-15.8h-15.07v-17.36h12.82v-15.02zM145.73 489.8v11.46h37.84v-15.8h-15.29l15.29-47.34v-15.8h-35.98v15.8h13.95zm76.3 11.46v-63.14h12.19v-15.8h-44.86v15.8h12.14v63.14zm-92.97 0v-63.14h12.19v-15.8H96.39v15.8h12.14v63.14zm555.15-78.94v28.23h-6.14v-28.23h-20.53v78.94h20.53V468.1h6.14v33.16h20.53v-78.94zm61.92 78.94v-63.14h12.19v-15.8h-44.86v15.8h12.14v63.14z"/><path fill="#bcd35f" d="M253.35 235.91c-2.57-3.53-1.89-4.62 2.85-4.62 3.77 0 7.71-3.49 7.71-6.83 0-1.16-1.25-4.69-2.78-7.83-2.75-5.66-2.76-5.79-.45-13.87 3.07-10.79 3.94-35.49 2.06-58.36-3.75-45.48-17.31-101.2-28.29-116.27l-2.29-3.14 8.47-4.45c18.83-9.89 48.06-17.11 69.23-17.11 28.39 0 46.69 10.14 56.31 31.21 8.72 19.11 9.05 34.35 1.35 63.96-2.47 9.51-4.49 18.9-4.49 20.87 0 5.57-6.48 6.85-34.76 6.88-28.68.02-43.06-2.47-45.09-7.81-.8-2.1-2.19-3.11-4.26-3.11-3.62 0-9.86 4.54-9.86 7.17 0 2.19 1.52 2.38 3.46.44 1-1 2.43-.86 5.08.5 7.27 3.74 29.25 8.62 38.84 8.62 8.47 0 5.37 2.06-7.81 5.18-10.11 2.39-13.98 2.69-25.73 1.97-10.05-.62-13.84-.45-13.84.63 0 .81 1.01 1.75 2.25 2.07 2 .53 2.29 2.84 2.62 20.91.36 19.93-2.11 43.93-6.45 62.57-2.89 12.4-9.27 17.11-14.14 10.41zm23.08-150.4c.87-.69 8.84-1.56 17.7-1.94 14.97-.65 18.88-1.56 14.24-3.34-1.54-.59-1.3-1.74 1.33-6.46 6.54-11.7 8.38-31.14 4.14-43.61-2.4-7.05-8.36-14.67-12.86-16.45-2.34-.92-6.67-2.73-9.62-4.03-11.8-5.18-25.52 3.07-33.5 20.14-3.16 6.76-3.61 9.25-3.61 19.95 0 13.8 2.13 19.44 11.68 30.85 5.07 6.06 7.55 7.21 10.5 4.88zm-11.24-2.02c0-.58-1.67-2.65-3.72-4.61-4.68-4.48-6.79-2.16-2.2 2.43 3.2 3.2 5.92 4.2 5.92 2.18zm-32.94 231.47c-.87-.23-2.62-2.26-3.88-4.49-3.29-5.85-2.36-10.82 4.85-26.04 9.87-20.84 11.31-28.77 6.69-36.86-1.4-2.45-2.55-5.83-2.56-7.52-.01-2.53.61-3.36 3.52-4.75 1.94-.93 4.39-1.69 5.43-1.69 2.05 0 6.03 4.84 6.03 7.33 0 .84.59 2.12 1.3 2.85.72.73 2.74 4.41 4.5 8.18 2.59 5.56 3.2 8.12 3.19 13.5 0 3.65-.47 8.33-1.05 10.39-.67 2.42-.7 4.36-.08 5.47.76 1.35.35 2.08-1.95 3.48-4.96 3.02-2.98 6.51 2.13 3.78 2.03-1.09 6.95-.33 6.95 1.07 0 .46-1.5.58-3.34.29-2.8-.45-3.7-.1-5.5 2.2-1.19 1.51-2.16 3.57-2.16 4.59 0 1.77-.13 1.77-3.25-.13-4.41-2.69-8.86-2.54-12.02.38-3.63 3.37-6.72 9.89-6.9 14.6-.09 2.22-.2 3.98-.24 3.91-.05-.06-.8-.31-1.68-.54zm8.82-21.34c3.06-2.41 4.59-2.49 7.72-.45 3.69 2.42 4.57-.28 1.08-3.29-2.08-1.79-3.47-2.24-5.41-1.76-3.06.76-7.11 4.27-7.11 6.17 0 1.81.75 1.67 3.73-.67zm16.71-22.93c2.21-2.44 1.27-5.79-2.05-7.31-1.85-.84-2.74-.81-3.66.13-.97.98-.73 1.65 1.13 3.17 2 1.63 2.11 2.01.75 2.54-2.76 1.06-4.6-.37-4.6-3.56 0-1.94.72-3.47 2-4.27 2.11-1.32 2.73-3.77.95-3.77-2.24 0-5.95 4.96-5.95 7.95 0 6.04 7.54 9.42 11.44 5.12zm-100-18.48c-8.74-3.16-11.31-6.75-11.31-15.74 0-4.33 1.34-5.95 2.18-2.63.79 3.14 4.96 7.8 6.97 7.8.94 0 3.16 1.45 4.93 3.22 2.44 2.44 3.22 3.97 3.22 6.37 0 1.74-.1 3.12-.23 3.07-.13-.05-2.72-.99-5.76-2.09zm-16.77 44.22c0-5.09 3.63-20.33 5.88-24.68 2.06-3.99 5.99-6.11 12.61-6.82 3.1-.33 6.92-.83 8.5-1.11 2.36-.41 2.98-.16 3.47 1.4.34 1.07 1.38 1.91 2.36 1.91 1.92 0 2.35-1.35.75-2.34-.7-.43-.63-.86.23-1.42.86-.56.93-1 .23-1.48-.55-.38-1.22-2.38-1.49-4.45-.44-3.34-.24-3.88 1.73-4.78 3.27-1.49 10.79-1.28 12.14.34.72.87.91 2.53.51 4.64-.77 4.08-5.58 13.69-7.16 14.3-.65.25-4.02-.52-7.5-1.7-3.48-1.18-8.07-2.17-10.19-2.18l-3.87-.02v5.28c0 6.35 3.09 13.27 7.76 17.37 1.7 1.49 2.62 2.86 2.05 3.05-1.66.55.12 2.51 2.3 2.53 1.6.01 1.73.18.64.87-.91.58-2.02.42-3.38-.47-3.02-1.98-5.1-1.62-7.97 1.37l-2.58 2.7-2.59-2.18c-4.31-3.63-5.98-3.71-10.43-.52l-4.01 2.88v-4.49zm5.06-1.51c.97-.74 2.69-1.35 3.81-1.37 1.2-.02 2.05-.59 2.05-1.39 0-2.11-5.96-1.77-8.19.46-3.27 3.27-1.4 5.13 2.33 2.3zm16.67-1.05c3.39-.68 3.69-1.91.65-2.68-2.31-.58-6 .88-6 2.37 0 1.02 1.39 1.1 5.35.31zm49.8 15.45c-.32-.83-.12-4.82.43-8.87 1.08-7.9.58-14.92-1.51-20.82-.71-2.02-1.19-3.75-1.06-3.85.13-.1 2.85-.68 6.04-1.29l5.81-1.11 3.33 3.26 3.33 3.26-4.05 8.42c-3.43 7.14-4.11 9.5-4.48 15.47l-.43 7.05h-3.43c-2.35 0-3.61-.47-4-1.5zm101.88-49.17c-7.6-1.67-8.73-3.89-5.98-11.72 1.09-3.11 1.88-7.63 1.88-10.77 0-3.77.46-5.93 1.51-7.09 1.42-1.56 1.39-1.66-.49-1.66-1.69 0-1.85-.27-1.05-1.76.52-.97.94-1.99.94-2.28 0-1.01-2.53-.49-3.54.72-.73.88-4.63 1.39-13.54 1.76-6.88.29-14.71 1.14-17.4 1.89l-4.89 1.37.49-2.91c1.08-6.49 2.04-7.62 8.11-9.64 10.41-3.46 18.04-4.61 30.8-4.63l12.32-.02 3.02 4.98c1.66 2.74 4.04 8.3 5.28 12.36 2.07 6.76 2.14 7.51.81 8.97-1.83 2.02-1.83 2.82 0 2.82.79 0 1.27.51 1.06 1.14-.22.65-1.45 1.01-2.86.84-2.49-.3-7.11 1.99-6.69 3.32.12.39-.67 2.74-1.75 5.22-1.09 2.48-2.2 5.22-2.47 6.1-.49 1.55-1.86 1.8-5.56.98zm7.87-14.86c.52-1.5 1.42-2.77 2-2.83.58-.05 1.87-.16 2.87-.23 2.99-.21 2.17-2.83-.98-3.14-4.45-.43-7.32 2.81-6.86 7.78.2 2.13 2.02 1.15 2.97-1.59z"/><path d="M479.38 268.776c.024.002.033.002.04-.001l-.016-.001c-.009 0-.013 0-.024.002z"/><path d="M728.398 220.097c.176-.449.135-.966-.303-1.356-6.427-5.723-14.475-9.817-21.204-15.291-7.276-5.917-13.789-12.611-20.577-19.052.042-.164.074-.328.122-.493-.225-.01-.449-.012-.674-.02-.697-.593-1.487-.498-2.035-.063-11.606-.386-23.299-.045-34.963.383-.008-1.132-.018-2.263-.027-3.394-.004-.485-.273-1.084-.743-1.295-3.624-1.63-7.366-1.535-11.194-.73-.534.113-1.058.742-.993 1.305.182 1.582.316 3.104.817 4.56-3.08.109-6.156.211-9.225.289-21.722.551-43.439 1.202-65.148 2.101-21.276.881-42.499 2.422-63.757 3.594-6.124.337-12.212.694-18.268 1.171-.023-1.374-.44-2.774.066-4.097.298-.781-.324-1.752-1.1-1.935-3.47-.818-7.373-1.544-10.895-.638-.81.209-1.214 1.05-1.038 1.832.465 2.05.595 4.028 1.28 5.917-4.85.008-9.782 1.177-14.546 1.874-6.945 1.012-13.848 1.513-20.83.883-.18-.307-.644-.333-.879-.078-.103-.011-.204-.016-.307-.026-1.256-.139-1.508 1.917-.297 2.187.063.014.13.024.194.037-1.503 10.826-1.284 22.205-1.476 33.078-.216 12.356.543 24.796 3.595 36.801.24.941 1.033 1.263 1.772 1.141.013.067.037.131.045.196.111.545.678.911 1.206.919 7.293.094 14.618-.531 21.887-1.09.535-.04 1.081-.074 1.625-.111a39.73 39.73 0 0 1 4.808.735c1.663-.231 3.33-.428 4.994-.63-.086 5.929-1.254 14.306 1.94 19.396.03 4.179.014 8.355-.194 12.533-1.305-3.131-3.169-6.053-4.936-9.01a78.403 78.403 0 0 0-2.648-4.848c-.644-1.09-2.219-.136-1.677.979a51.6 51.6 0 0 0 1.772 3.271c1.644 3.211 2.96 6.461 3.836 9.833a1.355 1.355 0 0 0-.28 1.156c.324 1.539.54 3.097.735 4.657-2.129-3.896-5.366-6.849-10.264-7.229-1.528-.118-1.997 2.086-.758 2.796 2.166 1.243 3.96 2.954 5.453 4.914-2.04-1.298-4.237-2.265-6.856-2.521-.904-.089-1.5.927-1.304 1.713.285 1.145.843 2.103 1.527 2.987-.033.14-.037.285-.019.434-.307-.011-.613-.024-.924-.028-.578-.005-.94.306-1.117.705-1.46-4.052-3.993-7.539-7.292-10.449-1.13-.998-2.879.257-2.112 1.63 2.003 3.581 3.396 7.171 4.188 11.196.115.587.73.975 1.292.984.765.014 1.526.056 2.29.096.024.116.061.225.084.342.288 1.428 2.255 1.043 2.454-.185 2.47.177 4.935.386 7.411.446 1.211.027 1.665-1.43.932-2.252-1.275-1.435-2.342-2.665-3.868-3.8a1.03 1.03 0 0 0-.747-.199c-.087-.1-.17-.203-.254-.304 3.051 1.106 5.471 3.424 7.992 5.5.808.664 1.726.382 2.124-.286.394.091.82.014 1.18-.257.15.057.306.082.473.075-.027.16-.049.321-.077.479-.377 2.098 2.822 2.998 3.212.885 2.53-13.724 2.287-28.256 1.467-42.288a39.269 39.269 0 0 1 1.945-1.699c.51-.414 1.024-.831 1.517-1.266.186-.162.23-.243.444-.365a.447.447 0 0 1 .104-.045.49.49 0 0 1-.115-.018c.048.013.092.01.14.016.018-.002.024-.002.015.001.603.054 1.082-.558.89-1.128.381-.038.761-.082 1.144-.12-3.642 14.451-3.53 31.919-.66 46.188.417 2.074 3.585 1.194 3.167-.873-.057-.279-.099-.559-.15-.836.014-.012.023-.021.037-.03.124.271.317.512.595.673 1.541.883 2.714.929 4.415.737.1 1.069 1.524 1.82 2.466.919a50.248 50.248 0 0 1 1.66-1.515c.154-.092.305-.179.46-.269 0 .62.413 1.252 1.173 1.252 1.717 0 3.435.004 5.151.008 1.287.003 4.183-.556 5.326-.012.52.248 1.066.216 1.5-.193.395-.376.58-.849.68-1.353.681.183 1.406-.313 1.462-1.105.046-.669.171-1.36.343-2.035a.94.94 0 0 0 .361-.846l-.024-.303c-.005-.067-.032-.13-.046-.195.002-.012.008-.02.01-.031.015.032.032.063.046.094.504 1.248 2.388.804 2.058-.566-.957-3.993-3.225-7.438-7.062-9.118-.642-.282-1.574.181-1.298.997.847 2.506 1.39 5.004 1.611 7.545-.458-.583-.865-1.204-1.169-1.903-.492-1.137-2.225-.504-2.225.603 0 1.42.048 2.805.374 4.155l-.004.004c-1.902.433-3.79.916-5.679 1.412 1.3-.883 2.46-1.899 3.436-3.398.56-.855-.13-1.981-1.003-2.187a68.028 68.028 0 0 1 3.602-3.334c1.003-.864-.062-2.83-1.337-2.297-3.896 1.627-7.186 3.779-10.19 6.408 2.251-3.935 5.353-7.335 8.596-10.643 1.007-1.028-.33-2.901-1.574-2.042-4.329 2.983-8.457 6.285-11.62 10.357 2.41-7.128 6.853-13.458 10.254-20.252.483-.96-.79-2.111-1.563-1.206-5.033 5.896-9.692 12.102-11.983 19.569-.563-11.545 1.13-22.993 1.353-34.623a474.952 474.952 0 0 1 21.11-1.5c23.26-1.133 46.461-3.065 69.704-4.499 19.932-1.229 39.881-2.196 59.838-2.957-.149 1.59-.263 3.179-.379 4.771-.07.24-.092.475-.056.699-.49 6.917-.783 13.852-1.516 20.762-.482 4.56-.968 9.112-1.365 13.671a64.932 64.932 0 0 0-1.582-7.347c-1.073-4.475-2.942-8.814-5.147-12.82-.82-1.466-3.066-.154-2.25 1.317 2.94 5.297 4.69 10.744 5.987 16.402.317 1.586.564 3.178.741 4.766-1.81-6.04-5.024-11.885-9.972-14.335-.91-.451-2.45.318-1.953 1.5 2.743 6.521 6.17 12.719 9.136 19.131a17.107 17.107 0 0 1-1.143-.58c-2.879-2.715-6.21-4.647-9.979-6.019-1.345-.587-2.748-1.046-4.273-1.299-1.774-.291-2.574 2.343-.757 2.745.545.121 1.08.264 1.614.403 4.348 1.314 8.05 4.389 12.123 6.266 1.046.998 2.021 2.101 2.87 3.371.624.932 1.874.545 2.217-.211.063.017.123.042.188.049.291.478.927.57 1.352.312-.026.944-.054 1.892-.063 2.837-.023 2.162 3.33 2.16 3.352 0 .161-16.56 4.352-33.821 3.54-50.483.76-.74 1.532-1.469 2.296-2.205.983-.945 3.006-2.258 3.18-3.69.013-.113-.023-.209-.048-.31.186-.005.373-.014.558-.021-.717 10.357-1.896 20.673-2.665 31.025-.7 9.427-1.587 19.726.775 28.973.433 1.691 3.05 1.33 3.028-.409-.023-1.88-.069-3.748-.12-5.612.23.176.52.273.812.259-.419 1.341 1.072 1.946 2.081 1.422.334.895 1.567 1.521 2.503.67 3.172-2.886 6.643-4.648 10.791-5.619.531-.123.922-.663.914-1.198-.003-.181-.006-.36-.007-.54.011-.805-.612-1.2-1.236-1.192-.624-.008-1.248.388-1.236 1.192-.025-1.794-3.5.024-6.867 1.097 3.878-4.281 8.121-8.188 12.527-11.971.84-.721.096-1.92-.825-1.992a13.026 13.026 0 0 0-1.565-.018c-.385-.2-.847-.253-1.297-.017-.119.063-.229.14-.347.204-5.865 1.06-10.289 6.217-13.638 11.434 1.367-6.144 4.521-11.647 8.28-16.759.263-.253.524-.499.783-.74.275-.253.38-.537.38-.811a154.632 154.632 0 0 1 4.627-5.702c.822-.974-.216-2.539-1.41-1.827-6.274 3.73-13.334 10.879-15.565 18.307-.008-3.034.046-6.077.232-9.149.635-10.374 1.622-20.7 1.108-31.1.955-.036 1.911-.073 2.866-.105 12.892-.431 25.91-.291 38.908-.365-.01-.244.007-.486.006-.73 14.271-10.173 28.421-21.678 40.88-33.992.848-.841.82-1.861.354-2.648zM506.3 305.437c.222.834.466 1.657.704 2.477a8.335 8.335 0 0 0-.25.863l-.354-.327a30.01 30.01 0 0 0-.224-3.476c.043.153.08.312.124.463zm-22.847-1.524c-.19.58-.37 1.163-.532 1.755-.055-.585-.113-1.17-.155-1.754a.88.88 0 0 0 .687-.001zm154.928-122.642c2.46-.331 5.018-.337 7.35.535l-.022 2.513c-2.464.092-4.928.182-7.389.272-.118-1.073-.054-2.229.061-3.32zm-168.363 6.616c2.294-.239 4.616.082 6.873.578-.118 1.191.055 2.439.338 3.58a294.27 294.27 0 0 0-6.777.67c-.32-1.556-.538-3.335-.434-4.828zm-32.854 78.889c-.002-.005 0-.008-.002-.01-2.924-11.795-3.506-23.826-3.599-35.929-.082-10.769 1.195-22.007-.04-32.758 1.05.184 2.144.314 3.251.426-2.66 10.446-2.429 22.248-2.412 32.854.02 11.919 1.083 24.015 3.586 35.693a6.961 6.961 0 0 1-.784-.276zm249.47-13.729c-12.86.342-25.742 1.091-38.384 1.498-24.499.787-48.979 2.016-73.438 3.558-23.244 1.467-46.44 3.499-69.704 4.671-8.71.438-17.85.751-26.979 1.537-.025-.006-.049-.019-.074-.022-7.866-.943-16.688 1.284-24.62 1.876-3.424.256-9.258 1.707-13.6 1.249-2.38-11.934-3.602-23.876-3.788-36.053-.17-11.004 1.663-21.814 2.057-32.725.061.004.12.011.183.017.164.408.35.789.646 1.124.298.337.793-.159.492-.492a2.182 2.182 0 0 1-.353-.575c.55.037 1.084.092 1.642.115.024.369.328.727.8.615.838-.198 1.682-.379 2.525-.563 8.102-.056 16.71-1.427 23.832-3.5 11.08-1.006 22.247-1.386 33.273-1.962 20.375-1.066 40.715-2.469 61.106-3.28 20.765-.825 41.54-1.372 62.315-1.855 19.661-.456 39.653.066 59.295-1.555 6.104 7.097 13.136 13.449 20.28 19.476 5.834 4.922 12.683 11.053 20.041 13.906-11.947 11.549-26.04 20.993-37.547 32.94z"/><path fill="#deaa87" d="M635.315 303.413c.449-4.425 1.196-14.842 1.661-23.149.703-12.554 1.26-15.479 3.305-17.329 2.397-2.17 2.44-2.064 1.691 4.161-1.52 12.63-2.932 37.742-2.306 41.018.536 2.801.168 3.344-2.264 3.344-2.79 0-2.872-.313-2.087-8.045zM476.257 291.827c.396-15.031.962-20.084 2.415-21.562 1.674-1.705 1.775-1.327.855 3.218-.573 2.832-.98 12.535-.906 21.562.097 11.76-.292 16.413-1.373 16.413-1.108 0-1.37-5.195-.99-19.631zM471.37 190.453c0-.708 1.159-1.288 2.575-1.288 1.416 0 2.574.58 2.574 1.288 0 .708-1.158 1.287-2.574 1.287s-2.575-.58-2.575-1.287zM638.718 182.729c0-1.674 4.758-1.674 5.793 0 .451.73-.63 1.287-2.499 1.287-1.811 0-3.294-.58-3.294-1.287zM439.422 263.603c-2.896-14.718-3.622-31.4-2.166-49.785.61-7.723 1.268-14.025 1.46-14.006.191.02.485-.012.652-.071.167-.06 2.22-.234 4.562-.388 7.633-.504 15.112-1.508 20.074-2.696 5.282-1.264 8.408-1.485 59.919-4.252 43.685-2.345 58.464-2.878 101.587-3.663 19.572-.357 40.608-.875 46.747-1.151l11.16-.503 6.785 6.764c10.353 10.324 23.35 21.022 29.585 24.354l3.693 1.973-3.21 3.015c-1.766 1.659-8.251 7.228-14.412 12.376-6.16 5.148-13.053 11.106-15.315 13.24l-4.113 3.88-21.488.866c-46.896 1.889-53.71 2.189-69.543 3.061-9.034.498-27.922 1.713-41.974 2.7-37.649 2.647-64.145 4.195-78.167 4.568-4.182.11-13.078.906-19.77 1.768-16.59 2.136-15.208 2.312-16.066-2.05z"/><path d="M490.78 210.622q.471.235.537.231.065-.004.341.242.277.247.407.239.196-.011.346.308.579.95.97.926.262-.015.614 1.538.413 1.483.233 1.756-.062.069-.143.925-.083 1.97-1.714 4.359-1.704 2.26-2.465 2.698-.127.073-.312.28-.184.207-1.257.925-1.072.717-1.457.87l-.442.288q.004.065.68.42.737.285 1.478.635l.807.346q.203.12.745.416.537.231 1.013.531.473.235.749.481.553.492.618.489.13-.008.833.803.702.812.92 1.192.427.565.948 1.649.291.507.543 2.59.251 2.082.185 3.2l-.317 2.443q-.42 1.794-.602 2.066-.3.476-.292.607.011.196-.792 1.029-.739.829-1.312 1.124-.76.437-3.078 1.161-.58.165-2.601.347-2.02.183-2.682.09-.195.011-.722-.024-.46-.039-.66-.093-.922-.077-2.735-.824-1.809-.682-2.492-1.167-.207-.185-1.187-.128-1.371.08-1.859-.417-.625-.619-1.168-7.73-.421-5.021-.673-7.104-.802-4.803-.702-5.333.047-.33-.251-2.082-.237-1.821-.482-2.659-.608-2.586-.653-3.37-.117-2.024-.347-2.6-.165-.581-.05-.85.105-.465 1.384-.997.193-.077.689-.564.492-.553 1.014-.583.262-.015.646-.169.45-.157.442-.287l1.856-.763q3.202-1.3 4.98-1.14.33.046.715-.107.384-.153.65-.103.064-.004.264.05.261-.015.592.031l.653-.037q2.359-.005 4.37.795 1.207.455 1.276.516.407.239.472.235.065-.004.476.3zm-6.37 3.186q-1.582-.17-3.922.162-3.116.508-4.972 1.27-.185.208-.105.465.077.192.169.646.153.384.165.58.034.588.267 1.23.318.964.748 5.002.492 3.969.68 4.94.946 6.172.952 8.53.098 1.698.212 2.544l.222 1.56q.798.215.81.411.015.262 1.497.962 1.482.7 2.14.728.199.054 2.492.053 2.094-.056 3.055-.44.96-.382 1.337-.666.496-.488.725-2.205.29-1.786.03-2.885-.51-2.002-.87-2.57-.365-.635-.91-.996-1.639-1.15-6.205-3.049-2.822-1.213-3.782-1.944-.622-.554-.768-.807-.08-.258-.086-1.502-.038-.653.135-1.057.177-.338 1.061-.913.884-.575 1.146-.59.587-.034 3.266-1.303 1.53-.744 3.206-2.348 1.673-1.67 1.986-3.064.15-.795-.068-1.176-.215-.315-1.429-.9-1.21-.52-1.536-.501-.196.011-1.648-.167zM507.32 219.757q.626-.495.822-.507.196-.01.9-.314.699-.368.895-.38.322-.083 1.172-.132.526.035 1.394.312.933.274 1.006.4.004.066.963.797.139.123.219.38.142.189.276.246.135.058.649 1.011.51.888.663 1.273.256 1.033.387 1.026.13-.008.123-.139-.008-.13.373-.349.38-.218 1.433-.148 1.183.062 1.46.309.341.242.521 1.083.165.58.234.642.28.312.124 2.155-.155 1.844-.587 3.442-.54 1.997.003 4.587.502 1.871.728 2.382.536 1.346 2.095 2.238.541.297.568.754.088.388-.37 1.528-.69 1.679-1.531 1.858-.58.165-1.66-.362-1.082-.593-1.988-1.524-.63-.684-.633-.75-.008-.13-.518-1.018l-.51-.888-.557.557q-.185.207-1.992 1.819-1.88 1.485-2.46 1.65-2.767.88-4.208.898-1.379-.051-3.602-1.102-1.283-.647-2.314-2.619-.583-1.014-.594-1.21l-.3-.638q-.896-1.914-.619-2.782l-.08-1.372q-.232-1.756.928-5.492.77-2.535 2.756-5.599.42-.68 1.527-1.923 1.173-1.247 1.677-1.604zm5.12 4.684q-.07-.062-.503-.757-.437-.762-.764-.743-.13.008-1.322.929-1.13.851-1.377 1.128-2.08 2.545-3.093 5.421-.779 2.404-.677 4.168.163 2.808.807 3.754 1.293 1.956 3.088 1.263 1.86-.698 3.286-2.09 1.427-1.394 2.077-2.611 1.236-2.43 1.149-3.933-.03-.522.164-2.827.078-.922.135-1.056.047-.33-.15-.32-.714.108-1.405-.508-.69-.615-.917-1.126-.295-.573-.498-.692zM537.411 212.839q.573-.295 2.079-.317 1.502-.087 1.847.22.208.185.404.174.26-.015 1.424.835.276.246.779 1.004.564.688.637.815 1.47 1.618 1.507 2.271.02.327.23.577.357.504.033 1.702-.158.664-.792 1.029l-.384.153-.254.146-.196.01q-.065.005-.134-.057-.07-.061-.073-.127-.004-.065-1.214-.585-.334-.111-1.186-1.242-.283-.376-1.473-1.684-.557-.557-1.014-.53-1.045.06-2.88 2.328-1.769 2.265-2.862 4.884-.112.334-.459 1.14-.28.803-.335 1.003-.162.599-.335 1.002-.477.814-.54 3.111.001 2.294.353 3.846.876 3.816 4.818 2.867 5.23-1.351 6.325-1.677 3.025-.961 3.562-.73.407.239.982 1.123 1.232 2.025-.229 2.83-.446.223-.434.42l-.385.152-.768.307-.385.153q-.184.208-2.306.92-2.06.643-2.586.608-.391.023-.584.1-2.367.989-6.124.616-.726-.089-1.525-.305-.802-.281-.814-.477-.004-.065-.2-.054-.26.015-1.293-.843-1.036-.923-1.397-1.491-2.425-3.399-1.978-8.143.469-4.352.777-4.697.057-.135.458-1.14.396-1.072.454-1.207l.116-.269.238-.407q.116-.268.166-.533 1.179-3.41 3.998-6.785.55-.687 1.8-1.742 1.314-1.059 1.576-1.074.196-.011.576-.23zM552.163 204.45q.385-.154 1.234-.203.914-.053 1.329.316l.48.366.144 1.368q1.182 9.105 1.35 10.865l.243 3.066q-.004-.065.25-.211.188-.142.423-.614.115-.27.546-.753l.861-.967.373-.35q.13-.007.439-.352.184-.208 1.08-.587.895-.38 1.018-.518.065-.004.58-.164.58-.165 1.096-.326.515-.16.51-.226.185-.207 2.501.183.2.054.81.412.673.289.872.343.265.05.757.611.851 1.13 1.227 1.96 1.383 3.525 1.295 7.658-.028.657.135 3.465.45 7.773.422 8.43-.031.591-.524 1.144l-.622.56q-.058.134-.52.095-.399-.107-1.332-.381-1.067-.332-1.344-.578-.28-.311-.252-.968l-.163-2.808-.238-4.115q-.116-3.139-.332-5.747-.155-2.678-.515-4.361-.103-.65-1.124-1.311l-1.03.321q-2.002.51-2.895 2.068-1.605 2.845-2.577 7.554-.707 3.645-.678 5.282.055 3.208-1.232 3.61-.193.076-.508.291-.319.15-.642.234-.388.088-1.409-.574-.748-.48-.963-.796-.215-.315-.402-1.287-.444-2.006-.428-6.266-.027-3.865-.268-9.159-.18-5.363-.374-6.466-.084-.323.027-.657.123-.138-.123-3.27-.521-5.605.493-6.188zM581.488 227.917q-.588.034-1.09-.724-.325 2.313-.123 3.546.015.261.468 1.283.387 1.027 1.354 1.888 1.382 1.23 2.768 1.413.661.092 3.135-.182 2.47-.34 3.758-.741 1.357-.341 2.605-.282.722.024 1.309 1.104.663 1.272.09 1.567-.184.207-.238.407-.05.265-.423.614-.377.284-.507.292-.066.004-.573.295-2.037 1.035-5.814 1.45-3.711.412-5.52-.27-3.214-1.19-4.703-3.135-1.408-1.688-1.6-2.726-.014-.261-.336-1.29-1.053-3.479.581-9.209.871-3.064 2.283-4.719.557-.556.604-.887.227-.603 1.777-2.134 1.615-1.535 2.756-2.19 2.349-1.316 2.487-1.193 1.68-.425 1.937-.505 1.414-.475 4.337.207.73.155 2.085.928 1.417.705 2.107 1.32 2.557 2.277 2.507 5.95.04 1.832-.906 3.59-.358.61-1.154 1.574-.73.96-.862.968-.13.008-.768.306-1.468.675-6.213 1.343-6.302.954-7.523.238-.138-.123-.595-.096zm10.2-11.73q-2.074-.733-4.992.943-2.16 1.174-3.791 3.562-.604.887-1.131 1.966-.528 1.079-.459 1.14.139.123 2.152-.19t4.48-.718q2.467-.405 3.12-.442 1.756-.233 2.144-.321.384-.153.75-.633.48-.749.504-1.471.04-1.575-.39-2.205-.215-.316-1.032-.858-.822-.608-1.356-.774zM604.5 199.39q.246-.276.833-.31 2.352-.136 2.843.425.146.254.19 1.038.031.522.184.906.15.32-.009.984-.07 1.052.032 2.816.087 1.502-.037 2.754-.059 1.249.04 2.947.051 2.028-.054 3.607-.109 1.514-.076 3.215.11 1.894-.041 2.69-.039.46.044 1.897.08 1.372.225 1.626.142.188.412 3.711.33 3.454.334 3.52.088.387.46 2.266.366 1.814.523 2.263.073.127.342.243.595.096.794 1.264.011.196.103.65.153.384.11.78.02.326-.469.944-.488.618-.873.772-.319.15-1.237.137-.918-.013-1.256-.19-.407-.238-.963-.796-.492-.561-.572-.819-.004-.065-.153-.384-.084-.323-.161-.515-.537-1.345-1.492-6.532-.253-.968-.343-2.536-.095-1.633-.374-3.058-.485-2.724-.277-7.061.437-7.168.055-13.765-.11-1.894.25-3.618.362-1.66.612-1.87zM624.384 211.74q.13-.009.576-.23.511-.227.707-.238 2.651-.612 4.613.454 1.145.523 1.828 1.008.407.238 1.309 1.104.898.8.975.992.004.065.506.822.503.758.506.823.008.13.3.638.29.507.295.573.004.065.302.703.606 1.407.865 3.62.26 2.213-.088 4.133-.521 2.324-.706 2.531-.061.07-.292.607-.116.269-.655 1.152-.542.817-.661 1.02-.958 1.563-2.004 2.738-.493.553-1.492 1.397-.938.775-1.134.786-.066.004-.696.434-1.888 1.354-3.959 1.801-1.487.349-3.265.19-1.779-.16-2.735-.825l-.269-.116q-.138-.123-.337-.177l-.208-.184q-1.824-.943-3.08-4.54-.314-.9-.488-3.904-.14-2.417-.062-3.338.143-.926.721-3.384.741-3.057 1.7-4.62l.353-.676q-.008-.13.723-1.09.728-1.025 1.158-1.509 1.73-1.804 3.141-2.344 1.16-.33 1.552-.352zm5.983 6.01l-.884.575q-.888.51-.954.514-.13.008-.68-.42-.552-.492-.617-.488-.13.008-.277-.246-.141-.189-.614-.424-.41-.303-.483-.43-.208-.185-.265-.05-.058.134-.515.16-.458.027-.596-.096-.287-.442-1.326.863-2.82 3.374-3.374 9.631-.237 2.7.733 4.742.528 1.214 1.139 1.572.61.358 2.113.27 1.371-.078 3.708-1.59 2.584-1.787 4.043-4.886 1.412-2.769.647-5.804-.417-1.549-.494-1.741-.978-2.172-1.304-2.153zM649.87 209.478q.192-.076 2.078-.317 1.952-.244 2.148-.255.192-.077 2.047.275 1.856.351 2.654.567.135.058.738.285.664.158.799.216.2.054.668.223.534.166.737.285.269.116.676.355.468.169.741.35.273.18.618.488.342.243.622.554.767.808.848 1.065.08.258.003 1.18-.078.921-1.108 1.243-.707.238-.703.303-1.073.717-2.785-.56-.89-.67-1.962-1.066-1.605-.562-4.167-.676-2.5-.183-3.854.223-3.028.896-4.148 3.058-.47.944-.143.925.196-.011.245.838.193 3.33.6 6.977.408 3.646.56 5.144.32 3.258.477 3.708.406 1.353-.148 1.974-.677.76-2.701.878-1.045.06-1.395-.313-.487-.496-.839-2.048-.103-.65-.44-1.94-.337-1.292-.54-2.525-.186-.972-.454-2.202-.272-1.295-.39-2.205l-.193-3.331q-.226-3.919-.025-4.98.62-2.853 1.728-4.096.37-.415.478-.814.104-.465.169-.469.13-.008.754-.568 1.741-1.608 5.607-2.749z"/><path fill="none" d="M467.972 242.461c0-.102 2.085-4.409 4.632-9.57 2.548-5.162 5.246-10.788 5.997-12.502 1.302-2.973 1.327-3.137.558-3.549-.444-.237-1.4-.431-2.126-.431-.725 0-1.318-.177-1.318-.394 0-.402 5.987-1.123 6.874-.828.27.09 1.9 4.418 3.625 9.618 4.383 13.216 5.261 14.831 8.063 14.831 2.241 0 2.08.507-.447 1.405-4.32 1.534-4.668 1.27-6.938-5.276-.779-2.248-1.564-4.254-1.744-4.458-.18-.205-2.447-.234-5.037-.065l-4.71.308-2.046 5.149c-1.624 4.087-2.263 5.231-3.097 5.548-1.103.42-2.286.53-2.286.214zm16.678-12.91c.182-.177-3.349-9.873-3.739-10.266-.41-.414-4.808 10.043-4.46 10.605.2.325 7.841.008 8.199-.339z"/><path fill="none" d="M467.972 242.461c0-.102 2.085-4.409 4.632-9.57 2.548-5.162 5.246-10.788 5.997-12.502 1.302-2.973 1.327-3.137.558-3.549-.444-.237-1.4-.431-2.126-.431-.725 0-1.318-.177-1.318-.394 0-.402 5.987-1.123 6.874-.828.27.09 1.9 4.418 3.625 9.618 4.383 13.216 5.261 14.831 8.063 14.831 2.241 0 2.08.507-.447 1.405-4.32 1.534-4.668 1.27-6.938-5.276-.779-2.248-1.564-4.254-1.744-4.458-.18-.205-2.447-.234-5.037-.065l-4.71.308-2.046 5.149c-1.624 4.087-2.263 5.231-3.097 5.548-1.103.42-2.286.53-2.286.214zm16.678-12.91c.182-.177-3.349-9.873-3.739-10.266-.41-.414-4.808 10.043-4.46 10.605.2.325 7.841.008 8.199-.339z"/><path fill="none" d="M467.972 242.461c0-.102 2.085-4.409 4.632-9.57 2.548-5.162 5.246-10.788 5.997-12.502 1.302-2.973 1.327-3.137.558-3.549-.444-.237-1.4-.431-2.126-.431-.725 0-1.318-.177-1.318-.394 0-.402 5.987-1.123 6.874-.828.27.09 1.9 4.418 3.625 9.618 4.383 13.216 5.261 14.831 8.063 14.831 2.241 0 2.08.507-.447 1.405-4.32 1.534-4.668 1.27-6.938-5.276-.779-2.248-1.564-4.254-1.744-4.458-.18-.205-2.447-.234-5.037-.065l-4.71.308-2.046 5.149c-1.624 4.087-2.263 5.231-3.097 5.548-1.103.42-2.286.53-2.286.214zm16.678-12.91c.182-.177-3.349-9.873-3.739-10.266-.41-.414-4.808 10.043-4.46 10.605.2.325 7.841.008 8.199-.339z"/><path fill="none" d="M467.792 242.736c.076-.167 2.186-4.466 4.69-9.552 2.503-5.086 5.204-10.76 6.003-12.608 1.611-3.729 1.49-4.148-1.2-4.16-.77-.005-1.398-.174-1.398-.377 0-.375 3.408-.91 5.833-.917l1.317-.004 2.93 8.925c3.11 9.483 4.786 13.622 6.006 14.842.46.46 1.406.75 2.44.75 2.415 0 2.088.605-.803 1.48-4.247 1.286-4.327 1.226-6.5-4.813l-1.896-5.269-2.405.047c-1.323.026-3.54.17-4.928.322l-2.521.276-2.056 5.16L471.25 242l-1.797.52c-.988.286-1.735.384-1.66.217zm16.661-13.243c.323-.323-3.193-10.13-3.636-10.143-.416-.013-4.457 9.31-4.484 10.347-.013.491.7.546 3.95.3 2.18-.164 4.057-.391 4.17-.504z"/><path fill="none" d="M467.792 242.736c.076-.167 2.186-4.466 4.69-9.552 2.503-5.086 5.204-10.76 6.003-12.608 1.611-3.729 1.49-4.148-1.2-4.16-.77-.005-1.398-.174-1.398-.377 0-.375 3.408-.91 5.833-.917l1.317-.004 2.93 8.925c3.11 9.483 4.786 13.622 6.006 14.842.46.46 1.406.75 2.44.75 2.415 0 2.088.605-.803 1.48-4.247 1.286-4.327 1.226-6.5-4.813l-1.896-5.269-2.405.047c-1.323.026-3.54.17-4.928.322l-2.521.276-2.056 5.16L471.25 242l-1.797.52c-.988.286-1.735.384-1.66.217zm16.661-13.243c.323-.323-3.193-10.13-3.636-10.143-.416-.013-4.457 9.31-4.484 10.347-.013.491.7.546 3.95.3 2.18-.164 4.057-.391 4.17-.504z"/><path fill="none" d="M467.792 242.736c.076-.167 2.186-4.466 4.69-9.552 2.503-5.086 5.204-10.76 6.003-12.608 1.611-3.729 1.49-4.148-1.2-4.16-.77-.005-1.398-.174-1.398-.377 0-.375 3.408-.91 5.833-.917l1.317-.004 2.93 8.925c3.11 9.483 4.786 13.622 6.006 14.842.46.46 1.406.75 2.44.75 2.415 0 2.088.605-.803 1.48-4.247 1.286-4.327 1.226-6.5-4.813l-1.896-5.269-2.405.047c-1.323.026-3.54.17-4.928.322l-2.521.276-2.056 5.16L471.25 242l-1.797.52c-.988.286-1.735.384-1.66.217zm16.661-13.243c.323-.323-3.193-10.13-3.636-10.143-.416-.013-4.457 9.31-4.484 10.347-.013.491.7.546 3.95.3 2.18-.164 4.057-.391 4.17-.504z"/></svg>
