<svg xmlns="http://www.w3.org/2000/svg" version="1.1" viewBox="0 0 545.8 724.3" preserveAspectRatio="xMinYMin"><path d="m437 541.4c-5.5-2.8-11-1.9-15.6 2.1-4.1 3.6-7 10.9-3.8 15.8 0.7 1.1 2.2 0.7 2.5-0.4 1.1-3.6 1.6-7.4 4-10.5 2.6-3.4 6.6-4.3 10.4-2.3 3 1.5 5.5-3.1 2.5-4.7zm25.4 14.4c-1.3-1.7-4.1 0-2.8 1.8 2.9 4.2 4.1 9.4 7 13.5 0.6 0.9 1.9 0.4 1.9-0.6 0.1-5.1-3.2-10.7-6.1-14.7zm-21.1 13.8c-0.9-1-2.7 0.5-1.9 1.6 4.6 6 3.8 12.6 5.5 19.4 0.2 1 1.7 1.1 2.1 0.2 3.5-7.4-0.8-15.7-5.8-21.2zm-223.9-93.9c-18.6-7.7-44.1 18.6-49.1 34.7-0.5 1.8 1.8 2.7 3 1.6 13.8-14.1 23.6-31.8 45.5-33.5 1.3-0.1 2-2.1 0.6-2.7zm326.3-357.7c-5.5-35.5-22.7-68.9-51.4-91-34.5-26.5-80.5-29.5-122.2-25.5-51.3 4.9-100.4 23.8-146.7 45.4-0.6 0.3-0.7 0.8-0.6 1.3-4.3 1.8-8.5 3.6-12.6 5.9-0.6 0.3-0.8 0.8-0.8 1.4-23.5-12.9-53.7 26-42.1 47.5 0.7 1.4 2.9 0.6 2.8-0.9-0.6-11.6 1.8-21.5 8.6-31.1 6.3-8.8 16.7-15.6 27.6-13.2-14 1.8-14.3 40.9-2 47.8 1.5 0.9 2.8-1 2.1-2.3-4.2-8-11.4-37 1.6-40.8 19.6 19.4 27.6 46.8 34.4 72.9 8.6 33.1 14.5 67 21.5 100.5 7.6 36.8 15.2 76.4 17.9 115.9-0.5 13.1-1.1 26.1-2.2 39.2-1.5 19.1-4 37.9-6.8 56.6-4.9-3.5-14.3-1.5-19.2 0-1.4 0.4-1.7 1.9-1.4 3.1-0.6 1-1.2 2.3-1.6 3.8-0.2-0.5-0.5-1-0.8-1.5-0.3-0.8-0.6-1.6-0.8-2.2-0.3-1-0.5-2-0.7-3 0-0.2 0-0.5-0.1-0.7 0-0.1 0-0.1 0-0.2 0-0.1 0-0.2 0-0.2 0.4-26.3-15.4-56.2-33.6-73.7-16.3-15.7-40.1-21.6-62.3-19.1-5.4 0.1-10.9 0.7-16.1 1.9-0.4 0.1-0.9 0.1-1.3 0.2-2.8 0.4-5.5 1.1-8 2.1-21.5-0.9-45 37.9-51.2 53.1-7.1 17.2-7.1 35.1-6.1 53.4 1.1 18.8 1.6 36.3 0.5 54.8-9.7-1.6-17.8 10.1-18.1 20.6-12.8 0.5-21.6-18.8-13.9-29.4 1.7-2.3-0.7-5.9-3.4-4.1-4.3 2.9-7.7 6.4-10.5 10.3 0 0-0.1 0-0.1 0.1-11.5 12.9-7.2 39.6-1.1 53.8 3.5 8.4 10.3 15 19.1 17.4 4.1 1.1 10.2 1 15.3-0.7 1.8 0.2 3.6 0.1 5.4-0.3 0.9 0.5 1.7 1 2.7 1.5-6.4 0.4-13.3 1.7-19.5 4-6-2.8-14.4 0.8-19.9 5.2-12.1 4.7-17.6 23.3-20.7 34.1-5 17.5-8 39.9-1.9 57.5 0.5 1.4 1.6 2.1 2.8 2.3-2.7 5.3-3.7 11-1.1 17 5.6 13.2 28.4 14.2 39.1 7.8 0.4-0.2 0.7-0.6 0.9-0.9 0.1 0.7 0.5 1.3 1.2 1.7 3.8 2 7.9-0.3 10.4-3.6 6.5 3.9 16.5 2.9 22.7-0.8 2.4-1.4 4.2-3.5 5.5-5.8 0.9 0.7 1.9 1.2 2.8 1.4 15.4 3.5 12-22.2 5.1-31.3 1.1-1.3 2.3-2.5 3.6-3.5-0.2-0.1-0.3-0.1-0.5-0.2-0.6-3.4-2-6.6-4.4-8.9 0.3-0.6 0.3-1.3-0.4-1.9-8.1-6.9-16.1-11.3-22.5-20.2-6.9-9.6-8.2-19.7-9.1-30.8 5.5 1.2 11.4 1.3 16.9 2.7 5.7 1.4 11.2 3.8 16.9 5.2 2.2 1.3 4.3 2.7 6.2 4.2 1.9-0.1 3.8-0.5 5.6-1.3 1-0.5 1.3-1.6 0.7-2.3 2.7-1.3 5.2-3.2 7.3-5.7 1.7-1.9 3.8-5 5.2-8.3 8 4.9 18.3 10.2 26.8 13 4.9 1.6 10 2.3 15.1 2.4 5.1 8.5 8.4 17.4 9.4 27.6 0.5 4.5-0.1 9.1-0.4 13.7-1.7 7.4-2.9 14.9-3 22.4-0.1 7-1.5 13.3 2.2 19.6 4.3 7.4 20.5 8.4 27.8 3.5 3.5 7.8 9.6 14 18.5 13.4 0.6 0 1.2-0.4 1.5-0.8 3 0.9 6.1 1.1 8.8 0.4 1.2 0 2.4 0 3.5-0.2 0.3 0 0.6-0.2 0.9-0.3 6.6 5.1 19.4 3.8 26.2 3.2 10.2-1 25-3.3 32.5-11 1.4-1.4 1.4-3.5 0.5-5.1 0.4-0.1 0.7-0.3 1-0.5-0.7 0.6 2.8-0.1 3.7-0.2 2.6-0.2 5.3-0.3 7.9-0.4 3.9-0.1 7.9 0 11.8-0.1 0 0.1 0 0.2 0.1 0.3 0.2 0 0.3-0.1 0.5-0.1l2.8-0.1c0.7 0 1.5-0.1 2.2-0.1 3.6 2 8.1-0.6 10.4-3.9 3.7-5.2 3.8-11.9 3-18-0.9-6.6-4.9-22.8-13.2-25.3 1.8-3.5 1.5-8.5-0.9-11.5-0.6-0.7-1.2-1.3-2-1.8-0.4-0.5-0.9-0.9-1.7-1 0 0 0 0 0 0-2.6-1.2-5.7-1.5-8.6-1.2-0.1-0.6-0.3-1.3-0.4-1.9-2.3 0.7-4.7 0.8-7 0 0 0.3 0.1 0.6 0.1 0.9-0.8 0.3-1.6 0.7-2.2 1.3-1.8-1.3-3.9-2-6.2-2.3 0.7-0.6 1.1-1.5 0.9-2.5-0.7-2.6-2.1-4.9-3.4-7.2 0.9-2.1 1.1-5 1.4-6.8 0.1-0.7 0.2-1.4 0.3-2.1 0.5 0 1-0.2 1.2-0.7 3.9-9.9 2.8-22.7 1.8-33.1-0.9-9-3.6-17.6-9.2-24.3-1.4-3.2-3-6.4-4.7-9.6 0.5-0.2 0.9-0.7 1-1.2 14.1 1.9 28.2-10.7 34.1-24 22-7.8 45.6-8.2 69.1-7.4 4.4 7.7 1.5 19.1 0.2 27.2-1.6 10.2-3.9 20.4-3.3 30.7 1.3 21.7 22.9 22 39.2 16 2.5 7.6 10.9 10.3 18.9 9.5 5.4-0.6 14.8-3.4 20.3-8.2 2.2-1.5 3.9-3.2 5.2-5.1 0.3 0.5 0.9 0.9 1.6 1 3.5 0.2 6.5-1.2 9.2-3.3 2.6-2 6.1-5.2 5.3-8.9 0-0.1-0.1-0.2-0.2-0.3 0.3-0.9 0.7-1.9 0.8-2.8 0.7-3.7 0.4-7.5-0.6-11.1 0.5 0.1 1.1-0.1 1.4-0.5 2.5-3.8 1.2-9.5-0.6-13.4-2-4.5-6-7.8-10.3-10.1-0.5-0.3-1-0.2-1.3 0.1-2.6-5.4-7.2-7.1-11.9-6.4-0.8-10.5-4.9-21.5-8.4-31.1-3.8-10.5-10-19.9-17.9-27.8 0.1-0.7-0.3-1.5-1.2-1.7-0.2-0.1-0.5-0.1-0.7-0.2-0.3-0.2-0.5-0.5-0.8-0.7-0.8-0.7-1.8-0.5-2.5 0-18.8-3.8-40.2-1.7-58.9 0.5-16.8 2-34.5 5.9-50.1 13.4 1.7-8.4 2.8-16.7 4-24.3 3.4-22.2 4.2-44.7 5.1-67 0.2-5.3 0-10.7-0.3-16 0.4-9.7 0.7-19.3 0.7-29 0-9.4 0.1-18.5-2.3-27.3 0.1-0.7 0.3-1.5 0.4-2.2 18.3 3.3 38.6 2.3 55.8-0.2 22.5-3.3 49.4-9.6 67.5-24.3 11.1-0.1 23.9 0.5 35-2 0.3 0.3 0.7 0.5 1.2 0.4 11.9-2 27.8-4.1 37.6-11.5 0.6-0.4 0.7-1.2 0.4-1.8 1.1-0.8 2-1.8 2.7-2.9 0.4-0.2 0.7-0.5 0.8-0.9 0.1-0.3 0.1-0.6 0.1-0.8 0-0.1 0-0.1 0-0.2 0.6-4.2-0.8-8.9-0.9-13.1-0.1-4.2 0.6-8.1 1.3-12.1 13.2-44.8 26.2-89.3 18.9-136.5zm-286.9 333.5c2.5-0.3 5-0.5 7.5-0.4 2.6 0.1 5.2 0.9 7.7 0.6-0.3 1.6-0.5 3.3-0.7 4.9-0.4 0.2-0.7 0.6-0.8 1-1 3.8-1.6 9.1-1.4 14.5l0 0c0.4 8.2 2.6 16.6 8.4 20 0.2 0.1 0.4 0.2 0.6 0.2 0.5 0.9 1 1.7 1.6 2.5-7-3.9-15.6-6.3-23.3-7.9-0.2-1.3-0.6-2.5-0.8-3.7-0.7-4.5-1.1-9.2-1.2-13.7-0.2-4.9-0.8-13.6 2.4-18.2zm-180 75.7c4.9-8.1 5.3-18.6 4.9-28.5 14.3 0.9 27.1 2.6 40 9.4 12.6 6.6 17.2 18.2 27 27.1 1.1 1 2.9 0.2 2.9-1.3-0.8-13.8-15.9-24.9-27-31.1-3.8-2.1-7.9-3.8-12.1-5.1 0.2-0.1 0.3-0.3 0.4-0.5 5.8-16.7 12.7-35.4 15.5-53 22.8-2 46.2-4.2 68.7-8.4 0.1 0 0.2-0.1 0.3-0.1 1.5 5.1 5 10.1 7.4 14.8 3.7 7.3 6.2 15.7 10.6 22.6 0.7 1 2.2 0.5 2.2-0.7 0-6.9-4.9-14.4-7.9-20.4-3-5.9-5.8-13.4-10.4-18.3 0.2-0.5 0.3-1.1 0.3-1.6 0.2-13.7 8.4-23.1 13.9-34.9 0.9-1.9-1.5-3.6-3-2.1-9.7 9.2-17 20.7-18.3 34-20.6 3.6-42.6 2.7-62.7 8.3-5.9-9.7-25.3-42.3-34.2-34.2-0.6 0.5 0 1.4 0.7 1.4 5.9 0.1 13.1 10.9 16.2 14.7 4.5 5.6 12.4 14.5 12.8 22 0 0.7 0.3 1.4 0.8 1.9-7.8 16.1-13.5 36.2-15 53.9 0 0.1 0 0.1 0 0.2-9.5-2.7-19.7-3.4-29.2-1.8-0.1-2.1-0.2-4.1-0.4-6 0.5-20-0.5-40.3 2.4-59.8 4.3-28.9 20.6-53.3 47.7-65.3 4.2-1.8 8.5-3.2 12.9-4.1 1.7 0 3.3 0 4.9-0.1 9.5 0.1 19.2 1.2 28.5 0.6 0.1 0 0.1 0 0.2-0.1 11 2.6 21.4 7.5 30.1 14.6 23.4 19 28.6 48.1 36.1 75.4 0.3 0.9 0.9 1.4 1.6 1.4 0.7 2.9 1.8 5.7 3.6 4.6 0.1 0 0.1-0.1 0.1-0.1 0.1 0 0.2 0.1 0.3 0.1 0.1 0 0.2 0 0.3 0-2 8.6-1.8 21.6 0.6 29.4-1.2-0.2-2.4-0.4-3.6-0.6-14.4-2.3-32.1-2-43.7 7.9-0.4 0-0.8 0.2-1.2 0.7-0.2 0.3-0.5 0.7-0.7 1.1-0.1 0.1-0.2 0.2-0.3 0.3-0.2 0.2-0.3 0.5-0.4 0.7-13.5 21.9-4.2 58.3 15 74.9-11.1 2.1-22.1 6.4-33.3 8.3-11 1.8-22.2 2.8-33.4 3.4 3.1-6.9 4.6-15.5 5.3-21.4 1.1-9.5-1.5-20.1-10.1-25.4-14.9-9.2-44.8-7.3-58.1 7-1.1-0.6-2.1-1-3.1-1.7-0.8-0.6-1.4-1.4-1.9-2.2-0.9-3.5-3.3-6.1-3.6-10-0.1-0.5-0.3-1.1-0.6-1.5 0-0.1 0.1-0.1 0.1-0.1zm-12.3 46.1c0.1 0.5 0.2 0.9 0.3 1.4-1.2 0-2.5 0.3-3.9 0.7 0.9-0.8 0.7-2.4-0.6-2.7-10.1-1.9-18.8-3.7-25.7-9-0.1-0.4-0.2-0.7-0.3-1.1-0.2-1.4-1.6-1.9-2.6-1.4-2.2-2.2-4.2-4.8-5.9-8.1-1.9-9.5-1.3-18.8-0.8-28.4 1.3-2.7 3-5.3 5-7.7-1 14 9.6 31.4 22.3 28 0.7 2.5 2 4.8 4.1 6.6 1 0.9 2.3 1.2 3.5 1 1.5 2.9 3.4 5.5 5.9 7.3-1.6 4.6-1.9 10.4-1.5 13.4zm-18.9 139.7c-0.1 0.1-0.1 0.3-0.2 0.4-0.2-1.4-1.3-2.6-2.9-2.5-10 0.6-21.1 5-29.9-2.4-4.6-3.9-4.6-8.7-2.3-13.4 0.2 0.2 0.3 0.4 0.5 0.6 1.7 1.8 4.9-0.3 4-2.6-0.4-1.1-0.8-2.2-1.2-3.3 4.4-5.6 10.6-10.5 14.1-12.9 0.5-0.3 0.6-0.7 0.7-1.1 9.4-0.9 15.5 5.7 20.1 14.3 2.3 4.3 3.8 9 3.8 13.9 0.1 5.4-3.9 5.6-6.7 9zm46.4-13.5c-1 2.3-2.6 1.8-4.4 1.4 0-1.2 0-2.5 0.2-3.7 0-0.1 0.1-0.3 0.1-0.4 0-0.1 0-0.1-0.1-0.2-0.1 0-0.3 0.1-0.4 0.1 0-0.6 0-1.2 0-1.8-0.2-0.9-0.3-1.9-0.3-3 0-0.2 0-0.4 0-0.7-0.7-5.2-3-10.1-6.2-14.3 2.6-1 5.3-1 7.9-0.5 4.6 5.7 5.9 16.4 3.1 22.9zm29-124.4c0.2 2.5 0 4.9-0.3 7.4-0.2 0.1-0.3 0.3-0.4 0.6-1.3 3.6-2.3 7.2-3.5 10.8-0.2 0.1-0.4 0.2-0.6 0.4-3.1 3.4-3.4 9.3-5.6 13.4-2.5 4.5-6.2 8.1-10.9 9.8-0.1-0.2-0.3-0.3-0.5-0.4-6.4-4.1-14.5-6.2-21.7-8.3-6.9-1.9-15.3-4.2-22.2-1.7-1.6 0.6-1.4 2.6 0.1 3.1 0.3 0.1 0.5 0.2 0.8 0.2-6.1 17.7 8.9 44.4 26.3 52.5-3.2-0.3-6.5 0.5-7 3.4 0 0.2 0 0.3 0.2 0.4 1.7 1.2 2.9 0.5 4.8 0.4 1.7-0.1 3.3 0.2 4.8 1.1 1.4 0.8 2.1 2 2.5 3.3-3.7-0.1-6.2 1.2-8.6 3.4-0.8-0.9-1.6-1.7-2.5-2.4-2.4-2-6.9-5.4-10.2-5.3-4.9 0.2-11.6 10.2-14.4 13.5-1 1.2 0.7 2.8 1.8 1.7 2-2 10.2-12.1 13-10.8 2.8 1.4 5.1 3.4 7.2 5.6 4.3 4.5 6.7 10.7 7.2 16.8 0.1 2-0.1 4-0.7 5.9 0 0-0.1 0.1-0.1 0.1-0.4 0.4-0.5 1-0.5 1.5-0.9 2.1-2.4 4-4.3 5.3-1.1 0.8-2.3 1.3-3.5 1.6 0.1-0.1 0.3-0.2 0.3-0.3 2.3-4.6 1.1-11.3-0.3-16-0.5-1.5-2.8-0.8-2.4 0.8 0.7 2.6 1 5.1 1.1 7.8 0.1 2.4-0.3 4.8-0.1 7.1 0.1 0.5 0.5 0.8 0.9 0.8-4.1 0.8-8.4-0.6-12.7-1 1.2-6.3-0.6-12.9-3.3-18.6-4.5-9.4-21.9-29.2-32.7-15.6-0.4 0.4-0.5 0.9-0.4 1.4-4 1.3-7.8 4.7-10.7 8.1-0.7-4.8-0.7-9.7-0.4-14.7 0.9-2.8 0.8-5.7 1.1-8.7 0.1-0.8 0.2-1.7 0.3-2.5 1.1-6.5 2.6-12.8 4-18.8 2.1-9.1 4.7-18.3 8.7-26.8 3.6-7.6 11-11.1 18.9-13.3 0.3 0.4 0.7 0.6 1.3 0.6 4.6-0.1 8.9-1.1 13.3-2.4 0 0 0 0 0.1 0 1 0 1.9 0 2.8 0 3.9 0 7.9 0.6 11.4-1.2 0.2-0.1 0.3-0.3 0.4-0.4 2.4-0.4 4.6-0.9 6.8-1.8 0.8 4.9 3.6 10.9 8.9 10.5 0.6 0 1.1-0.8 0.7-1.4-1.2-1.8-3.1-3-4.4-4.8-0.8-1.1-1.3-2.3-1.7-3.7 0.2-0.1 0.3-0.2 0.5-0.2 0.2 0.2 0.4 0.3 0.7 0.5 1.5 0.9 4.1 1.3 5.6 0.3 0.7-0.5 0.6-1.5-0.1-2-1.5-0.9-3.3-0.7-4.8-1.2-0.1-6.3-0.4-12.9-1.2-19.2 5.8-2.7 11.9-4.3 18.4-4.9 6.6-0.6 17 1 19.7 7.4-0.8-0.4-1.9 0-1.8 1.2zm8.3 25.4c-0.6-2.7-1.6-5.3-1.3-8.4 0.3-3.3 1.6-6.6 2.3-9.8 1.5-6.5-0.5-12-5.5-16.2-10.8-9.2-29.6-5.8-41.5 1.7-1.3-0.8-3.3-0.1-3.4 2 0 0.2 0 0.3 0 0.5-0.3 0.3-0.7 0.5-1 0.8-1 0.9-0.2 2.3 0.9 2.5-0.1 2.6 0 5.2 0 7.8-1.5-0.6-3.3-0.8-4.8-1.6-0.3-0.2-0.6-0.4-0.9-0.6 0-0.1 0-0.2 0-0.3 0-1.1-0.7-1.8-1.6-2.2-0.1-0.1-0.2-0.1-0.4-0.1-0.8-1.5-1.3-3.2-1.5-4.7-0.5-3.1-0.1-6.3 0.8-9.3 0.1-0.2 0.2-0.3 0.2-0.5 1.1 0.1 2-1.1 1.1-2 0 0 0 0 0 0 1.1-1.5 2.3-2.9 3.1-4.7 0.3-0.9 0-1.8-0.9-2.1-2.4-0.6-4.3 0.1-5.7 1.4-4.8-7.5-10.6-24.5 3.1-23.3 1.1 4.2 3.7 7.3 6.3 11 0.1 0.1 0.2 0.2 0.3 0.3 1.1 1.6 2.6 2.9 4.3 3.6-1 1.6-1.9 3.4-2.5 5.3-0.8 2.3 2.7 3.4 3.8 1.4 9.2-16.2 42.6-21 56.8-9.6 15 12.1-4.1 32.8-3.3 46.2 0.1 2 2.5 3.4 4.2 2.2 1.2-0.8 2.3-1.9 3.2-3.1 11.2-0.6 22.4-1.3 33.6-2.7 13.7-1.7 32-3.4 43-12.5 1.3-1.1 1-3.7-1.1-3.4-0.1 0-0.2 0-0.3 0-5.5-10.3-12.1-19.6-16.2-30.7-5.3-14.4-4.7-28.5 0.5-42.6 12.9-8.5 29.1-7.8 43.9-5.3 12.1 2.1 22.2 7.5 33 12.3 2.2 2.2 2.6 5.3 1.2 8.1-0.7 1.4-1.8 2.3-3 2.9-15.6-1.4-36.5 4.6-50.1 14.5-0.2 0-0.3 0-0.5 0-13.1 3.3-5.1 30.9 4 37.9 0.6 1 1.3 2 1.8 3 0.4 0.8 0.6 1.6 0.9 2.4-5.2 3.8-9.8 8.4-15.6 11.6-8.6 4.7-18.3 7.5-27.7 9.9-17.6 4.5-35.9 6-54 6.3-3.1 0-6.3 0.2-9.4 0.3zm77 5.1c-6.7 2.6-13.7 4.7-20.8 6.1-3.7-2.2-7.6-3.9-9.7-7.8 5.5-1 11.1-2 16.7-2.6 0.8-0.2 1.6-0.3 2.5-0.5 1.3-0.3 2.8-0.6 4.3-1 1.7 2.3 4.3 4.7 7.2 5.8zm-4.5-6.5c4.4-1.2 9.2-2.7 14-4.5 0.1 0.2 0.2 0.4 0.4 0.6 1.2 1.1 2.8 2.1 4.5 2.9-3.4 2.1-6.7 4.2-10.3 5.8-1.5-0.9-3.2-1.2-4.7-2-1.5-0.7-2.8-1.7-3.9-2.8zm13.6 10c2.7-1.2 5.8-2.5 8.9-4-3.6 6.1-7.1 12.2-10.4 18.4-1.6-1.7-3.2-3.2-4.6-4.5-1.9-1.8-3.8-3.5-5.8-5.3 4.1-1.4 8.1-2.9 12-4.6zm8.4-13c-1.9-0.7-3.8-1.3-5.4-2.5 5.7-2.4 11.2-5.3 15.7-8.8-0.4 2.1-0.9 4.1-1.4 6.2-3 1.5-6 3.3-8.9 5.2zm-83.1 14.1c0.4-1 0.4-2.2 0.2-3.4 1 0.2 1.9 0.4 2.8 0.7 2.2 0.3 4.5 0.4 6.9 0.4-0.8-0.5-1.5-0.9-2.3-1.4 1.3-0.1 2.5-0.2 3.8-0.3 0.9 3 2.4 6 4.7 7.9-5.4-0.5-10.7-1.8-16-4zm16.3-0.6c-0.8-1.1-1.4-2.2-1.8-3.5 5.7-0.4 11.3-0.8 17-1.5 0.3-0.1 0.7-0.1 1-0.2 0.9 2.6 2.8 4.7 4.9 6.5 0.8 0.6 1.6 1.2 2.5 1.8-2.9 0.5-5.9 1-8.8 1.3-3.3 0.4-6.6 0.6-9.7 0.6-1.6-1.8-3.7-3-5.2-4.9zm36.1 69.6c0 0-0.1 0-0.1 0-0.1 1.6-0.4 3.1-0.7 4.6-0.1 0.3-0.1 0.5-0.2 0.8 0.1 0 0.3 0 0.4 0.1-0.2 2-0.2 3.9-0.3 5.9 0 3.6 0.6 7.8 1.7 11.9-9.8-0.6-23.7 6.4-21.2-11.7 1.4-10.1 3.9-20.3 2.8-30.4 0.1-3 0.2-6 0.1-8.9-0.5-9.8-3.8-21-9.5-29.8 0.6-0.2 1.2-0.4 1.7-0.6 3.6-0.2 7.2-0.6 10.8-1.1 6.3-0.9 12.4-2.2 18.5-4 1.6 1.3 3.1 2.6 4.5 3.9 3.5 3.2 6.7 6.8 9.6 10.5 0.3 1 1 1.9 1.9 2.4 0 0 0.1 0.1 0.1 0.1-1.9 3-3.7 6.1-5.4 9.3-2 3.7-4.2 7.9-5.7 12.3-5 7.2-7.9 16.1-9.2 24.9zm91.6-99c0.2 0.3 0.5 0.5 0.8 0.5 2 10.8 0.2 22.6 0.9 33.8-1 2.8-1.8 5.7-2.6 8.6-0.7 2.6-2.7 7.8-0.9 10.3 0 0 0.1 0.1 0.1 0.1 0.8 2.7 1.7 5.3 3.1 7.7 0.1 0.2 0.2 0.3 0.3 0.4-0.4 0-0.8 0-1.2 0.1-4.9 0.5-13.1 4.4-12.3 10.3 0.1 1.2 1.1 1.8 2.2 1.5 3.7-0.8 6.4-4.1 10.3-5.1 3.4-0.8 7.4 0.4 10.3 2.1 1.4 0.8 2.7-0.1 3-1.4 0.1 0.8 0.2 1.6 0.4 2.4 0.2-0.1 0.4-0.3 0.6-0.4 0 0.6 0 1.1 0 1.7 0.1 1.3 0.2 2.7 1.2 3.6 0.5 0.5 1.3 0.4 1.8-0.1 1-1 0.9-2.3 0.9-3.6 0-0.7-0.1-1.4-0.1-2 0.3 0.1 0.7 0.2 1 0.4 0.7-0.2 1.6-0.2 2.4 0.1 0 0 0 0 0 0 0-0.2-0.1-0.3-0.1-0.5 1.5 0.2 3.1 0.3 4.6 0.4 0.3 0.2 0.6 0.4 0.8 0.6 1.3 1.1 0.9 3.2 0.5 5.1-2.4-1.3-4.7-1.6-7.4-1.1-2.2 0.5-1.7 3.7 0.2 4.2 3 0.8 6 1.8 7.9 4.4 0.1 0.2 0.3 0.3 0.5 0.5 0.3 0.4 0.6 0.9 0.9 1.3 0.2-0.4 0.5-0.7 0.7-1 3.8 5.3 6.3 10.9 7.9 17.5 1 4.2 1.3 8.6 0.3 12.8-0.5 2-1.6 3-2.8 3.8-0.9-1.6-1.2-3.5-0.6-5.5-0.4-2.3-1.1-4.7-1.8-6.9-0.2-0.5-0.4-1-0.5-1.5-0.9-2.8-1.9-5.1-2.8-7.5-0.3-0.7-0.6-1.4-0.9-2-1-2.1-2.2-4.3-3.6-6.3-0.2-1.3-0.5-2.6-0.7-3.9-0.1 0-0.1 0-0.1 0-0.6-0.2-1.1-0.3-1.7-0.8-0.5-0.4-1.6-0.7-0.4-0.5-1.2-0.2-2.3-0.8-3.1-1.7-1.5-1.4-2.7-2.9-4.2-4.2 0.1 0.3 0.1 0.5 0.2 0.8-3.7-2.4-7.9-3.8-12.5-3.8-0.4-0.8-1.4-1.4-2.4-0.7-5.4 3.6-13.5 10.5-9.9 17.8 0.4 0.8 1.6 0.6 2-0.1 1.1-2.5 1.6-5.1 2.8-7.6 1.3-2.6 3.5-4.6 5.8-6.3 0.2 0.3 0.6 0.6 1 0.7 11.4 3.2 17.7 12.9 21.9 23.4 1.9 4.8 2.9 10 3.4 15.1 0 0-0.1 0-0.1 0-0.9 0.4-1.4 1.2-1.4 2.1-4.4 0.1-8.9 0.4-13.3 0.6-2.8 0.2-7.7 0.2-10.6 2 0-6-4.2-13.1-6.7-17.4-2.4-4-7.3-11-12.7-12.8-0.1-0.2-0.3-0.4-0.4-0.6-0.7-0.6-1.5-1.1-2.3-1.6-1.8-0.9-4.5-2.2-6.6-1.4-0.9 0.4-1.5 1.5-0.9 2.4 1.1 1.6 2.8 1.8 4.5 2.3 0 0 0.1 0 0.1 0 0 0.5 0.1 0.9 0.5 1.3 4.1 4.8 8.9 8.2 12.4 13.8 2.1 3.4 3.6 7.1 4.8 11 0.7 2.4 0.8 4.9 1.9 7.1-1.9 1-3.8 2.4-5.1 3-0.6 0.3-1.2 0.5-1.9 0.8 0.3-4.4-2.3-9.4-4.2-13.4-2.3-4.8-6.1-8.2-10.6-10.9-0.6-0.4-1.3 0.6-0.8 1.1 4.2 3.3 6.8 7.8 8.9 12.7 1.6 3.7 2.1 8.3 4.6 11.5-8.7 3.4-18.4 5.1-27.5 5.5-4.6 0.2-10.1 0.1-13.8-2.9-5.2-4-0.9-15.1 0.9-19.8 3.7-10 10.2-19.9 19.1-25.9 1-0.7 0.6-2.7-0.8-2.5-15.8 2.7-30.8 31.7-25.7 48.1-3.6-0.3-6.8-0.7-9.9-2-3.8-7.8-9.8-12.7-11-22.1-0.9-7.7 1.8-15.5 4.3-22.6 4.5-12.7 14-24.8 17.4-37.9 6.6-9.6 11-22.5 13.1-35.2 0.4-0.6 0.8-1.2 1.1-1.9 0.5-0.9 0.2-1.9-0.5-2.5 0.3-2.7 0.6-5.4 0.7-8 0.2-0.8 0.3-1.6 0.4-2.3 0.1-0.6 0.2-1.2 0.3-1.8 0.4-0.7 0.9-1.4 1.2-2.1 0.5 1.1 0.9 2.3 1.4 3.4-0.7-2.2-1.4-4.3-2.2-6.4-0.1-3-0.8-5.9-3.3-7.9-0.3-0.8-0.6-1.5-0.9-2.3-0.2 0.3-0.3 0.6-0.1 1.1 0.1 0.3 0.2 0.5 0.3 0.8-0.1 0-0.2 0-0.4 0-3.9-9.4-11-19.3-7.7-29.5 6.7-4.4 13.7-7.5 21.4-9.7 0.1 0.2 0.3 0.3 0.4 0.5 0 0.1-0.1 0.2-0.1 0.4 0 0.1 0 0.1 0 0.2 0.9-0.2 1.8-0.2 2.9-0.1 4 2.6 7.1 6.4 9.8 10.4 1.2 2.7 2.5 5.3 3.8 7.9-1.3 1.5-1.7 3.6 0.2 5.1 1.2 1 2.4 1.8 3.6 2.4 0.2 0.5 0.5 0.9 0.7 1.4 1.3 2.4 2.5 4.9 3.6 7.4-0.4 0.5-0.5 1.3 0.2 1.9 0.4 0.4 0.8 0.8 1.2 1.2 2.5 5.6 4.9 11.3 7.8 16.7zm173.3 7.8c-6 1.6-11 7.4-17.1 9.5-0.6 0.2-1.2 0.4-1.9 0.6-4.4 0.3-8.8 0-12.2-1.6-1.3-0.6-2.1-1.5-2.6-2.6 1.4-0.7 1.5-2.8-0.2-3.3-0.1 0-0.2 0-0.3-0.1 0-2.1 0.6-4.3 1.1-6.1 2.6-9.3 9.3-17.2 12.2-26.3 6.9-0.3 12.6 3.6 17.3 10.3 4.2 6 6 13.6 3.6 19.5zm8.7-39.5c0.2-0.1 0.4-0.2 0.6-0.3 0.7-0.4 1.1-1.2 1.2-2.1 3.9 2.3 6.6 5.3 8.1 9.7 1 2.8 0.6 5.6 0.7 8.5-1-2.5-2.2-4.9-3.5-7.1-2.1-3.5-4.9-6.5-8-8.5 0.2 0 0.5 0 0.7-0.1zm3.8 12.1c2.7 4.7 4.5 10.6 4 16.1-0.6 6.3-5 8.1-9.5 11.4-0.1 0.1-0.2 0.2-0.3 0.3 2.8-10.9-5-24.9-14.6-31.7 0 0 0 0 0-0.1 2-4.2 5.3-8.6 10.4-6.6 4.5 1.8 7.8 6.5 10.1 10.6zm-104.7-78.6c19.9-2.6 40 0.2 59.7-1.8 7.4 9.5 13.3 19.1 17.4 30.6 3.2 9.1 4.1 19.3 8 28.1-2.7 1.3-5.2 3.3-7.1 5.6-1.4 1.7 0.9 3.8 2.5 2.3 1.8-1.6 4.1-3.2 6.5-4.2 0 0 0 0 0 0 0.9 1.5 3 0.7 3.2-0.9 3.8-0.4 5.8 2.5 7.5 5.5-6.1-2.8-12.5-1.3-15.4 8.2-7-4.1-14.6-4.2-19.7 3.4-0.5 0.7 0.4 1.7 1.2 1.4 0.4-0.2 0.8-0.3 1.3-0.5-5.7 8.3-11.5 19.2-12.3 28.8-1.1 0.2-2.3 0.6-3.6 0.9-7.4-0.5-14.7-0.3-21.9-4-2.6-1.4-4.6-3.3-5.9-5.6-0.5-6 0.9-12.9 1.7-17.9 6.7-6.1 7.1-21.5 6.8-29.5-0.2-3.7-1-7-2.5-9.7 2.5-0.9 5.1-1.7 6.9-3.7 0.4-0.5 0.3-1.5-0.5-1.6-2.5-0.2-5.1 0.7-7.4 1.9-0.6-0.2-1.2-0.4-1.8-0.7 0.9-0.9 1.7-1.9 2.5-3.1 1.4-2 3.2-3.7 3.5-6.2 0.1-0.5-0.2-1.2-0.8-1.3-4-0.5-6.2 3.5-8 7-0.5-0.3-1-0.4-1.7-0.5-5.7-0.7-11.4-0.9-17.2-0.8-20.9-0.4-41.9 1.4-61.3 8.9 0.6-3.3 0.9-6.7 1.3-10.1 2.3-5.2 4-10.9 5.4-16.6 17-6.1 33.4-11.5 51.7-13.9zm154.7-233.6c-0.8-0.1-1.7 0.2-1.8 1.2-0.6 5.2-1.1 10.4-1.4 15.7-0.2 3.3-0.5 6.6 0.1 9.7 0.6 1.2 1 2.4 1.3 3.7-0.8 0.5-1.6 1-2.5 1.5-31.2 9.2-62.5 9.7-95 8.6-34.4-1.1-68-5.3-99.9-18.7-2.2-0.9-3.8 1.6-3.2 3.5-1.2 0.2-1.7 2.1-0.5 2.7 25.5 11 53 17.8 80.5 21.2 11.9 1.5 24 2 36 2.1-0.4 0.3-0.8 0.5-1.1 0.8-6 2.3-12 4.9-18.1 6.9-11.2 3.7-22.6 6.6-34.3 8.5-12.4 2.1-25.1 2.4-37.7 2-12-0.4-23.9-3.1-35.9-3.4-3.1-0.1-3.2 4-0.7 5 2.7 1 5.5 1.9 8.3 2.7 0.1 0.5 0.3 1.1 0.7 1.5-6.2 15.7 0.5 53.6 1.1 62.1 0.5 6.1 0.6 12.2 0.5 18.4-0.4 5-0.9 9.9-1.4 14.9-2.1 20.6-5.3 41-9.1 61.4-0.3 1.7-0.7 3.3-1 5 0.4 0.9 0.7 1.9 0.9 3-0.4 0.3-0.6 0.8-0.6 1.4-0.1 2-0.2 3.9-0.4 5.8-0.5 0.6-0.5 1.3-0.2 2-2.8 8.6-6.2 17-7.7 25.7-0.2 1 0.1 1.8 0.7 2.3-0.2 0.6-0.3 1.2-0.5 1.7-0.6 0.3-1.2 0.6-1.7 0.9-2.3 1.2-2.6 3.5-1.9 5.3-1.3 1.4-2.9 2.4-4.7 3.1 0.7 0.4 1.5 0.8 2.2 1.2-0.7 0.6-1.4 1.2-2.2 1.8-0.4 0.3-0.8 0.5-1.2 0.8-3.7 1-7.4 2.7-11.2 3.4-1.1-0.1-2.1-0.2-3.2-0.3-0.3-0.1-0.5-0.2-0.8-0.2-1.8-2.7-3.7-5.2-5.3-7.7-2.4-3.6-5-6.9-8.2-9.5 1.7-0.1 3.4-0.1 5.2 0.1 0 0-0.1 0-0.1-0.1-1.5-0.8-3.6-1.9-5.7-2.9 3-0.5 6-0.9 9.1-1.4 0.3 0.2 0.5 0.4 0.8 0.6 2-0.3 4.1-0.6 6.1-0.8-0.4-0.3-0.8-0.6-1.2-0.9 0.3-0.1 0.6-0.1 0.9-0.2 4.1 3 9.7-1.3 12.2-5.2 0.2 0 0.3 0 0.5-0.1 2.4-1.3 3-4.8 3-8 0.8-0.3 1.4-1.2 0.8-2.2-0.3-0.4-0.6-0.8-0.9-1.2 0-0.5-0.1-1.1-0.1-1.5-0.1-1.4-1.5-1.8-2.4-1.4-0.9-0.9-1.9-1.7-2.9-2.5 0.2-0.1 0.4-0.1 0.6-0.3 0.4-0.2 0.6-0.5 0.9-0.9 0.4-0.7 0.4-1.9-0.1-2.5-2.4-3.1-4.1-6.2-6-9.6-0.4-0.7-1-1-1.6-1-1-2.8-2-5.7-2.5-8.7 0.9-0.5 1.7-1.2 2.1-2.4 13.9-33.7 12.8-73 11.8-108.8-0.5-17.3-1.8-34.3-3.7-51.3-0.4-6.9-0.9-13.8-1.5-20.7 0-0.3-0.2-0.5-0.4-0.7-2.2-18.1-5-36.1-8.2-54.1-4.2-23.2-9.5-46.3-15.8-69.1-3.1-14.8-6.5-29.6-10.6-44.2-4.5-16-10.5-36.6-21.3-51.8-3.6-6.3-7.9-11.9-13.2-16.3 10.7-4.1 23.7-7.9 31.2-16.3 0.1-0.1 0.2-0.2 0.2-0.3 37.1-15.2 75.8-26.5 115.5-31.7 43-5.6 90.2-2.8 126.2 23.8 29.6 21.9 45.4 57.3 50.2 93 2.7 19.9 1.7 40.5-1.7 60.2-3.7 21.7-11.8 42.4-16.3 63.9zm-213.8 436c-1.3-3-2.9-6-4.5-8.9-1.4-2.4-4.8-0.1-3.6 2.3 1.4 2.6 2.6 5.3 3.8 8 1 2.3 1.5 5.3 3.5 7 0.9 0.7 2.2 0.4 2.5-0.8 0.8-2.6-0.7-5.3-1.7-7.6zm-273.8 4.6c-0.5-0.9-1.9-0.2-1.6 0.8 1.1 3.5 1.4 7 1.3 10.7-0.1 3.2-1.1 6.1-0.4 9.2 0.2 0.8 1.3 0.8 1.6 0.1 1.6-3.3 1.3-7.3 1.3-10.9 0-3.5-0.7-6.7-2.2-9.9zm3.4-30.4c-4-2-8.3-2.2-12.4-0.3-3.1 1.5-8.7 5.9-7 9.9 0.3 0.8 1 1.2 1.9 1 2.7-0.7 4.2-4.2 6.5-5.8 2.9-1.9 7-2.1 10.4-1.9 1.5 0.1 1.9-2.2 0.6-2.9zm31.7 2.8c-1.9-1.7-3.6-2.9-6.2-3.1-3.5-0.2-8.3 0.5-10.6 3.5-0.6 0.8-0.4 2 0.7 2.2 2.8 0.6 5.6-0.6 8.4-1 1.9-0.3 5-1.3 6.7-0.2 0.9 0.6 1.7-0.8 1-1.5zM508.3 216.4c0 0 0 0 0 0m-242.7 379.3c-1.3 0.9-1.4 2.3-0.8 3.6 1.5 3 12.7 5.2 6.8 9.2-4.3 2.9-10.1 3-13.4-1.2-2.6-3.3-2.9-7.9-1.9-11.8 1.2-5 5.4-7.2 9.7-9.4 1.2-0.6 0.5-2.5-0.8-2.4-14 0.7-18 22.1-6.7 29.3 6.2 3.9 15.7 1.8 19.7-4.4 4.1-6.3-6.6-17-12.7-13zm-2.9 63.5c-8-13.7-26.2-7.1-31.4 5.5-0.9 2.2 2.3 4 3.3 1.8 2.4-5.2 7.6-8.7 13.3-9.4 3.1-0.4 5.9 0.6 8.2 2.7 2 1.8 2.1 3.6 5 3.8 0.6 0 1-0.4 1.3-0.8 0.1-0.2 0.3-0.5 0.4-0.7 0.5-0.8 0.4-2-0.1-2.8zm-52.8-608.5c-15.1-17.5-46.8-14-62.4 1.9-1.1 1.1 0.2 3.2 1.6 2.6 17.3-7.1 42.2-20.5 57.6-1.8 1.9 2.3 5-0.4 3.1-2.6zm188.1 48.2c-1.4-6.6-4.9-12-10.5-14.7 0.4-0.6 0.6-1.4 0.1-2.1-8-12.1-16.9 3.6-19.4 11.2-4.1 12-5.8 33.2 8.3 39.4 0.6 0.6 1.5 0.9 2.4 0.9 17.4 5.1 21.6-22.8 19.1-34.8zm-14.2-3.2c0 0.2-0.1 0.4-0.2 0.6-1 3.3-4.9 5.1-8 3.3-2.7-1.6-3.3-4.8-2-7.5-0.1 0.2-0.2 0.5-0.3 0.7 0.6-1.4 1.1-2.4 2.5-3.2 1.2-0.7 2.8-0.9 4.2-0.5 2.9 0.8 4.5 3.8 3.8 6.6zm5.3-51.9c-8.6-9.9-19.6-15.4-31.4-17.2-11.3-9.9-24.7-9.2-36.9-3.6-0.3-0.3-0.8-0.4-1.3-0.1-50.7 26.5-67.4 102-33.2 144.4 1.6 2.9 3.3 5.6 5.2 8.2 0.8 0.5 1.5 1.1 2.2 1.9 3.1 3.2 6.3 6.7 9.2 10.3 1.5 1.2 3 2.4 4.6 3.4-0.5 0.2-1 0.4-1.6 0.6 0.6 0.9 1.3 1.7 1.9 2.6 1.1-0.3 2.2-0.7 3.3-1 1.1 0.6 2.3 1.2 3.4 1.7 1.3-1.1 2.8-2 4.8-2.5 0.3-0.1 0.5-0.1 0.7-0.2-0.7-0.3-1.4-0.5-2.1-0.9 10.9-2.5 21.9-4.2 33-5.2 6.8-0.6 13.6-0.5 20.4-0.3-0.1 0.1-0.2 0.1-0.3 0.2 2.4-0.2 4.8-0.2 7.2 0 0 0 0 0 0 0 5.2 0.1 10.5 0.2 15.7-0.1 1.5-0.1 1.6-2.2 0.2-2.6-3.5-1-7.2-1.7-11-2.3 17.1-18.9 24-46.7 25-71.5 0.9-22.7-3.9-48.6-19.3-66.2zm-75.8 145.5c-2.5-1.4-4.8-3-7-4.7 2.6 1.6 5.4 3 8.4 4.3-0.5 0.1-0.9 0.3-1.4 0.4zm82.2-36.1c-4.1 10.5-10.1 20.1-17.7 27.6-18-1.6-37.6 1.1-55.3 5.8 0-1-0.6-1.9-1.9-2.5-16-6.4-27.5-17-34.9-29.8-8.2-22.8-8.1-50.5-3.7-72.4 3.2-15.9 9.6-29.3 20.9-41 5.3-5.5 12-10.8 19.1-14.2 0.9-0.6 2-1.1 3.3-1.5 0.4-0.1 0.7-0.2 1.1-0.3 8-2.9 16.5-3.2 24.2 1.1-0.2 0-0.3 0-0.5 0 4.9 1.7 9.4 4.4 13.2 7.8 0.1 0.1 0.3 0.2 0.4 0.3 14.2 4.7 25.7 15.2 32.7 32.2 11.2 26.9 9.5 60.2-1 87z"/></svg>
