<?xml version="1.0" encoding="UTF-8" standalone="no"?>
<svg
   id="svg2"
   xml:space="preserve"
   enable-background="new 0 0 841.89 595.28"
   viewBox="0 0 241.36601 320.31374"
   height="320.31375"
   width="241.36601"
   y="0px"
   x="0px"
   version="1.1"
   sodipodi:docname="Schildkröte.svg"
   inkscape:version="1.2.2 (732a01da63, 2022-12-09)"
   xmlns:inkscape="http://www.inkscape.org/namespaces/inkscape"
   xmlns:sodipodi="http://sodipodi.sourceforge.net/DTD/sodipodi-0.dtd"
   xmlns="http://www.w3.org/2000/svg"
   xmlns:svg="http://www.w3.org/2000/svg"
   xmlns:rdf="http://www.w3.org/1999/02/22-rdf-syntax-ns#"
   xmlns:cc="http://creativecommons.org/ns#"
   xmlns:dc="http://purl.org/dc/elements/1.1/"><sodipodi:namedview
     id="namedview65"
     pagecolor="#ffffff"
     bordercolor="#000000"
     borderopacity="0.25"
     inkscape:showpageshadow="2"
     inkscape:pageopacity="0.0"
     inkscape:pagecheckerboard="0"
     inkscape:deskcolor="#d1d1d1"
     showgrid="false"
     inkscape:zoom="4"
     inkscape:cx="150.125"
     inkscape:cy="224.5"
     inkscape:window-width="1920"
     inkscape:window-height="1017"
     inkscape:window-x="-8"
     inkscape:window-y="-8"
     inkscape:window-maximized="1"
     inkscape:current-layer="svg2" /><metadata
     id="metadata194"><rdf:RDF><cc:Work
         rdf:about=""><dc:format>image/svg+xml</dc:format><dc:type
           rdf:resource="http://purl.org/dc/dcmitype/StillImage" /></cc:Work></rdf:RDF></metadata><defs
     id="defs192" /><path
     style="fill:#ffffff;fill-opacity:1;stroke-linecap:round;stroke-linejoin:round"
     d="m 138.375,85.125 c 0,0 -18.375,-14.375 -17,-34.25 1.375,-19.875 8.75,-37.125 22.125,-40.5 13.375,-3.375 14.125,2.75 16.75,3.75 2.625,1 11.625,3.125 14.625,12 3,8.875 7.875,19 3,36.875 C 173,80.875 167,81.125 165.125,81.375 c -1.875,0.25 -11,-0.75 -16.75,0.75 -5.75,1.5 -10,3 -10,3 z"
     id="path4908" /><path
     id="path4769"
     d="m 172.09883,19.325346 c -3.825,-4.397 -8.682,-6.816 -13.891,-7.591 -5.001,-4.3890002 -10.904,-4.0640002 -16.333,-1.587 -0.144,-0.118 -0.349,-0.1670002 -0.561,-0.055 -22.431,11.72 -29.8,45.096 -14.667,63.88 0.688,1.271 1.46,2.483 2.3,3.642 0.337,0.231 0.667,0.505 0.986,0.833 1.391,1.429 2.788,2.958 4.081,4.548 0.655,0.532 1.329,1.046 2.044,1.521 -0.23,0.082 -0.459,0.164 -0.689,0.245 0.28,0.387 0.571,0.771 0.831,1.165 0.491,-0.144 0.981,-0.292 1.473,-0.426 0.494,0.279 0.996,0.528 1.499,0.772 0.558,-0.49 1.249,-0.881 2.137,-1.087 0.113,-0.027 0.217,-0.043 0.328,-0.067 -0.316,-0.123 -0.636,-0.242 -0.942,-0.376 4.799,-1.125 9.678,-1.857 14.603,-2.292 3.019,-0.266 6.026,-0.227 9.03,-0.146 -0.041,0.031 -0.084,0.06 -0.126,0.091 1.058,-0.077 2.127,-0.074 3.189,-0.002 0.002,-0.002 0.005,-0.003 0.008,-0.006 2.313,0.06 4.624,0.092 6.94,-0.024 0.666,-0.034 0.721,-0.964 0.102,-1.137 -1.564,-0.438 -3.188,-0.77 -4.854,-1.014 7.581,-8.358 10.618,-20.639 11.045,-31.602 0.394,-10.055 -1.747,-21.487 -8.533,-29.285 z m -33.54,64.351 c -1.101,-0.619 -2.125,-1.324 -3.09,-2.087 1.165,0.692 2.404,1.321 3.699,1.899 -0.203,0.063 -0.408,0.123 -0.609,0.188 z m 36.34,-15.97 c -1.817,4.644 -4.465,8.895 -7.822,12.212 -7.956,-0.72 -16.635,0.479 -24.442,2.567 -0.017,-0.443 -0.263,-0.863 -0.828,-1.09 -7.092,-2.837 -12.153,-7.515 -15.447,-13.175 -3.631,-10.067 -3.574,-22.355 -1.622,-32.035 1.415,-7.014 4.259,-12.971 9.232,-18.145 2.36,-2.455 5.294,-4.76 8.443,-6.266 0.415,-0.271 0.889,-0.503 1.444,-0.67 0.161,-0.047 0.324,-0.083 0.487,-0.126 3.557,-1.2750002 7.287,-1.4190002 10.703,0.482 -0.068,-0.002 -0.137,0 -0.205,0 2.148,0.763 4.148,1.923 5.834,3.447 0.057,0.038 0.113,0.081 0.171,0.119 6.278,2.073 11.357,6.729 14.476,14.228 4.944,11.883 4.21,26.6 -0.424,38.452 z" /><path
     id="path6"
     d="m 176.06983,43.693346 c -0.615,-2.924 -2.158,-5.32 -4.636,-6.482 0.186,-0.26 0.252,-0.605 0.048,-0.914 -3.556,-5.362 -7.456,1.607 -8.597,4.965 -1.806,5.311 -2.563,14.662 3.68,17.412 0.271,0.268 0.677,0.413 1.063,0.391 7.708,2.246 9.553,-10.085 8.442,-15.372 z m -6.299,-1.41 c -0.02,0.095 -0.046,0.189 -0.078,0.281 -0.459,1.479 -2.164,2.249 -3.542,1.441 -1.186,-0.695 -1.456,-2.125 -0.865,-3.299 -0.04,0.103 -0.079,0.205 -0.119,0.307 0.254,-0.604 0.507,-1.081 1.097,-1.427 0.551,-0.323 1.224,-0.41 1.839,-0.241 1.287,0.355 1.971,1.674 1.668,2.938 z" /><path
     id="path8"
     d="m 92.869827,22.388346 c -6.68,-7.726 -20.691,-6.179 -27.586,0.833 -0.476,0.482 0.076,1.403 0.729,1.134 7.631,-3.144 18.668,-9.075 25.492,-0.817 0.827,1.005 2.217,-0.163 1.365,-1.15 z" /><path
     id="path10"
     d="m 116.19983,291.50335 c -3.554,-6.046 -11.607,-3.158 -13.879,2.422 -0.4,0.98 1.015,1.77 1.478,0.78 1.083,-2.315 3.353,-3.827 5.868,-4.178 1.385,-0.192 2.603,0.282 3.606,1.214 0.872,0.808 0.931,1.608 2.214,1.671 0.248,0.014 0.449,-0.168 0.572,-0.362 0.065,-0.103 0.13,-0.205 0.194,-0.307 0.24,-0.373 0.159,-0.881 -0.053,-1.24 z" /><path
     id="path12"
     d="m 117.47083,263.40335 c -0.578,0.386 -0.628,1.038 -0.348,1.614 0.651,1.347 5.603,2.312 3.025,4.077 -1.883,1.289 -4.465,1.317 -5.919,-0.542 -1.14,-1.456 -1.287,-3.476 -0.861,-5.208 0.547,-2.232 2.407,-3.19 4.283,-4.148 0.536,-0.272 0.206,-1.101 -0.341,-1.074 -6.193,0.306 -7.956,9.796 -2.955,12.938 2.758,1.733 6.951,0.806 8.719,-1.929 1.81,-2.8 -2.904,-7.521 -5.603,-5.728 z" /><path
     id="path14"
     style="fill:none;stroke:#000000;stroke-width:0;stroke-linecap:round;stroke-linejoin:round"
     d="m 224.78683,95.684346 c 0.011,-0.001 0.011,-0.018 0,-0.017" /><path
     id="path16"
     d="m 30.078827,292.49235 c -0.821,-0.766 -1.587,-1.275 -2.754,-1.349 -1.564,-0.094 -3.673,0.232 -4.69,1.537 -0.263,0.339 -0.16,0.878 0.306,0.978 1.249,0.262 2.488,-0.259 3.72,-0.451 0.821,-0.13 2.222,-0.585 2.966,-0.071 0.378,0.264 0.772,-0.346 0.452,-0.644 z" /><path
     id="path18"
     d="m 16.057827,291.24935 c -1.788,-0.887 -3.671,-0.981 -5.495,-0.121 -1.3749998,0.646 -3.8499998,2.616 -3.0839998,4.369 0.15,0.344 0.454,0.521 0.828,0.424 1.181,-0.309 1.8409998,-1.872 2.8759998,-2.558 1.291,-0.855 3.097,-0.909 4.591,-0.847 0.682,0.029 0.86,-0.983 0.284,-1.267 z" /><path
     id="path20"
     d="m 14.572827,304.68235 c -0.203,-0.416 -0.846,-0.081 -0.712,0.336 0.498,1.549 0.631,3.115 0.584,4.733 -0.041,1.396 -0.472,2.697 -0.19,4.078 0.068,0.333 0.579,0.348 0.715,0.063 0.696,-1.465 0.571,-3.241 0.579,-4.832 0.007,-1.563 -0.293,-2.983 -0.976,-4.378 z" /><path
     id="path22"
     d="m 135.66483,302.66535 c -0.587,-1.347 -1.264,-2.657 -1.99,-3.935 -0.605,-1.063 -2.141,-0.04 -1.582,1.021 0.608,1.151 1.158,2.33 1.659,3.533 0.425,1.023 0.661,2.362 1.565,3.078 0.412,0.328 0.955,0.156 1.11,-0.344 0.353,-1.132 -0.318,-2.332 -0.762,-3.353 z" /><path
     id="path24"
     d="m 240.43583,52.173346 c -2.43,-15.689 -10.054,-30.475 -22.738,-40.243 -15.246,-11.73800025 -35.6,-13.0600002 -54.058,-11.28700025 -22.672,2.17700005 -44.383,10.50900025 -64.857003,20.09400025 -0.246,0.115 -0.321,0.358 -0.287,0.574 -1.883,0.797 -3.765,1.6 -5.556,2.589 -0.248,0.137 -0.343,0.367 -0.344,0.604 -10.378,-5.697 -23.743,11.511 -18.639,20.991 0.33,0.612 1.287,0.249 1.252,-0.399 -0.267,-5.108 0.777,-9.523 3.792,-13.74 2.793,-3.906 7.363,-6.92 12.208,-5.858 -6.196,0.809 -6.341,18.107 -0.876,21.117 0.68,0.376 1.259,-0.424 0.943,-1.03 -1.854,-3.542 -5.051,-16.375 0.701,-18.05 8.664003,8.572 12.222003,20.714 15.214003,32.223 3.808,14.641 6.414,29.622 9.49,44.426004 3.383,16.281 6.737,33.775 7.931,51.265 -0.203,5.775 -0.5,11.546 -0.96,17.313 -0.673,8.426 -1.771,16.74 -3.022,25.04 -2.172,-1.546 -6.307,-0.652 -8.508,0.002 -0.607,0.18 -0.771,0.836 -0.606,1.351 -0.279,0.452 -0.518,1.031 -0.726,1.685 -0.091,-0.237 -0.215,-0.462 -0.356,-0.683 -0.12,-0.363 -0.267,-0.713 -0.341,-0.976 -0.125,-0.44 -0.243,-0.886 -0.288,-1.34 -0.011,-0.104 -0.019,-0.198 -0.036,-0.291 0,-0.029 0.003,-0.06 0.003,-0.09 0.004,-0.037 0.007,-0.072 0.002,-0.108 0.161,-11.646 -6.794,-24.841 -14.871003,-32.615 -7.23,-6.958 -17.717,-9.542 -27.56,-8.446 -2.391,0.027 -4.803,0.299 -7.121,0.83 -0.196,0.029 -0.399,0.062 -0.591,0.091 -1.233,0.194 -2.435,0.482 -3.543,0.926 -9.509,-0.42 -19.893,16.779 -22.663,23.498 -3.132,7.6 -3.152,15.522 -2.691,23.631 0.474,8.33 0.705,16.069 0.208,24.249 -4.275,-0.694 -7.855,4.45 -7.987,9.106 -5.663,0.233 -9.565,-8.3 -6.163,-12.995 0.737,-1.018 -0.323,-2.616 -1.513,-1.792 -1.884,1.304 -3.423,2.843 -4.626,4.544 -0.014,0.012 -0.032,0.012 -0.045,0.025 -5.0789998,5.696 -3.1679998,17.497 -0.507,23.793 1.56,3.694 4.547,6.626 8.43,7.692 1.808,0.497 4.526,0.454 6.782,-0.29 0.787,0.086 1.589,0.058 2.408,-0.111 0.383,0.234 0.772,0.459 1.183,0.656 -2.824,0.191 -5.897,0.763 -8.617,1.753 -2.664,-1.253 -6.385,0.358 -8.815,2.279 -5.3579998,2.076 -7.7709998,10.316 -9.1329998,15.088 -2.20700003,7.729 -3.531,17.651 -0.823,25.411 0.222,0.637 0.724,0.943 1.251,1.012 -1.184,2.351 -1.642,4.86 -0.507,7.526 2.482,5.829 12.5629998,6.271 17.2769998,3.432 0.175,-0.108 0.292,-0.249 0.38,-0.401 0.057,0.301 0.233,0.578 0.54,0.737 1.679,0.885 3.488,-0.135 4.603,-1.584 2.892,1.708 7.293,1.279 10.017,-0.343 1.071,-0.637 1.849,-1.539 2.411,-2.57 0.391,0.301 0.843,0.525 1.225,0.611 6.808,1.539 5.289,-9.808 2.238,-13.846 0.481,-0.589 0.997,-1.111 1.599,-1.562 -0.072,-0.026 -0.142,-0.062 -0.214,-0.087 -0.249,-1.511 -0.9,-2.91 -1.956,-3.935 0.133,-0.26 0.118,-0.583 -0.169,-0.827 -3.572,-3.038 -7.132,-5.004 -9.968,-8.928 -3.07,-4.249 -3.607,-8.716 -4.025,-13.638 2.447,0.512 5.041,0.586 7.486,1.188 2.502,0.616 4.943,1.684 7.455,2.31 0.969,0.563 1.893,1.173 2.729,1.849 0.852,-0.05 1.677,-0.227 2.46,-0.587 0.425,-0.198 0.555,-0.689 0.326,-1.01 1.203,-0.563 2.287,-1.43 3.248,-2.502 0.766,-0.854 1.678,-2.209 2.305,-3.662 3.515,2.177 8.082,4.53 11.849,5.761 2.159,0.706 4.42,1.001 6.7,1.063 2.238,3.748 3.723,7.685 4.178,12.185 0.204,2.005 -0.042,4.024 -0.191,6.041 -0.755,3.259 -1.276,6.608 -1.341,9.927 -0.061,3.113 -0.671,5.873 0.962,8.679 1.914,3.286 9.083,3.721 12.289,1.535 1.562,3.431 4.252,6.186 8.182,5.939 0.28,-0.018 0.511,-0.155 0.681,-0.344 1.321,0.382 2.716,0.472 3.905,0.183 0.524,0.004 1.043003,-0.021 1.551003,-0.079 0.152,-0.018 0.269,-0.072 0.395,-0.118 2.919,2.25 8.572,1.696 11.583,1.401 4.5,-0.442 11.036,-1.459 14.361,-4.857 0.605,-0.617 0.598,-1.526 0.219,-2.248 0.16,-0.048 0.317,-0.117 0.458,-0.241 -0.319,0.287 1.241,-0.04 1.643,-0.076 1.157,-0.107 2.326,-0.12 3.486,-0.159 1.731,-0.062 3.481,-0.013 5.221,-0.046 0.008,0.04 0.021,0.081 0.027,0.119 0.08,-0.006 0.148,-0.023 0.229,-0.027 l 1.24,-0.055 c 0.323,-0.016 0.646,-0.035 0.969,-0.053 1.604,0.876 3.562,-0.274 4.6,-1.712 1.648,-2.285 1.66,-5.269 1.311,-7.953 -0.381,-2.935 -2.146,-10.062 -5.854,-11.191 0.804,-1.553 0.642,-3.758 -0.396,-5.074 -0.254,-0.321 -0.55,-0.578 -0.862,-0.807 -0.17,-0.216 -0.409,-0.39 -0.752,-0.454 -0.005,-10e-4 -0.012,-0.003 -0.018,-0.004 -1.16,-0.549 -2.526,-0.671 -3.822,-0.543 -0.062,-0.277 -0.116,-0.558 -0.177,-0.838 -1,0.313 -2.071,0.343 -3.101,-0.017 0.017,0.133 0.036,0.271 0.053,0.404 -0.368,0.13 -0.703,0.33 -0.991,0.595 -0.783,-0.588 -1.731,-0.902 -2.741,-1.017 0.301,-0.253 0.491,-0.65 0.376,-1.094 -0.292,-1.135 -0.916,-2.151 -1.482,-3.182 0.397,-0.907 0.464,-2.194 0.597,-2.996 0.052,-0.31 0.103,-0.62 0.154,-0.93 0.227,0.006 0.456,-0.092 0.543,-0.312 1.746,-4.384 1.238,-10.031 0.777,-14.623 -0.398,-3.977 -1.583,-7.766 -4.056,-10.769 -0.609,-1.43 -1.311,-2.844 -2.069,-4.236 0.236,-0.067 0.419,-0.295 0.435,-0.544 6.24,0.832 12.474,-4.735 15.079,-10.595 9.745,-3.456 20.161,-3.64 30.54,-3.28 1.926,3.402 0.678,8.46 0.104,12.05 -0.719,4.492 -1.72,9.02 -1.44,13.596 0.587,9.602 10.128,9.727 17.316,7.089 1.112,3.377 4.819,4.569 8.359,4.189 2.4,-0.26 6.536,-1.503 8.975,-3.616 0.992,-0.643 1.732,-1.407 2.291,-2.245 0.154,0.235 0.392,0.415 0.704,0.43 1.537,0.077 2.856,-0.553 4.056,-1.466 1.17,-0.89 2.701,-2.316 2.333,-3.937 -0.014,-0.059 -0.045,-0.104 -0.072,-0.15 0.154,-0.412 0.288,-0.827 0.371,-1.243 0.324,-1.621 0.165,-3.298 -0.277,-4.912 0.226,0.05 0.497,-0.035 0.628,-0.239 1.101,-1.697 0.516,-4.187 -0.251,-5.916 -0.894,-2.006 -2.655,-3.456 -4.538,-4.484 -0.231,-0.123 -0.441,-0.072 -0.588,0.059 -1.153,-2.398 -3.17,-3.149 -5.248,-2.837 -0.359,-4.627 -2.181,-9.528 -3.712,-13.752 -1.69,-4.662 -4.414,-8.817 -7.906,-12.294 0.028,-0.317 -0.14,-0.646 -0.551,-0.75 -0.1,-0.026 -0.2,-0.044 -0.3,-0.069 -0.115,-0.106 -0.221,-0.221 -0.335,-0.323 -0.343,-0.313 -0.806,-0.243 -1.124,-0.006 -8.333,-1.689 -17.76,-0.752 -26.04,0.216 -7.448,0.869 -15.277,2.611 -22.157,5.917 0.746,-3.692 1.253,-7.399 1.764,-10.747 1.499,-9.798 1.864,-19.758 2.256,-29.647 0.093,-2.356 0.011,-4.711 -0.147,-7.063 0.197,-4.27 0.309,-8.543 0.288,-12.805 -0.021,-4.157 0.057,-8.193 -0.997,-12.056 0.055,-0.327 0.115,-0.655 0.178,-0.983 8.084,1.474 17.063,1.038 24.665,-0.078 9.958,-1.461 21.824,-4.232 29.851,-10.746 4.901,-0.034 10.584,0.217 15.494,-0.868 0.136,0.124 0.32,0.201 0.546,0.163 5.254,-0.866 12.287,-1.804 16.626,-5.104 0.252,-0.191 0.316,-0.551 0.19,-0.801 0.47,-0.365 0.869,-0.792 1.202,-1.298 0.165,-0.081 0.309,-0.208 0.35,-0.391 0.027,-0.121 0.038,-0.246 0.057,-0.369 0.006,-0.03 0.012,-0.06 0.014,-0.09 0.251,-1.845 -0.354,-3.935 -0.398,-5.789 -0.045,-1.841 0.28,-3.571 0.585,-5.335 5.82,-19.831004 11.575,-39.496004 8.347,-60.343004 z m -126.864,147.498004 c 1.106,-0.128 2.219,-0.204 3.335,-0.179 1.14,0.026 2.3,0.42 3.424,0.283 -0.112,0.727 -0.217,1.457 -0.331,2.184 -0.159,0.097 -0.292,0.245 -0.349,0.456 -0.459,1.668 -0.728,4.029 -0.626,6.428 l 0,0.007 c 0.155,3.626 1.165,7.337 3.708,8.864 0.084,0.05 0.179,0.073 0.273,0.082 0.204,0.395 0.441,0.771 0.707,1.124 -3.101,-1.71 -6.878,-2.786 -10.309,-3.5 -0.098,-0.558 -0.245,-1.117 -0.332,-1.64 -0.329,-2.007 -0.478,-4.049 -0.552,-6.08 -0.079,-2.175 -0.345,-6.011 1.052,-8.029 z m -79.589003,33.486 c 2.181,-3.597 2.357,-8.232 2.177,-12.608 6.331,0.378 11.982,1.146 17.689,4.142 5.551,2.91 7.597,8.036 11.926,11.989 0.479,0.438 1.303,0.074 1.262,-0.59 -0.373,-6.113 -7.042,-11.028 -11.937,-13.774 -1.665,-0.935 -3.472,-1.681 -5.343,-2.267 0.074,-0.059 0.138,-0.128 0.172,-0.223 2.586,-7.404 5.633,-15.672 6.836,-23.439 10.08,-0.904 20.446,-1.841 30.398,-3.705 0.053,-0.01 0.1,-0.032 0.15,-0.048 0.674,2.268 2.23,4.462 3.285,6.54 1.63,3.21 2.743,6.956 4.688,9.978 0.298,0.462 0.982,0.207 0.985,-0.313 0.013,-3.044 -2.148,-6.375 -3.48,-9.019 -1.311,-2.602 -2.579,-5.938 -4.617,-8.084 0.096,-0.24 0.149,-0.497 0.153,-0.729 0.103,-6.057 3.709,-10.214 6.138,-15.439 0.399,-0.86 -0.656,-1.58 -1.329,-0.936 -4.275,4.09 -7.532,9.142 -8.085,15.034 -9.113,1.573 -18.83,1.199 -27.726,3.69 -2.602,-4.276 -11.206,-18.704 -15.141,-15.136 -0.26,0.238 -0.003,0.622 0.292,0.625 2.605,0.037 5.811,4.806 7.164,6.488 1.995,2.478 5.478,6.412 5.651,9.718 0.017,0.308 0.146,0.601 0.341,0.837 -3.451,7.112 -5.988,16 -6.646,23.854 -0.002,0.031 0.006,0.051 0.007,0.079 -4.205,-1.2 -8.719,-1.515 -12.905,-0.79 -0.051,-0.911 -0.109,-1.8 -0.16,-2.661 0.241,-8.846 -0.216,-17.818 1.077,-26.453 1.914,-12.781 9.114,-23.588 21.108,-28.879 1.841,-0.811 3.757,-1.408 5.712,-1.834 0.731,0 1.448,-0.007 2.156,-0.025 4.218,0.061 8.509,0.513 12.583,0.257 0.032,-0.001 0.062,-0.015 0.093,-0.022 4.857,1.149 9.463,3.329 13.31,6.456 10.362003,8.419 12.646003,21.293 15.961003,33.353 0.115,0.418 0.397,0.604 0.706,0.629 0.298,1.274 0.814,2.534 1.583,2.036 0.022,-0.013 0.031,-0.034 0.05,-0.048 0.039,0.017 0.069,0.043 0.11,0.058 0.043,0.015 0.084,0.007 0.126,0.006 -0.888,3.824 -0.798,9.568 0.254,13.013 -0.543,-0.096 -1.075,-0.186 -1.574,-0.267 -6.35,-1.025 -14.205003,-0.894 -19.322003,3.481 -0.18,0.007 -0.36,0.095 -0.512,0.307 -0.109,0.151 -0.207,0.311 -0.31,0.466 -0.042,0.042 -0.09,0.08 -0.133,0.124 -0.094,0.099 -0.139,0.21 -0.164,0.322 -5.984,9.667 -1.854,25.798 6.643,33.107 -4.915,0.935 -9.755,2.85 -14.719,3.666 -4.885,0.805 -9.833,1.221 -14.782,1.521 1.375,-3.055 2.035,-6.853 2.337,-9.472 0.482,-4.193 -0.685,-8.891 -4.487,-11.238 -6.575,-4.063 -19.813,-3.207 -25.708,3.091 -0.466,-0.248 -0.949,-0.425 -1.382,-0.752 -0.343,-0.261 -0.613,-0.6 -0.849,-0.961 -0.4,-1.537 -1.444,-2.713 -1.61,-4.413 -0.024,-0.241 -0.117,-0.478 -0.255,-0.678 0.014,-0.026 0.038,-0.038 0.053,-0.064 z m -5.443,20.365 c 0.031,0.213 0.096,0.417 0.142,0.625 -0.546,0.011 -1.087,0.145 -1.708,0.319 0.379,-0.351 0.327,-1.061 -0.269,-1.175 -4.464,-0.861 -8.317,-1.653 -11.352,-3.977 -0.059,-0.159 -0.104,-0.315 -0.123,-0.474 -0.074,-0.617 -0.719,-0.837 -1.134,-0.629 -0.968,-0.969 -1.837,-2.138 -2.591,-3.599 -0.842,-4.194 -0.591,-8.302 -0.366,-12.558 0.572,-1.213 1.314,-2.356 2.213,-3.396 -0.461,6.201 4.262,13.872 9.878,12.367 0.311,1.123 0.891,2.135 1.798,2.919 0.452,0.391 1.019,0.513 1.553,0.447 0.643,1.266 1.516,2.425 2.625,3.22 -0.728,2.032 -0.86,4.585 -0.666,5.911 z m -8.374,61.78 c -0.046,0.053 -0.062,0.122 -0.096,0.182 -0.078,-0.604 -0.553,-1.166 -1.261,-1.121 -4.441,0.281 -9.3349998,2.207 -13.2309998,-1.056 -2.055,-1.721 -2.031,-3.85 -1.039,-5.944 0.075,0.088 0.145,0.184 0.226,0.271 0.731,0.782 2.149,-0.14 1.754,-1.128 -0.192,-0.481 -0.363,-0.972 -0.515,-1.466 1.924,-2.47 4.6879998,-4.645 6.2519998,-5.707 0.2,-0.137 0.285,-0.313 0.298,-0.491 4.152,-0.379 6.843,2.502 8.901,6.341 1.016,1.897 1.66,3.998 1.686,6.151 0.029,2.407 -1.736,2.48 -2.975,3.968 z m 20.524,-5.963 c -0.43,1.033 -1.159,0.78 -1.947,0.613 -0.021,-0.541 -0.006,-1.092 0.074,-1.653 0.008,-0.06 0.032,-0.112 0.042,-0.17 -0.01,-0.032 -0.014,-0.065 -0.023,-0.098 -0.059,0.016 -0.115,0.032 -0.174,0.047 0.013,-0.26 0.004,-0.517 0.004,-0.775 -0.073,-0.4 -0.124,-0.822 -0.121,-1.309 0,-0.099 0.014,-0.193 0.018,-0.29 -0.324,-2.288 -1.318,-4.479 -2.742,-6.305 1.147,-0.425 2.329,-0.433 3.484,-0.202 2.054,2.512 2.594,7.239 1.385,10.142 z m 12.822,-54.993 c 0.067,1.116 0.016,2.188 -0.12,3.25 -0.071,0.063 -0.136,0.143 -0.177,0.257 -0.563,1.571 -1.038,3.173 -1.55,4.764 -0.101,0.035 -0.195,0.09 -0.271,0.176 -1.364,1.519 -1.486,4.103 -2.49,5.905 -1.098,1.971 -2.757,3.577 -4.838,4.347 -0.056,-0.071 -0.128,-0.14 -0.221,-0.199 -2.841,-1.809 -6.399,-2.753 -9.618,-3.663 -3.034,-0.856 -6.778,-1.863 -9.829,-0.742 -0.698,0.256 -0.597,1.155 0.061,1.375 0.118,0.04 0.24,0.068 0.36,0.104 -2.696,7.821 3.924,19.623 11.647,23.224 -1.421,-0.13 -2.877,0.213 -3.1,1.52 -0.014,0.082 0.021,0.141 0.085,0.188 0.748,0.51 1.263,0.238 2.129,0.178 0.77,-0.054 1.437,0.071 2.104,0.464 0.618,0.36 0.919,0.881 1.116,1.453 -1.616,-0.055 -2.73,0.542 -3.808,1.489 -0.353,-0.378 -0.718,-0.739 -1.107,-1.073 -1.047,-0.896 -3.04,-2.389 -4.495,-2.325 -2.177,0.097 -5.148,4.504 -6.362,5.967 -0.456,0.549 0.306,1.243 0.813,0.745 0.894,-0.879 4.531,-5.363 5.751,-4.769 1.232,0.597 2.264,1.486 3.198,2.475 1.889,1.99 2.98,4.737 3.17,7.451 0.061,0.879 -0.039,1.766 -0.291,2.596 -0.018,0.017 -0.039,0.028 -0.055,0.047 -0.162,0.18 -0.225,0.433 -0.215,0.678 -0.411,0.932 -1.041,1.762 -1.915,2.365 -0.505,0.351 -1.026,0.564 -1.558,0.692 0.056,-0.033 0.112,-0.069 0.15,-0.143 1.036,-2.046 0.499,-4.989 -0.116,-7.092 -0.201,-0.685 -1.228,-0.345 -1.049,0.339 0.295,1.137 0.431,2.272 0.465,3.445 0.03,1.042 -0.141,2.111 -0.033,3.144 0.023,0.221 0.218,0.352 0.411,0.352 -1.808,0.367 -3.732,-0.263 -5.601,-0.455 0.534,-2.784 -0.263,-5.726 -1.46,-8.235 -1.99,-4.174 -9.666,-12.901 -14.479,-6.91 -0.155,0.193 -0.206,0.406 -0.193,0.605 -1.7909998,0.58 -3.4489998,2.078 -4.7159998,3.566 -0.313,-2.119 -0.322,-4.309 -0.169,-6.509 0.415,-1.224 0.351,-2.501 0.479,-3.863 0.035,-0.372 0.084,-0.74 0.129,-1.111 0.484,-2.86 1.137,-5.666 1.75,-8.294 0.943,-4.033 2.057,-8.094 3.8419998,-11.843 1.6,-3.362 4.883,-4.928 8.343,-5.869 0.115,0.166 0.297,0.285 0.567,0.28 2.026,-0.043 3.937,-0.504 5.87,-1.05 0.01,-0.003 0.014,-0.015 0.023,-0.018 0.421,0 0.841,0.002 1.256,0.003 1.728,0.011 3.492,0.248 5.062,-0.545 0.083,-0.043 0.134,-0.114 0.181,-0.187 1.044,-0.171 2.055,-0.408 2.998,-0.777 0.336,2.167 1.595,4.824 3.941,4.657 0.284,-0.021 0.482,-0.35 0.31,-0.602 -0.546,-0.79 -1.363,-1.343 -1.932,-2.131 -0.344,-0.478 -0.579,-1.038 -0.752,-1.618 0.073,-0.025 0.139,-0.067 0.206,-0.107 0.095,0.069 0.187,0.141 0.292,0.201 0.669,0.393 1.803,0.592 2.468,0.12 0.322,-0.228 0.287,-0.665 -0.038,-0.867 -0.646,-0.404 -1.464,-0.316 -2.144,-0.553 -0.027,-2.8 -0.171,-5.705 -0.539,-8.497 2.558,-1.211 5.282,-1.922 8.132,-2.175 2.899,-0.259 7.527,0.455 8.727,3.278 -0.353,-0.157 -0.825,0.006 -0.795,0.522 z m 3.666,11.254 c -0.271,-1.211 -0.729,-2.362 -0.586,-3.711 0.155,-1.457 0.696,-2.897 1.038,-4.317 0.683,-2.862 -0.239,-5.29 -2.433,-7.17 -4.765,-4.079 -13.102,-2.573 -18.364,0.743 -0.591,-0.341 -1.465,-0.04 -1.521,0.883 -0.004,0.071 -0.004,0.144 -0.008,0.214 -0.152,0.124 -0.314,0.242 -0.458,0.368 -0.46,0.4 -0.08,0.998 0.406,1.093 -0.028,1.138 -0.021,2.284 0.013,3.432 -0.678,-0.284 -1.458,-0.364 -2.125,-0.707 -0.143,-0.074 -0.275,-0.164 -0.401,-0.265 0,-0.042 0.021,-0.077 0.019,-0.122 -0.021,-0.479 -0.295,-0.786 -0.728,-0.954 -0.057,-0.023 -0.11,-0.024 -0.166,-0.041 -0.349,-0.666 -0.556,-1.43 -0.665,-2.089 -0.227,-1.388 -0.049,-2.78 0.363,-4.107 0.025,-0.081 0.073,-0.146 0.103,-0.223 0.48,0.043 0.864,-0.48 0.477,-0.879 -0.003,-0.003 -0.005,-0.004 -0.008,-0.007 0.466,-0.686 1.039,-1.286 1.353,-2.067 0.152,-0.377 0.008,-0.803 -0.418,-0.912 -1.053,-0.262 -1.883,0.027 -2.538,0.635 -2.138,-3.299 -4.694,-10.857 1.389,-10.315 0.499,1.841 1.643,3.217 2.771,4.856 0.041,0.06 0.09,0.104 0.142,0.148 0.505,0.688 1.157,1.264 1.92,1.573 -0.463,0.719 -0.849,1.489 -1.127,2.322 -0.339,1.012 1.2,1.484 1.688,0.625 4.087,-7.184 18.837,-9.305 25.114,-4.267 6.65,5.338 -1.814,14.512 -1.474,20.434 0.052,0.89 1.102,1.508 1.874,0.969 0.525,-0.368 0.996,-0.84 1.429,-1.374 4.965,-0.248 9.921,-0.594 14.862,-1.207 6.052,-0.75 14.167,-1.523 18.998,-5.536 0.562,-0.468 0.425,-1.631 -0.484,-1.521 -0.042,0.004 -0.081,0.012 -0.123,0.019 -2.423,-4.572 -5.364,-8.674 -7.172,-13.597 -2.335,-6.356 -2.078,-12.606 0.217,-18.855 5.712,-3.773 12.872003,-3.458 19.398003,-2.325 5.369,0.933 9.823,3.333 14.575,5.45 0.958,0.972 1.13,2.356 0.516,3.564 -0.317,0.625 -0.787,0.996 -1.308,1.286 -6.91,-0.623 -16.155,2.047 -22.14,6.401 -0.075,-0.01 -0.149,-0.012 -0.227,0.006 -5.788003,1.47 -2.250003,13.656 1.776,16.75 0.287,0.43 0.567,0.862 0.802,1.327 0.171,0.338 0.278,0.715 0.394,1.082 -2.302,1.662 -4.337,3.702 -6.889003,5.117 -3.79,2.098 -8.075,3.314 -12.249,4.373 -7.763,1.972 -15.874,2.649 -23.864,2.784 -1.391,0.021 -2.775,0.069 -4.161,0.114 z m 34.067,2.274 c -2.98,1.163 -6.065,2.063 -9.2,2.718 -1.633,-0.958 -3.365,-1.719 -4.31,-3.446 2.451,-0.459 4.921,-0.868 7.372,-1.158 0.362,-0.076 0.724,-0.144 1.086,-0.225 0.587,-0.134 1.222,-0.283 1.89,-0.45 0.743,0.999 1.896,2.061 3.162,2.561 z m -1.983,-2.866 c 1.934,-0.511 4.08,-1.173 6.21,-1.987 0.025,0.095 0.07,0.19 0.166,0.274 0.541,0.48 1.236,0.941 1.985,1.283 -1.487,0.944 -2.985,1.859 -4.54,2.551 -0.651,-0.376 -1.399,-0.55 -2.081,-0.88 -0.643,-0.309 -1.225,-0.743 -1.74,-1.241 z m 6.011,4.434 c 1.204,-0.518 2.567,-1.106 3.925,-1.782 -1.597,2.683 -3.134,5.408 -4.622,8.145 -0.716,-0.73 -1.429,-1.407 -2.053,-1.996 -0.822,-0.776 -1.685,-1.557 -2.559,-2.334 1.797,-0.611 3.57,-1.289 5.309,-2.033 z m 3.726,-5.742 c -0.82,-0.323 -1.673,-0.585 -2.397,-1.12 2.528,-1.044 4.972003,-2.331 6.937003,-3.909 -0.188,0.919 -0.39,1.834 -0.603,2.745 -1.336,0.653 -2.637,1.458 -3.937003,2.284 z m -36.761,6.238 c 0.158,-0.452 0.177,-0.992 0.07,-1.504 0.424,0.067 0.841,0.159 1.247,0.291 0.972,0.143 1.997,0.195 3.045,0.195 -0.342,-0.2 -0.685,-0.408 -1.03,-0.601 0.565,-0.027 1.125,-0.077 1.689,-0.111 0.377,1.325 1.07,2.645 2.074,3.516 -2.398,-0.225 -4.735,-0.803 -7.095,-1.786 z m 7.217,-0.276 c -0.357,-0.465 -0.607,-0.992 -0.792,-1.544 2.511,-0.169 5.014,-0.375 7.508,-0.676 0.15,-0.029 0.3,-0.057 0.451,-0.086 0.418,1.163 1.222,2.078 2.188,2.858 0.341,0.274 0.718,0.551 1.121,0.786 -1.295,0.229 -2.594,0.428 -3.894,0.585 -1.474,0.182 -2.899,0.266 -4.297,0.26 -0.707,-0.784 -1.63,-1.326 -2.285,-2.183 z m 15.968,30.764 c -0.02,-0.002 -0.04,-0.004 -0.06,-0.007 -0.055,0.694 -0.167,1.385 -0.31,2.052 -0.027,0.126 -0.063,0.241 -0.094,0.362 0.061,0.006 0.123,0.019 0.184,0.023 -0.07,0.873 -0.107,1.74 -0.116,2.59 -0.015,1.601 0.245,3.443 0.773,5.248 -4.347,-0.281 -10.492,2.842 -9.358,-5.191 0.629,-4.462 1.741,-8.96 1.228,-13.464 0.039,-1.316 0.101,-2.635 0.035,-3.953 -0.213,-4.338 -1.677,-9.275 -4.18,-13.188 0.26,-0.077 0.509,-0.178 0.75,-0.287 1.604,-0.104 3.202,-0.282 4.76,-0.497 2.768,-0.382 5.5,-0.986 8.181,-1.769 0.688,0.57 1.367,1.144 2.01,1.734 1.557,1.429 2.958,2.999 4.265,4.655 0.122,0.457 0.438,0.834 0.84,1.065 0.014,0.021 0.028,0.041 0.042,0.062 -0.832,1.346 -1.625,2.715 -2.369,4.102 -0.886,1.649 -1.85,3.513 -2.499,5.44 -2.219,3.197 -3.497,7.108 -4.082,11.023 z m 40.529003,-43.802 c 0.076,0.143 0.21,0.208 0.355,0.224 0.902,4.759 0.093,9.986 0.408,14.926 -0.422,1.257 -0.816,2.521 -1.165,3.801 -0.314,1.153 -1.2,3.438 -0.393,4.534 0.016,0.021 0.036,0.028 0.051,0.048 0.359,1.173 0.766,2.345 1.371,3.41 0.042,0.075 0.098,0.117 0.147,0.174 -0.175,0.008 -0.35,0.012 -0.525,0.028 -2.169,0.215 -5.778,1.938 -5.451,4.575 0.063,0.512 0.478,0.79 0.976,0.678 1.647,-0.366 2.835,-1.831 4.552,-2.249 1.484,-0.36 3.283,0.182 4.574,0.925 0.626,0.359 1.182,-0.061 1.331,-0.614 0.049,0.348 0.11,0.695 0.163,1.044 0.076,-0.066 0.161,-0.122 0.246,-0.178 0.008,0.25 0.005,0.502 0.017,0.755 0.026,0.576 0.067,1.174 0.524,1.572 0.235,0.202 0.575,0.188 0.792,-0.036 0.421,-0.436 0.411,-1.035 0.386,-1.61 -0.014,-0.301 -0.042,-0.598 -0.059,-0.898 0.146,0.052 0.289,0.109 0.431,0.172 0.329,-0.106 0.691,-0.102 1.063,0.034 0.007,-0.003 0.014,-0.003 0.021,-0.004 -0.018,-0.076 -0.035,-0.15 -0.051,-0.225 0.675,0.066 1.349,0.152 2.028,0.181 0.132,0.074 0.259,0.163 0.375,0.271 0.563,0.506 0.41,1.4 0.225,2.237 -1.059,-0.59 -2.077,-0.729 -3.271,-0.485 -0.98,0.202 -0.773,1.636 0.081,1.85 1.334,0.333 2.649,0.783 3.497,1.947 0.061,0.083 0.141,0.15 0.227,0.203 0.147,0.184 0.273,0.386 0.417,0.572 0.096,-0.159 0.207,-0.308 0.32,-0.455 1.676,2.356 2.783,4.82 3.477,7.741 0.438,1.842 0.575,3.819 0.14,5.673 -0.206,0.881 -0.697,1.317 -1.249,1.681 -0.399,-0.712 -0.532,-1.563 -0.26,-2.42 -0.196,-1.033 -0.47,-2.07 -0.784,-3.065 -0.08,-0.217 -0.16,-0.433 -0.233,-0.654 -0.413,-1.245 -0.825,-2.243 -1.26,-3.315 -0.139,-0.318 -0.271,-0.613 -0.394,-0.875 -0.443,-0.951 -0.975,-1.893 -1.58,-2.79 -0.099,-0.569 -0.212,-1.141 -0.324,-1.713 -0.022,-0.004 -0.044,-0.001 -0.066,-0.009 -0.28,-0.078 -0.497,-0.155 -0.732,-0.333 -0.222,-0.166 -0.713,-0.294 -0.197,-0.206 -0.542,-0.09 -0.999,-0.36 -1.388,-0.739 -0.642,-0.629 -1.21,-1.27 -1.864,-1.86 0.024,0.114 0.043,0.228 0.069,0.342 -1.64,-1.044 -3.5,-1.678 -5.546,-1.679 -0.191,-0.364 -0.627,-0.6 -1.075,-0.303 -2.382,1.57 -5.958,4.644 -4.372,7.873 0.166,0.336 0.721,0.279 0.868,-0.04 0.501,-1.093 0.717,-2.278 1.259,-3.365 0.578,-1.159 1.551,-2.029 2.582,-2.788 0.105,0.135 0.243,0.249 0.435,0.302 5.041,1.411 7.824,5.701 9.669,10.326 0.852,2.136 1.302,4.406 1.506,6.689 -0.018,0.006 -0.037,0.01 -0.055,0.016 -0.414,0.159 -0.624,0.548 -0.607,0.924 -1.962,0.057 -3.93,0.166 -5.876,0.283 -1.245,0.077 -3.396,0.082 -4.685,0.9 -0.005,-2.645 -1.852,-5.804 -2.969,-7.674 -1.052,-1.763 -3.227,-4.844 -5.625,-5.675 -0.053,-0.099 -0.111,-0.193 -0.191,-0.26 -0.32,-0.271 -0.659,-0.502 -1.035,-0.689 -0.817,-0.405 -2.003,-0.993 -2.898,-0.607 -0.411,0.178 -0.67,0.667 -0.384,1.079 0.487,0.706 1.241,0.789 2.008,1.033 0.011,0.004 0.023,0.012 0.035,0.013 0.005,0.207 0.064,0.416 0.202,0.576 1.825,2.126 3.915,3.638 5.461,6.095 0.946,1.505 1.61,3.146 2.115,4.844 0.311,1.042 0.357,2.163 0.833,3.122 -0.843,0.435 -1.665,1.056 -2.235,1.321 -0.27,0.127 -0.55,0.238 -0.827,0.355 0.118,-1.965 -1.027,-4.177 -1.862,-5.91 -1.028,-2.133 -2.675,-3.634 -4.668,-4.84 -0.282,-0.172 -0.591,0.266 -0.333,0.473 1.841,1.47 3.005,3.467 3.931,5.601 0.704,1.623 0.931,3.66 2.022,5.064 -3.84,1.496 -8.117,2.242 -12.16,2.448 -2.026,0.102 -4.456,0.027 -6.124,-1.28 -2.281,-1.788 -0.387,-6.688 0.388,-8.756 1.649,-4.41 4.511,-8.779 8.449,-11.441 0.452,-0.308 0.272,-1.212 -0.352,-1.104 -6.969,1.207 -13.607003,14.037 -11.368003,21.257 -1.575,-0.126 -3.005,-0.318 -4.362,-0.905 -1.676,-3.43 -4.341,-5.628 -4.846,-9.768 -0.412,-3.391 0.792,-6.845 1.909,-9.983 1.995,-5.612 6.169,-10.951 7.677,-16.76 2.913003,-4.225 4.868003,-9.971 5.777003,-15.555 0.182,-0.27 0.351,-0.549 0.496,-0.84 0.2,-0.402 0.07,-0.844 -0.216,-1.114 0.145,-1.202 0.246,-2.384 0.29,-3.528 0.066,-0.342 0.13,-0.685 0.19,-1.014 0.048,-0.255 0.093,-0.518 0.136,-0.782 0.191,-0.309 0.38,-0.614 0.534,-0.938 0.209,0.503 0.411,1.005 0.616,1.504 -0.302,-0.952 -0.627,-1.889 -0.966,-2.816 -0.023,-1.336 -0.371,-2.598 -1.454,-3.498 -0.145,-0.336 -0.286,-0.677 -0.418,-1.026 -0.107,0.112 -0.154,0.273 -0.066,0.478 0.053,0.119 0.104,0.237 0.155,0.358 -0.055,-0.013 -0.11,-0.021 -0.163,-0.015 -1.724,-4.137 -4.848003,-8.515 -3.416,-13.057 2.97,-1.943 6.072,-3.301 9.457,-4.289 0.064,0.071 0.117,0.149 0.186,0.218 -0.021,0.046 -0.034,0.1 -0.03,0.162 0.001,0.03 0.001,0.058 0.002,0.088 0.39,-0.082 0.816,-0.092 1.262,-0.053 1.758,1.133 3.125,2.846 4.313,4.604 0.546,1.177 1.114,2.343 1.694,3.503 -0.58,0.643 -0.756,1.572 0.102,2.253 0.53,0.424 1.068,0.776 1.611,1.074 0.104,0.2 0.205,0.401 0.311,0.602 0.573,1.077 1.1,2.179 1.606,3.285 -0.176,0.234 -0.21,0.567 0.078,0.838 0.189,0.178 0.366,0.36 0.542,0.541 1.109,2.484 2.173,4.991 3.459,7.385 z m 76.64,3.43 c -2.651,0.711 -4.876,3.27 -7.559,4.222 -0.28,0.102 -0.549,0.169 -0.819,0.244 -1.93,0.143 -3.902,-0.018 -5.399,-0.703 -0.568,-0.262 -0.918,-0.665 -1.127,-1.141 0.615,-0.326 0.655,-1.245 -0.109,-1.439 -0.045,-0.014 -0.094,-0.021 -0.142,-0.033 0.021,-0.934 0.279,-1.915 0.494,-2.676 1.167,-4.118 4.123,-7.591 5.412,-11.629 3.034,-0.138 5.582,1.593 7.64,4.551 1.845,2.65 2.64,5.994 1.609,8.604 z m 3.852,-17.487 c 0.098,-0.034 0.189,-0.087 0.281,-0.133 0.323,-0.165 0.507,-0.552 0.537,-0.927 1.713,1.018 2.932,2.354 3.602,4.276 0.438,1.241 0.267,2.497 0.327,3.747 -0.423,-1.114 -0.956,-2.183 -1.534,-3.157 -0.918,-1.549 -2.167,-2.875 -3.518,-3.759 0.104,-0.006 0.212,-0.015 0.305,-0.047 z m 1.694,5.345 c 1.192,2.084 1.978,4.684 1.752,7.101 -0.26,2.789 -2.213,3.582 -4.221,5.036 -0.057,0.04 -0.095,0.086 -0.139,0.132 1.248,-4.816 -2.195,-11.029 -6.461,-14.024 0.009,-0.009 0.014,-0.014 0.019,-0.024 0.88,-1.874 2.327,-3.804 4.582,-2.907 2.005,0.792 3.44,2.895 4.468,4.686 z m -46.311,-34.77 c 8.785,-1.146 17.676,0.095 26.404,-0.776 3.255,4.196 5.903,8.432 7.692,13.52 1.406,4.005 1.827,8.518 3.545,12.41 -1.182,0.583 -2.284,1.447 -3.139,2.494 -0.632,0.771 0.399,1.682 1.126,1.029 0.805,-0.723 1.801,-1.423 2.861,-1.852 0.002,0.008 0.005,0.013 0.008,0.017 0.399,0.683 1.333,0.293 1.405,-0.389 1.659,-0.173 2.557,1.091 3.301,2.412 -2.691,-1.222 -5.52,-0.566 -6.796,3.611 -3.087,-1.811 -6.45,-1.863 -8.729,1.508 -0.206,0.302 0.176,0.757 0.511,0.608 0.188,-0.084 0.373,-0.152 0.558,-0.224 -2.543,3.661 -5.069,8.507 -5.461,12.723 -0.495,0.109 -1.033,0.249 -1.608,0.403 -3.269,-0.235 -6.512,-0.15 -9.692,-1.782 -1.172,-0.604 -2.017,-1.458 -2.598,-2.473 -0.211,-2.644 0.41,-5.688 0.754,-7.913 2.952,-2.694 3.15,-9.495 3.004,-13.036 -0.069,-1.654 -0.442,-3.11 -1.087,-4.309 1.098,-0.412 2.263,-0.763 3.054,-1.627 0.197,-0.213 0.114,-0.678 -0.221,-0.711 -1.112,-0.103 -2.236,0.323 -3.269,0.855 -0.258,-0.1 -0.514,-0.198 -0.775,-0.294 0.404,-0.413 0.768,-0.857 1.112,-1.354 0.623,-0.895 1.401,-1.652 1.556,-2.762 0.033,-0.231 -0.083,-0.533 -0.352,-0.564 -1.769,-0.206 -2.754,1.539 -3.544,3.084 -0.214,-0.112 -0.458,-0.193 -0.734,-0.226 -2.503,-0.29 -5.043,-0.386 -7.595,-0.358 -9.231,-0.199 -18.526,0.609 -27.105,3.927 0.27,-1.467 0.407,-2.982 0.564,-4.472 0.996,-2.315 1.763,-4.803 2.376,-7.348 7.511,-2.716 14.78,-5.078 22.874,-6.131 z m 68.403,-103.308 c -0.358,-0.059 -0.758,0.096 -0.804,0.514 -0.263,2.308 -0.482,4.611 -0.629,6.929 -0.092,1.441 -0.226,2.914 0.051,4.309 0.255,0.53 0.427,1.083 0.561,1.643 -0.36,0.234 -0.726,0.454 -1.095,0.668 -13.796,4.08 -27.644,4.268 -42.032,3.806 -15.229,-0.49 -30.058,-2.342 -44.172,-8.272 -0.976,-0.41 -1.664,0.688 -1.436,1.532 -0.532,0.068 -0.747,0.949 -0.208,1.181 11.263,4.851 23.453,7.884 35.603,9.367 5.277,0.644 10.596,0.884 15.911,0.915 -0.163,0.113 -0.342,0.213 -0.495,0.334 -2.663,1.025 -5.301,2.156 -7.992,3.035 -4.973,1.625 -9.994,2.897 -15.157,3.748 -5.505,0.907 -11.113,1.078 -16.679,0.898 -5.321,-0.171 -10.562,-1.352 -15.867,-1.483 -1.362,-0.034 -1.429,1.787 -0.301,2.225 1.185,0.46 2.414,0.858 3.675,1.201 0.04,0.24 0.146,0.474 0.307,0.669 -2.724,6.934 0.201,23.72 0.487,27.48 0.206,2.697 0.257,5.406 0.225,8.116 -0.194,2.195 -0.401,4.387 -0.626,6.574 -0.938,9.103 -2.335,18.147 -4.024,27.139 -0.138,0.736 -0.297,1.468 -0.442,2.202 0.194,0.401 0.32,0.842 0.394,1.313 -0.158,0.153 -0.27,0.355 -0.278,0.602 -0.029,0.865 -0.088,1.717 -0.159,2.564 -0.208,0.25 -0.219,0.583 -0.097,0.863 -1.253,3.781 -2.728,7.502 -3.413,11.374 -0.079,0.445 0.063,0.801 0.308,1.026 -0.081,0.255 -0.149,0.513 -0.241,0.763 -0.255,0.13 -0.514,0.248 -0.767,0.383 -1.021,0.547 -1.169,1.53 -0.82,2.342 -0.582,0.604 -1.271,1.061 -2.076,1.367 0.326,0.171 0.658,0.348 0.987,0.523 -0.318,0.27 -0.64,0.532 -0.96,0.78 -0.166,0.126 -0.35,0.228 -0.522,0.347 -1.657,0.436 -3.276,1.201 -4.958,1.524 -0.478,-0.031 -0.948,-0.083 -1.415,-0.137 -0.113,-0.039 -0.242,-0.07 -0.365,-0.104 -0.805,-1.175 -1.646,-2.315 -2.353,-3.384 -1.048,-1.585 -2.194,-3.064 -3.625,-4.207 0.737,-0.031 1.485,-0.023 2.291,0.058 -0.018,-0.008 -0.037,-0.019 -0.053,-0.025 -0.681,-0.336 -1.575,-0.857 -2.525,-1.299 1.315,-0.241 2.664,-0.413 4.003,-0.615 0.114,0.094 0.223,0.188 0.337,0.28 0.902,-0.151 1.806,-0.272 2.709,-0.358 -0.183,-0.128 -0.363,-0.26 -0.546,-0.382 0.133,-0.03 0.264,-0.064 0.396,-0.097 1.821,1.339 4.284,-0.588 5.392,-2.321 0.074,-0.007 0.15,-0.021 0.221,-0.06 1.072,-0.597 1.322,-2.108 1.34,-3.542 0.375,-0.137 0.622,-0.539 0.342,-0.967 -0.118,-0.184 -0.252,-0.354 -0.382,-0.53 -0.014,-0.24 -0.028,-0.466 -0.039,-0.666 -0.032,-0.615 -0.648,-0.799 -1.074,-0.601 -0.392,-0.384 -0.82,-0.741 -1.271,-1.084 0.097,-0.028 0.192,-0.063 0.281,-0.121 0.171,-0.111 0.279,-0.24 0.382,-0.416 0.186,-0.318 0.181,-0.824 -0.049,-1.121 -1.048,-1.354 -1.826,-2.738 -2.654,-4.229 -0.183,-0.33 -0.454,-0.451 -0.729,-0.451 -0.42,-1.258 -0.867,-2.514 -1.113,-3.853 0.397,-0.212 0.74,-0.554 0.948,-1.056 6.142,-14.914 5.671,-32.3 5.238,-48.121 -0.209,-7.628 -0.783,-15.18 -1.627,-22.689 -0.169,-3.063 -0.38,-6.111 -0.652,-9.137 -0.013,-0.141 -0.079,-0.24 -0.165,-0.301 -0.994,-7.999 -2.191,-15.972 -3.624,-23.906 -1.853,-10.265004 -4.221,-20.467004 -6.972,-30.556004 -1.376,-6.565 -2.88,-13.096 -4.695,-19.532 -2.001,-7.094 -4.636,-16.202 -9.441,-22.901 -1.604003,-2.768 -3.498003,-5.252 -5.824003,-7.217 4.739,-1.816 10.465003,-3.516 13.813003,-7.214 0.043,-0.046 0.071,-0.098 0.091,-0.153 16.39,-6.725 33.509,-11.7290002 51.096,-14.0270002 19.007,-2.48200005 39.904,-1.234 55.797,10.5190002 13.109,9.693 20.066,25.332 22.212,41.133 1.201,8.82 0.743,17.893 -0.748,26.642 -1.637,9.6 -5.214,18.741004 -7.207,28.247004 z" /><path
     id="path26"
     d="m 96.124827,210.36735 c -8.212,-3.401 -19.492,8.217 -21.693,15.325 -0.24,0.778 0.814,1.207 1.319,0.692 6.119,-6.23 10.445,-14.051 20.104,-14.809 0.588,-0.047 0.894,-0.949 0.27,-1.208 z" /><path
     id="path28"
     d="m 195.14383,251.90535 c -0.413,-0.458 -1.192,0.204 -0.825,0.695 2.015,2.667 1.68,5.555 2.433,8.585 0.105,0.428 0.755,0.467 0.937,0.081 1.565,-3.28 -0.362,-6.935 -2.545,-9.361 z" /><path
     id="path30"
     d="m 204.48583,245.79035 c -0.562,-0.771 -1.801,0.006 -1.253,0.806 1.265,1.862 1.797,4.141 3.104,5.956 0.272,0.383 0.839,0.189 0.849,-0.271 0.056,-2.264 -1.404,-4.719 -2.7,-6.491 z" /><path
     id="path32"
     d="m 193.24283,239.41635 c -2.437,-1.257 -4.851,-0.841 -6.89,0.93 -1.827,1.587 -3.085,4.804 -1.677,7 0.308,0.478 0.967,0.296 1.121,-0.196 0.503,-1.605 0.701,-3.26 1.767,-4.633 1.166,-1.509 2.913,-1.89 4.591,-1.033 1.343,0.682 2.427,-1.378 1.088,-2.068 z" /><path
     id="path88"
     d="m 142.05383,116.36435 c -4.098,0.937 -8.932,4.882 -7.324,7.553 0.234,0.389 0.693,0.389 1.019,0.131 0.558,-0.441 0.865,-1.219 1.265,-1.811 0.441,-0.651 1.02,-1.187 1.645,-1.662 2.431,-0.523 5.119,-0.397 7.295,0.233 0.813,0.236 1.571,-0.411 1.601,-1.219 0.092,-2.516 -3.319,-4.507 -5.501,-3.225 z" /><path
     id="path90"
     d="m 129.19883,82.681346 c -0.902,-1.086 -2.325,-1.671 -3.413,-2.56 -1.078,-0.881 -1.899,-2.074 -2.584,-3.272 -0.286,-0.5 -0.952,-0.139 -0.871,0.367 0.474,2.968 3.285,6.266 6.459,6.452 0.549,0.032 0.703,-0.632 0.409,-0.987 z" /><path
     id="path92"
     d="m 179.33361,260.14797 c -7.59893,-1.67211 -8.73016,-3.89048 -5.97755,-11.72215 1.09194,-3.10676 1.8814,-7.62783 1.8814,-10.77433 0,-3.76729 0.45964,-5.92929 1.50646,-7.08602 1.41587,-1.56451 1.38657,-1.66462 -0.48715,-1.66462 -1.68896,0 -1.84962,-0.26906 -1.05133,-1.76067 0.51825,-0.96836 0.94228,-1.9924 0.94228,-2.27563 0,-1.01 -2.52588,-0.49324 -3.53553,0.72331 -0.73206,0.88207 -4.62639,1.38922 -13.53771,1.76297 -6.88051,0.28858 -14.7102,1.14104 -17.39931,1.89436 l -4.88929,1.36967 0.48569,-2.90508 c 1.08448,-6.48666 2.03833,-7.62073 8.10866,-9.64081 10.40665,-3.4631 18.04413,-4.61027 30.80273,-4.62663 l 12.32366,-0.0158 3.02042,4.98367 c 1.66123,2.74101 4.03615,8.30174 5.2776,12.35716 2.06937,6.75999 2.13701,7.50628 0.81292,8.96938 -1.82759,2.01947 -1.82844,2.81792 -0.003,2.81792 0.79268,0 1.26896,0.51202 1.0584,1.13782 -0.2174,0.64613 -1.45196,1.00848 -2.85691,0.83852 -2.48702,-0.30086 -7.10531,1.99215 -6.69145,3.32235 0.122,0.39213 -0.66768,2.73967 -1.75484,5.21674 -1.08716,2.47707 -2.20074,5.22059 -2.47463,6.09671 -0.48573,1.55379 -1.85854,1.79598 -5.5615,0.98117 z m 7.87355,-14.86255 c 0.52358,-1.50192 1.4239,-2.7743 2.00072,-2.82752 0.57683,-0.0532 1.86801,-0.15562 2.86928,-0.22756 2.98977,-0.21482 2.17295,-2.82715 -0.98026,-3.13505 -4.45456,-0.43497 -7.31943,2.81458 -6.86171,7.78308 0.19577,2.12517 2.01592,1.14959 2.97197,-1.59295 z"
     style="fill:#bcd35f;stroke-width:20;stroke-dasharray:none" /><path
     id="path94"
     d="m 77.458067,309.32011 c -0.31734,-0.82698 -0.12238,-4.82072 0.43325,-8.87498 1.08328,-7.90445 0.57583,-14.92343 -1.50541,-20.82228 -0.7127,-2.02002 -1.18905,-3.75368 -1.05854,-3.85256 0.1305,-0.0989 2.85065,-0.68051 6.04478,-1.2925 l 5.80751,-1.1127 3.33377,3.25534 3.33377,3.25534 -4.04781,8.41951 c -3.4304,7.13526 -4.11364,9.49552 -4.4794,15.47396 l -0.43158,7.05447 -3.42668,0 c -2.34623,0 -3.6086,-0.47409 -4.00366,-1.5036 z"
     style="fill:#bcd35f;stroke-width:20;stroke-dasharray:none" /><path
     id="path96"
     d="m 5.9302072,296.43293 c 0,-5.08787 3.63235,-20.33279 5.8804398,-24.68011 2.06247,-3.98837 5.99158,-6.11409 12.61055,-6.82254 3.09691,-0.33147 6.92229,-0.82916 8.50083,-1.10597 2.35541,-0.41305 2.97853,-0.16164 3.4748,1.40195 0.33886,1.06768 1.37806,1.90526 2.36387,1.90526 1.92117,0 2.35417,-1.34534 0.75173,-2.3357 -0.70259,-0.43422 -0.63373,-0.86363 0.22757,-1.4191 0.86429,-0.55739 0.93441,-1.00139 0.23362,-1.47916 -0.55076,-0.37548 -1.22254,-2.37833 -1.49285,-4.45077 -0.4362,-3.34428 -0.24197,-3.88175 1.7269,-4.77883 3.27483,-1.49211 10.78995,-1.27872 12.13722,0.34464 0.72363,0.87192 0.9053,2.52591 0.50929,4.63679 -0.76585,4.08237 -5.57674,13.69058 -7.15895,14.29773 -0.64583,0.24783 -4.02015,-0.51891 -7.4985,-1.70387 -3.47835,-1.18496 -8.06514,-2.16505 -10.19286,-2.17798 l -3.86857,-0.0235 0,5.28281 c 0,6.35066 3.09187,13.27283 7.75871,17.37036 1.69675,1.48977 2.62072,2.86344 2.05326,3.0526 -1.66104,0.55368 0.12299,2.51081 2.30261,2.52605 1.60286,0.0112 1.72806,0.1823 0.63778,0.87161 -0.91245,0.57688 -2.01948,0.42331 -3.38143,-0.46907 -3.0243,-1.9816 -5.10422,-1.62431 -7.97246,1.36949 l -2.58315,2.69622 -2.58864,-2.1782 c -4.3132,-3.62932 -5.97644,-3.71176 -10.4253998,-0.51676 l -4.00637,2.87716 0,-4.49111 z m 5.0599898,-1.50971 c 0.97181,-0.73504 2.68855,-1.34946 3.81499,-1.36538 1.20081,-0.017 2.04807,-0.5938 2.04807,-1.39433 0,-2.10503 -5.96343,-1.77373 -8.1922798,0.45512 -3.27314,3.27314 -1.40071,5.12576 2.3292198,2.30459 z m 16.67233,-1.05299 c 3.39098,-0.67819 3.69281,-1.91427 0.65369,-2.67704 -2.30846,-0.57938 -6.00143,0.87759 -6.00143,2.36772 0,1.02132 1.38671,1.10153 5.34774,0.30932 z"
     style="fill:#bcd35f;stroke-width:20;stroke-dasharray:none" /><path
     id="path98"
     d="m 22.702477,252.20865 c -8.73666,-3.16456 -11.31074,-6.7463 -11.31074,-15.73847 0,-4.326 1.34478,-5.94768 2.17827,-2.6268 0.78692,3.13537 4.95846,7.80103 6.97484,7.80103 0.94009,0 3.15656,1.4473 4.92548,3.21623 2.44446,2.44446 3.21624,3.97344 3.21624,6.37178 0,1.73555 -0.10241,3.1158 -0.22757,3.06723 -0.12516,-0.0486 -2.71559,-0.98953 -5.75652,-2.091 l 0,0 z"
     style="fill:#bcd35f;stroke-width:20;stroke-dasharray:none" /><path
     id="path100"
     d="m 111.343,294.75214 c 0.0465,0.006 0.094,-0.005 0.14063,0 0.0264,0.003 0.052,0.0109 0.0781,0.0156 0.0312,0.006 0.0632,0.007 0.0937,0.0156 0.0271,0.007 0.0515,0.0224 0.0781,0.0312 0.0204,0.007 0.0419,0.01 0.0625,0.0156 0.0283,-10e-4 0.0531,0.0229 0.0781,0.0312 0.005,0.002 0.0107,-0.002 0.0156,0 0.0111,0.004 0.0198,0.0134 0.0312,0.0156 0.0153,0.003 0.0315,-0.003 0.0469,0 0.0325,0.005 0.0621,0.0222 0.0937,0.0312 0.0206,0.006 0.0415,0.011 0.0625,0.0156 0.0259,0.006 0.0529,0.007 0.0781,0.0156 0.0221,0.007 0.0407,0.0231 0.0625,0.0312 0.0846,0.0317 0.0392,0.005 0.125,0.0156 0.0213,0.003 0.0412,0.0126 0.0625,0.0156 0.0155,0.002 0.0317,-0.004 0.0469,0 0.007,0.002 0.008,0.0138 0.0156,0.0156 0.0152,0.004 0.0315,-0.003 0.0469,0 0.0114,0.002 0.02,0.0128 0.0312,0.0156 0.0213,0.005 0.0748,-0.006 0.0937,0 0.007,0.002 0.009,0.0123 0.0156,0.0156 0.0125,0.006 0.0344,-0.006 0.0469,0 0.007,0.003 0.009,0.0133 0.0156,0.0156 0.01,0.003 0.0214,-0.003 0.0312,0 0.007,0.002 0.009,0.0133 0.0156,0.0156 0.01,0.003 0.0211,-0.003 0.0312,0 0.0226,0.006 0.0404,0.0239 0.0625,0.0312 0.13813,0.046 -0.0249,-0.0256 0.15625,0.0469 0.0216,0.009 0.0401,0.0249 0.0625,0.0312 0.015,0.004 0.0319,-0.004 0.0469,0 0.0224,0.006 0.0404,0.0239 0.0625,0.0312 0.0252,0.008 0.0527,0.008 0.0781,0.0156 0.0269,0.008 0.0515,0.0224 0.0781,0.0312 0.0204,0.007 0.0419,0.01 0.0625,0.0156 0.0317,0.009 0.0621,0.0222 0.0937,0.0312 0.001,4e-4 0.12471,0.0311 0.125,0.0312 0.0173,0.007 0.0301,0.0229 0.0469,0.0312 0.0295,0.0147 0.0632,0.019 0.0937,0.0312 0.0108,0.004 0.02,0.0128 0.0312,0.0156 0.0101,0.003 0.0214,-0.003 0.0312,0 0.007,0.002 0.009,0.0133 0.0156,0.0156 0.01,0.003 0.0211,-0.003 0.0312,0 0.0113,0.003 0.0202,0.0119 0.0312,0.0156 0.005,0.002 0.0106,-0.001 0.0156,0 0.016,0.004 0.0306,0.0129 0.0469,0.0156 0.0257,0.004 0.0529,-0.006 0.0781,0 0.006,0.002 0.0564,0.0297 0.0625,0.0312 0.0101,0.003 0.0211,-0.003 0.0312,0 0.0226,0.006 0.0397,0.0267 0.0625,0.0312 0.0153,0.003 0.0316,-0.003 0.0469,0 0.0114,0.002 0.0208,0.0104 0.0312,0.0156 0.0156,0.005 0.0307,0.0124 0.0469,0.0156 0.0102,0.002 0.0208,0 0.0312,0 0.0104,0.005 0.02,0.0128 0.0312,0.0156 0.0101,0.003 0.0211,-0.003 0.0312,0 0.0755,0.0189 -7.7e-4,0.007 0.0469,0.0312 0.005,0.002 0.0107,-0.002 0.0156,0 0.0111,0.004 0.0202,0.0119 0.0312,0.0156 0.005,0.002 0.0107,-0.002 0.0156,0 0.0625,0.0208 -0.003,0.015 0.0781,0.0312 0.0102,0.002 0.0219,-0.005 0.0312,0 0.0132,0.007 0.0176,0.0258 0.0312,0.0312 0.0145,0.006 0.0315,-0.003 0.0469,0 0.065,0.0108 0.0271,0.0143 0.0781,0.0312 0.005,0.002 0.011,-0.002 0.0156,0 0.007,0.003 0.01,0.0115 0.0156,0.0156 0.01,0.006 0.0208,0.0104 0.0312,0.0156 0.0104,0.005 0.02,0.0128 0.0312,0.0156 0.0711,0 9e-4,-0.007 0.0469,0.0156 0.009,0.005 0.0239,-0.007 0.0312,0 0.008,0.008 -0.008,0.0391 0,0.0469 0.004,0.004 0.0119,-0.004 0.0156,0 0.004,0.004 0,0.0104 0,0.0156 0,0.005 0,0.0104 0,0.0156 0,0.004 5.1e-4,0.0464 0,0.0469 -0.008,0.008 -0.023,0.007 -0.0312,0.0156 -0.004,0.004 0.004,0.0119 0,0.0156 -0.007,0.007 -0.0219,-0.005 -0.0312,0 -0.007,0.003 -0.009,0.0123 -0.0156,0.0156 -0.005,0.002 -0.011,-0.002 -0.0156,0 -0.007,0.003 -0.009,0.0123 -0.0156,0.0156 -0.009,0.005 -0.08,-0.003 -0.0937,0 -0.0113,0.003 -0.0202,0.0119 -0.0312,0.0156 -0.008,0.003 -0.0572,0 -0.0625,0 -0.0469,0 -0.0937,0 -0.14063,0 -0.026,0 -0.0521,0 -0.0781,0 -0.005,0 -0.0104,0 -0.0156,0 -0.005,0 -0.011,-0.002 -0.0156,0 -0.007,0.003 -0.009,0.0123 -0.0156,0.0156 -0.005,0.002 -0.011,-0.002 -0.0156,0 -0.007,0.003 -0.009,0.0123 -0.0156,0.0156 -0.005,0.002 -0.011,-0.002 -0.0156,0 -0.007,0.003 -0.01,0.0115 -0.0156,0.0156 -0.01,0.006 -0.023,0.007 -0.0312,0.0156 -0.004,0.004 0.004,0.0119 0,0.0156 -0.004,0.004 -0.011,-0.002 -0.0156,0 -0.0132,0.007 -0.0181,0.0247 -0.0312,0.0312 -0.005,0.002 -0.0107,-0.002 -0.0156,0 -0.0284,0.009 -0.029,0.0134 -0.0469,0.0312 -0.009,0.009 -0.0589,0.0553 -0.0625,0.0625 -0.002,0.005 0.004,0.0119 0,0.0156 -0.008,0.008 -0.023,0.007 -0.0312,0.0156 -0.0189,0.0378 -0.007,0.023 -0.0312,0.0469 -0.005,0.005 -0.0104,0.0104 -0.0156,0.0156 -0.005,0.005 -0.009,0.0123 -0.0156,0.0156 -0.0277,0.0138 -0.005,-0.0232 -0.0312,0.0156 -0.006,0.01 -0.009,0.0216 -0.0156,0.0312 -0.004,0.006 -0.0123,0.009 -0.0156,0.0156 -0.002,0.005 0.002,0.011 0,0.0156 -0.003,0.007 -0.0133,0.009 -0.0156,0.0156 -0.003,0.01 0.005,0.0219 0,0.0312 -0.002,0.005 -0.0119,-0.004 -0.0156,0 -0.007,0.007 0.005,0.0219 0,0.0312 -0.003,0.007 -0.0123,0.009 -0.0156,0.0156 -0.002,0.004 0,0.0543 0,0.0625 0,0.0366 0.004,-0.007 -0.0156,0.0312 -0.002,0.004 0,0.0827 0,0.0937 0,0.005 0.002,0.011 0,0.0156 -0.003,0.007 -0.0123,0.009 -0.0156,0.0156 -0.003,0.006 0,0.0673 0,0.0781 0,0.005 0.004,0.0119 0,0.0156 -0.004,0.004 -0.0119,-0.004 -0.0156,0 -0.004,0.004 0,0.0104 0,0.0156 0,0.005 0,0.0104 0,0.0156 0,0.0577 0,0.042 0,0.0781 0,0.0208 0,0.0104 0,0.0312 0,0.005 0,0.0104 0,0.0156 0,0.005 0.004,0.0119 0,0.0156 -0.004,0.004 -0.0119,-0.004 -0.0156,0 -0.008,0.008 0.015,0.0465 -0.0156,0.0312 -0.0346,-0.0173 -0.005,-0.01 -0.0156,-0.0312 -0.003,-0.007 -0.0123,-0.009 -0.0156,-0.0156 -0.002,-0.005 0.004,-0.0119 0,-0.0156 -0.004,-0.004 -0.0119,0.004 -0.0156,0 -0.004,-0.004 0.002,-0.011 0,-0.0156 -0.003,-0.007 -0.0123,-0.009 -0.0156,-0.0156 -0.002,-0.005 0.004,-0.0119 0,-0.0156 -0.004,-0.004 -0.0133,0.005 -0.0156,0 -0.005,-0.009 0.005,-0.0219 0,-0.0312 -0.002,-0.005 -0.0119,0.004 -0.0156,0 -0.007,-0.007 0.005,-0.0219 0,-0.0312 -0.003,-0.007 -0.0123,-0.009 -0.0156,-0.0156 -0.002,-0.005 0.002,-0.011 0,-0.0156 -0.003,-0.007 -0.0123,-0.009 -0.0156,-0.0156 -0.005,-0.009 0.005,-0.0219 0,-0.0312 -0.003,-0.007 -0.0123,-0.009 -0.0156,-0.0156 -0.002,-0.005 0.002,-0.011 0,-0.0156 -0.003,-0.007 -0.0133,-0.009 -0.0156,-0.0156 -0.003,-0.01 0.005,-0.0219 0,-0.0312 -0.002,-0.005 -0.0119,0.004 -0.0156,0 -0.007,-0.007 0.007,-0.0239 0,-0.0312 -0.004,-0.004 -0.0119,0.004 -0.0156,0 -0.004,-0.004 0.002,-0.0107 0,-0.0156 -0.0377,-0.11317 0.005,0.0246 -0.0312,-0.0469 -0.007,-0.0147 -0.008,-0.0321 -0.0156,-0.0469 -0.007,-0.0132 -0.0247,-0.0181 -0.0312,-0.0312 -0.002,-0.005 0,-0.0104 0,-0.0156 0,-0.0104 0.003,-0.0214 0,-0.0312 -0.004,-0.0106 -0.0409,-0.0349 -0.0469,-0.0469 -0.002,-0.005 0.002,-0.011 0,-0.0156 -0.003,-0.007 -0.0104,-0.0104 -0.0156,-0.0156 -0.0104,-0.0104 -0.0208,-0.0208 -0.0312,-0.0312 -0.005,-0.005 -0.0115,-0.009 -0.0156,-0.0156 -0.006,-0.01 -0.009,-0.0216 -0.0156,-0.0312 -0.0153,-0.023 -0.0472,-0.0395 -0.0625,-0.0625 -0.006,-0.01 -0.009,-0.0216 -0.0156,-0.0312 -0.004,-0.006 -0.0104,-0.0104 -0.0156,-0.0156 -0.005,-0.005 -0.009,-0.0123 -0.0156,-0.0156 -0.005,-0.002 -0.0119,0.004 -0.0156,0 -0.004,-0.004 0.002,-0.011 0,-0.0156 -0.002,-0.005 -0.059,-0.0613 -0.0625,-0.0625 -0.01,-0.003 -0.0214,0.003 -0.0312,0 -0.007,-0.002 -0.009,-0.0115 -0.0156,-0.0156 -0.01,-0.006 -0.023,-0.007 -0.0312,-0.0156 -0.008,-0.008 -0.007,-0.023 -0.0156,-0.0312 -0.008,-0.008 -0.0208,-0.0104 -0.0312,-0.0156 -0.0208,-0.0104 -0.0417,-0.0208 -0.0625,-0.0312 -0.0208,-0.0104 -0.0417,-0.0208 -0.0625,-0.0312 -0.0104,-0.005 -0.0202,-0.0119 -0.0312,-0.0156 -0.0204,-0.007 -0.0433,-0.006 -0.0625,-0.0156 -0.0132,-0.007 -0.019,-0.0231 -0.0312,-0.0312 -0.004,-0.003 -0.011,0.002 -0.0156,0 -0.0715,-0.0358 0.0663,0.006 -0.0469,-0.0312 -0.005,-0.002 -0.0107,0.002 -0.0156,0 -0.0111,-0.004 -0.0198,-0.0133 -0.0312,-0.0156 -0.0153,-0.003 -0.0315,0.003 -0.0469,0 -0.0114,-0.002 -0.0199,-0.0128 -0.0312,-0.0156 -0.0119,-0.003 -0.065,0 -0.0781,0 -0.005,0 -0.0107,0.002 -0.0156,0 -0.011,-0.004 -0.0208,-0.0104 -0.0312,-0.0156 -0.0208,0 -0.0419,0.003 -0.0625,0 -0.0115,-0.002 -0.0198,-0.0133 -0.0312,-0.0156 -0.0165,-0.003 -0.0868,0 -0.10937,0 -0.0104,0 -0.0211,0.003 -0.0312,0 -0.0113,-0.003 -0.0199,-0.0128 -0.0312,-0.0156 -0.0101,-0.003 -0.0208,0 -0.0312,0 -0.0365,0 -0.0729,0 -0.10938,0 -0.0156,0 -0.0317,0.004 -0.0469,0 -0.007,-0.002 -0.009,-0.0123 -0.0156,-0.0156 -0.005,-0.002 -0.0398,0 -0.0469,0 -0.0312,0 -0.0625,0 -0.0937,0 -0.0937,0 -0.1875,0 -0.28125,0 -0.005,0 -0.0104,0 -0.0156,0 -0.005,0 -0.011,-0.002 -0.0156,0 -0.007,0.003 -0.009,0.0123 -0.0156,0.0156 -0.005,0.002 -0.0107,-0.002 -0.0156,0 -0.0111,0.004 -0.0202,0.0119 -0.0312,0.0156 -0.005,0.002 -0.0107,-0.002 -0.0156,0 -0.0221,0.007 -0.0404,0.0239 -0.0625,0.0312 -0.009,0.003 -0.0591,-0.003 -0.0625,0 -0.004,0.004 0.004,0.0119 0,0.0156 -0.004,0.004 -0.0119,0.004 -0.0156,0 -0.004,-0.004 0,-0.0104 0,-0.0156 0,-0.005 -0.004,-0.0119 0,-0.0156 0.004,-0.004 0.0119,0.004 0.0156,0 0.003,-0.003 -0.003,-0.0407 0,-0.0469 0.003,-0.007 0.0123,-0.009 0.0156,-0.0156 0.002,-0.005 -0.004,-0.0119 0,-0.0156 0.004,-0.004 0.0119,0.004 0.0156,0 0.007,-0.007 -0.007,-0.0239 0,-0.0312 0.004,-0.004 0.012,0.004 0.0156,0 0.007,-0.007 -0.007,-0.0239 0,-0.0312 0.004,-0.004 0.0119,0.004 0.0156,0 0.004,-0.004 -0.004,-0.0119 0,-0.0156 0.004,-0.004 0.012,0.004 0.0156,0 0.007,-0.007 -0.007,-0.0239 0,-0.0312 0.004,-0.004 0.0119,0.004 0.0156,0 0.008,-0.008 -0.008,-0.0391 0,-0.0469 0.004,-0.004 0.012,0.004 0.0156,0 0.007,-0.007 -0.007,-0.0239 0,-0.0312 0.0323,-0.0323 -0.001,0.0494 0.0312,-0.0156 0.003,-0.006 -0.003,-0.0437 0,-0.0469 0.004,-0.004 0.0119,0.004 0.0156,0 0.005,-0.005 -0.005,-0.0673 0,-0.0781 0.003,-0.007 0.0123,-0.009 0.0156,-0.0156 0.002,-0.005 0,-0.0104 0,-0.0156 0,-0.005 0,-0.0104 0,-0.0156 0,-0.0312 0,-0.0625 0,-0.0937 0,-0.006 6.3e-4,-0.0619 0,-0.0625 -0.004,-0.004 -0.0119,0.004 -0.0156,0 -0.007,-0.007 0.007,-0.0239 0,-0.0312 -0.004,-0.004 -0.0119,0.004 -0.0156,0 -0.007,-0.007 0.007,-0.0239 0,-0.0312 -0.004,-0.004 -0.0119,0.004 -0.0156,0 -0.007,-0.007 0.005,-0.0219 0,-0.0312 -0.003,-0.007 -0.0123,-0.009 -0.0156,-0.0156 -0.006,-0.0125 0.006,-0.0344 0,-0.0469 -0.003,-0.007 -0.0123,-0.009 -0.0156,-0.0156 -0.002,-0.005 0.002,-0.011 0,-0.0156 -0.003,-0.007 -0.0123,-0.009 -0.0156,-0.0156 -0.002,-0.005 0.004,-0.0119 0,-0.0156 -0.004,-0.004 -0.0119,0.004 -0.0156,0 -0.007,-0.007 0.007,-0.0239 0,-0.0312 -0.004,-0.004 -0.0119,0.004 -0.0156,0 -0.007,-0.007 0.005,-0.0219 0,-0.0312 -0.003,-0.007 -0.0115,-0.01 -0.0156,-0.0156 -0.006,-0.01 -0.0119,-0.0202 -0.0156,-0.0312 -0.008,-0.0237 0.0149,-0.0109 -0.0156,-0.0312 -0.01,-0.006 -0.023,-0.007 -0.0312,-0.0156 -0.004,-0.004 0.004,-0.0119 0,-0.0156 -0.004,-0.004 -0.0119,0.004 -0.0156,0 -0.004,-0.004 0.004,-0.0119 0,-0.0156 -0.004,-0.004 -0.0119,0.004 -0.0156,0 -0.004,-0.004 -0.005,-0.0156 0,-0.0156 0.005,0 0.005,0.0156 0,0.0156 -0.007,0 -0.009,-0.0123 -0.0156,-0.0156 -0.005,-0.002 -0.0104,0 -0.0156,0 -0.0422,0 -0.0105,10e-4 -0.0937,-0.0156 z"
     style="fill:#ffffff" /><path
     id="path102"
     d="m 97.179547,314.9566 c -0.87434,-0.23455 -2.61863,-2.25715 -3.87618,-4.49466 -3.28847,-5.85104 -2.36439,-10.81653 4.84571,-26.03827 9.872903,-20.84336 11.311253,-28.76995 6.688243,-36.85794 -1.39918,-2.44787 -2.54938,-5.82982 -2.556,-7.51546 -0.01,-2.52883 0.60595,-3.35948 3.52188,-4.75 1.94366,-0.92686 4.38802,-1.68521 5.43191,-1.68521 2.04766,0 6.03416,4.84455 6.03416,7.33294 0,0.83831 0.58551,2.11885 1.30113,2.84563 0.71562,0.72679 2.74062,4.40946 4.5,8.18371 2.59157,5.55948 3.19781,8.12243 3.1933,13.5 -0.003,3.65075 -0.47462,8.32667 -1.04789,10.39094 -0.67312,2.42378 -0.70291,4.3597 -0.0841,5.46543 0.75786,1.35422 0.3497,2.08227 -1.95211,3.48209 -4.96067,3.01676 -2.98287,6.51401 2.1349,3.77506 2.0287,-1.08572 6.95478,-0.32803 6.95478,1.06974 0,0.4558 -1.50496,0.5845 -3.34436,0.28601 -2.79851,-0.45414 -3.6962,-0.0954 -5.5,2.19772 -1.1856,1.50725 -2.15564,3.57315 -2.15564,4.59089 0,1.7737 -0.13479,1.76826 -3.25,-0.13112 -4.40565,-2.68618 -8.85953,-2.54364 -12.01922,0.38466 -3.63455,3.36839 -6.716233,9.88757 -6.900823,14.59843 -0.0868,2.21533 -0.19655,3.97567 -0.24389,3.91187 -0.0473,-0.0638 -0.80144,-0.30791 -1.67579,-0.54246 l 0,0 z m 8.816853,-21.34154 c 3.05961,-2.40669 4.58783,-2.49496 7.71546,-0.44566 3.68895,2.4171 4.57284,-0.28416 1.07693,-3.29121 -2.08105,-1.79004 -3.47164,-2.24295 -5.41025,-1.76208 -3.06084,0.75922 -7.10927,4.27464 -7.10927,6.17327 0,1.80589 0.74553,1.67101 3.72713,-0.67432 z m 16.70802,-22.92833 c 2.21134,-2.44351 1.27209,-5.79231 -2.04901,-7.3055 -1.84903,-0.84247 -2.73672,-0.8105 -3.66326,0.13194 -0.96683,0.98342 -0.73052,1.64618 1.12858,3.16533 1.99618,1.63115 2.1095,2.01431 0.75,2.536 -2.75743,1.05813 -4.60146,-0.36837 -4.60146,-3.55958 0,-1.9399 0.71654,-3.47039 2,-4.27193 2.10872,-1.31691 2.72964,-3.76793 0.95455,-3.76793 -2.245,0 -5.95455,4.9555 -5.95455,7.95455 0,6.04401 7.54201,9.41899 11.43515,5.11712 l 0,0 z"
     style="fill:#bcd35f" /><path
     id="path104"
     d="m 8.2646772,313.95713 c -2.14983,-0.93292 -3.25,-2.10371 -3.25,-3.45862 0,-1.12655 0.45,-2.04827 1,-2.04827 0.55,0 1,-0.84659 1,-1.88131 0,-1.03472 1.61804,-3.11545 3.5956398,-4.62385 l 3.59565,-2.74253 2.65435,1.93838 c 1.4599,1.06611 3.51044,3.66281 4.55676,5.77046 2.23258,4.49715 1.34599,6.86564 -2.75326,7.35527 -2.5205,0.30106 -2.64914,0.0976 -2.64914,-4.19098 0,-6.38958 -1.82883,-6.78934 -2.19683,-0.4802 -0.16675,2.85865 -0.75317,5.3268 -1.30317,5.48478 -0.55,0.15797 -2.4625,-0.34744 -4.2499998,-1.12313 z"
     style="fill:#deaa87" /><path
     id="path106"
     d="m 27.408177,311.70024 c -0.29905,-0.9625 -1.13597,-3.40505 -1.85984,-5.42788 -1.21736,-3.40193 -1.15062,-3.83334 0.88957,-5.75 2.7185,-2.5539 3.79639,-2.59191 5.95207,-0.20991 2.69388,2.9767 3.58266,7.42615 2.03973,10.21137 -1.31971,2.38228 -1.34481,2.3582 -1.3796,-1.32358 -0.0195,-2.0625 -0.48543,-3.75 -1.03543,-3.75 -0.55,0 -1,1.8 -1,4 0,2.92532 -0.41144,4 -1.53139,4 -0.84226,0 -1.77606,-0.7875 -2.07511,-1.75 z"
     style="fill:#deaa87" /><path
     id="path108"
     d="m 39.014677,307.0845 c 0,-1.52116 -0.46583,-3.63616 -1.03518,-4.7 -0.80815,-1.51004 -0.70843,-1.93426 0.45468,-1.93426 1.91324,0 3.29204,6.68846 1.7058,8.27469 -0.83374,0.83374 -1.1253,0.40871 -1.1253,-1.64043 z"
     style="fill:#deaa87" /><path
     id="path110"
     d="m 103.21468,315.25024 c -0.66,-0.66 -1.19561,-1.8975 -1.19023,-2.75 0.0169,-2.67836 4.61306,-11.44646 7.29357,-13.91389 l 2.56803,-2.3639 2.88898,2.05714 c 5.01782,3.573 10.57244,13.22891 8.387,14.57958 -0.5137,0.31749 -1.19615,-0.46722 -1.51655,-1.74378 -0.66065,-2.63226 -4.99236,-7.66515 -6.59724,-7.66515 -0.58407,0 0.0369,1.6875 1.38004,3.75 3.47138,5.3308 3.62146,7.46369 0.5864,8.33387 -4.10474,1.17686 -12.51221,1.00392 -13.8,-0.28387 z"
     style="fill:#ffe680" /><path
     id="path112"
     d="m 125.12407,304.20024 c -1.63048,-3.1625 -2.5471,-5.75 -2.03695,-5.75 0.51016,0 0.92756,-0.58899 0.92756,-1.30887 0,-0.71988 0.59812,-2.12686 1.32916,-3.12661 1.08254,-1.48046 1.7175,-1.60992 3.42203,-0.69768 3.62477,1.93992 5.55621,4.32514 4.18735,5.17114 -1.43052,0.88411 -0.68462,4.59714 1.49903,7.46202 1.31589,1.72641 1.66172,1.7948 2.52811,0.5 0.82594,-1.23435 1.0064,-1.11862 1.01901,0.65349 0.0133,1.87138 -0.63483,2.19887 -4.94774,2.5 l -4.96306,0.34651 -2.9645,-5.75 z"
     style="fill:#ffe680" /><path
     id="path114"
     d="m 141.99272,306.20024 c -0.0121,-1.2375 -0.92008,-4.2295 -2.01777,-6.6489 -2.27862,-5.02222 -1.94747,-6.53739 0.58429,-2.67344 1.68343,2.56924 3.30591,11.57234 2.08549,11.57234 -0.34653,0 -0.63993,-1.0125 -0.65201,-2.25 z"
     style="fill:#ffe680" /><path
     id="path116"
     d="m 189.05657,262.52851 c -0.797,-1.4892 -0.3603,-3.41097 1.94022,-8.5384 l 2.9687,-6.61667 2.84164,1.46947 c 3.74393,1.93607 7.03193,8.90908 5.22662,11.08435 -1.75919,2.11969 -3.01907,1.8999 -3.01907,-0.52668 0,-1.12731 -0.68656,-3.37731 -1.52568,-5 -1.81246,-3.50491 -4.03831,-4.02222 -3.01335,-0.70034 1.98157,6.4222 2.23913,9.6511 0.81349,10.19817 -2.78103,1.06718 -5.21454,0.5323 -6.23257,-1.3699 l 0,0 z"
     style="fill:#ffe680" /><path
     id="path118"
     d="m 206.04795,257.78203 c -0.0183,-1.19252 -0.30838,-2.88512 -0.64461,-3.76134 -0.43696,-1.13871 -0.17667,-1.42633 0.91253,-1.00837 0.96703,0.37109 1.66535,-0.0815 1.91102,-1.23866 0.2813,-1.32495 0.54323,-1.05829 0.95814,0.9755 0.38859,1.90478 -0.016,3.50207 -1.2664,5 l -1.83741,2.20108 -0.0333,-2.16821 z"
     style="fill:#ffe680" /><path
     id="path120"
     d="m 210.32613,247.30595 c -0.45872,-0.88716 -1.44419,-2.21832 -2.18992,-2.95813 -1.32248,-1.31197 -1.34404,-1.35582 -0.87524,-1.78008 0.46112,-0.41731 0.52024,-0.3992 1.45541,0.44566 1.27222,1.14937 2.30287,3.07394 2.48934,4.64844 0.082,0.69244 0.10531,1.25857 0.0518,1.25806 -0.0535,-5e-4 -0.47265,-0.72679 -0.93138,-1.61395 l 0,0 z"
     style="fill:#ffe680" /><path
     id="path122"
     d="m 202.46694,249.21609 c -1.2601,-1.50092 -2.29109,-3.05735 -2.29109,-3.45873 0,-1.32243 2.70841,-2.30775 4.17944,-1.52048 1.79999,0.96333 4.53148,5.46063 3.91874,6.45206 -0.28129,0.45514 -1.03333,-0.43422 -1.78289,-2.10842 -0.71302,-1.59258 -1.78926,-2.8956 -2.39163,-2.8956 -1.38804,0 -1.38356,0.92689 0.0176,3.63636 1.59287,3.08025 0.99206,3.04196 -1.65013,-0.10519 z"
     style="fill:#ffe680" /><path
     id="path124"
     d="m 10.987377,314.82516 c -1.3550298,-0.35518 -3.2773898,-1.14603 -4.0789098,-1.67806 -1.36744,-0.90765 -1.94571,-1.90052 -1.78591,-3.06636 0.11605,-0.84671 0.46223,-1.42057 0.95564,-1.58416 0.52558,-0.17426 0.84573,-0.75147 0.99242,-1.78929 0.22071,-1.56145 1.71999,-3.29483 5.0345998,-5.82076 1.08259,-0.825 2.01148,-1.51451 2.06419,-1.53224 0.12642,-0.0425 2.59,1.76441 3.30602,2.42485 2.47947,2.28698 4.75279,6.20378 5.04532,8.69278 0.16094,1.36928 -0.45402,2.52083 -1.68654,3.15819 -0.85783,0.4436 -3.32865,0.80861 -3.92471,0.57979 -0.62572,-0.2402 -0.73982,-0.76262 -0.84863,-3.88587 -0.10377,-2.97826 -0.22748,-4.02053 -0.56752,-4.78125 -0.15509,-0.34696 -0.28495,-0.46875 -0.49983,-0.46875 -0.5819,0 -0.90618,1.1876 -1.22875,4.5 -0.23625,2.42606 -0.4618,3.71788 -0.8084,4.63005 -0.37071,0.97564 -0.4822,1.0108 -1.96899,0.62108 l 0,0 z"
     style="fill:#ffe680" /><path
     id="path126"
     d="m 28.634287,313.09019 c -0.77073,-0.47868 -0.94922,-0.82973 -2.08512,-4.10102 -1.78683,-5.14588 -1.91924,-5.71398 -1.54217,-6.61643 0.33816,-0.80933 2.54257,-2.89726 3.67248,-3.47842 0.55808,-0.28705 1.37392,-0.27352 1.97421,0.0327 1.02152,0.52114 2.63902,2.45204 3.41333,4.07468 0.76531,1.60376 0.93456,2.3861 0.9351,4.32231 3.9e-4,1.44036 -0.0391,1.78514 -0.26939,2.35419 -0.39077,0.96542 -1.29352,2.43823 -1.41813,2.31362 -0.0586,-0.0586 -0.14006,-0.95003 -0.18101,-1.98093 -0.1204,-3.03121 -0.48838,-4.56188 -1.0967,-4.56188 -0.6168,0 -0.91358,1.15695 -1.09023,4.25 -0.13088,2.29157 -0.25576,2.89225 -0.69197,3.32847 -0.36807,0.36806 -1.08411,0.39577 -1.6204,0.0627 l 0,0 z"
     style="fill:#ffe680" /><path
     id="path128"
     d="m 39.320397,308.88486 c -0.0929,-0.11191 -0.19804,-0.82198 -0.25748,-1.73849 -0.14988,-2.31105 -0.33232,-3.1371 -1.07714,-4.87728 -0.51892,-1.21238 -0.50958,-1.59161 0.042,-1.70346 0.50643,-0.1027 1.06336,0.13366 1.38647,0.58843 0.7643,1.07572 1.28258,3.11387 1.28258,5.04371 0,1.38307 -0.16107,1.95156 -0.71752,2.53251 -0.38008,0.39681 -0.44516,0.41208 -0.65887,0.15458 l 0,0 z"
     style="fill:#ffe680" /><path
     id="path130"
     d="m 22.438377,311.74101 c 0.0744,-0.2569 0.10561,-0.50357 0.10621,-0.8397 5.9e-4,-0.33115 -0.0198,-0.52834 -0.0929,-0.8984 -0.33258,-1.68397 -1.46552,-3.96742 -2.95756,-5.96098 -0.51587,-0.68927 -1.02143,-1.27699 -1.58759,-1.84561 -0.49662,-0.49877 -0.75431,-0.72098 -1.53142,-1.32059 -0.78607,-0.60652 -1.87422,-1.37568 -2.10807,-1.4901 l -0.0879,-0.043 -0.0895,0.0588 c -0.20013,0.13151 -1.81752,1.3424 -2.37857,1.78077 -2.5818998,2.01731 -3.9149698,3.44657 -4.4371798,4.75734 -0.10797,0.27101 -0.17039,0.51991 -0.25088,1.00048 -0.018,0.10725 -0.0357,0.19807 -0.0395,0.20182 -0.0105,0.0105 -0.008,-0.0287 0.008,-0.13119 0.008,-0.0516 0.0216,-0.21679 0.0297,-0.36719 0.01,-0.18274 0.0253,-0.31489 0.0468,-0.39843 0.28573,-1.1095 1.69025,-2.8321 3.4160098,-4.18964 0.12032,-0.0946 1.00529,-0.77168 1.96661,-1.50454 1.38092,-1.05273 1.75354,-1.32967 1.77491,-1.31914 0.0362,0.0178 2.59523,1.88823 2.77411,2.02762 0.7943,0.61893 1.75628,1.65771 2.66367,2.87632 0.81063,1.08867 1.45418,2.14227 1.92308,3.14844 0.48042,1.0309 0.77917,1.89969 0.92037,2.67656 0.0738,0.40584 0.0867,0.55152 0.0856,0.96406 -8.3e-4,0.3204 -0.007,0.41467 -0.0351,0.57813 -0.0535,0.30635 -0.0678,0.3507 -0.11507,0.3563 l -0.0399,0.005 0.0356,-0.1229 0,0 z"
     style="fill:#ffe680" /><path
     id="path132"
     d="m 17.124617,314.32402 c -0.25657,-0.0399 -0.43227,-0.12202 -0.5867,-0.27428 -0.23674,-0.2334 -0.36293,-0.60728 -0.43506,-1.28906 -0.0523,-0.494 -0.065,-0.84306 -0.0713,-1.95312 l -0.006,-1.0625 0.0366,0.85156 c 0.0718,1.67188 0.1254,2.3207 0.22837,2.76562 0.1378,0.5954 0.3693,0.83818 0.86322,0.90528 0.67427,0.0916 2.42363,-0.16175 3.3161,-0.48025 0.65302,-0.23304 1.22025,-0.66841 1.59082,-1.22101 0.10375,-0.15473 0.23643,-0.4123 0.29962,-0.5817 0.0355,-0.0951 0.0522,-0.1213 0.0806,-0.12674 0.0198,-0.004 0.0359,-0.002 0.0359,0.004 0,0.0302 -0.057,0.19684 -0.10978,0.32098 -0.41521,0.97645 -1.32612,1.6001 -2.81692,1.92858 -0.7915,0.1744 -1.99395,0.27994 -2.42538,0.21288 l 0,0 z"
     style="fill:#ffe680" /><path
     id="path134"
     d="m 11.984507,315.0865 c -0.64644,-0.0749 -1.63189,-0.33924 -2.6249998,-0.70403 -1.67624,-0.61574 -2.67976,-1.17594 -3.40758,-1.90223 -0.33102,-0.33032 -0.49601,-0.55014 -0.66008,-0.87943 -0.19865,-0.39867 -0.26091,-0.67701 -0.25958,-1.16044 0.002,-0.75965 0.20635,-1.41745 0.54599,-1.75823 0.14216,-0.14264 0.22917,-0.19142 0.37984,-0.21297 0.0575,-0.008 0.13537,-0.0218 0.17305,-0.0302 0.11008,-0.0245 0.0918,-0.005 -0.0458,0.0476 -0.41847,0.16138 -0.69664,0.51864 -0.86651,1.11286 -0.10157,0.35531 -0.14624,0.75285 -0.11811,1.0511 0.0323,0.34197 0.0925,0.56308 0.2349,0.86217 0.26105,0.54825 0.73987,1.06514 1.42844,1.54198 0.24492,0.16962 0.38491,0.25334 0.68137,0.40751 1.09821,0.5711 2.5946098,1.13473 3.8359398,1.44483 0.84897,0.21208 1.13001,0.20527 1.34384,-0.0326 0.0869,-0.0967 0.14356,-0.19833 0.24318,-0.43637 0.41026,-0.98034 0.61612,-2.08257 0.89694,-4.80242 0.11694,-1.13256 0.12022,-1.13743 0.0474,-0.0703 -0.0772,1.13157 -0.1563,1.85663 -0.2905,2.66406 -0.2873,1.72865 -0.66971,2.76951 -1.04726,2.85048 -0.0715,0.0153 -0.37931,0.0195 -0.49046,0.007 l 0,0 z"
     style="fill:#ffe680" /><path
     id="path136"
     d="m 29.188167,313.40866 c -0.66176,-0.13938 -1.31022,-0.69023 -1.64927,-1.401 -0.0336,-0.0704 -0.1285,-0.33409 -0.21091,-0.58594 -0.39342,-1.20237 -0.9889,-2.93804 -1.60181,-4.66885 -0.4203,-1.18691 -0.49611,-1.40831 -0.63129,-1.84375 -0.25957,-0.83616 -0.34803,-1.31252 -0.33212,-1.78854 0.0151,-0.45289 0.11874,-0.77671 0.37357,-1.16765 0.0989,-0.1518 0.32371,-0.43586 0.43957,-0.55553 0.0689,-0.0711 0.0874,-0.082 0.13984,-0.082 l 0.0604,0 -0.0572,0.0664 c -0.59282,0.68883 -0.75969,0.96649 -0.85145,1.41677 -0.0357,0.17514 -0.0424,0.48379 -0.0152,0.70473 0.0428,0.34829 0.17747,0.90665 0.38248,1.58553 0.2072,0.68607 0.83898,2.56226 1.47325,4.375 0.88785,2.53751 1.14767,3.07148 1.69132,3.47592 0.24593,0.18296 0.45597,0.28744 0.6994,0.34791 0.18939,0.0471 0.52038,0.0471 0.69254,2e-5 0.18315,-0.05 0.32665,-0.13003 0.45925,-0.25598 0.27013,-0.25659 0.40429,-0.57123 0.50615,-1.18699 0.0771,-0.46638 0.10452,-0.76113 0.20519,-2.20901 l 0.0445,-0.64062 -0.007,0.71875 c -0.008,0.82787 -0.0304,1.24498 -0.0949,1.75 -0.13463,1.05406 -0.41708,1.64635 -0.89199,1.87047 -0.21452,0.10124 -0.55243,0.13172 -0.82465,0.0744 l 0,0 z"
     style="fill:#ffe680" /><path
     id="path138"
     d="m 33.268287,312.12707 c -0.0806,-0.0634 -0.13547,-0.34525 -0.1658,-0.85219 -0.0265,-0.44199 -0.0597,-2.55923 -0.0377,-2.39701 0.003,0.0215 0.0267,0.45391 0.0528,0.96094 0.0655,1.27222 0.1179,1.91246 0.17219,2.10547 0.0313,0.11136 0.10975,0.0604 0.30093,-0.19556 0.41004,-0.54896 0.97615,-1.59202 1.20619,-2.22241 0.16671,-0.45685 0.21051,-0.89914 0.21041,-2.125 -1.4e-4,-1.70035 -0.11963,-2.46278 -0.55464,-3.53907 -0.37424,-0.92591 -0.78153,-1.67999 -1.30596,-2.4179 l -0.093,-0.13082 0.0669,0.005 0.0669,0.005 0.13764,0.20313 c 0.6193,0.91395 1.14552,2.03518 1.44777,3.08481 0.55556,1.9293 0.53682,3.76865 -0.0537,5.27456 -0.123,0.31364 -0.35445,0.75516 -0.78632,1.5 -0.24738,0.42666 -0.44502,0.69569 -0.55155,0.75078 -0.0569,0.0294 -0.0647,0.0288 -0.11316,-0.009 l 0,0 z"
     style="fill:#ffe680" /><path
     id="path140"
     d="m 25.677887,301.28774 c 0.0211,-0.0395 0.60041,-0.60561 0.93187,-0.91071 1.21265,-1.11621 1.97933,-1.61549 2.71069,-1.76526 0.23156,-0.0474 0.60853,-0.0382 0.82992,0.0204 0.54379,0.14379 1.05795,0.49152 1.74862,1.18261 0.45984,0.46013 0.77312,0.81795 1.12227,1.28186 0.13892,0.18458 0.15464,0.21159 0.12582,0.21614 -0.0704,0.0111 -0.10532,-0.0145 -0.20322,-0.14926 -0.3603,-0.4959 -0.93125,-1.14577 -1.34766,-1.53393 -0.74832,-0.69756 -1.25721,-0.94039 -1.97106,-0.94056 -0.42984,-10e-5 -0.73594,0.0752 -1.0602,0.26086 -0.64984,0.37204 -1.46279,1.03628 -2.34423,1.91539 -0.41417,0.41308 -0.45567,0.45011 -0.50445,0.45011 -0.046,0 -0.0512,-0.004 -0.0384,-0.0276 z"
     style="fill:#ffe680" /><path
     id="path142"
     d="m 39.372017,309.07969 c -0.10588,-0.0678 -0.19881,-0.26517 -0.25382,-0.53902 -0.0547,-0.27247 -0.0794,-0.61044 -0.0866,-1.18624 l -0.007,-0.54687 0.0378,0.45312 c 0.0631,0.756 0.13162,1.26743 0.2025,1.51105 0.0412,0.14172 0.19352,0.29364 0.29435,0.29364 0.0658,0 0.21728,-0.11454 0.38382,-0.2902 0.43617,-0.46006 0.61408,-0.83387 0.69846,-1.46761 0.0769,-0.57775 0.0759,-1.53489 -0.002,-2.29688 -0.14984,-1.45671 -0.58542,-2.8935 -1.12768,-3.71978 -0.20553,-0.31317 -0.39285,-0.48668 -0.66767,-0.61842 -0.19698,-0.0944 -0.34178,-0.12694 -0.57031,-0.12805 -0.45891,-0.002 -0.67188,0.15085 -0.67188,0.48299 0,0.23177 0.0981,0.55868 0.35993,1.19951 0.0871,0.21328 0.15583,0.39039 0.15265,0.39357 -0.008,0.008 -0.36764,-0.71057 -0.44836,-0.89454 -0.28049,-0.63933 -0.26659,-0.99417 0.0452,-1.15216 0.19445,-0.0985 0.64819,-0.14712 0.89182,-0.0955 0.7295,0.15464 1.44381,1.31391 1.88069,3.05221 0.22255,0.88552 0.33686,1.77898 0.33686,2.63286 0,1.04671 -0.16611,1.81212 -0.50492,2.32659 -0.0977,0.14841 -0.34179,0.39317 -0.49743,0.49886 -0.18197,0.12357 -0.34361,0.15649 -0.44608,0.0908 z"
     style="fill:#ffe680" /><path
     id="path144"
     d="m 96.858617,209.8459 c -0.03768,0.1677 -0.0456,0.16577 -0.0625,0.25 -0.008,0.0409 0,0.0833 0,0.125 v 0.3125 0.0625 c 0,0.0208 -0.0147,0.0478 0,0.0625 0.0147,0.0147 0.0478,-0.0147 0.0625,0 0.0295,0.0295 -0.0186,0.0877 0,0.125 0.0132,0.0264 0.0493,0.0362 0.0625,0.0625 0.009,0.0186 0,0.0417 0,0.0625 v 0.0625 0.3125 c 0,0.0417 -0.0132,0.0855 0,0.125 0.0147,0.0442 0.0478,0.0808 0.0625,0.125 0.007,0.0198 0,0.0417 0,0.0625 v 0.125 0.3125 0.0625 c 0,0.0208 -0.009,0.0439 0,0.0625 0.0132,0.0264 0.0493,0.0362 0.0625,0.0625 0.009,0.0186 -0.009,0.0439 0,0.0625 0.0132,0.0264 0.0493,0.0362 0.0625,0.0625 0.009,0.0186 -0.0147,0.0478 0,0.0625 0.0147,0.0147 0.0478,-0.0147 0.0625,0 0.0295,0.0295 -0.0186,0.0877 0,0.125 0.0132,0.0264 0.0493,0.0362 0.0625,0.0625 0.009,0.0186 -0.009,0.0439 0,0.0625 0.0132,0.0264 0.0493,0.0362 0.0625,0.0625 0.009,0.0186 -0.009,0.0439 0,0.0625 0.0132,0.0264 0.0493,0.0362 0.0625,0.0625 0.009,0.0186 -0.009,0.0439 0,0.0625 0.0132,0.0264 0.0493,0.0362 0.0625,0.0625 0.009,0.0186 -0.0147,0.0478 0,0.0625 0.0147,0.0147 0.0478,-0.0147 0.0625,0 0.0128,0.0128 -0.0124,0.16272 0,0.1875 0.0132,0.0264 0.0493,0.0362 0.0625,0.0625 0.009,0.0186 -0.009,0.0439 0,0.0625 0.0132,0.0264 0.0493,0.0362 0.0625,0.0625 0.0333,0.0667 -0.0333,0.0583 0,0.125 0.0132,0.0264 0.0493,0.0362 0.0625,0.0625 0.009,0.0186 -0.0147,0.0478 0,0.0625 0.0147,0.0147 0.0478,-0.0147 0.0625,0 0.0147,0.0147 -0.009,0.0439 0,0.0625 0.0132,0.0264 0.0493,0.0362 0.0625,0.0625 0.0553,0.11064 -0.093,0.0214 0.0625,0.125 0.11867,0.0791 0.17817,0.0625 0.3125,0.0625 0.0417,0 0.0855,-0.0132 0.125,0 0.028,0.009 0.0361,0.0493 0.0625,0.0625 0.019,0.01 0.15936,0 0.1875,0 h 0.375 c 0.0327,0 0.23357,0.008 0.25,0 0.0264,-0.0132 0.0361,-0.0493 0.0625,-0.0625 0.0331,-0.0166 0.26998,0.0142 0.3125,0 0.0279,-0.009 0.0361,-0.0493 0.0625,-0.0625 0.0186,-0.009 0.0478,0.0147 0.0625,0 0.0147,-0.0147 -0.0147,-0.0478 0,-0.0625 0.0147,-0.0147 0.0439,0.009 0.0625,0 0.0264,-0.0132 0.0361,-0.0493 0.0625,-0.0625 0.0186,-0.009 0.0478,0.0147 0.0625,0 0.0147,-0.0147 -0.009,-0.0439 0,-0.0625 0.0375,-0.075 0.150003,-0.1125 0.187503,-0.1875 0.009,-0.0186 -0.0147,-0.0478 0,-0.0625 0.0147,-0.0147 0.0478,0.0147 0.0625,0 0.0147,-0.0147 -0.0147,-0.0478 0,-0.0625 0.0147,-0.0147 0.0478,0.0147 0.0625,0 0.0147,-0.0147 0.009,-0.0439 0,-0.0625 -0.0132,-0.0263 -0.0417,-0.0417 -0.0625,-0.0625 -0.0417,-0.0417 -0.0833,-0.0833 -0.125003,-0.125 -0.0417,-0.0417 -0.0745,-0.0947 -0.125,-0.125 -0.0565,-0.0339 -0.13479,-0.023 -0.1875,-0.0625 -0.0373,-0.0279 -0.0296,-0.0921 -0.0625,-0.125 -0.0329,-0.0329 -0.0877,-0.0345 -0.125,-0.0625 -0.0471,-0.0354 -0.076,-0.0923 -0.125,-0.125 -0.0173,-0.0116 -0.0439,0.009 -0.0625,0 -0.0264,-0.0132 -0.0361,-0.0493 -0.0625,-0.0625 -0.0186,-0.009 -0.0439,0.009 -0.0625,0 -0.0264,-0.0132 -0.0361,-0.0493 -0.0625,-0.0625 -0.0186,-0.009 -0.0439,0.009 -0.0625,0 -0.0264,-0.0132 -0.038,-0.0462 -0.0625,-0.0625 -0.0571,-0.0381 -0.15167,-0.0533 -0.1875,-0.125 -0.009,-0.0186 0.009,-0.0439 0,-0.0625 -0.0264,-0.0527 -0.0986,-0.0723 -0.125,-0.125 -0.009,-0.0186 0.0147,-0.0478 0,-0.0625 -0.0147,-0.0147 -0.0478,0.0147 -0.0625,0 -0.0147,-0.0147 0.009,-0.0439 0,-0.0625 -0.0132,-0.0263 -0.0532,-0.0345 -0.0625,-0.0625 0,-0.28452 0.0295,-0.004 -0.0625,-0.1875 -0.0186,-0.0373 0.0186,-0.0877 0,-0.125 -0.0111,-0.0222 -0.11389,-0.10278 -0.125,-0.125 -0.009,-0.0186 0.009,-0.0439 0,-0.0625 -0.0132,-0.0263 -0.0493,-0.0361 -0.0625,-0.0625 -0.009,-0.0186 0.009,-0.0439 0,-0.0625 -0.0132,-0.0263 -0.0493,-0.0361 -0.0625,-0.0625 -0.0186,-0.0373 0.0186,-0.0877 0,-0.125 -0.20728,-0.20729 0.0295,0.0589 -0.0625,-0.125 -0.0264,-0.0527 -0.0923,-0.076 -0.125,-0.125 -0.1184,0.007 -0.0417,-0.14584 -0.0625,-0.1875 -0.0132,-0.0263 -0.0493,-0.0361 -0.0625,-0.0625 -0.009,-0.0186 0.0147,-0.0478 0,-0.0625 -0.0147,-0.0147 -0.0532,0.0186 -0.0625,0 -0.0186,-0.0373 0.0132,-0.0855 0,-0.125 -0.003,-0.008 -0.17677,-0.18214 -0.1875,-0.1875 -0.0186,-0.009 -0.0439,0.009 -0.0625,0 -0.0252,-0.0126 -0.24812,-0.24813 -0.25,-0.25 -0.0208,-0.0208 -0.0493,-0.0361 -0.0625,-0.0625 -0.0528,-0.10559 -0.0556,-0.26156 -0.125,-0.25 -0.11066,0.0184 -0.25026,0.21835 -0.3125,0.125 0.0625,-0.10417 0.195312,-0.0208 0.257812,-0.125 -0.0208,0 -0.03124,-0.14223 -0.0625,-0.1875 -0.01181,-0.0171 -0.04951,-0.0625 -0.07031,-0.0625 -0.28254,0 -0.09037,0.25202 -0.125,0.375 -0.05203,0.11697 0.0073,0.10987 0,0 z"
     style="fill:#000000;fill-opacity:1;stroke:#000000;stroke-width:0.1;stroke-linecap:butt;stroke-linejoin:miter"
     sodipodi:nodetypes="ccscsssscscsccsccsccccssscccccccssscccscssccssccsscsccssccsccsssscssssssscccccccccsscccsccccscscccssccccssccsscc" /><path
     id="path146"
     d="m 94.608617,169.0334 c 0.0619,0.16959 0.0625,0.28059 0.0625,0.4375 0,0.0208 -0.009,0.0439 0,0.0625 0.0132,0.0263 0.0493,0.0361 0.0625,0.0625 0.009,0.0186 -0.007,0.0427 0,0.0625 0.0147,0.0442 0.0478,0.0808 0.0625,0.125 0.007,0.0198 0,0.0417 0,0.0625 0,0.0417 0,0.0833 0,0.125 0,0.14583 0,0.29167 0,0.4375 0,0.22917 0,0.45833 0,0.6875 0,0.0589 0.0119,0.27694 0,0.3125 -0.009,0.0279 -0.0493,0.0361 -0.0625,0.0625 -0.009,0.0186 0,0.0417 0,0.0625 0,0.0417 0.0132,0.0855 0,0.125 -0.009,0.0279 -0.0532,0.0345 -0.0625,0.0625 -0.0132,0.0395 0.0132,0.0855 0,0.125 -0.009,0.0279 -0.0461,0.038 -0.0625,0.0625 -0.0258,0.0388 -0.0367,0.0862 -0.0625,0.125 -0.0163,0.0245 -0.0461,0.038 -0.0625,0.0625 -0.0258,0.0388 -0.0367,0.0862 -0.0625,0.125 -0.0163,0.0245 -0.0493,0.0361 -0.0625,0.0625 -0.009,0.0186 0.009,0.0439 0,0.0625 -0.0277,0.0554 -0.14957,0.1306 -0.1875,0.1875 -0.0258,0.0388 -0.0367,0.0862 -0.0625,0.125 -0.0163,0.0245 -0.0417,0.0417 -0.0625,0.0625 -0.0208,0.0208 -0.038,0.0462 -0.0625,0.0625 -0.0388,0.0258 -0.0862,0.0367 -0.125,0.0625 -0.0539,0.0359 -0.13868,0.13868 -0.1875,0.1875 -0.0208,0.0208 -0.0417,0.0417 -0.0625,0.0625 -0.0208,0.0208 -0.0493,0.0361 -0.0625,0.0625 -0.009,0.0186 0.009,0.0439 0,0.0625 -0.0132,0.0263 -0.0493,0.0361 -0.0625,0.0625 -0.0186,0.0373 0.0186,0.0877 0,0.125 -0.0132,0.0263 -0.0493,0.0361 -0.0625,0.0625 -0.009,0.0186 0.009,0.0439 0,0.0625 -0.008,0.0163 -0.11135,0.0761 -0.0625,0.125 0.0147,0.0147 0.0439,-0.009 0.0625,0 0.20729,0.20728 -0.0589,-0.0295 0.125,0.0625 0.0527,0.0263 0.0723,0.0986 0.125,0.125 0.0186,0.009 0.0427,-0.007 0.0625,0 0.0442,0.0147 0.0808,0.0478 0.125,0.0625 0.0395,0.0132 0.0877,-0.0186 0.125,0 0.0264,0.0132 0.0361,0.0493 0.0625,0.0625 0.0186,0.009 0.0478,-0.0147 0.0625,0 0.0147,0.0147 -0.0147,0.0478 0,0.0625 0.0295,0.0295 0.0877,-0.0186 0.125,0 0.20729,0.20728 -0.0589,-0.0295 0.125,0.0625 0.0264,0.0132 0.0361,0.0493 0.0625,0.0625 0.0373,0.0186 0.0955,-0.0295 0.125,0 0.0147,0.0147 -0.0115,0.0452 0,0.0625 0.24159,0.36238 0.0301,0.0463 0.1875,0.125 0.0264,0.0132 0.0417,0.0417 0.0625,0.0625 0.20119,0.20118 -0.092,-0.12143 0.0625,0.1875 0.009,0.0186 0.0478,-0.0147 0.0625,0 0.0147,0.0147 -0.009,0.0439 0,0.0625 0.0132,0.0263 0.0493,0.0361 0.0625,0.0625 0.0186,0.0373 -0.0295,0.0955 0,0.125 0.12932,0.12931 -0.005,-0.19761 0.125,0.0625 0.009,0.0186 -0.0147,0.0478 0,0.0625 0.0147,0.0147 0.0625,0.0208 0.0625,0 0,-0.0295 -0.0833,-0.0417 -0.0625,-0.0625 0.0295,-0.0295 0.0855,0.0132 0.125,0 0.0139,-0.005 0.24085,-0.2317 0.25,-0.25 0.077,-0.15394 -0.18142,0.0564 0.0625,-0.1875 0.0147,-0.0147 0.0478,0.0147 0.0625,0 0.0147,-0.0147 -0.009,-0.0439 0,-0.0625 0.0264,-0.0527 0.0986,-0.0723 0.125,-0.125 0.009,-0.0186 -0.009,-0.0439 0,-0.0625 0.0132,-0.0264 0.0417,-0.0417 0.0625,-0.0625 0.0208,-0.0208 0.0361,-0.0493 0.0625,-0.0625 0.0186,-0.009 0.0478,0.0147 0.0625,0 0.0147,-0.0147 -0.0147,-0.0478 0,-0.0625 0.0295,-0.0295 0.0877,0.0186 0.125,0 0.075,-0.0375 0.1125,-0.15 0.1875,-0.1875 0.0186,-0.009 0.0439,0.009 0.0625,0 0.0264,-0.0132 0.0361,-0.0493 0.0625,-0.0625 0.0186,-0.009 0.0439,0.009 0.0625,0 0.0264,-0.0132 0.0361,-0.0493 0.0625,-0.0625 0.0373,-0.0186 0.0877,0.0186 0.125,0 0.0264,-0.0132 0.0361,-0.0493 0.0625,-0.0625 0.0186,-0.009 0.0478,0.0147 0.0625,0 0.0147,-0.0147 -0.0147,-0.0478 0,-0.0625 0.0295,-0.0295 0.0955,0.0295 0.125,0 0.12932,-0.12932 -0.19761,0.005 0.0625,-0.125 0.0186,-0.009 0.0439,0.009 0.0625,0 0.0264,-0.0132 0.0361,-0.0493 0.0625,-0.0625 0.0186,-0.009 0.0439,0.009 0.0625,0 0.0264,-0.0132 0.0417,-0.0833 0.0625,-0.0625 0.0208,0.0208 -0.0833,0.0833 -0.0625,0.0625 0.0417,-0.0417 0.076,-0.0923 0.125,-0.125 0.0173,-0.0116 0.0478,0.0147 0.0625,0 0.0147,-0.0147 -0.0147,-0.0478 0,-0.0625 0.0312,-0.0312 0.15625,0.0312 0.1875,0 0.0147,-0.0147 -0.0147,-0.0478 0,-0.0625 0.0147,-0.0147 0.0478,0.0147 0.0625,0 0.0147,-0.0147 -0.0147,-0.0478 0,-0.0625 0.0147,-0.0147 0.0478,0.0147 0.0625,0 0.0147,-0.0147 0,-0.0417 0,-0.0625 0,-0.0327 0.008,-0.23357 0,-0.25 -0.0132,-0.0264 -0.0417,-0.0417 -0.0625,-0.0625 -0.0208,-0.0208 -0.038,-0.0462 -0.0625,-0.0625 -0.0388,-0.0258 -0.0862,-0.0367 -0.125,-0.0625 -0.0539,-0.036 -0.13868,-0.13868 -0.1875,-0.1875 -0.0208,-0.0208 -0.0417,-0.0417 -0.0625,-0.0625 -0.0208,-0.0208 -0.0493,-0.0362 -0.0625,-0.0625 -0.009,-0.0186 0.0147,-0.0478 0,-0.0625 -0.0147,-0.0147 -0.0478,0.0147 -0.0625,0 -0.0128,-0.0128 0.0124,-0.16272 0,-0.1875 -0.0132,-0.0264 -0.0493,-0.0362 -0.0625,-0.0625 -0.009,-0.0186 0.009,-0.0439 0,-0.0625 -0.0132,-0.0264 -0.0493,-0.0362 -0.0625,-0.0625 -0.0186,-0.0373 0.0295,-0.0955 0,-0.125 -0.0147,-0.0147 -0.0532,0.0186 -0.0625,0 -0.0186,-0.0373 0.0132,-0.0855 0,-0.125 -0.009,-0.028 -0.0417,-0.0417 -0.0625,-0.0625 -0.0208,-0.0417 -0.0512,-0.0798 -0.0625,-0.125 0,-0.28452 0.0295,-0.004 -0.0625,-0.1875 -0.009,-0.0186 0.0147,-0.0478 0,-0.0625 -0.0147,-0.0147 -0.0478,0.0147 -0.0625,0 -0.0147,-0.0147 0.0147,-0.0478 0,-0.0625 -0.0147,-0.0147 -0.0439,0.009 -0.0625,0 -0.0264,-0.0132 -0.0417,-0.0417 -0.0625,-0.0625 -0.0208,-0.0208 -0.0417,-0.0417 -0.0625,-0.0625 -0.0329,-0.0329 -0.17081,-0.15412 -0.1875,-0.1875 -0.009,-0.0186 0.0147,-0.0478 0,-0.0625 -0.12931,-0.12932 0.005,0.19761 -0.125,-0.0625 -0.009,-0.0186 0.009,-0.0439 0,-0.0625 -0.0132,-0.0264 -0.0417,-0.0417 -0.0625,-0.0625 -0.0208,-0.0208 -0.0361,-0.0493 -0.0625,-0.0625 -0.0186,-0.009 -0.0439,0.009 -0.0625,0 -0.20728,-0.20729 0.0589,0.0295 -0.125,-0.0625 -0.0717,-0.0358 -0.0869,-0.13041 -0.125,-0.1875 0.006,-0.12382 -0.0921,-0.0296 -0.125,-0.0625 -0.0147,-0.0147 0.0147,-0.0478 0,-0.0625 -0.0147,-0.0147 -0.0478,0.0147 -0.0625,0 -0.0147,-0.0147 0,-0.0417 0,-0.0625 -0.0208,-0.0208 -0.038,-0.0462 -0.0625,-0.0625 -0.45316,-0.22658 0.0988,0.0659 -0.1875,-0.125 -0.0571,-0.0381 -0.15167,-0.0534 -0.1875,-0.125 -0.009,-0.0186 0.009,-0.0439 0,-0.0625 -0.0132,-0.0264 -0.0532,-0.0346 -0.0625,-0.0625 -0.0132,-0.0395 0.0132,-0.0855 0,-0.125 -0.009,-0.028 -0.0493,-0.0362 -0.0625,-0.0625 -0.0186,-0.0373 0.026,-0.0925 0,-0.125 -0.0736,-0.092 -0.16666,-0.16667 -0.25,-0.25 z"
     style="fill:#000000;stroke:#000000;stroke-width:0.1;stroke-linecap:round;stroke-linejoin:round;fill-opacity:1" /><path
     id="path148"
     d="m 54.280427,187.63812 c -3.60958,-5.62505 -6.72223,-8.73844 -9.91842,-9.92079 l -2.29399,-0.8486 3.04233,-4.19981 c 1.67328,-2.30989 5.59071,-5.89255 8.7054,-7.96146 5.32575,-3.53759 6.2,-3.78287 14.67666,-4.11767 5.26319,-0.20788 10.69977,0.14918 13.06612,0.85816 5.36229,1.60658 12.59909,6.66006 12.5961,8.79589 -0.001,0.93608 -1.83448,4.39907 -4.07371,7.69555 -2.23924,3.29647 -4.31942,7.23397 -4.62262,8.74999 -0.30321,1.51603 -0.60753,2.76033 -0.67628,2.76511 -0.0688,0.005 -5.75,0.67587 -12.625,1.49131 -6.875,0.81544 -13.01559,1.48653 -13.64576,1.49131 -0.63016,0.005 -2.53404,-2.15477 -4.23083,-4.79899 z"
     style="fill:#80b3ff;stroke:#ffffff;stroke-width:0.1;stroke-linecap:round;stroke-linejoin:round" /><path
     id="path150"
     d="m 56.657017,222.97686 c -2.2,-1.3861 -4.40449,-2.65746 -4.89886,-2.82524 -0.49437,-0.16778 0.26177,-3.88273 1.68032,-8.25544 1.41854,-4.37271 2.86815,-9.39861 3.22134,-11.16867 0.72225,-3.61956 0.10271,-3.42655 16.9972,-5.2951 5.5,-0.60831 10.80081,-1.3387 11.77959,-1.62309 1.41672,-0.41165 2.5022,1.04691 5.32338,7.15298 1.94909,4.21854 3.39827,7.77325 3.22041,7.89936 -0.17786,0.12611 -2.41924,1.00544 -4.98085,1.95408 -4.41974,1.63676 -12.89076,9.27474 -14.0099,12.63217 -0.33023,0.99068 -2.53899,1.50711 -7.40166,1.73059 -6.00349,0.27591 -7.46624,-0.0187 -10.93097,-2.20164 z"
     style="fill:#ff9955;stroke:#ffffff;stroke-width:0.1;stroke-linecap:round;stroke-linejoin:round" /><path
     id="path152"
     d="m 57.993577,264.83332 c -0.0899,-0.48814 -0.20239,-3.53066 -0.25,-6.76116 -0.0756,-5.12906 -0.4216,-6.12612 -2.72959,-7.86538 -3.62827,-2.73422 -11.18006,-2.65713 -16.72308,0.17071 -3.48681,1.77884 -4.12216,2.52991 -3.5814,4.2337 0.47254,1.48884 0.2764,1.94142 -0.69755,1.60955 -1.452,-0.49476 -1.65055,-5.64932 -0.3669,-9.52494 0.60749,-1.83415 0.37379,-2.25 -1.26442,-2.25 -1.1053,0 -2.28279,-0.71181 -2.61663,-1.58179 -0.96955,-2.5266 -0.70217,-6.41821 0.44097,-6.41821 1.8896,0 5.89151,5.42946 5.34377,7.25 -0.721,2.39646 1.83473,2.26223 4.07574,-0.21406 4.52169,-4.99641 16.27002,-6.40364 22.0181,-2.63735 2.98206,1.95392 3.36843,6.62173 1.01443,12.25565 -0.825,1.9745 -1.5,4.93753 -1.5,6.58451 0,2.6325 0.272,2.91546 2.25,2.34061 1.2375,-0.35965 6.33781,-1.06849 11.33403,-1.5752 4.99622,-0.50672 11.22966,-1.40215 13.85209,-1.98985 4.68392,-1.04969 10.56388,-3.58775 10.56388,-4.55986 0,-0.27181 -1.07366,-2.19497 -2.3859,-4.2737 -6.48792,-10.27753 -8.91323,-22.01628 -5.76434,-27.90002 1.30643,-2.44111 6.63291,-4.26664 12.473923,-4.27515 4.35084,-0.006 18.48143,4.43725 20.54464,6.4606 1.9652,1.92724 0.52376,3.53293 -3.17734,3.53939 -7.73472,0.0135 -21.393853,5.96239 -22.339283,9.72927 -0.86526,3.44746 0.42137,8.65167 3.123273,12.63314 l 2.42208,3.56913 -2.69853,1.90086 c -5.237143,3.68907 -10.879983,6.01515 -18.248323,7.52226 -9.52904,1.94907 -24.89955,3.18985 -25.11364,2.02729 l 0,0 z"
     style="fill:#ff9955;stroke:#ffffff;stroke-width:0.1;stroke-linecap:round;stroke-linejoin:round" /><path
     id="path154"
     d="m 114.68374,214.82967 c -1.2141,-1.2141 -1.54282,-3.142 -1.32143,-7.75 0.28864,-6.00752 0.3565,-6.13994 3.29471,-6.42858 l 3,-0.29472 0,8.04472 c 0,6.86455 -0.24625,8.04471 -1.67858,8.04471 -0.92321,0 -2.40583,-0.72726 -3.2947,-1.61613 z"
     style="fill:#ff9955;stroke:#ffffff;stroke-width:0.1;stroke-linecap:round;stroke-linejoin:round" /><path
     id="path156"
     d="m 41.365977,218.70529 -4.88394,-0.38001 0.53673,-14.68974 c 0.53731,-14.7052 2.50724,-24.18974 5.02419,-24.18974 1.67983,0 10.2723,9.53642 11.70164,12.98716 1.1001,2.65587 0.93917,4.02654 -1.26542,10.77784 -1.38919,4.25425 -2.83614,9.6475 -3.21543,11.985 -0.38182,2.35307 -1.20831,4.16955 -1.85173,4.06975 -0.63915,-0.0991 -3.35987,-0.35125 -6.04604,-0.56026 l 0,0 z"
     style="fill:#dd55ff;stroke:#ffffff;stroke-width:0.1;stroke-linecap:round;stroke-linejoin:round" /><path
     id="path158"
     d="m 99.749917,211.9458 c -0.73588,-1.375 -1.71192,-2.5 -2.16898,-2.5 -0.45706,0 -0.84286,-0.7875 -0.85733,-1.75 -0.0145,-0.9625 -1.77131,-5.03745 -3.90408,-9.05545 -3.51804,-6.62773 -3.78366,-7.64629 -2.86333,-10.97948 1.52474,-5.52215 5.81983,-13.21507 7.3782,-13.21507 1.91356,0 4.934833,6.31103 7.869783,16.43892 1.36809,4.72099 2.95055,9.44897 3.51659,10.50661 0.56603,1.05764 1.02915,4.42757 1.02915,7.48873 l 0,5.56574 -4.33102,0 c -3.5963,0 -4.558,-0.42411 -5.668983,-2.5 z"
     style="fill:#ffdd55;stroke:#ffffff;stroke-width:0.1;stroke-linecap:round;stroke-linejoin:round" /><path
     id="path160"
     d="m 35.826077,236.62967 c -0.83626,-2.01891 -0.8706,-3.59433 -0.12132,-5.5651 0.57484,-1.51193 1.04516,-4.33423 1.04516,-6.27177 l 0,-3.5228 4.25,0.67173 c 8.24827,1.30366 12.00497,2.92779 16.85184,7.28554 2.69399,2.42212 4.89816,4.69966 4.89816,5.0612 0,0.36153 -3.9375,0.65733 -8.75,0.65733 -7.27936,0 -9.38988,0.37816 -12.55716,2.25 -2.09394,1.2375 -3.95184,2.25 -4.12868,2.25 -0.17683,0 -0.84643,-1.26726 -1.488,-2.81613 z"
     style="fill:#55ff99;stroke:#ffffff;stroke-width:0.1;stroke-linecap:round;stroke-linejoin:round" /><path
     id="path162"
     d="m 67.807347,254.24556 c 1.35484,-4.72405 1.10423,-12.00271 -0.48543,-14.09894 -1.22359,-1.6135 -0.66772,-2.5423 5.38636,-9 3.71292,-3.96045 8.18599,-8.85775 9.94015,-10.88289 2.97353,-3.43287 10.21877,-7.81793 12.91721,-7.81793 2.36703,0 1.09775,1.84852 -2.56572,3.7366 -2.0625,1.06297 -4.38896,3.24039 -5.16992,4.83871 -3.48276,7.1279 -2.18991,18.70627 3.0031,26.89479 2.02297,3.1899 2.53189,4.72404 1.66511,5.01952 -3.89052,1.32627 -14.07679,3.3983 -19.44086,3.95454 l -6.19257,0.64216 0.94257,-3.28656 0,0 z"
     style="fill:#ff5555;stroke:#ffffff;stroke-width:0.1;stroke-linecap:round;stroke-linejoin:round" /><path
     id="path164"
     d="m 64.654987,228.63392 c -1.74633,-1.74379 -1.23429,-1.46245 -4.81095,-4.13473 l 15.36794,-1.7173 c -0.28231,0.0315 -2.08749,6.5792 -4.11491,9.02382 l -3.13112,3.77545 c -1.10365,-2.37825 -0.65785,-3.56899 -3.31096,-6.94724 z"
     style="fill:#ff9955;stroke:#ffffff;stroke-width:0;stroke-linecap:round;stroke-linejoin:round" /><path
     id="path166"
     d="m 80.094737,268.87952 c -0.82462,-0.9936 -0.16968,-1.3279 3.57463,-1.8246 5.44271,-0.722 7.58217,0.57425 3.37086,2.04232 -3.78835,1.32063 -5.719,1.26011 -6.94549,-0.21772 z"
     style="fill:#80b3ff;stroke:#ffffff;stroke-width:0;stroke-linecap:round;stroke-linejoin:round" /><path
     id="path168"
     d="m 91.230387,266.12064 c -0.90704,-0.57367 -0.62007,-0.75229 3.54485,-2.2064 0.40661,-0.14196 1.04044,0.10474 1.4085,0.54823 0.50348,0.60666 0.27419,0.98632 -0.9259,1.53312 -1.91321,0.87172 -2.8032,0.89935 -4.02745,0.12505 z"
     style="fill:#ffdd55" /><path
     id="path170"
     d="m 70.563937,270.26781 -1.39043,-1.48004 3.5655,-0.36799 c 3.15581,-0.32571 3.69344,-0.21 4.67895,1.00705 1.38508,1.71051 0.64706,2.29807 -2.90331,2.31141 -1.88515,0.007 -2.92693,-0.38066 -3.95071,-1.47043 z"
     style="fill:#55ff99" /><path
     id="path172"
     d="m 98.050897,263.35007 c -0.75487,-0.41807 -0.72831,-0.44503 1.57046,-1.59421 1.286083,-0.64292 2.586543,-1.38795 2.889923,-1.65563 0.6966,-0.61463 0.94964,-0.37395 0.69086,0.65711 -0.13705,0.54607 -0.80235,1.16088 -2.0794,1.92162 -2.123333,1.26486 -2.034713,1.2455 -3.071843,0.67111 z"
     style="fill:#ff5555" /><path
     id="path174"
     d="m 65.839047,271.18249 c -2.72316,-0.73882 -3.30387,-1.0363 -3.09344,-1.58468 0.16159,-0.4211 0.52113,-0.46656 2.23672,-0.28284 1.48829,0.15938 1.98445,0.12227 1.82453,-0.13649 -0.12155,-0.19667 -0.036,-0.349 0.1915,-0.34106 0.22613,0.008 0.7083,0.64393 1.07149,1.41342 l 0.66033,1.39907 -0.66033,-0.0207 c -0.36319,-0.0114 -1.36705,-0.21241 -2.2308,-0.44675 z"
     style="fill:#dd55ff" /><path
     id="path188"
     d="m 118.27305,235.905 c -2.56603,-3.53229 -1.89346,-4.62162 2.85346,-4.62162 3.77181,0 7.70872,-3.4857 7.70872,-6.82522 0,-1.16433 -1.24921,-4.68822 -2.77602,-7.83087 -2.75128,-5.66296 -2.75532,-5.78663 -0.45307,-13.87284 3.07215,-10.79035 3.94196,-35.48664 2.05557,-58.36339 C 123.91197,98.917086 110.35862,43.204336 99.379117,28.1319 l -2.28827,-3.141292 8.470253,-4.447002 c 18.8322,-9.887166 48.05842,-17.1112024 69.22663,-17.1112024 28.3907,0 46.69097,10.1444884 56.30751,31.2132524 8.72337,19.11193 9.04578,34.34818 1.35341,63.95815 -2.4705,9.509574 -4.49181,18.900584 -4.49181,20.868904 0,5.57048 -6.47528,6.85145 -34.75693,6.87576 -28.68005,0.0247 -43.06388,-2.46552 -45.09469,-7.80695 -0.79667,-2.09542 -2.19084,-3.11457 -4.26065,-3.11457 -3.62175,0 -9.86016,4.53862 -9.86016,7.17355 0,2.18533 1.51828,2.37889 3.45651,0.44067 1.00426,-1.00426 2.43334,-0.86328 5.08481,0.50163 7.26658,3.74064 29.24936,8.61836 38.84269,8.61875 8.47367,3.3e-4 5.36719,2.0619 -7.81106,5.18369 -10.10519,2.39381 -13.9795,2.68985 -25.73455,1.96638 -10.04702,-0.61836 -13.8384,-0.44704 -13.8384,0.62527 0,0.81234 1.01374,1.74602 2.25276,2.07488 2.00469,0.53207 2.29334,2.835 2.62124,20.91295 0.36156,19.93408 -2.11243,43.93464 -6.44931,62.56583 -2.88745,12.40446 -9.27291,17.10883 -14.13605,10.41445 z M 141.35887,85.508906 c 0.8699,-0.68565 8.83503,-1.55989 17.70028,-1.94275 14.97158,-0.64658 18.87669,-1.56233 14.24374,-3.34016 -1.54059,-0.59118 -1.30302,-1.7427 1.33227,-6.45775 6.53797,-11.69771 8.3831,-31.1445 4.13789,-43.611581 -2.40067,-7.050157 -8.36373,-14.673721 -12.86434,-16.446595 -2.33612,-0.920243 -6.66526,-2.734611 -9.62032,-4.0319294 -11.79657,-5.17889 -25.52031,3.0737604 -33.49811,20.1437814 -3.15947,6.760304 -3.60975,9.249238 -3.60975,19.953054 0,13.80371 2.13145,19.43542 11.67558,30.84915 5.06831,6.06114 7.54743,7.21417 10.50276,4.88478 z m -11.23634,-2.02346 c 0,-0.57555 -1.67431,-2.65053 -3.72068,-4.61108 -4.67952,-4.48327 -6.78621,-2.15774 -2.19996,2.42851 3.19811,3.19811 5.92064,4.20174 5.92064,2.18257 z"
     style="fill:#bcd35f" /></svg>
